M48
;GenerationSoftware,Autodesk,EAGLE,9.5.2*%
;CreationDate,2019-12-17T06:34:52Z*%
FMAT,2
ICI,OFF
METRIC,TZ,000.000
T5C0.800
T4C0.889
T3C1.321
T2C1.400
T1C3.175
%
G90
M71
T1
X32766Y3556
X3556Y68580
X114554Y68580
X85344Y3556
T2
X53240Y55840
X53240Y50840
X40740Y50840
X40740Y55840
T3
X74854Y53340
X64846Y53340
T4
X42740Y35840
X42740Y33300
X45280Y35840
X45280Y33300
X47820Y35840
X47820Y33300
X50360Y35840
X50360Y33300
X52900Y35840
X52900Y33300
X55440Y35840
X55440Y33300
X57980Y35840
X57980Y33300
X60520Y35840
X60520Y33300
X63060Y35840
X63060Y33300
X65600Y35840
X65600Y33300
X68140Y35840
X68140Y33300
X70680Y35840
X70680Y33300
X73220Y35840
X73220Y33300
X75760Y35840
X75760Y33300
X78300Y35840
X78300Y33300
X80840Y35840
X80840Y33300
X37660Y10440
X37660Y7900
X40200Y10440
X40200Y7900
X42740Y10440
X42740Y7900
X45280Y10440
X45280Y7900
X47820Y10440
X47820Y7900
X50360Y10440
X50360Y7900
X52900Y10440
X52900Y7900
X55440Y10440
X55440Y7900
X57980Y10440
X57980Y7900
X60520Y10440
X60520Y7900
X63060Y10440
X63060Y7900
X65600Y10440
X65600Y7900
X68140Y10440
X68140Y7900
X70680Y10440
X70680Y7900
X73220Y10440
X73220Y7900
X75760Y10440
X75760Y7900
X78300Y10440
X78300Y7900
X80840Y10440
X80840Y7900
X58420Y30480
X58420Y27940
X58420Y25400
X58420Y22860
X58420Y20320
X58420Y17780
X58420Y15240
X58420Y12700
X81280Y12700
X81280Y15240
X81280Y17780
X81280Y20320
X81280Y22860
X81280Y25400
X81280Y27940
X81280Y30480
X37660Y35840
X37660Y33300
X40200Y35840
X40200Y33300
T5
X24324Y67866
X22324Y67866
X20325Y67866
X97730Y67866
X95730Y67866
X93730Y67866
M30