G04 EAGLE Gerber RS-274X export*
G75*
%MOMM*%
%FSLAX34Y34*%
%LPD*%
%INBottom Copper*%
%IPPOS*%
%AMOC8*
5,1,8,0,0,1.08239X$1,22.5*%
G01*
%ADD10C,1.960000*%
%ADD11P,2.749271X8X202.500000*%
%ADD12R,1.524000X1.524000*%
%ADD13P,1.649562X8X22.500000*%
%ADD14R,1.676400X1.676400*%
%ADD15C,1.524000*%
%ADD16C,4.445000*%
%ADD17C,1.120000*%
%ADD18C,0.254000*%


D10*
X532400Y558400D03*
X532400Y508400D03*
X407400Y508400D03*
X407400Y558400D03*
D11*
X748538Y533400D03*
X648462Y533400D03*
D12*
X376600Y358400D03*
D13*
X376600Y333000D03*
X402000Y358400D03*
X402000Y333000D03*
X427400Y358400D03*
X427400Y333000D03*
X452800Y358400D03*
X452800Y333000D03*
X478200Y358400D03*
X478200Y333000D03*
X503600Y358400D03*
X503600Y333000D03*
X529000Y358400D03*
X529000Y333000D03*
X554400Y358400D03*
X554400Y333000D03*
X579800Y358400D03*
X579800Y333000D03*
X605200Y358400D03*
X605200Y333000D03*
X630600Y358400D03*
X630600Y333000D03*
X656000Y358400D03*
X656000Y333000D03*
X681400Y358400D03*
X681400Y333000D03*
X706800Y358400D03*
X706800Y333000D03*
X732200Y358400D03*
X732200Y333000D03*
X757600Y358400D03*
X757600Y333000D03*
X783000Y358400D03*
X783000Y333000D03*
X808400Y358400D03*
X808400Y333000D03*
D12*
X376600Y104400D03*
D13*
X376600Y79000D03*
X402000Y104400D03*
X402000Y79000D03*
X427400Y104400D03*
X427400Y79000D03*
X452800Y104400D03*
X452800Y79000D03*
X478200Y104400D03*
X478200Y79000D03*
X503600Y104400D03*
X503600Y79000D03*
X529000Y104400D03*
X529000Y79000D03*
X554400Y104400D03*
X554400Y79000D03*
X579800Y104400D03*
X579800Y79000D03*
X605200Y104400D03*
X605200Y79000D03*
X630600Y104400D03*
X630600Y79000D03*
X656000Y104400D03*
X656000Y79000D03*
X681400Y104400D03*
X681400Y79000D03*
X706800Y104400D03*
X706800Y79000D03*
X732200Y104400D03*
X732200Y79000D03*
X757600Y104400D03*
X757600Y79000D03*
X783000Y104400D03*
X783000Y79000D03*
X808400Y104400D03*
X808400Y79000D03*
D14*
X584200Y304800D03*
D15*
X584200Y279400D03*
X584200Y254000D03*
X584200Y228600D03*
X584200Y203200D03*
X584200Y177800D03*
X584200Y152400D03*
X584200Y127000D03*
X812800Y127000D03*
X812800Y152400D03*
X812800Y177800D03*
X812800Y203200D03*
X812800Y228600D03*
X812800Y254000D03*
X812800Y279400D03*
D12*
X812800Y304800D03*
D16*
X327660Y35560D03*
X35560Y685800D03*
X1145540Y685800D03*
X853440Y35560D03*
D17*
X243245Y673055D02*
X243245Y684255D01*
X223245Y684255D02*
X223245Y673055D01*
X203245Y673055D02*
X203245Y684255D01*
X977305Y684255D02*
X977305Y673055D01*
X957305Y673055D02*
X957305Y684255D01*
X937305Y684255D02*
X937305Y673055D01*
D18*
X529000Y333000D02*
X529000Y207600D01*
X584200Y152400D01*
M02*
