G04 EAGLE Gerber RS-274X export*
G75*
%MOMM*%
%FSLAX34Y34*%
%LPD*%
%INCopper Layer 15*%
%IPPOS*%
%AMOC8*
5,1,8,0,0,1.08239X$1,22.5*%
G01*
%ADD10C,1.960000*%
%ADD11C,1.849119*%
%ADD12C,1.244600*%
%ADD13C,4.191000*%
%ADD14C,1.120000*%

G36*
X885308Y2556D02*
X885308Y2556D01*
X885427Y2563D01*
X885465Y2576D01*
X885506Y2581D01*
X885616Y2624D01*
X885729Y2661D01*
X885764Y2683D01*
X885801Y2698D01*
X885897Y2767D01*
X885998Y2831D01*
X886026Y2861D01*
X886059Y2884D01*
X886135Y2976D01*
X886216Y3063D01*
X886236Y3098D01*
X886261Y3129D01*
X886312Y3237D01*
X886370Y3341D01*
X886380Y3381D01*
X886397Y3417D01*
X886419Y3534D01*
X886449Y3649D01*
X886453Y3709D01*
X886457Y3729D01*
X886455Y3750D01*
X886459Y3810D01*
X886459Y636052D01*
X887948Y637541D01*
X1177290Y637541D01*
X1177408Y637556D01*
X1177527Y637563D01*
X1177565Y637576D01*
X1177606Y637581D01*
X1177716Y637624D01*
X1177829Y637661D01*
X1177864Y637683D01*
X1177901Y637698D01*
X1177997Y637767D01*
X1178098Y637831D01*
X1178126Y637861D01*
X1178159Y637884D01*
X1178235Y637976D01*
X1178316Y638063D01*
X1178336Y638098D01*
X1178361Y638129D01*
X1178412Y638237D01*
X1178470Y638341D01*
X1178480Y638381D01*
X1178497Y638417D01*
X1178519Y638534D01*
X1178549Y638649D01*
X1178553Y638709D01*
X1178557Y638729D01*
X1178555Y638750D01*
X1178559Y638810D01*
X1178559Y717550D01*
X1178544Y717668D01*
X1178537Y717787D01*
X1178524Y717825D01*
X1178519Y717866D01*
X1178476Y717976D01*
X1178439Y718089D01*
X1178417Y718124D01*
X1178402Y718161D01*
X1178333Y718257D01*
X1178269Y718358D01*
X1178239Y718386D01*
X1178216Y718419D01*
X1178124Y718495D01*
X1178037Y718576D01*
X1178002Y718596D01*
X1177971Y718621D01*
X1177863Y718672D01*
X1177759Y718730D01*
X1177719Y718740D01*
X1177683Y718757D01*
X1177566Y718779D01*
X1177451Y718809D01*
X1177391Y718813D01*
X1177371Y718817D01*
X1177350Y718815D01*
X1177290Y718819D01*
X3810Y718819D01*
X3692Y718804D01*
X3573Y718797D01*
X3535Y718784D01*
X3494Y718779D01*
X3384Y718736D01*
X3271Y718699D01*
X3236Y718677D01*
X3199Y718662D01*
X3103Y718593D01*
X3002Y718529D01*
X2974Y718499D01*
X2941Y718476D01*
X2865Y718384D01*
X2784Y718297D01*
X2764Y718262D01*
X2739Y718231D01*
X2688Y718123D01*
X2630Y718019D01*
X2620Y717979D01*
X2603Y717943D01*
X2581Y717826D01*
X2551Y717711D01*
X2547Y717651D01*
X2543Y717631D01*
X2545Y717610D01*
X2541Y717550D01*
X2541Y638810D01*
X2556Y638692D01*
X2563Y638573D01*
X2576Y638535D01*
X2581Y638494D01*
X2624Y638384D01*
X2661Y638271D01*
X2683Y638236D01*
X2698Y638199D01*
X2767Y638103D01*
X2831Y638002D01*
X2861Y637974D01*
X2884Y637941D01*
X2976Y637865D01*
X3063Y637784D01*
X3098Y637764D01*
X3129Y637739D01*
X3237Y637688D01*
X3341Y637630D01*
X3381Y637620D01*
X3417Y637603D01*
X3534Y637581D01*
X3649Y637551D01*
X3709Y637547D01*
X3729Y637543D01*
X3750Y637545D01*
X3810Y637541D01*
X293152Y637541D01*
X294641Y636052D01*
X294641Y3810D01*
X294656Y3692D01*
X294663Y3573D01*
X294676Y3535D01*
X294681Y3494D01*
X294724Y3384D01*
X294761Y3271D01*
X294783Y3236D01*
X294798Y3199D01*
X294867Y3103D01*
X294931Y3002D01*
X294961Y2974D01*
X294984Y2941D01*
X295076Y2865D01*
X295163Y2784D01*
X295198Y2764D01*
X295229Y2739D01*
X295337Y2688D01*
X295441Y2630D01*
X295481Y2620D01*
X295517Y2603D01*
X295634Y2581D01*
X295749Y2551D01*
X295809Y2547D01*
X295829Y2543D01*
X295850Y2545D01*
X295910Y2541D01*
X885190Y2541D01*
X885308Y2556D01*
G37*
%LPC*%
G36*
X1140866Y662304D02*
X1140866Y662304D01*
X1132231Y665881D01*
X1125621Y672491D01*
X1122044Y681126D01*
X1122044Y690474D01*
X1125621Y699109D01*
X1132231Y705719D01*
X1140866Y709296D01*
X1150214Y709296D01*
X1158849Y705719D01*
X1165459Y699109D01*
X1169036Y690474D01*
X1169036Y681126D01*
X1165459Y672491D01*
X1158849Y665881D01*
X1150214Y662304D01*
X1140866Y662304D01*
G37*
%LPD*%
%LPC*%
G36*
X30886Y662304D02*
X30886Y662304D01*
X22251Y665881D01*
X15641Y672491D01*
X12064Y681126D01*
X12064Y690474D01*
X15641Y699109D01*
X22251Y705719D01*
X30886Y709296D01*
X40234Y709296D01*
X48869Y705719D01*
X55479Y699109D01*
X59056Y690474D01*
X59056Y681126D01*
X55479Y672491D01*
X48869Y665881D01*
X40234Y662304D01*
X30886Y662304D01*
G37*
%LPD*%
%LPC*%
G36*
X322986Y12064D02*
X322986Y12064D01*
X314351Y15641D01*
X307741Y22251D01*
X304164Y30886D01*
X304164Y40234D01*
X307741Y48869D01*
X314351Y55479D01*
X322986Y59056D01*
X332334Y59056D01*
X340969Y55479D01*
X347579Y48869D01*
X351156Y40234D01*
X351156Y30886D01*
X347579Y22251D01*
X340969Y15641D01*
X332334Y12064D01*
X322986Y12064D01*
G37*
%LPD*%
%LPC*%
G36*
X848766Y12064D02*
X848766Y12064D01*
X840131Y15641D01*
X833521Y22251D01*
X829944Y30886D01*
X829944Y40234D01*
X833521Y48869D01*
X840131Y55479D01*
X848766Y59056D01*
X858114Y59056D01*
X866749Y55479D01*
X873359Y48869D01*
X876936Y40234D01*
X876936Y30886D01*
X873359Y22251D01*
X866749Y15641D01*
X858114Y12064D01*
X848766Y12064D01*
G37*
%LPD*%
%LPC*%
G36*
X529945Y496059D02*
X529945Y496059D01*
X525410Y497938D01*
X521938Y501410D01*
X520059Y505945D01*
X520059Y510855D01*
X521938Y515390D01*
X525410Y518862D01*
X529945Y520741D01*
X534855Y520741D01*
X539390Y518862D01*
X542862Y515390D01*
X544741Y510855D01*
X544741Y505945D01*
X542862Y501410D01*
X539390Y497938D01*
X534855Y496059D01*
X529945Y496059D01*
G37*
%LPD*%
%LPC*%
G36*
X404945Y496059D02*
X404945Y496059D01*
X400410Y497938D01*
X396938Y501410D01*
X395059Y505945D01*
X395059Y510855D01*
X396938Y515390D01*
X400410Y518862D01*
X404945Y520741D01*
X409855Y520741D01*
X414390Y518862D01*
X417862Y515390D01*
X419741Y510855D01*
X419741Y505945D01*
X417862Y501410D01*
X414390Y497938D01*
X409855Y496059D01*
X404945Y496059D01*
G37*
%LPD*%
%LPC*%
G36*
X529945Y546059D02*
X529945Y546059D01*
X525410Y547938D01*
X521938Y551410D01*
X520059Y555945D01*
X520059Y560855D01*
X521938Y565390D01*
X525410Y568862D01*
X529945Y570741D01*
X534855Y570741D01*
X539390Y568862D01*
X542862Y565390D01*
X544741Y560855D01*
X544741Y555945D01*
X542862Y551410D01*
X539390Y547938D01*
X534855Y546059D01*
X529945Y546059D01*
G37*
%LPD*%
%LPC*%
G36*
X404945Y546059D02*
X404945Y546059D01*
X400410Y547938D01*
X396938Y551410D01*
X395059Y555945D01*
X395059Y560855D01*
X396938Y565390D01*
X400410Y568862D01*
X404945Y570741D01*
X409855Y570741D01*
X414390Y568862D01*
X417862Y565390D01*
X419741Y560855D01*
X419741Y555945D01*
X417862Y551410D01*
X414390Y547938D01*
X409855Y546059D01*
X404945Y546059D01*
G37*
%LPD*%
%LPC*%
G36*
X746194Y521614D02*
X746194Y521614D01*
X741862Y523408D01*
X738546Y526724D01*
X736752Y531056D01*
X736752Y535744D01*
X738546Y540076D01*
X741862Y543392D01*
X746194Y545186D01*
X750882Y545186D01*
X755214Y543392D01*
X758530Y540076D01*
X760324Y535744D01*
X760324Y531056D01*
X758530Y526724D01*
X755214Y523408D01*
X750882Y521614D01*
X746194Y521614D01*
G37*
%LPD*%
%LPC*%
G36*
X646118Y521614D02*
X646118Y521614D01*
X641786Y523408D01*
X638470Y526724D01*
X636676Y531056D01*
X636676Y535744D01*
X638470Y540076D01*
X641786Y543392D01*
X646118Y545186D01*
X650806Y545186D01*
X655138Y543392D01*
X658454Y540076D01*
X660248Y535744D01*
X660248Y531056D01*
X658454Y526724D01*
X655138Y523408D01*
X650806Y521614D01*
X646118Y521614D01*
G37*
%LPD*%
%LPC*%
G36*
X679657Y70236D02*
X679657Y70236D01*
X676436Y71570D01*
X673970Y74036D01*
X672636Y77257D01*
X672636Y80743D01*
X673970Y83964D01*
X676436Y86430D01*
X679657Y87764D01*
X683143Y87764D01*
X686364Y86430D01*
X688830Y83964D01*
X690164Y80743D01*
X690164Y77257D01*
X688830Y74036D01*
X686364Y71570D01*
X683143Y70236D01*
X679657Y70236D01*
G37*
%LPD*%
%LPC*%
G36*
X654257Y70236D02*
X654257Y70236D01*
X651036Y71570D01*
X648570Y74036D01*
X647236Y77257D01*
X647236Y80743D01*
X648570Y83964D01*
X651036Y86430D01*
X654257Y87764D01*
X657743Y87764D01*
X660964Y86430D01*
X663430Y83964D01*
X664764Y80743D01*
X664764Y77257D01*
X663430Y74036D01*
X660964Y71570D01*
X657743Y70236D01*
X654257Y70236D01*
G37*
%LPD*%
%LPC*%
G36*
X628857Y70236D02*
X628857Y70236D01*
X625636Y71570D01*
X623170Y74036D01*
X621836Y77257D01*
X621836Y80743D01*
X623170Y83964D01*
X625636Y86430D01*
X628857Y87764D01*
X632343Y87764D01*
X635564Y86430D01*
X638030Y83964D01*
X639364Y80743D01*
X639364Y77257D01*
X638030Y74036D01*
X635564Y71570D01*
X632343Y70236D01*
X628857Y70236D01*
G37*
%LPD*%
%LPC*%
G36*
X603457Y70236D02*
X603457Y70236D01*
X600236Y71570D01*
X597770Y74036D01*
X596436Y77257D01*
X596436Y80743D01*
X597770Y83964D01*
X600236Y86430D01*
X603457Y87764D01*
X606943Y87764D01*
X610164Y86430D01*
X612630Y83964D01*
X613964Y80743D01*
X613964Y77257D01*
X612630Y74036D01*
X610164Y71570D01*
X606943Y70236D01*
X603457Y70236D01*
G37*
%LPD*%
%LPC*%
G36*
X578057Y70236D02*
X578057Y70236D01*
X574836Y71570D01*
X572370Y74036D01*
X571036Y77257D01*
X571036Y80743D01*
X572370Y83964D01*
X574836Y86430D01*
X578057Y87764D01*
X581543Y87764D01*
X584764Y86430D01*
X587230Y83964D01*
X588564Y80743D01*
X588564Y77257D01*
X587230Y74036D01*
X584764Y71570D01*
X581543Y70236D01*
X578057Y70236D01*
G37*
%LPD*%
%LPC*%
G36*
X552657Y70236D02*
X552657Y70236D01*
X549436Y71570D01*
X546970Y74036D01*
X545636Y77257D01*
X545636Y80743D01*
X546970Y83964D01*
X549436Y86430D01*
X552657Y87764D01*
X556143Y87764D01*
X559364Y86430D01*
X561830Y83964D01*
X563164Y80743D01*
X563164Y77257D01*
X561830Y74036D01*
X559364Y71570D01*
X556143Y70236D01*
X552657Y70236D01*
G37*
%LPD*%
%LPC*%
G36*
X527257Y70236D02*
X527257Y70236D01*
X524036Y71570D01*
X521570Y74036D01*
X520236Y77257D01*
X520236Y80743D01*
X521570Y83964D01*
X524036Y86430D01*
X527257Y87764D01*
X530743Y87764D01*
X533964Y86430D01*
X536430Y83964D01*
X537764Y80743D01*
X537764Y77257D01*
X536430Y74036D01*
X533964Y71570D01*
X530743Y70236D01*
X527257Y70236D01*
G37*
%LPD*%
%LPC*%
G36*
X501857Y70236D02*
X501857Y70236D01*
X498636Y71570D01*
X496170Y74036D01*
X494836Y77257D01*
X494836Y80743D01*
X496170Y83964D01*
X498636Y86430D01*
X501857Y87764D01*
X505343Y87764D01*
X508564Y86430D01*
X511030Y83964D01*
X512364Y80743D01*
X512364Y77257D01*
X511030Y74036D01*
X508564Y71570D01*
X505343Y70236D01*
X501857Y70236D01*
G37*
%LPD*%
%LPC*%
G36*
X476457Y70236D02*
X476457Y70236D01*
X473236Y71570D01*
X470770Y74036D01*
X469436Y77257D01*
X469436Y80743D01*
X470770Y83964D01*
X473236Y86430D01*
X476457Y87764D01*
X479943Y87764D01*
X483164Y86430D01*
X485630Y83964D01*
X486964Y80743D01*
X486964Y77257D01*
X485630Y74036D01*
X483164Y71570D01*
X479943Y70236D01*
X476457Y70236D01*
G37*
%LPD*%
%LPC*%
G36*
X451057Y70236D02*
X451057Y70236D01*
X447836Y71570D01*
X445370Y74036D01*
X444036Y77257D01*
X444036Y80743D01*
X445370Y83964D01*
X447836Y86430D01*
X451057Y87764D01*
X454543Y87764D01*
X457764Y86430D01*
X460230Y83964D01*
X461564Y80743D01*
X461564Y77257D01*
X460230Y74036D01*
X457764Y71570D01*
X454543Y70236D01*
X451057Y70236D01*
G37*
%LPD*%
%LPC*%
G36*
X425657Y70236D02*
X425657Y70236D01*
X422436Y71570D01*
X419970Y74036D01*
X418636Y77257D01*
X418636Y80743D01*
X419970Y83964D01*
X422436Y86430D01*
X425657Y87764D01*
X429143Y87764D01*
X432364Y86430D01*
X434830Y83964D01*
X436164Y80743D01*
X436164Y77257D01*
X434830Y74036D01*
X432364Y71570D01*
X429143Y70236D01*
X425657Y70236D01*
G37*
%LPD*%
%LPC*%
G36*
X400257Y70236D02*
X400257Y70236D01*
X397036Y71570D01*
X394570Y74036D01*
X393236Y77257D01*
X393236Y80743D01*
X394570Y83964D01*
X397036Y86430D01*
X400257Y87764D01*
X403743Y87764D01*
X406964Y86430D01*
X409430Y83964D01*
X410764Y80743D01*
X410764Y77257D01*
X409430Y74036D01*
X406964Y71570D01*
X403743Y70236D01*
X400257Y70236D01*
G37*
%LPD*%
%LPC*%
G36*
X400257Y349636D02*
X400257Y349636D01*
X397036Y350970D01*
X394570Y353436D01*
X393236Y356657D01*
X393236Y360143D01*
X394570Y363364D01*
X397036Y365830D01*
X400257Y367164D01*
X403743Y367164D01*
X406964Y365830D01*
X409430Y363364D01*
X410764Y360143D01*
X410764Y356657D01*
X409430Y353436D01*
X406964Y350970D01*
X403743Y349636D01*
X400257Y349636D01*
G37*
%LPD*%
%LPC*%
G36*
X374857Y349636D02*
X374857Y349636D01*
X371636Y350970D01*
X369170Y353436D01*
X367836Y356657D01*
X367836Y360143D01*
X369170Y363364D01*
X371636Y365830D01*
X374857Y367164D01*
X378343Y367164D01*
X381564Y365830D01*
X384030Y363364D01*
X385364Y360143D01*
X385364Y356657D01*
X384030Y353436D01*
X381564Y350970D01*
X378343Y349636D01*
X374857Y349636D01*
G37*
%LPD*%
%LPC*%
G36*
X806657Y349636D02*
X806657Y349636D01*
X803436Y350970D01*
X800970Y353436D01*
X799636Y356657D01*
X799636Y360143D01*
X800970Y363364D01*
X803436Y365830D01*
X806657Y367164D01*
X810143Y367164D01*
X813364Y365830D01*
X815830Y363364D01*
X817164Y360143D01*
X817164Y356657D01*
X815830Y353436D01*
X813364Y350970D01*
X810143Y349636D01*
X806657Y349636D01*
G37*
%LPD*%
%LPC*%
G36*
X781257Y349636D02*
X781257Y349636D01*
X778036Y350970D01*
X775570Y353436D01*
X774236Y356657D01*
X774236Y360143D01*
X775570Y363364D01*
X778036Y365830D01*
X781257Y367164D01*
X784743Y367164D01*
X787964Y365830D01*
X790430Y363364D01*
X791764Y360143D01*
X791764Y356657D01*
X790430Y353436D01*
X787964Y350970D01*
X784743Y349636D01*
X781257Y349636D01*
G37*
%LPD*%
%LPC*%
G36*
X755857Y349636D02*
X755857Y349636D01*
X752636Y350970D01*
X750170Y353436D01*
X748836Y356657D01*
X748836Y360143D01*
X750170Y363364D01*
X752636Y365830D01*
X755857Y367164D01*
X759343Y367164D01*
X762564Y365830D01*
X765030Y363364D01*
X766364Y360143D01*
X766364Y356657D01*
X765030Y353436D01*
X762564Y350970D01*
X759343Y349636D01*
X755857Y349636D01*
G37*
%LPD*%
%LPC*%
G36*
X730457Y349636D02*
X730457Y349636D01*
X727236Y350970D01*
X724770Y353436D01*
X723436Y356657D01*
X723436Y360143D01*
X724770Y363364D01*
X727236Y365830D01*
X730457Y367164D01*
X733943Y367164D01*
X737164Y365830D01*
X739630Y363364D01*
X740964Y360143D01*
X740964Y356657D01*
X739630Y353436D01*
X737164Y350970D01*
X733943Y349636D01*
X730457Y349636D01*
G37*
%LPD*%
%LPC*%
G36*
X705057Y349636D02*
X705057Y349636D01*
X701836Y350970D01*
X699370Y353436D01*
X698036Y356657D01*
X698036Y360143D01*
X699370Y363364D01*
X701836Y365830D01*
X705057Y367164D01*
X708543Y367164D01*
X711764Y365830D01*
X714230Y363364D01*
X715564Y360143D01*
X715564Y356657D01*
X714230Y353436D01*
X711764Y350970D01*
X708543Y349636D01*
X705057Y349636D01*
G37*
%LPD*%
%LPC*%
G36*
X679657Y349636D02*
X679657Y349636D01*
X676436Y350970D01*
X673970Y353436D01*
X672636Y356657D01*
X672636Y360143D01*
X673970Y363364D01*
X676436Y365830D01*
X679657Y367164D01*
X683143Y367164D01*
X686364Y365830D01*
X688830Y363364D01*
X690164Y360143D01*
X690164Y356657D01*
X688830Y353436D01*
X686364Y350970D01*
X683143Y349636D01*
X679657Y349636D01*
G37*
%LPD*%
%LPC*%
G36*
X654257Y349636D02*
X654257Y349636D01*
X651036Y350970D01*
X648570Y353436D01*
X647236Y356657D01*
X647236Y360143D01*
X648570Y363364D01*
X651036Y365830D01*
X654257Y367164D01*
X657743Y367164D01*
X660964Y365830D01*
X663430Y363364D01*
X664764Y360143D01*
X664764Y356657D01*
X663430Y353436D01*
X660964Y350970D01*
X657743Y349636D01*
X654257Y349636D01*
G37*
%LPD*%
%LPC*%
G36*
X628857Y349636D02*
X628857Y349636D01*
X625636Y350970D01*
X623170Y353436D01*
X621836Y356657D01*
X621836Y360143D01*
X623170Y363364D01*
X625636Y365830D01*
X628857Y367164D01*
X632343Y367164D01*
X635564Y365830D01*
X638030Y363364D01*
X639364Y360143D01*
X639364Y356657D01*
X638030Y353436D01*
X635564Y350970D01*
X632343Y349636D01*
X628857Y349636D01*
G37*
%LPD*%
%LPC*%
G36*
X603457Y349636D02*
X603457Y349636D01*
X600236Y350970D01*
X597770Y353436D01*
X596436Y356657D01*
X596436Y360143D01*
X597770Y363364D01*
X600236Y365830D01*
X603457Y367164D01*
X606943Y367164D01*
X610164Y365830D01*
X612630Y363364D01*
X613964Y360143D01*
X613964Y356657D01*
X612630Y353436D01*
X610164Y350970D01*
X606943Y349636D01*
X603457Y349636D01*
G37*
%LPD*%
%LPC*%
G36*
X578057Y349636D02*
X578057Y349636D01*
X574836Y350970D01*
X572370Y353436D01*
X571036Y356657D01*
X571036Y360143D01*
X572370Y363364D01*
X574836Y365830D01*
X578057Y367164D01*
X581543Y367164D01*
X584764Y365830D01*
X587230Y363364D01*
X588564Y360143D01*
X588564Y356657D01*
X587230Y353436D01*
X584764Y350970D01*
X581543Y349636D01*
X578057Y349636D01*
G37*
%LPD*%
%LPC*%
G36*
X552657Y349636D02*
X552657Y349636D01*
X549436Y350970D01*
X546970Y353436D01*
X545636Y356657D01*
X545636Y360143D01*
X546970Y363364D01*
X549436Y365830D01*
X552657Y367164D01*
X556143Y367164D01*
X559364Y365830D01*
X561830Y363364D01*
X563164Y360143D01*
X563164Y356657D01*
X561830Y353436D01*
X559364Y350970D01*
X556143Y349636D01*
X552657Y349636D01*
G37*
%LPD*%
%LPC*%
G36*
X527257Y349636D02*
X527257Y349636D01*
X524036Y350970D01*
X521570Y353436D01*
X520236Y356657D01*
X520236Y360143D01*
X521570Y363364D01*
X524036Y365830D01*
X527257Y367164D01*
X530743Y367164D01*
X533964Y365830D01*
X536430Y363364D01*
X537764Y360143D01*
X537764Y356657D01*
X536430Y353436D01*
X533964Y350970D01*
X530743Y349636D01*
X527257Y349636D01*
G37*
%LPD*%
%LPC*%
G36*
X501857Y349636D02*
X501857Y349636D01*
X498636Y350970D01*
X496170Y353436D01*
X494836Y356657D01*
X494836Y360143D01*
X496170Y363364D01*
X498636Y365830D01*
X501857Y367164D01*
X505343Y367164D01*
X508564Y365830D01*
X511030Y363364D01*
X512364Y360143D01*
X512364Y356657D01*
X511030Y353436D01*
X508564Y350970D01*
X505343Y349636D01*
X501857Y349636D01*
G37*
%LPD*%
%LPC*%
G36*
X476457Y349636D02*
X476457Y349636D01*
X473236Y350970D01*
X470770Y353436D01*
X469436Y356657D01*
X469436Y360143D01*
X470770Y363364D01*
X473236Y365830D01*
X476457Y367164D01*
X479943Y367164D01*
X483164Y365830D01*
X485630Y363364D01*
X486964Y360143D01*
X486964Y356657D01*
X485630Y353436D01*
X483164Y350970D01*
X479943Y349636D01*
X476457Y349636D01*
G37*
%LPD*%
%LPC*%
G36*
X451057Y349636D02*
X451057Y349636D01*
X447836Y350970D01*
X445370Y353436D01*
X444036Y356657D01*
X444036Y360143D01*
X445370Y363364D01*
X447836Y365830D01*
X451057Y367164D01*
X454543Y367164D01*
X457764Y365830D01*
X460230Y363364D01*
X461564Y360143D01*
X461564Y356657D01*
X460230Y353436D01*
X457764Y350970D01*
X454543Y349636D01*
X451057Y349636D01*
G37*
%LPD*%
%LPC*%
G36*
X425657Y349636D02*
X425657Y349636D01*
X422436Y350970D01*
X419970Y353436D01*
X418636Y356657D01*
X418636Y360143D01*
X419970Y363364D01*
X422436Y365830D01*
X425657Y367164D01*
X429143Y367164D01*
X432364Y365830D01*
X434830Y363364D01*
X436164Y360143D01*
X436164Y356657D01*
X434830Y353436D01*
X432364Y350970D01*
X429143Y349636D01*
X425657Y349636D01*
G37*
%LPD*%
%LPC*%
G36*
X806657Y324236D02*
X806657Y324236D01*
X803436Y325570D01*
X800970Y328036D01*
X799636Y331257D01*
X799636Y334743D01*
X800970Y337964D01*
X803436Y340430D01*
X806657Y341764D01*
X810143Y341764D01*
X813364Y340430D01*
X815830Y337964D01*
X817164Y334743D01*
X817164Y331257D01*
X815830Y328036D01*
X813364Y325570D01*
X810143Y324236D01*
X806657Y324236D01*
G37*
%LPD*%
%LPC*%
G36*
X781257Y324236D02*
X781257Y324236D01*
X778036Y325570D01*
X775570Y328036D01*
X774236Y331257D01*
X774236Y334743D01*
X775570Y337964D01*
X778036Y340430D01*
X781257Y341764D01*
X784743Y341764D01*
X787964Y340430D01*
X790430Y337964D01*
X791764Y334743D01*
X791764Y331257D01*
X790430Y328036D01*
X787964Y325570D01*
X784743Y324236D01*
X781257Y324236D01*
G37*
%LPD*%
%LPC*%
G36*
X755857Y324236D02*
X755857Y324236D01*
X752636Y325570D01*
X750170Y328036D01*
X748836Y331257D01*
X748836Y334743D01*
X750170Y337964D01*
X752636Y340430D01*
X755857Y341764D01*
X759343Y341764D01*
X762564Y340430D01*
X765030Y337964D01*
X766364Y334743D01*
X766364Y331257D01*
X765030Y328036D01*
X762564Y325570D01*
X759343Y324236D01*
X755857Y324236D01*
G37*
%LPD*%
%LPC*%
G36*
X730457Y324236D02*
X730457Y324236D01*
X727236Y325570D01*
X724770Y328036D01*
X723436Y331257D01*
X723436Y334743D01*
X724770Y337964D01*
X727236Y340430D01*
X730457Y341764D01*
X733943Y341764D01*
X737164Y340430D01*
X739630Y337964D01*
X740964Y334743D01*
X740964Y331257D01*
X739630Y328036D01*
X737164Y325570D01*
X733943Y324236D01*
X730457Y324236D01*
G37*
%LPD*%
%LPC*%
G36*
X705057Y324236D02*
X705057Y324236D01*
X701836Y325570D01*
X699370Y328036D01*
X698036Y331257D01*
X698036Y334743D01*
X699370Y337964D01*
X701836Y340430D01*
X705057Y341764D01*
X708543Y341764D01*
X711764Y340430D01*
X714230Y337964D01*
X715564Y334743D01*
X715564Y331257D01*
X714230Y328036D01*
X711764Y325570D01*
X708543Y324236D01*
X705057Y324236D01*
G37*
%LPD*%
%LPC*%
G36*
X679657Y324236D02*
X679657Y324236D01*
X676436Y325570D01*
X673970Y328036D01*
X672636Y331257D01*
X672636Y334743D01*
X673970Y337964D01*
X676436Y340430D01*
X679657Y341764D01*
X683143Y341764D01*
X686364Y340430D01*
X688830Y337964D01*
X690164Y334743D01*
X690164Y331257D01*
X688830Y328036D01*
X686364Y325570D01*
X683143Y324236D01*
X679657Y324236D01*
G37*
%LPD*%
%LPC*%
G36*
X628857Y324236D02*
X628857Y324236D01*
X625636Y325570D01*
X623170Y328036D01*
X621836Y331257D01*
X621836Y334743D01*
X623170Y337964D01*
X625636Y340430D01*
X628857Y341764D01*
X632343Y341764D01*
X635564Y340430D01*
X638030Y337964D01*
X639364Y334743D01*
X639364Y331257D01*
X638030Y328036D01*
X635564Y325570D01*
X632343Y324236D01*
X628857Y324236D01*
G37*
%LPD*%
%LPC*%
G36*
X603457Y324236D02*
X603457Y324236D01*
X600236Y325570D01*
X597770Y328036D01*
X596436Y331257D01*
X596436Y334743D01*
X597770Y337964D01*
X600236Y340430D01*
X603457Y341764D01*
X606943Y341764D01*
X610164Y340430D01*
X612630Y337964D01*
X613964Y334743D01*
X613964Y331257D01*
X612630Y328036D01*
X610164Y325570D01*
X606943Y324236D01*
X603457Y324236D01*
G37*
%LPD*%
%LPC*%
G36*
X578057Y324236D02*
X578057Y324236D01*
X574836Y325570D01*
X572370Y328036D01*
X571036Y331257D01*
X571036Y334743D01*
X572370Y337964D01*
X574836Y340430D01*
X578057Y341764D01*
X581543Y341764D01*
X584764Y340430D01*
X587230Y337964D01*
X588564Y334743D01*
X588564Y331257D01*
X587230Y328036D01*
X584764Y325570D01*
X581543Y324236D01*
X578057Y324236D01*
G37*
%LPD*%
%LPC*%
G36*
X552657Y324236D02*
X552657Y324236D01*
X549436Y325570D01*
X546970Y328036D01*
X545636Y331257D01*
X545636Y334743D01*
X546970Y337964D01*
X549436Y340430D01*
X552657Y341764D01*
X556143Y341764D01*
X559364Y340430D01*
X561830Y337964D01*
X563164Y334743D01*
X563164Y331257D01*
X561830Y328036D01*
X559364Y325570D01*
X556143Y324236D01*
X552657Y324236D01*
G37*
%LPD*%
%LPC*%
G36*
X527257Y324236D02*
X527257Y324236D01*
X524036Y325570D01*
X521570Y328036D01*
X520236Y331257D01*
X520236Y334743D01*
X521570Y337964D01*
X524036Y340430D01*
X527257Y341764D01*
X530743Y341764D01*
X533964Y340430D01*
X536430Y337964D01*
X537764Y334743D01*
X537764Y331257D01*
X536430Y328036D01*
X533964Y325570D01*
X530743Y324236D01*
X527257Y324236D01*
G37*
%LPD*%
%LPC*%
G36*
X501857Y324236D02*
X501857Y324236D01*
X498636Y325570D01*
X496170Y328036D01*
X494836Y331257D01*
X494836Y334743D01*
X496170Y337964D01*
X498636Y340430D01*
X501857Y341764D01*
X505343Y341764D01*
X508564Y340430D01*
X511030Y337964D01*
X512364Y334743D01*
X512364Y331257D01*
X511030Y328036D01*
X508564Y325570D01*
X505343Y324236D01*
X501857Y324236D01*
G37*
%LPD*%
%LPC*%
G36*
X476457Y324236D02*
X476457Y324236D01*
X473236Y325570D01*
X470770Y328036D01*
X469436Y331257D01*
X469436Y334743D01*
X470770Y337964D01*
X473236Y340430D01*
X476457Y341764D01*
X479943Y341764D01*
X483164Y340430D01*
X485630Y337964D01*
X486964Y334743D01*
X486964Y331257D01*
X485630Y328036D01*
X483164Y325570D01*
X479943Y324236D01*
X476457Y324236D01*
G37*
%LPD*%
%LPC*%
G36*
X451057Y324236D02*
X451057Y324236D01*
X447836Y325570D01*
X445370Y328036D01*
X444036Y331257D01*
X444036Y334743D01*
X445370Y337964D01*
X447836Y340430D01*
X451057Y341764D01*
X454543Y341764D01*
X457764Y340430D01*
X460230Y337964D01*
X461564Y334743D01*
X461564Y331257D01*
X460230Y328036D01*
X457764Y325570D01*
X454543Y324236D01*
X451057Y324236D01*
G37*
%LPD*%
%LPC*%
G36*
X425657Y324236D02*
X425657Y324236D01*
X422436Y325570D01*
X419970Y328036D01*
X418636Y331257D01*
X418636Y334743D01*
X419970Y337964D01*
X422436Y340430D01*
X425657Y341764D01*
X429143Y341764D01*
X432364Y340430D01*
X434830Y337964D01*
X436164Y334743D01*
X436164Y331257D01*
X434830Y328036D01*
X432364Y325570D01*
X429143Y324236D01*
X425657Y324236D01*
G37*
%LPD*%
%LPC*%
G36*
X400257Y324236D02*
X400257Y324236D01*
X397036Y325570D01*
X394570Y328036D01*
X393236Y331257D01*
X393236Y334743D01*
X394570Y337964D01*
X397036Y340430D01*
X400257Y341764D01*
X403743Y341764D01*
X406964Y340430D01*
X409430Y337964D01*
X410764Y334743D01*
X410764Y331257D01*
X409430Y328036D01*
X406964Y325570D01*
X403743Y324236D01*
X400257Y324236D01*
G37*
%LPD*%
%LPC*%
G36*
X374857Y324236D02*
X374857Y324236D01*
X371636Y325570D01*
X369170Y328036D01*
X367836Y331257D01*
X367836Y334743D01*
X369170Y337964D01*
X371636Y340430D01*
X374857Y341764D01*
X378343Y341764D01*
X381564Y340430D01*
X384030Y337964D01*
X385364Y334743D01*
X385364Y331257D01*
X384030Y328036D01*
X381564Y325570D01*
X378343Y324236D01*
X374857Y324236D01*
G37*
%LPD*%
%LPC*%
G36*
X374857Y70236D02*
X374857Y70236D01*
X371636Y71570D01*
X369170Y74036D01*
X367836Y77257D01*
X367836Y80743D01*
X369170Y83964D01*
X371636Y86430D01*
X374857Y87764D01*
X378343Y87764D01*
X381564Y86430D01*
X384030Y83964D01*
X385364Y80743D01*
X385364Y77257D01*
X384030Y74036D01*
X381564Y71570D01*
X378343Y70236D01*
X374857Y70236D01*
G37*
%LPD*%
%LPC*%
G36*
X705057Y70236D02*
X705057Y70236D01*
X701836Y71570D01*
X699370Y74036D01*
X698036Y77257D01*
X698036Y80743D01*
X699370Y83964D01*
X701836Y86430D01*
X705057Y87764D01*
X708543Y87764D01*
X711764Y86430D01*
X714230Y83964D01*
X715564Y80743D01*
X715564Y77257D01*
X714230Y74036D01*
X711764Y71570D01*
X708543Y70236D01*
X705057Y70236D01*
G37*
%LPD*%
%LPC*%
G36*
X811057Y296036D02*
X811057Y296036D01*
X807836Y297370D01*
X805370Y299836D01*
X804036Y303057D01*
X804036Y306543D01*
X805370Y309764D01*
X807836Y312230D01*
X811057Y313564D01*
X814543Y313564D01*
X817764Y312230D01*
X820230Y309764D01*
X821564Y306543D01*
X821564Y303057D01*
X820230Y299836D01*
X817764Y297370D01*
X814543Y296036D01*
X811057Y296036D01*
G37*
%LPD*%
%LPC*%
G36*
X582457Y296036D02*
X582457Y296036D01*
X579236Y297370D01*
X576770Y299836D01*
X575436Y303057D01*
X575436Y306543D01*
X576770Y309764D01*
X579236Y312230D01*
X582457Y313564D01*
X585943Y313564D01*
X589164Y312230D01*
X591630Y309764D01*
X592964Y306543D01*
X592964Y303057D01*
X591630Y299836D01*
X589164Y297370D01*
X585943Y296036D01*
X582457Y296036D01*
G37*
%LPD*%
%LPC*%
G36*
X811057Y270636D02*
X811057Y270636D01*
X807836Y271970D01*
X805370Y274436D01*
X804036Y277657D01*
X804036Y281143D01*
X805370Y284364D01*
X807836Y286830D01*
X811057Y288164D01*
X814543Y288164D01*
X817764Y286830D01*
X820230Y284364D01*
X821564Y281143D01*
X821564Y277657D01*
X820230Y274436D01*
X817764Y271970D01*
X814543Y270636D01*
X811057Y270636D01*
G37*
%LPD*%
%LPC*%
G36*
X582457Y270636D02*
X582457Y270636D01*
X579236Y271970D01*
X576770Y274436D01*
X575436Y277657D01*
X575436Y281143D01*
X576770Y284364D01*
X579236Y286830D01*
X582457Y288164D01*
X585943Y288164D01*
X589164Y286830D01*
X591630Y284364D01*
X592964Y281143D01*
X592964Y277657D01*
X591630Y274436D01*
X589164Y271970D01*
X585943Y270636D01*
X582457Y270636D01*
G37*
%LPD*%
%LPC*%
G36*
X811057Y245236D02*
X811057Y245236D01*
X807836Y246570D01*
X805370Y249036D01*
X804036Y252257D01*
X804036Y255743D01*
X805370Y258964D01*
X807836Y261430D01*
X811057Y262764D01*
X814543Y262764D01*
X817764Y261430D01*
X820230Y258964D01*
X821564Y255743D01*
X821564Y252257D01*
X820230Y249036D01*
X817764Y246570D01*
X814543Y245236D01*
X811057Y245236D01*
G37*
%LPD*%
%LPC*%
G36*
X582457Y245236D02*
X582457Y245236D01*
X579236Y246570D01*
X576770Y249036D01*
X575436Y252257D01*
X575436Y255743D01*
X576770Y258964D01*
X579236Y261430D01*
X582457Y262764D01*
X585943Y262764D01*
X589164Y261430D01*
X591630Y258964D01*
X592964Y255743D01*
X592964Y252257D01*
X591630Y249036D01*
X589164Y246570D01*
X585943Y245236D01*
X582457Y245236D01*
G37*
%LPD*%
%LPC*%
G36*
X811057Y219836D02*
X811057Y219836D01*
X807836Y221170D01*
X805370Y223636D01*
X804036Y226857D01*
X804036Y230343D01*
X805370Y233564D01*
X807836Y236030D01*
X811057Y237364D01*
X814543Y237364D01*
X817764Y236030D01*
X820230Y233564D01*
X821564Y230343D01*
X821564Y226857D01*
X820230Y223636D01*
X817764Y221170D01*
X814543Y219836D01*
X811057Y219836D01*
G37*
%LPD*%
%LPC*%
G36*
X582457Y219836D02*
X582457Y219836D01*
X579236Y221170D01*
X576770Y223636D01*
X575436Y226857D01*
X575436Y230343D01*
X576770Y233564D01*
X579236Y236030D01*
X582457Y237364D01*
X585943Y237364D01*
X589164Y236030D01*
X591630Y233564D01*
X592964Y230343D01*
X592964Y226857D01*
X591630Y223636D01*
X589164Y221170D01*
X585943Y219836D01*
X582457Y219836D01*
G37*
%LPD*%
%LPC*%
G36*
X811057Y194436D02*
X811057Y194436D01*
X807836Y195770D01*
X805370Y198236D01*
X804036Y201457D01*
X804036Y204943D01*
X805370Y208164D01*
X807836Y210630D01*
X811057Y211964D01*
X814543Y211964D01*
X817764Y210630D01*
X820230Y208164D01*
X821564Y204943D01*
X821564Y201457D01*
X820230Y198236D01*
X817764Y195770D01*
X814543Y194436D01*
X811057Y194436D01*
G37*
%LPD*%
%LPC*%
G36*
X582457Y194436D02*
X582457Y194436D01*
X579236Y195770D01*
X576770Y198236D01*
X575436Y201457D01*
X575436Y204943D01*
X576770Y208164D01*
X579236Y210630D01*
X582457Y211964D01*
X585943Y211964D01*
X589164Y210630D01*
X591630Y208164D01*
X592964Y204943D01*
X592964Y201457D01*
X591630Y198236D01*
X589164Y195770D01*
X585943Y194436D01*
X582457Y194436D01*
G37*
%LPD*%
%LPC*%
G36*
X811057Y169036D02*
X811057Y169036D01*
X807836Y170370D01*
X805370Y172836D01*
X804036Y176057D01*
X804036Y179543D01*
X805370Y182764D01*
X807836Y185230D01*
X811057Y186564D01*
X814543Y186564D01*
X817764Y185230D01*
X820230Y182764D01*
X821564Y179543D01*
X821564Y176057D01*
X820230Y172836D01*
X817764Y170370D01*
X814543Y169036D01*
X811057Y169036D01*
G37*
%LPD*%
%LPC*%
G36*
X582457Y169036D02*
X582457Y169036D01*
X579236Y170370D01*
X576770Y172836D01*
X575436Y176057D01*
X575436Y179543D01*
X576770Y182764D01*
X579236Y185230D01*
X582457Y186564D01*
X585943Y186564D01*
X589164Y185230D01*
X591630Y182764D01*
X592964Y179543D01*
X592964Y176057D01*
X591630Y172836D01*
X589164Y170370D01*
X585943Y169036D01*
X582457Y169036D01*
G37*
%LPD*%
%LPC*%
G36*
X582457Y143636D02*
X582457Y143636D01*
X579236Y144970D01*
X576770Y147436D01*
X575436Y150657D01*
X575436Y154143D01*
X576770Y157364D01*
X579236Y159830D01*
X582457Y161164D01*
X585943Y161164D01*
X589164Y159830D01*
X591630Y157364D01*
X592964Y154143D01*
X592964Y150657D01*
X591630Y147436D01*
X589164Y144970D01*
X585943Y143636D01*
X582457Y143636D01*
G37*
%LPD*%
%LPC*%
G36*
X811057Y118236D02*
X811057Y118236D01*
X807836Y119570D01*
X805370Y122036D01*
X804036Y125257D01*
X804036Y128743D01*
X805370Y131964D01*
X807836Y134430D01*
X811057Y135764D01*
X814543Y135764D01*
X817764Y134430D01*
X820230Y131964D01*
X821564Y128743D01*
X821564Y125257D01*
X820230Y122036D01*
X817764Y119570D01*
X814543Y118236D01*
X811057Y118236D01*
G37*
%LPD*%
%LPC*%
G36*
X582457Y118236D02*
X582457Y118236D01*
X579236Y119570D01*
X576770Y122036D01*
X575436Y125257D01*
X575436Y128743D01*
X576770Y131964D01*
X579236Y134430D01*
X582457Y135764D01*
X585943Y135764D01*
X589164Y134430D01*
X591630Y131964D01*
X592964Y128743D01*
X592964Y125257D01*
X591630Y122036D01*
X589164Y119570D01*
X585943Y118236D01*
X582457Y118236D01*
G37*
%LPD*%
%LPC*%
G36*
X400257Y95636D02*
X400257Y95636D01*
X397036Y96970D01*
X394570Y99436D01*
X393236Y102657D01*
X393236Y106143D01*
X394570Y109364D01*
X397036Y111830D01*
X400257Y113164D01*
X403743Y113164D01*
X406964Y111830D01*
X409430Y109364D01*
X410764Y106143D01*
X410764Y102657D01*
X409430Y99436D01*
X406964Y96970D01*
X403743Y95636D01*
X400257Y95636D01*
G37*
%LPD*%
%LPC*%
G36*
X374857Y95636D02*
X374857Y95636D01*
X371636Y96970D01*
X369170Y99436D01*
X367836Y102657D01*
X367836Y106143D01*
X369170Y109364D01*
X371636Y111830D01*
X374857Y113164D01*
X378343Y113164D01*
X381564Y111830D01*
X384030Y109364D01*
X385364Y106143D01*
X385364Y102657D01*
X384030Y99436D01*
X381564Y96970D01*
X378343Y95636D01*
X374857Y95636D01*
G37*
%LPD*%
%LPC*%
G36*
X806657Y95636D02*
X806657Y95636D01*
X803436Y96970D01*
X800970Y99436D01*
X799636Y102657D01*
X799636Y106143D01*
X800970Y109364D01*
X803436Y111830D01*
X806657Y113164D01*
X810143Y113164D01*
X813364Y111830D01*
X815830Y109364D01*
X817164Y106143D01*
X817164Y102657D01*
X815830Y99436D01*
X813364Y96970D01*
X810143Y95636D01*
X806657Y95636D01*
G37*
%LPD*%
%LPC*%
G36*
X781257Y95636D02*
X781257Y95636D01*
X778036Y96970D01*
X775570Y99436D01*
X774236Y102657D01*
X774236Y106143D01*
X775570Y109364D01*
X778036Y111830D01*
X781257Y113164D01*
X784743Y113164D01*
X787964Y111830D01*
X790430Y109364D01*
X791764Y106143D01*
X791764Y102657D01*
X790430Y99436D01*
X787964Y96970D01*
X784743Y95636D01*
X781257Y95636D01*
G37*
%LPD*%
%LPC*%
G36*
X755857Y95636D02*
X755857Y95636D01*
X752636Y96970D01*
X750170Y99436D01*
X748836Y102657D01*
X748836Y106143D01*
X750170Y109364D01*
X752636Y111830D01*
X755857Y113164D01*
X759343Y113164D01*
X762564Y111830D01*
X765030Y109364D01*
X766364Y106143D01*
X766364Y102657D01*
X765030Y99436D01*
X762564Y96970D01*
X759343Y95636D01*
X755857Y95636D01*
G37*
%LPD*%
%LPC*%
G36*
X730457Y95636D02*
X730457Y95636D01*
X727236Y96970D01*
X724770Y99436D01*
X723436Y102657D01*
X723436Y106143D01*
X724770Y109364D01*
X727236Y111830D01*
X730457Y113164D01*
X733943Y113164D01*
X737164Y111830D01*
X739630Y109364D01*
X740964Y106143D01*
X740964Y102657D01*
X739630Y99436D01*
X737164Y96970D01*
X733943Y95636D01*
X730457Y95636D01*
G37*
%LPD*%
%LPC*%
G36*
X705057Y95636D02*
X705057Y95636D01*
X701836Y96970D01*
X699370Y99436D01*
X698036Y102657D01*
X698036Y106143D01*
X699370Y109364D01*
X701836Y111830D01*
X705057Y113164D01*
X708543Y113164D01*
X711764Y111830D01*
X714230Y109364D01*
X715564Y106143D01*
X715564Y102657D01*
X714230Y99436D01*
X711764Y96970D01*
X708543Y95636D01*
X705057Y95636D01*
G37*
%LPD*%
%LPC*%
G36*
X679657Y95636D02*
X679657Y95636D01*
X676436Y96970D01*
X673970Y99436D01*
X672636Y102657D01*
X672636Y106143D01*
X673970Y109364D01*
X676436Y111830D01*
X679657Y113164D01*
X683143Y113164D01*
X686364Y111830D01*
X688830Y109364D01*
X690164Y106143D01*
X690164Y102657D01*
X688830Y99436D01*
X686364Y96970D01*
X683143Y95636D01*
X679657Y95636D01*
G37*
%LPD*%
%LPC*%
G36*
X654257Y95636D02*
X654257Y95636D01*
X651036Y96970D01*
X648570Y99436D01*
X647236Y102657D01*
X647236Y106143D01*
X648570Y109364D01*
X651036Y111830D01*
X654257Y113164D01*
X657743Y113164D01*
X660964Y111830D01*
X663430Y109364D01*
X664764Y106143D01*
X664764Y102657D01*
X663430Y99436D01*
X660964Y96970D01*
X657743Y95636D01*
X654257Y95636D01*
G37*
%LPD*%
%LPC*%
G36*
X628857Y95636D02*
X628857Y95636D01*
X625636Y96970D01*
X623170Y99436D01*
X621836Y102657D01*
X621836Y106143D01*
X623170Y109364D01*
X625636Y111830D01*
X628857Y113164D01*
X632343Y113164D01*
X635564Y111830D01*
X638030Y109364D01*
X639364Y106143D01*
X639364Y102657D01*
X638030Y99436D01*
X635564Y96970D01*
X632343Y95636D01*
X628857Y95636D01*
G37*
%LPD*%
%LPC*%
G36*
X578057Y95636D02*
X578057Y95636D01*
X574836Y96970D01*
X572370Y99436D01*
X571036Y102657D01*
X571036Y106143D01*
X572370Y109364D01*
X574836Y111830D01*
X578057Y113164D01*
X581543Y113164D01*
X584764Y111830D01*
X587230Y109364D01*
X588564Y106143D01*
X588564Y102657D01*
X587230Y99436D01*
X584764Y96970D01*
X581543Y95636D01*
X578057Y95636D01*
G37*
%LPD*%
%LPC*%
G36*
X552657Y95636D02*
X552657Y95636D01*
X549436Y96970D01*
X546970Y99436D01*
X545636Y102657D01*
X545636Y106143D01*
X546970Y109364D01*
X549436Y111830D01*
X552657Y113164D01*
X556143Y113164D01*
X559364Y111830D01*
X561830Y109364D01*
X563164Y106143D01*
X563164Y102657D01*
X561830Y99436D01*
X559364Y96970D01*
X556143Y95636D01*
X552657Y95636D01*
G37*
%LPD*%
%LPC*%
G36*
X501857Y95636D02*
X501857Y95636D01*
X498636Y96970D01*
X496170Y99436D01*
X494836Y102657D01*
X494836Y106143D01*
X496170Y109364D01*
X498636Y111830D01*
X501857Y113164D01*
X505343Y113164D01*
X508564Y111830D01*
X511030Y109364D01*
X512364Y106143D01*
X512364Y102657D01*
X511030Y99436D01*
X508564Y96970D01*
X505343Y95636D01*
X501857Y95636D01*
G37*
%LPD*%
%LPC*%
G36*
X476457Y95636D02*
X476457Y95636D01*
X473236Y96970D01*
X470770Y99436D01*
X469436Y102657D01*
X469436Y106143D01*
X470770Y109364D01*
X473236Y111830D01*
X476457Y113164D01*
X479943Y113164D01*
X483164Y111830D01*
X485630Y109364D01*
X486964Y106143D01*
X486964Y102657D01*
X485630Y99436D01*
X483164Y96970D01*
X479943Y95636D01*
X476457Y95636D01*
G37*
%LPD*%
%LPC*%
G36*
X451057Y95636D02*
X451057Y95636D01*
X447836Y96970D01*
X445370Y99436D01*
X444036Y102657D01*
X444036Y106143D01*
X445370Y109364D01*
X447836Y111830D01*
X451057Y113164D01*
X454543Y113164D01*
X457764Y111830D01*
X460230Y109364D01*
X461564Y106143D01*
X461564Y102657D01*
X460230Y99436D01*
X457764Y96970D01*
X454543Y95636D01*
X451057Y95636D01*
G37*
%LPD*%
%LPC*%
G36*
X425657Y95636D02*
X425657Y95636D01*
X422436Y96970D01*
X419970Y99436D01*
X418636Y102657D01*
X418636Y106143D01*
X419970Y109364D01*
X422436Y111830D01*
X425657Y113164D01*
X429143Y113164D01*
X432364Y111830D01*
X434830Y109364D01*
X436164Y106143D01*
X436164Y102657D01*
X434830Y99436D01*
X432364Y96970D01*
X429143Y95636D01*
X425657Y95636D01*
G37*
%LPD*%
%LPC*%
G36*
X806657Y70236D02*
X806657Y70236D01*
X803436Y71570D01*
X800970Y74036D01*
X799636Y77257D01*
X799636Y80743D01*
X800970Y83964D01*
X803436Y86430D01*
X806657Y87764D01*
X810143Y87764D01*
X813364Y86430D01*
X815830Y83964D01*
X817164Y80743D01*
X817164Y77257D01*
X815830Y74036D01*
X813364Y71570D01*
X810143Y70236D01*
X806657Y70236D01*
G37*
%LPD*%
%LPC*%
G36*
X781257Y70236D02*
X781257Y70236D01*
X778036Y71570D01*
X775570Y74036D01*
X774236Y77257D01*
X774236Y80743D01*
X775570Y83964D01*
X778036Y86430D01*
X781257Y87764D01*
X784743Y87764D01*
X787964Y86430D01*
X790430Y83964D01*
X791764Y80743D01*
X791764Y77257D01*
X790430Y74036D01*
X787964Y71570D01*
X784743Y70236D01*
X781257Y70236D01*
G37*
%LPD*%
%LPC*%
G36*
X755857Y70236D02*
X755857Y70236D01*
X752636Y71570D01*
X750170Y74036D01*
X748836Y77257D01*
X748836Y80743D01*
X750170Y83964D01*
X752636Y86430D01*
X755857Y87764D01*
X759343Y87764D01*
X762564Y86430D01*
X765030Y83964D01*
X766364Y80743D01*
X766364Y77257D01*
X765030Y74036D01*
X762564Y71570D01*
X759343Y70236D01*
X755857Y70236D01*
G37*
%LPD*%
%LPC*%
G36*
X730457Y70236D02*
X730457Y70236D01*
X727236Y71570D01*
X724770Y74036D01*
X723436Y77257D01*
X723436Y80743D01*
X724770Y83964D01*
X727236Y86430D01*
X730457Y87764D01*
X733943Y87764D01*
X737164Y86430D01*
X739630Y83964D01*
X740964Y80743D01*
X740964Y77257D01*
X739630Y74036D01*
X737164Y71570D01*
X733943Y70236D01*
X730457Y70236D01*
G37*
%LPD*%
%LPC*%
G36*
X603457Y95636D02*
X603457Y95636D01*
X600236Y96970D01*
X597770Y99436D01*
X596436Y102657D01*
X596436Y106143D01*
X597770Y109364D01*
X600236Y111830D01*
X603457Y113164D01*
X606943Y113164D01*
X610164Y111830D01*
X612630Y109364D01*
X613964Y106143D01*
X613964Y102657D01*
X612630Y99436D01*
X610164Y96970D01*
X606943Y95636D01*
X603457Y95636D01*
G37*
%LPD*%
%LPC*%
G36*
X975686Y670514D02*
X975686Y670514D01*
X972694Y671754D01*
X970404Y674044D01*
X969164Y677036D01*
X969164Y680274D01*
X970404Y683266D01*
X972694Y685556D01*
X975686Y686796D01*
X978924Y686796D01*
X981916Y685556D01*
X984206Y683266D01*
X985446Y680274D01*
X985446Y677036D01*
X984206Y674044D01*
X981916Y671754D01*
X978924Y670514D01*
X975686Y670514D01*
G37*
%LPD*%
%LPC*%
G36*
X955686Y670514D02*
X955686Y670514D01*
X952694Y671754D01*
X950404Y674044D01*
X949164Y677036D01*
X949164Y680274D01*
X950404Y683266D01*
X952694Y685556D01*
X955686Y686796D01*
X958924Y686796D01*
X961916Y685556D01*
X964206Y683266D01*
X965446Y680274D01*
X965446Y677036D01*
X964206Y674044D01*
X961916Y671754D01*
X958924Y670514D01*
X955686Y670514D01*
G37*
%LPD*%
%LPC*%
G36*
X241626Y670514D02*
X241626Y670514D01*
X238634Y671754D01*
X236344Y674044D01*
X235104Y677036D01*
X235104Y680274D01*
X236344Y683266D01*
X238634Y685556D01*
X241626Y686796D01*
X244864Y686796D01*
X247856Y685556D01*
X250146Y683266D01*
X251386Y680274D01*
X251386Y677036D01*
X250146Y674044D01*
X247856Y671754D01*
X244864Y670514D01*
X241626Y670514D01*
G37*
%LPD*%
%LPC*%
G36*
X221626Y670514D02*
X221626Y670514D01*
X218634Y671754D01*
X216344Y674044D01*
X215104Y677036D01*
X215104Y680274D01*
X216344Y683266D01*
X218634Y685556D01*
X221626Y686796D01*
X224864Y686796D01*
X227856Y685556D01*
X230146Y683266D01*
X231386Y680274D01*
X231386Y677036D01*
X230146Y674044D01*
X227856Y671754D01*
X224864Y670514D01*
X221626Y670514D01*
G37*
%LPD*%
%LPC*%
G36*
X658222Y335222D02*
X658222Y335222D01*
X658222Y341493D01*
X658556Y341427D01*
X660151Y340766D01*
X661587Y339807D01*
X662807Y338587D01*
X663766Y337151D01*
X664427Y335556D01*
X664493Y335222D01*
X658222Y335222D01*
G37*
%LPD*%
%LPC*%
G36*
X531222Y106622D02*
X531222Y106622D01*
X531222Y112893D01*
X531556Y112827D01*
X533151Y112166D01*
X534587Y111207D01*
X535807Y109987D01*
X536766Y108551D01*
X537427Y106956D01*
X537493Y106622D01*
X531222Y106622D01*
G37*
%LPD*%
%LPC*%
G36*
X815022Y154622D02*
X815022Y154622D01*
X815022Y160893D01*
X815356Y160827D01*
X816951Y160166D01*
X818387Y159207D01*
X819607Y157987D01*
X820566Y156551D01*
X821227Y154956D01*
X821293Y154622D01*
X815022Y154622D01*
G37*
%LPD*%
%LPC*%
G36*
X647507Y335222D02*
X647507Y335222D01*
X647573Y335556D01*
X648234Y337151D01*
X649193Y338587D01*
X650413Y339807D01*
X651849Y340766D01*
X653444Y341427D01*
X653778Y341493D01*
X653778Y335222D01*
X647507Y335222D01*
G37*
%LPD*%
%LPC*%
G36*
X815022Y150178D02*
X815022Y150178D01*
X821293Y150178D01*
X821227Y149844D01*
X820566Y148249D01*
X819607Y146813D01*
X818387Y145593D01*
X816951Y144634D01*
X815356Y143973D01*
X815022Y143907D01*
X815022Y150178D01*
G37*
%LPD*%
%LPC*%
G36*
X804307Y154622D02*
X804307Y154622D01*
X804373Y154956D01*
X805034Y156551D01*
X805993Y157987D01*
X807213Y159207D01*
X808649Y160166D01*
X810244Y160827D01*
X810578Y160893D01*
X810578Y154622D01*
X804307Y154622D01*
G37*
%LPD*%
%LPC*%
G36*
X520507Y106622D02*
X520507Y106622D01*
X520573Y106956D01*
X521234Y108551D01*
X522193Y109987D01*
X523413Y111207D01*
X524849Y112166D01*
X526444Y112827D01*
X526778Y112893D01*
X526778Y106622D01*
X520507Y106622D01*
G37*
%LPD*%
%LPC*%
G36*
X531222Y102178D02*
X531222Y102178D01*
X537493Y102178D01*
X537427Y101844D01*
X536766Y100249D01*
X535807Y98813D01*
X534587Y97593D01*
X533151Y96634D01*
X531556Y95973D01*
X531222Y95907D01*
X531222Y102178D01*
G37*
%LPD*%
%LPC*%
G36*
X658222Y330778D02*
X658222Y330778D01*
X664493Y330778D01*
X664427Y330444D01*
X663766Y328849D01*
X662807Y327413D01*
X661587Y326193D01*
X660151Y325234D01*
X658556Y324573D01*
X658222Y324507D01*
X658222Y330778D01*
G37*
%LPD*%
%LPC*%
G36*
X810244Y143973D02*
X810244Y143973D01*
X808649Y144634D01*
X807213Y145593D01*
X805993Y146813D01*
X805034Y148249D01*
X804373Y149844D01*
X804307Y150178D01*
X810578Y150178D01*
X810578Y143907D01*
X810244Y143973D01*
G37*
%LPD*%
%LPC*%
G36*
X653444Y324573D02*
X653444Y324573D01*
X651849Y325234D01*
X650413Y326193D01*
X649193Y327413D01*
X648234Y328849D01*
X647573Y330444D01*
X647507Y330778D01*
X653778Y330778D01*
X653778Y324507D01*
X653444Y324573D01*
G37*
%LPD*%
%LPC*%
G36*
X526444Y95973D02*
X526444Y95973D01*
X524849Y96634D01*
X523413Y97593D01*
X522193Y98813D01*
X521234Y100249D01*
X520573Y101844D01*
X520507Y102178D01*
X526778Y102178D01*
X526778Y95907D01*
X526444Y95973D01*
G37*
%LPD*%
%LPC*%
G36*
X205244Y680654D02*
X205244Y680654D01*
X205244Y686558D01*
X205620Y686483D01*
X207101Y685869D01*
X208434Y684978D01*
X209568Y683844D01*
X210459Y682511D01*
X211073Y681030D01*
X211148Y680654D01*
X205244Y680654D01*
G37*
%LPD*%
%LPC*%
G36*
X939304Y680654D02*
X939304Y680654D01*
X939304Y686558D01*
X939680Y686483D01*
X941161Y685869D01*
X942494Y684978D01*
X943628Y683844D01*
X944519Y682511D01*
X945133Y681030D01*
X945208Y680654D01*
X939304Y680654D01*
G37*
%LPD*%
%LPC*%
G36*
X195342Y680654D02*
X195342Y680654D01*
X195417Y681030D01*
X196031Y682511D01*
X196922Y683844D01*
X198056Y684978D01*
X199389Y685869D01*
X200870Y686483D01*
X201246Y686558D01*
X201246Y680654D01*
X195342Y680654D01*
G37*
%LPD*%
%LPC*%
G36*
X929402Y680654D02*
X929402Y680654D01*
X929477Y681030D01*
X930091Y682511D01*
X930982Y683844D01*
X932116Y684978D01*
X933449Y685869D01*
X934930Y686483D01*
X935306Y686558D01*
X935306Y680654D01*
X929402Y680654D01*
G37*
%LPD*%
%LPC*%
G36*
X939304Y676656D02*
X939304Y676656D01*
X945208Y676656D01*
X945133Y676280D01*
X944519Y674799D01*
X943628Y673466D01*
X942494Y672332D01*
X941161Y671441D01*
X939680Y670827D01*
X939304Y670752D01*
X939304Y676656D01*
G37*
%LPD*%
%LPC*%
G36*
X205244Y676656D02*
X205244Y676656D01*
X211148Y676656D01*
X211073Y676280D01*
X210459Y674799D01*
X209568Y673466D01*
X208434Y672332D01*
X207101Y671441D01*
X205620Y670827D01*
X205244Y670752D01*
X205244Y676656D01*
G37*
%LPD*%
%LPC*%
G36*
X934930Y670827D02*
X934930Y670827D01*
X933449Y671441D01*
X932116Y672332D01*
X930982Y673466D01*
X930091Y674799D01*
X929477Y676280D01*
X929402Y676656D01*
X935306Y676656D01*
X935306Y670752D01*
X934930Y670827D01*
G37*
%LPD*%
%LPC*%
G36*
X200870Y670827D02*
X200870Y670827D01*
X199389Y671441D01*
X198056Y672332D01*
X196922Y673466D01*
X196031Y674799D01*
X195417Y676280D01*
X195342Y676656D01*
X201246Y676656D01*
X201246Y670752D01*
X200870Y670827D01*
G37*
%LPD*%
D10*
X532400Y558400D03*
X532400Y508400D03*
X407400Y508400D03*
X407400Y558400D03*
D11*
X748538Y533400D03*
X648462Y533400D03*
D12*
X376600Y358400D03*
X376600Y333000D03*
X402000Y358400D03*
X402000Y333000D03*
X427400Y358400D03*
X427400Y333000D03*
X452800Y358400D03*
X452800Y333000D03*
X478200Y358400D03*
X478200Y333000D03*
X503600Y358400D03*
X503600Y333000D03*
X529000Y358400D03*
X529000Y333000D03*
X554400Y358400D03*
X554400Y333000D03*
X579800Y358400D03*
X579800Y333000D03*
X605200Y358400D03*
X605200Y333000D03*
X630600Y358400D03*
X630600Y333000D03*
X656000Y358400D03*
X656000Y333000D03*
X681400Y358400D03*
X681400Y333000D03*
X706800Y358400D03*
X706800Y333000D03*
X732200Y358400D03*
X732200Y333000D03*
X757600Y358400D03*
X757600Y333000D03*
X783000Y358400D03*
X783000Y333000D03*
X808400Y358400D03*
X808400Y333000D03*
X376600Y104400D03*
X376600Y79000D03*
X402000Y104400D03*
X402000Y79000D03*
X427400Y104400D03*
X427400Y79000D03*
X452800Y104400D03*
X452800Y79000D03*
X478200Y104400D03*
X478200Y79000D03*
X503600Y104400D03*
X503600Y79000D03*
X529000Y104400D03*
X529000Y79000D03*
X554400Y104400D03*
X554400Y79000D03*
X579800Y104400D03*
X579800Y79000D03*
X605200Y104400D03*
X605200Y79000D03*
X630600Y104400D03*
X630600Y79000D03*
X656000Y104400D03*
X656000Y79000D03*
X681400Y104400D03*
X681400Y79000D03*
X706800Y104400D03*
X706800Y79000D03*
X732200Y104400D03*
X732200Y79000D03*
X757600Y104400D03*
X757600Y79000D03*
X783000Y104400D03*
X783000Y79000D03*
X808400Y104400D03*
X808400Y79000D03*
X584200Y304800D03*
X584200Y279400D03*
X584200Y254000D03*
X584200Y228600D03*
X584200Y203200D03*
X584200Y177800D03*
X584200Y152400D03*
X584200Y127000D03*
X812800Y127000D03*
X812800Y152400D03*
X812800Y177800D03*
X812800Y203200D03*
X812800Y228600D03*
X812800Y254000D03*
X812800Y279400D03*
X812800Y304800D03*
D13*
X327660Y35560D03*
X35560Y685800D03*
X1145540Y685800D03*
X853440Y35560D03*
D14*
X243245Y678655D03*
X223245Y678655D03*
X203245Y678655D03*
X977305Y678655D03*
X957305Y678655D03*
X937305Y678655D03*
M02*
