G04 EAGLE Gerber RS-274X export*
G75*
%MOMM*%
%FSLAX34Y34*%
%LPD*%
%INTop Copper*%
%IPPOS*%
%AMOC8*
5,1,8,0,0,1.08239X$1,22.5*%
G01*
%ADD10R,1.031241X0.949959*%
%ADD11R,0.949959X1.031241*%
%ADD12C,1.960000*%
%ADD13P,2.749271X8X202.500000*%
%ADD14R,1.524000X1.524000*%
%ADD15P,1.649562X8X22.500000*%
%ADD16R,1.676400X1.676400*%
%ADD17C,1.524000*%
%ADD18C,4.445000*%
%ADD19C,1.016000*%
%ADD20C,1.120000*%
%ADD21C,0.254000*%


D10*
X294640Y662559D03*
X294640Y678561D03*
D11*
X411099Y444500D03*
X427101Y444500D03*
D10*
X276860Y662559D03*
X276860Y678561D03*
X886460Y662559D03*
X886460Y678561D03*
X904240Y662559D03*
X904240Y678561D03*
D12*
X532400Y558400D03*
X532400Y508400D03*
X407400Y508400D03*
X407400Y558400D03*
D13*
X748538Y533400D03*
X648462Y533400D03*
D14*
X376600Y358400D03*
D15*
X376600Y333000D03*
X402000Y358400D03*
X402000Y333000D03*
X427400Y358400D03*
X427400Y333000D03*
X452800Y358400D03*
X452800Y333000D03*
X478200Y358400D03*
X478200Y333000D03*
X503600Y358400D03*
X503600Y333000D03*
X529000Y358400D03*
X529000Y333000D03*
X554400Y358400D03*
X554400Y333000D03*
X579800Y358400D03*
X579800Y333000D03*
X605200Y358400D03*
X605200Y333000D03*
X630600Y358400D03*
X630600Y333000D03*
X656000Y358400D03*
X656000Y333000D03*
X681400Y358400D03*
X681400Y333000D03*
X706800Y358400D03*
X706800Y333000D03*
X732200Y358400D03*
X732200Y333000D03*
X757600Y358400D03*
X757600Y333000D03*
X783000Y358400D03*
X783000Y333000D03*
X808400Y358400D03*
X808400Y333000D03*
D14*
X376600Y104400D03*
D15*
X376600Y79000D03*
X402000Y104400D03*
X402000Y79000D03*
X427400Y104400D03*
X427400Y79000D03*
X452800Y104400D03*
X452800Y79000D03*
X478200Y104400D03*
X478200Y79000D03*
X503600Y104400D03*
X503600Y79000D03*
X529000Y104400D03*
X529000Y79000D03*
X554400Y104400D03*
X554400Y79000D03*
X579800Y104400D03*
X579800Y79000D03*
X605200Y104400D03*
X605200Y79000D03*
X630600Y104400D03*
X630600Y79000D03*
X656000Y104400D03*
X656000Y79000D03*
X681400Y104400D03*
X681400Y79000D03*
X706800Y104400D03*
X706800Y79000D03*
X732200Y104400D03*
X732200Y79000D03*
X757600Y104400D03*
X757600Y79000D03*
X783000Y104400D03*
X783000Y79000D03*
X808400Y104400D03*
X808400Y79000D03*
D16*
X584200Y304800D03*
D17*
X584200Y279400D03*
X584200Y254000D03*
X584200Y228600D03*
X584200Y203200D03*
X584200Y177800D03*
X584200Y152400D03*
X584200Y127000D03*
X812800Y127000D03*
X812800Y152400D03*
X812800Y177800D03*
X812800Y203200D03*
X812800Y228600D03*
X812800Y254000D03*
X812800Y279400D03*
D14*
X812800Y304800D03*
D18*
X327660Y35560D03*
X35560Y685800D03*
X1145540Y685800D03*
X853440Y35560D03*
D19*
X96520Y685800D03*
X1084580Y685800D03*
X378460Y27940D03*
D20*
X243245Y673055D02*
X243245Y684255D01*
X223245Y684255D02*
X223245Y673055D01*
X203245Y673055D02*
X203245Y684255D01*
X977305Y684255D02*
X977305Y673055D01*
X957305Y673055D02*
X957305Y684255D01*
X937305Y684255D02*
X937305Y673055D01*
D21*
X376600Y139960D02*
X376600Y104400D01*
X619170Y330318D02*
X619170Y382950D01*
X648081Y411861D02*
X648081Y533019D01*
X648081Y411861D02*
X619170Y382950D01*
X619170Y330318D02*
X608892Y320040D01*
X556680Y320040D02*
X376600Y139960D01*
X556680Y320040D02*
X608892Y320040D01*
X608000Y304800D02*
X808400Y104400D01*
X608000Y304800D02*
X584200Y304800D01*
X608000Y279400D02*
X783000Y104400D01*
X608000Y279400D02*
X584200Y279400D01*
X608000Y254000D02*
X757600Y104400D01*
X608000Y254000D02*
X584200Y254000D01*
X608000Y228600D02*
X732200Y104400D01*
X608000Y228600D02*
X584200Y228600D01*
X584200Y203200D02*
X608000Y203200D01*
X706800Y104400D01*
X681400Y104400D02*
X608000Y177800D01*
X584200Y177800D01*
X808400Y333000D02*
X812800Y328600D01*
X812800Y304800D01*
X812800Y284172D02*
X783000Y313972D01*
X783000Y333000D01*
X812800Y284172D02*
X812800Y279400D01*
X812800Y263236D02*
X757600Y318436D01*
X757600Y333000D01*
X812800Y263236D02*
X812800Y254000D01*
X732200Y318436D02*
X732200Y333000D01*
X732200Y318436D02*
X812800Y237836D01*
X812800Y228600D01*
X706800Y318436D02*
X706800Y333000D01*
X706800Y318436D02*
X812800Y212436D01*
X812800Y203200D01*
X812800Y187036D02*
X681400Y318436D01*
X681400Y333000D01*
X812800Y187036D02*
X812800Y177800D01*
X608000Y152400D02*
X584200Y152400D01*
X608000Y152400D02*
X656000Y104400D01*
X517570Y360595D02*
X433665Y444500D01*
X427101Y444500D01*
X529000Y342236D02*
X529000Y333000D01*
X529000Y342236D02*
X517570Y353666D01*
X517570Y360595D01*
X394700Y495700D02*
X407400Y508400D01*
X394700Y495700D02*
X394700Y453279D01*
X403479Y444500D02*
X411099Y444500D01*
X403479Y444500D02*
X394700Y453279D01*
X407400Y508400D02*
X407400Y558400D01*
X411099Y444500D02*
X411099Y442378D01*
X411099Y444500D02*
X411099Y365466D01*
X413430Y363135D01*
X413430Y344430D01*
X402000Y333000D01*
X276860Y678561D02*
X243339Y678561D01*
X243245Y678655D01*
X276860Y662559D02*
X294640Y662559D01*
X419009Y573659D02*
X435020Y557648D01*
X419009Y573659D02*
X393700Y573659D01*
X304800Y662559D01*
X294640Y662559D01*
X435020Y557648D02*
X435020Y477780D01*
X534080Y378720D02*
X595040Y378720D01*
X605200Y368560D02*
X605200Y358400D01*
X605200Y368560D02*
X595040Y378720D01*
X534080Y378720D02*
X435020Y477780D01*
X904240Y678561D02*
X918491Y678561D01*
X933407Y663645D01*
X962295Y663645D02*
X977305Y678655D01*
X962295Y663645D02*
X933407Y663645D01*
X904240Y662559D02*
X886460Y662559D01*
X640588Y378638D02*
X630600Y368650D01*
X630600Y358400D01*
X871220Y662559D02*
X886460Y662559D01*
X871220Y662559D02*
X770128Y561467D01*
X713918Y378638D02*
X640588Y378638D01*
X770128Y434848D02*
X770128Y561467D01*
X770128Y434848D02*
X713918Y378638D01*
M02*
