G04 EAGLE Gerber RS-274X export*
G75*
%MOMM*%
%FSLAX34Y34*%
%LPD*%
%INCopper Layer 2*%
%IPPOS*%
%AMOC8*
5,1,8,0,0,1.08239X$1,22.5*%
G01*
%ADD10C,1.960000*%
%ADD11C,1.849119*%
%ADD12C,1.244600*%
%ADD13C,4.191000*%
%ADD14C,1.120000*%

G36*
X885718Y2544D02*
X885718Y2544D01*
X885737Y2542D01*
X885839Y2564D01*
X885941Y2580D01*
X885958Y2590D01*
X885978Y2594D01*
X886067Y2647D01*
X886158Y2696D01*
X886172Y2710D01*
X886189Y2720D01*
X886256Y2799D01*
X886328Y2874D01*
X886336Y2892D01*
X886349Y2907D01*
X886388Y3003D01*
X886431Y3097D01*
X886433Y3117D01*
X886441Y3135D01*
X886459Y3302D01*
X886459Y636052D01*
X887948Y637541D01*
X1177798Y637541D01*
X1177818Y637544D01*
X1177837Y637542D01*
X1177939Y637564D01*
X1178041Y637580D01*
X1178058Y637590D01*
X1178078Y637594D01*
X1178167Y637647D01*
X1178258Y637696D01*
X1178272Y637710D01*
X1178289Y637720D01*
X1178356Y637799D01*
X1178428Y637874D01*
X1178436Y637892D01*
X1178449Y637907D01*
X1178488Y638003D01*
X1178531Y638097D01*
X1178533Y638117D01*
X1178541Y638135D01*
X1178559Y638302D01*
X1178559Y718058D01*
X1178556Y718078D01*
X1178558Y718097D01*
X1178536Y718199D01*
X1178520Y718301D01*
X1178510Y718318D01*
X1178506Y718338D01*
X1178453Y718427D01*
X1178404Y718518D01*
X1178390Y718532D01*
X1178380Y718549D01*
X1178301Y718616D01*
X1178226Y718688D01*
X1178208Y718696D01*
X1178193Y718709D01*
X1178097Y718748D01*
X1178003Y718791D01*
X1177983Y718793D01*
X1177965Y718801D01*
X1177798Y718819D01*
X3302Y718819D01*
X3282Y718816D01*
X3263Y718818D01*
X3161Y718796D01*
X3059Y718780D01*
X3042Y718770D01*
X3022Y718766D01*
X2933Y718713D01*
X2842Y718664D01*
X2828Y718650D01*
X2811Y718640D01*
X2744Y718561D01*
X2672Y718486D01*
X2664Y718468D01*
X2651Y718453D01*
X2612Y718357D01*
X2569Y718263D01*
X2567Y718243D01*
X2559Y718225D01*
X2541Y718058D01*
X2541Y638302D01*
X2544Y638282D01*
X2542Y638263D01*
X2564Y638161D01*
X2580Y638059D01*
X2590Y638042D01*
X2594Y638022D01*
X2647Y637933D01*
X2696Y637842D01*
X2710Y637828D01*
X2720Y637811D01*
X2799Y637744D01*
X2874Y637672D01*
X2892Y637664D01*
X2907Y637651D01*
X3003Y637612D01*
X3097Y637569D01*
X3117Y637567D01*
X3135Y637559D01*
X3302Y637541D01*
X293152Y637541D01*
X294641Y636052D01*
X294641Y3302D01*
X294644Y3282D01*
X294642Y3263D01*
X294664Y3161D01*
X294680Y3059D01*
X294690Y3042D01*
X294694Y3022D01*
X294747Y2933D01*
X294796Y2842D01*
X294810Y2828D01*
X294820Y2811D01*
X294899Y2744D01*
X294974Y2672D01*
X294992Y2664D01*
X295007Y2651D01*
X295103Y2612D01*
X295197Y2569D01*
X295217Y2567D01*
X295235Y2559D01*
X295402Y2541D01*
X885698Y2541D01*
X885718Y2544D01*
G37*
%LPC*%
G36*
X404945Y496059D02*
X404945Y496059D01*
X400410Y497938D01*
X396938Y501410D01*
X395059Y505945D01*
X395059Y510855D01*
X396938Y515390D01*
X400410Y518862D01*
X404945Y520741D01*
X409855Y520741D01*
X414390Y518862D01*
X417862Y515390D01*
X419741Y510855D01*
X419741Y505945D01*
X417862Y501410D01*
X414390Y497938D01*
X409855Y496059D01*
X404945Y496059D01*
G37*
%LPD*%
%LPC*%
G36*
X404945Y546059D02*
X404945Y546059D01*
X400410Y547938D01*
X396938Y551410D01*
X395059Y555945D01*
X395059Y560855D01*
X396938Y565390D01*
X400410Y568862D01*
X404945Y570741D01*
X409855Y570741D01*
X414390Y568862D01*
X417862Y565390D01*
X419741Y560855D01*
X419741Y555945D01*
X417862Y551410D01*
X414390Y547938D01*
X409855Y546059D01*
X404945Y546059D01*
G37*
%LPD*%
%LPC*%
G36*
X646118Y521614D02*
X646118Y521614D01*
X641786Y523408D01*
X638470Y526724D01*
X636676Y531056D01*
X636676Y535744D01*
X638470Y540076D01*
X641786Y543392D01*
X646118Y545186D01*
X650806Y545186D01*
X655138Y543392D01*
X658454Y540076D01*
X660248Y535744D01*
X660248Y531056D01*
X658454Y526724D01*
X655138Y523408D01*
X650806Y521614D01*
X646118Y521614D01*
G37*
%LPD*%
%LPC*%
G36*
X37083Y687323D02*
X37083Y687323D01*
X37083Y709273D01*
X39502Y709000D01*
X39507Y708999D01*
X42075Y708413D01*
X44565Y707542D01*
X46943Y706396D01*
X49178Y704992D01*
X51241Y703347D01*
X53107Y701481D01*
X54752Y699418D01*
X56156Y697183D01*
X57302Y694805D01*
X58173Y692315D01*
X58760Y689742D01*
X59033Y687323D01*
X37083Y687323D01*
G37*
%LPD*%
%LPC*%
G36*
X1147063Y687323D02*
X1147063Y687323D01*
X1147063Y709273D01*
X1149482Y709000D01*
X1149487Y708999D01*
X1152055Y708413D01*
X1154545Y707542D01*
X1156923Y706396D01*
X1159158Y704992D01*
X1161221Y703347D01*
X1163087Y701481D01*
X1164732Y699418D01*
X1166136Y697183D01*
X1167282Y694805D01*
X1168153Y692315D01*
X1168740Y689742D01*
X1169013Y687323D01*
X1147063Y687323D01*
G37*
%LPD*%
%LPC*%
G36*
X854963Y37083D02*
X854963Y37083D01*
X854963Y59033D01*
X857382Y58760D01*
X859955Y58173D01*
X862445Y57302D01*
X864823Y56156D01*
X867058Y54752D01*
X869121Y53107D01*
X870987Y51241D01*
X872632Y49178D01*
X874036Y46943D01*
X875182Y44565D01*
X876053Y42075D01*
X876640Y39502D01*
X876913Y37083D01*
X854963Y37083D01*
G37*
%LPD*%
%LPC*%
G36*
X329183Y37083D02*
X329183Y37083D01*
X329183Y59033D01*
X331602Y58760D01*
X334175Y58173D01*
X336665Y57302D01*
X339043Y56156D01*
X341278Y54752D01*
X343341Y53107D01*
X345207Y51241D01*
X346852Y49178D01*
X348256Y46943D01*
X349402Y44565D01*
X350273Y42075D01*
X350860Y39502D01*
X351133Y37083D01*
X329183Y37083D01*
G37*
%LPD*%
%LPC*%
G36*
X12087Y687323D02*
X12087Y687323D01*
X12360Y689742D01*
X12947Y692315D01*
X13818Y694805D01*
X14964Y697183D01*
X16368Y699418D01*
X18013Y701481D01*
X19879Y703347D01*
X21942Y704992D01*
X24177Y706396D01*
X26555Y707542D01*
X29045Y708413D01*
X31618Y709000D01*
X34037Y709273D01*
X34037Y687323D01*
X12087Y687323D01*
G37*
%LPD*%
%LPC*%
G36*
X1122067Y687323D02*
X1122067Y687323D01*
X1122340Y689742D01*
X1122927Y692315D01*
X1123798Y694805D01*
X1124944Y697183D01*
X1126348Y699418D01*
X1127993Y701481D01*
X1129859Y703347D01*
X1131922Y704992D01*
X1134157Y706396D01*
X1136535Y707542D01*
X1139025Y708413D01*
X1141598Y709000D01*
X1144017Y709273D01*
X1144017Y687323D01*
X1122067Y687323D01*
G37*
%LPD*%
%LPC*%
G36*
X829967Y37083D02*
X829967Y37083D01*
X830240Y39502D01*
X830827Y42075D01*
X831698Y44565D01*
X832844Y46943D01*
X834248Y49178D01*
X835893Y51241D01*
X837759Y53107D01*
X839822Y54752D01*
X842057Y56156D01*
X844435Y57302D01*
X846925Y58173D01*
X849498Y58760D01*
X851917Y59033D01*
X851917Y37083D01*
X829967Y37083D01*
G37*
%LPD*%
%LPC*%
G36*
X854963Y34037D02*
X854963Y34037D01*
X876913Y34037D01*
X876640Y31618D01*
X876053Y29045D01*
X875182Y26555D01*
X874036Y24177D01*
X872632Y21942D01*
X870987Y19879D01*
X869121Y18013D01*
X867058Y16368D01*
X864823Y14964D01*
X862445Y13818D01*
X859955Y12947D01*
X857382Y12360D01*
X854963Y12087D01*
X854963Y34037D01*
G37*
%LPD*%
%LPC*%
G36*
X329183Y34037D02*
X329183Y34037D01*
X351133Y34037D01*
X350860Y31618D01*
X350273Y29045D01*
X349402Y26555D01*
X348256Y24177D01*
X346852Y21942D01*
X345207Y19879D01*
X343341Y18013D01*
X341278Y16368D01*
X339043Y14964D01*
X336665Y13818D01*
X334175Y12947D01*
X331602Y12360D01*
X329183Y12087D01*
X329183Y34037D01*
G37*
%LPD*%
%LPC*%
G36*
X1147063Y684277D02*
X1147063Y684277D01*
X1169013Y684277D01*
X1168740Y681858D01*
X1168153Y679285D01*
X1167282Y676795D01*
X1166136Y674417D01*
X1164732Y672182D01*
X1163087Y670119D01*
X1161221Y668253D01*
X1159158Y666608D01*
X1156923Y665204D01*
X1154545Y664058D01*
X1152055Y663187D01*
X1149482Y662600D01*
X1147063Y662327D01*
X1147063Y684277D01*
G37*
%LPD*%
%LPC*%
G36*
X37083Y684277D02*
X37083Y684277D01*
X59033Y684277D01*
X58760Y681858D01*
X58173Y679285D01*
X57302Y676795D01*
X56156Y674417D01*
X54752Y672182D01*
X53107Y670119D01*
X51241Y668253D01*
X49178Y666608D01*
X46943Y665204D01*
X44565Y664058D01*
X42075Y663187D01*
X39502Y662600D01*
X37083Y662327D01*
X37083Y684277D01*
G37*
%LPD*%
%LPC*%
G36*
X304187Y37083D02*
X304187Y37083D01*
X304460Y39502D01*
X305047Y42075D01*
X305918Y44565D01*
X307064Y46943D01*
X308468Y49178D01*
X310113Y51241D01*
X311979Y53107D01*
X314042Y54752D01*
X316277Y56156D01*
X318655Y57302D01*
X321145Y58173D01*
X323718Y58760D01*
X326137Y59033D01*
X326137Y37083D01*
X304187Y37083D01*
G37*
%LPD*%
%LPC*%
G36*
X849498Y12360D02*
X849498Y12360D01*
X849241Y12418D01*
X849241Y12419D01*
X849240Y12419D01*
X846925Y12947D01*
X844435Y13818D01*
X842057Y14964D01*
X839822Y16368D01*
X837759Y18013D01*
X835893Y19879D01*
X834248Y21942D01*
X832844Y24177D01*
X831698Y26555D01*
X830827Y29045D01*
X830240Y31618D01*
X829967Y34037D01*
X851917Y34037D01*
X851917Y12087D01*
X849498Y12360D01*
G37*
%LPD*%
%LPC*%
G36*
X323718Y12360D02*
X323718Y12360D01*
X323461Y12418D01*
X323461Y12419D01*
X323460Y12419D01*
X321145Y12947D01*
X318655Y13818D01*
X316277Y14964D01*
X314042Y16368D01*
X311979Y18013D01*
X310113Y19879D01*
X308468Y21942D01*
X307064Y24177D01*
X305918Y26555D01*
X305047Y29045D01*
X304460Y31618D01*
X304187Y34037D01*
X326137Y34037D01*
X326137Y12087D01*
X323718Y12360D01*
G37*
%LPD*%
%LPC*%
G36*
X1141598Y662600D02*
X1141598Y662600D01*
X1139025Y663187D01*
X1136535Y664058D01*
X1134157Y665204D01*
X1131922Y666608D01*
X1129859Y668253D01*
X1127993Y670119D01*
X1126348Y672182D01*
X1124944Y674417D01*
X1123798Y676795D01*
X1122927Y679285D01*
X1122340Y681858D01*
X1122067Y684277D01*
X1144017Y684277D01*
X1144017Y662327D01*
X1141598Y662600D01*
G37*
%LPD*%
%LPC*%
G36*
X31618Y662600D02*
X31618Y662600D01*
X29045Y663187D01*
X26555Y664058D01*
X24177Y665204D01*
X21942Y666608D01*
X19879Y668253D01*
X18013Y670119D01*
X16368Y672182D01*
X14964Y674417D01*
X13818Y676795D01*
X12947Y679285D01*
X12360Y681858D01*
X12087Y684277D01*
X34037Y684277D01*
X34037Y662327D01*
X31618Y662600D01*
G37*
%LPD*%
%LPC*%
G36*
X400257Y70236D02*
X400257Y70236D01*
X397036Y71570D01*
X394570Y74036D01*
X393236Y77257D01*
X393236Y80743D01*
X394570Y83964D01*
X397036Y86430D01*
X400257Y87764D01*
X403743Y87764D01*
X406964Y86430D01*
X409430Y83964D01*
X410764Y80743D01*
X410764Y77257D01*
X409430Y74036D01*
X406964Y71570D01*
X403743Y70236D01*
X400257Y70236D01*
G37*
%LPD*%
%LPC*%
G36*
X374857Y70236D02*
X374857Y70236D01*
X371636Y71570D01*
X369170Y74036D01*
X367836Y77257D01*
X367836Y80743D01*
X369170Y83964D01*
X371636Y86430D01*
X374857Y87764D01*
X378343Y87764D01*
X381564Y86430D01*
X384030Y83964D01*
X385364Y80743D01*
X385364Y77257D01*
X384030Y74036D01*
X381564Y71570D01*
X378343Y70236D01*
X374857Y70236D01*
G37*
%LPD*%
%LPC*%
G36*
X705057Y70236D02*
X705057Y70236D01*
X701836Y71570D01*
X699370Y74036D01*
X698036Y77257D01*
X698036Y80743D01*
X699370Y83964D01*
X701836Y86430D01*
X705057Y87764D01*
X708543Y87764D01*
X711764Y86430D01*
X714230Y83964D01*
X715564Y80743D01*
X715564Y77257D01*
X714230Y74036D01*
X711764Y71570D01*
X708543Y70236D01*
X705057Y70236D01*
G37*
%LPD*%
%LPC*%
G36*
X501857Y95636D02*
X501857Y95636D01*
X498636Y96970D01*
X496170Y99436D01*
X494836Y102657D01*
X494836Y106143D01*
X496170Y109364D01*
X498636Y111830D01*
X501857Y113164D01*
X505343Y113164D01*
X508564Y111830D01*
X511030Y109364D01*
X512364Y106143D01*
X512364Y102657D01*
X511030Y99436D01*
X508564Y96970D01*
X505343Y95636D01*
X501857Y95636D01*
G37*
%LPD*%
%LPC*%
G36*
X578057Y95636D02*
X578057Y95636D01*
X574836Y96970D01*
X572370Y99436D01*
X571036Y102657D01*
X571036Y106143D01*
X572370Y109364D01*
X574836Y111830D01*
X578057Y113164D01*
X581543Y113164D01*
X584764Y111830D01*
X587230Y109364D01*
X588564Y106143D01*
X588564Y102657D01*
X587230Y99436D01*
X584764Y96970D01*
X581543Y95636D01*
X578057Y95636D01*
G37*
%LPD*%
%LPC*%
G36*
X603457Y95636D02*
X603457Y95636D01*
X600236Y96970D01*
X597770Y99436D01*
X596436Y102657D01*
X596436Y106143D01*
X597770Y109364D01*
X600236Y111830D01*
X603457Y113164D01*
X606943Y113164D01*
X610164Y111830D01*
X612630Y109364D01*
X613964Y106143D01*
X613964Y102657D01*
X612630Y99436D01*
X610164Y96970D01*
X606943Y95636D01*
X603457Y95636D01*
G37*
%LPD*%
%LPC*%
G36*
X654257Y95636D02*
X654257Y95636D01*
X651036Y96970D01*
X648570Y99436D01*
X647236Y102657D01*
X647236Y106143D01*
X648570Y109364D01*
X651036Y111830D01*
X654257Y113164D01*
X657743Y113164D01*
X660964Y111830D01*
X663430Y109364D01*
X664764Y106143D01*
X664764Y102657D01*
X663430Y99436D01*
X660964Y96970D01*
X657743Y95636D01*
X654257Y95636D01*
G37*
%LPD*%
%LPC*%
G36*
X679657Y95636D02*
X679657Y95636D01*
X676436Y96970D01*
X673970Y99436D01*
X672636Y102657D01*
X672636Y106143D01*
X673970Y109364D01*
X676436Y111830D01*
X679657Y113164D01*
X683143Y113164D01*
X686364Y111830D01*
X688830Y109364D01*
X690164Y106143D01*
X690164Y102657D01*
X688830Y99436D01*
X686364Y96970D01*
X683143Y95636D01*
X679657Y95636D01*
G37*
%LPD*%
%LPC*%
G36*
X705057Y95636D02*
X705057Y95636D01*
X701836Y96970D01*
X699370Y99436D01*
X698036Y102657D01*
X698036Y106143D01*
X699370Y109364D01*
X701836Y111830D01*
X705057Y113164D01*
X708543Y113164D01*
X711764Y111830D01*
X714230Y109364D01*
X715564Y106143D01*
X715564Y102657D01*
X714230Y99436D01*
X711764Y96970D01*
X708543Y95636D01*
X705057Y95636D01*
G37*
%LPD*%
%LPC*%
G36*
X730457Y95636D02*
X730457Y95636D01*
X727236Y96970D01*
X724770Y99436D01*
X723436Y102657D01*
X723436Y106143D01*
X724770Y109364D01*
X727236Y111830D01*
X730457Y113164D01*
X733943Y113164D01*
X737164Y111830D01*
X739630Y109364D01*
X740964Y106143D01*
X740964Y102657D01*
X739630Y99436D01*
X737164Y96970D01*
X733943Y95636D01*
X730457Y95636D01*
G37*
%LPD*%
%LPC*%
G36*
X527257Y95636D02*
X527257Y95636D01*
X524036Y96970D01*
X521570Y99436D01*
X520236Y102657D01*
X520236Y106143D01*
X521570Y109364D01*
X524036Y111830D01*
X527257Y113164D01*
X530743Y113164D01*
X533964Y111830D01*
X536430Y109364D01*
X537764Y106143D01*
X537764Y102657D01*
X536430Y99436D01*
X533964Y96970D01*
X530743Y95636D01*
X527257Y95636D01*
G37*
%LPD*%
%LPC*%
G36*
X755857Y95636D02*
X755857Y95636D01*
X752636Y96970D01*
X750170Y99436D01*
X748836Y102657D01*
X748836Y106143D01*
X750170Y109364D01*
X752636Y111830D01*
X755857Y113164D01*
X759343Y113164D01*
X762564Y111830D01*
X765030Y109364D01*
X766364Y106143D01*
X766364Y102657D01*
X765030Y99436D01*
X762564Y96970D01*
X759343Y95636D01*
X755857Y95636D01*
G37*
%LPD*%
%LPC*%
G36*
X781257Y95636D02*
X781257Y95636D01*
X778036Y96970D01*
X775570Y99436D01*
X774236Y102657D01*
X774236Y106143D01*
X775570Y109364D01*
X778036Y111830D01*
X781257Y113164D01*
X784743Y113164D01*
X787964Y111830D01*
X790430Y109364D01*
X791764Y106143D01*
X791764Y102657D01*
X790430Y99436D01*
X787964Y96970D01*
X784743Y95636D01*
X781257Y95636D01*
G37*
%LPD*%
%LPC*%
G36*
X806657Y95636D02*
X806657Y95636D01*
X803436Y96970D01*
X800970Y99436D01*
X799636Y102657D01*
X799636Y106143D01*
X800970Y109364D01*
X803436Y111830D01*
X806657Y113164D01*
X810143Y113164D01*
X813364Y111830D01*
X815830Y109364D01*
X817164Y106143D01*
X817164Y102657D01*
X815830Y99436D01*
X813364Y96970D01*
X810143Y95636D01*
X806657Y95636D01*
G37*
%LPD*%
%LPC*%
G36*
X374857Y95636D02*
X374857Y95636D01*
X371636Y96970D01*
X369170Y99436D01*
X367836Y102657D01*
X367836Y106143D01*
X369170Y109364D01*
X371636Y111830D01*
X374857Y113164D01*
X378343Y113164D01*
X381564Y111830D01*
X384030Y109364D01*
X385364Y106143D01*
X385364Y102657D01*
X384030Y99436D01*
X381564Y96970D01*
X378343Y95636D01*
X374857Y95636D01*
G37*
%LPD*%
%LPC*%
G36*
X811057Y296036D02*
X811057Y296036D01*
X807836Y297370D01*
X805370Y299836D01*
X804036Y303057D01*
X804036Y306543D01*
X805370Y309764D01*
X807836Y312230D01*
X811057Y313564D01*
X814543Y313564D01*
X817764Y312230D01*
X820230Y309764D01*
X821564Y306543D01*
X821564Y303057D01*
X820230Y299836D01*
X817764Y297370D01*
X814543Y296036D01*
X811057Y296036D01*
G37*
%LPD*%
%LPC*%
G36*
X400257Y95636D02*
X400257Y95636D01*
X397036Y96970D01*
X394570Y99436D01*
X393236Y102657D01*
X393236Y106143D01*
X394570Y109364D01*
X397036Y111830D01*
X400257Y113164D01*
X403743Y113164D01*
X406964Y111830D01*
X409430Y109364D01*
X410764Y106143D01*
X410764Y102657D01*
X409430Y99436D01*
X406964Y96970D01*
X403743Y95636D01*
X400257Y95636D01*
G37*
%LPD*%
%LPC*%
G36*
X582457Y143636D02*
X582457Y143636D01*
X579236Y144970D01*
X576770Y147436D01*
X575436Y150657D01*
X575436Y154143D01*
X576770Y157364D01*
X579236Y159830D01*
X582457Y161164D01*
X585943Y161164D01*
X589164Y159830D01*
X591630Y157364D01*
X592964Y154143D01*
X592964Y150657D01*
X591630Y147436D01*
X589164Y144970D01*
X585943Y143636D01*
X582457Y143636D01*
G37*
%LPD*%
%LPC*%
G36*
X811057Y143636D02*
X811057Y143636D01*
X807836Y144970D01*
X805370Y147436D01*
X804036Y150657D01*
X804036Y154143D01*
X805370Y157364D01*
X807836Y159830D01*
X811057Y161164D01*
X814543Y161164D01*
X817764Y159830D01*
X820230Y157364D01*
X821564Y154143D01*
X821564Y150657D01*
X820230Y147436D01*
X817764Y144970D01*
X814543Y143636D01*
X811057Y143636D01*
G37*
%LPD*%
%LPC*%
G36*
X582457Y169036D02*
X582457Y169036D01*
X579236Y170370D01*
X576770Y172836D01*
X575436Y176057D01*
X575436Y179543D01*
X576770Y182764D01*
X579236Y185230D01*
X582457Y186564D01*
X585943Y186564D01*
X589164Y185230D01*
X591630Y182764D01*
X592964Y179543D01*
X592964Y176057D01*
X591630Y172836D01*
X589164Y170370D01*
X585943Y169036D01*
X582457Y169036D01*
G37*
%LPD*%
%LPC*%
G36*
X811057Y169036D02*
X811057Y169036D01*
X807836Y170370D01*
X805370Y172836D01*
X804036Y176057D01*
X804036Y179543D01*
X805370Y182764D01*
X807836Y185230D01*
X811057Y186564D01*
X814543Y186564D01*
X817764Y185230D01*
X820230Y182764D01*
X821564Y179543D01*
X821564Y176057D01*
X820230Y172836D01*
X817764Y170370D01*
X814543Y169036D01*
X811057Y169036D01*
G37*
%LPD*%
%LPC*%
G36*
X582457Y194436D02*
X582457Y194436D01*
X579236Y195770D01*
X576770Y198236D01*
X575436Y201457D01*
X575436Y204943D01*
X576770Y208164D01*
X579236Y210630D01*
X582457Y211964D01*
X585943Y211964D01*
X589164Y210630D01*
X591630Y208164D01*
X592964Y204943D01*
X592964Y201457D01*
X591630Y198236D01*
X589164Y195770D01*
X585943Y194436D01*
X582457Y194436D01*
G37*
%LPD*%
%LPC*%
G36*
X811057Y194436D02*
X811057Y194436D01*
X807836Y195770D01*
X805370Y198236D01*
X804036Y201457D01*
X804036Y204943D01*
X805370Y208164D01*
X807836Y210630D01*
X811057Y211964D01*
X814543Y211964D01*
X817764Y210630D01*
X820230Y208164D01*
X821564Y204943D01*
X821564Y201457D01*
X820230Y198236D01*
X817764Y195770D01*
X814543Y194436D01*
X811057Y194436D01*
G37*
%LPD*%
%LPC*%
G36*
X400257Y349636D02*
X400257Y349636D01*
X397036Y350970D01*
X394570Y353436D01*
X393236Y356657D01*
X393236Y360143D01*
X394570Y363364D01*
X397036Y365830D01*
X400257Y367164D01*
X403743Y367164D01*
X406964Y365830D01*
X409430Y363364D01*
X410764Y360143D01*
X410764Y356657D01*
X409430Y353436D01*
X406964Y350970D01*
X403743Y349636D01*
X400257Y349636D01*
G37*
%LPD*%
%LPC*%
G36*
X374857Y349636D02*
X374857Y349636D01*
X371636Y350970D01*
X369170Y353436D01*
X367836Y356657D01*
X367836Y360143D01*
X369170Y363364D01*
X371636Y365830D01*
X374857Y367164D01*
X378343Y367164D01*
X381564Y365830D01*
X384030Y363364D01*
X385364Y360143D01*
X385364Y356657D01*
X384030Y353436D01*
X381564Y350970D01*
X378343Y349636D01*
X374857Y349636D01*
G37*
%LPD*%
%LPC*%
G36*
X806657Y349636D02*
X806657Y349636D01*
X803436Y350970D01*
X800970Y353436D01*
X799636Y356657D01*
X799636Y360143D01*
X800970Y363364D01*
X803436Y365830D01*
X806657Y367164D01*
X810143Y367164D01*
X813364Y365830D01*
X815830Y363364D01*
X817164Y360143D01*
X817164Y356657D01*
X815830Y353436D01*
X813364Y350970D01*
X810143Y349636D01*
X806657Y349636D01*
G37*
%LPD*%
%LPC*%
G36*
X781257Y349636D02*
X781257Y349636D01*
X778036Y350970D01*
X775570Y353436D01*
X774236Y356657D01*
X774236Y360143D01*
X775570Y363364D01*
X778036Y365830D01*
X781257Y367164D01*
X784743Y367164D01*
X787964Y365830D01*
X790430Y363364D01*
X791764Y360143D01*
X791764Y356657D01*
X790430Y353436D01*
X787964Y350970D01*
X784743Y349636D01*
X781257Y349636D01*
G37*
%LPD*%
%LPC*%
G36*
X755857Y349636D02*
X755857Y349636D01*
X752636Y350970D01*
X750170Y353436D01*
X748836Y356657D01*
X748836Y360143D01*
X750170Y363364D01*
X752636Y365830D01*
X755857Y367164D01*
X759343Y367164D01*
X762564Y365830D01*
X765030Y363364D01*
X766364Y360143D01*
X766364Y356657D01*
X765030Y353436D01*
X762564Y350970D01*
X759343Y349636D01*
X755857Y349636D01*
G37*
%LPD*%
%LPC*%
G36*
X730457Y349636D02*
X730457Y349636D01*
X727236Y350970D01*
X724770Y353436D01*
X723436Y356657D01*
X723436Y360143D01*
X724770Y363364D01*
X727236Y365830D01*
X730457Y367164D01*
X733943Y367164D01*
X737164Y365830D01*
X739630Y363364D01*
X740964Y360143D01*
X740964Y356657D01*
X739630Y353436D01*
X737164Y350970D01*
X733943Y349636D01*
X730457Y349636D01*
G37*
%LPD*%
%LPC*%
G36*
X705057Y349636D02*
X705057Y349636D01*
X701836Y350970D01*
X699370Y353436D01*
X698036Y356657D01*
X698036Y360143D01*
X699370Y363364D01*
X701836Y365830D01*
X705057Y367164D01*
X708543Y367164D01*
X711764Y365830D01*
X714230Y363364D01*
X715564Y360143D01*
X715564Y356657D01*
X714230Y353436D01*
X711764Y350970D01*
X708543Y349636D01*
X705057Y349636D01*
G37*
%LPD*%
%LPC*%
G36*
X679657Y349636D02*
X679657Y349636D01*
X676436Y350970D01*
X673970Y353436D01*
X672636Y356657D01*
X672636Y360143D01*
X673970Y363364D01*
X676436Y365830D01*
X679657Y367164D01*
X683143Y367164D01*
X686364Y365830D01*
X688830Y363364D01*
X690164Y360143D01*
X690164Y356657D01*
X688830Y353436D01*
X686364Y350970D01*
X683143Y349636D01*
X679657Y349636D01*
G37*
%LPD*%
%LPC*%
G36*
X654257Y349636D02*
X654257Y349636D01*
X651036Y350970D01*
X648570Y353436D01*
X647236Y356657D01*
X647236Y360143D01*
X648570Y363364D01*
X651036Y365830D01*
X654257Y367164D01*
X657743Y367164D01*
X660964Y365830D01*
X663430Y363364D01*
X664764Y360143D01*
X664764Y356657D01*
X663430Y353436D01*
X660964Y350970D01*
X657743Y349636D01*
X654257Y349636D01*
G37*
%LPD*%
%LPC*%
G36*
X628857Y349636D02*
X628857Y349636D01*
X625636Y350970D01*
X623170Y353436D01*
X621836Y356657D01*
X621836Y360143D01*
X623170Y363364D01*
X625636Y365830D01*
X628857Y367164D01*
X632343Y367164D01*
X635564Y365830D01*
X638030Y363364D01*
X639364Y360143D01*
X639364Y356657D01*
X638030Y353436D01*
X635564Y350970D01*
X632343Y349636D01*
X628857Y349636D01*
G37*
%LPD*%
%LPC*%
G36*
X603457Y349636D02*
X603457Y349636D01*
X600236Y350970D01*
X597770Y353436D01*
X596436Y356657D01*
X596436Y360143D01*
X597770Y363364D01*
X600236Y365830D01*
X603457Y367164D01*
X606943Y367164D01*
X610164Y365830D01*
X612630Y363364D01*
X613964Y360143D01*
X613964Y356657D01*
X612630Y353436D01*
X610164Y350970D01*
X606943Y349636D01*
X603457Y349636D01*
G37*
%LPD*%
%LPC*%
G36*
X578057Y349636D02*
X578057Y349636D01*
X574836Y350970D01*
X572370Y353436D01*
X571036Y356657D01*
X571036Y360143D01*
X572370Y363364D01*
X574836Y365830D01*
X578057Y367164D01*
X581543Y367164D01*
X584764Y365830D01*
X587230Y363364D01*
X588564Y360143D01*
X588564Y356657D01*
X587230Y353436D01*
X584764Y350970D01*
X581543Y349636D01*
X578057Y349636D01*
G37*
%LPD*%
%LPC*%
G36*
X527257Y349636D02*
X527257Y349636D01*
X524036Y350970D01*
X521570Y353436D01*
X520236Y356657D01*
X520236Y360143D01*
X521570Y363364D01*
X524036Y365830D01*
X527257Y367164D01*
X530743Y367164D01*
X533964Y365830D01*
X536430Y363364D01*
X537764Y360143D01*
X537764Y356657D01*
X536430Y353436D01*
X533964Y350970D01*
X530743Y349636D01*
X527257Y349636D01*
G37*
%LPD*%
%LPC*%
G36*
X501857Y349636D02*
X501857Y349636D01*
X498636Y350970D01*
X496170Y353436D01*
X494836Y356657D01*
X494836Y360143D01*
X496170Y363364D01*
X498636Y365830D01*
X501857Y367164D01*
X505343Y367164D01*
X508564Y365830D01*
X511030Y363364D01*
X512364Y360143D01*
X512364Y356657D01*
X511030Y353436D01*
X508564Y350970D01*
X505343Y349636D01*
X501857Y349636D01*
G37*
%LPD*%
%LPC*%
G36*
X476457Y349636D02*
X476457Y349636D01*
X473236Y350970D01*
X470770Y353436D01*
X469436Y356657D01*
X469436Y360143D01*
X470770Y363364D01*
X473236Y365830D01*
X476457Y367164D01*
X479943Y367164D01*
X483164Y365830D01*
X485630Y363364D01*
X486964Y360143D01*
X486964Y356657D01*
X485630Y353436D01*
X483164Y350970D01*
X479943Y349636D01*
X476457Y349636D01*
G37*
%LPD*%
%LPC*%
G36*
X451057Y349636D02*
X451057Y349636D01*
X447836Y350970D01*
X445370Y353436D01*
X444036Y356657D01*
X444036Y360143D01*
X445370Y363364D01*
X447836Y365830D01*
X451057Y367164D01*
X454543Y367164D01*
X457764Y365830D01*
X460230Y363364D01*
X461564Y360143D01*
X461564Y356657D01*
X460230Y353436D01*
X457764Y350970D01*
X454543Y349636D01*
X451057Y349636D01*
G37*
%LPD*%
%LPC*%
G36*
X425657Y349636D02*
X425657Y349636D01*
X422436Y350970D01*
X419970Y353436D01*
X418636Y356657D01*
X418636Y360143D01*
X419970Y363364D01*
X422436Y365830D01*
X425657Y367164D01*
X429143Y367164D01*
X432364Y365830D01*
X434830Y363364D01*
X436164Y360143D01*
X436164Y356657D01*
X434830Y353436D01*
X432364Y350970D01*
X429143Y349636D01*
X425657Y349636D01*
G37*
%LPD*%
%LPC*%
G36*
X582457Y219836D02*
X582457Y219836D01*
X579236Y221170D01*
X576770Y223636D01*
X575436Y226857D01*
X575436Y230343D01*
X576770Y233564D01*
X579236Y236030D01*
X582457Y237364D01*
X585943Y237364D01*
X589164Y236030D01*
X591630Y233564D01*
X592964Y230343D01*
X592964Y226857D01*
X591630Y223636D01*
X589164Y221170D01*
X585943Y219836D01*
X582457Y219836D01*
G37*
%LPD*%
%LPC*%
G36*
X811057Y219836D02*
X811057Y219836D01*
X807836Y221170D01*
X805370Y223636D01*
X804036Y226857D01*
X804036Y230343D01*
X805370Y233564D01*
X807836Y236030D01*
X811057Y237364D01*
X814543Y237364D01*
X817764Y236030D01*
X820230Y233564D01*
X821564Y230343D01*
X821564Y226857D01*
X820230Y223636D01*
X817764Y221170D01*
X814543Y219836D01*
X811057Y219836D01*
G37*
%LPD*%
%LPC*%
G36*
X582457Y245236D02*
X582457Y245236D01*
X579236Y246570D01*
X576770Y249036D01*
X575436Y252257D01*
X575436Y255743D01*
X576770Y258964D01*
X579236Y261430D01*
X582457Y262764D01*
X585943Y262764D01*
X589164Y261430D01*
X591630Y258964D01*
X592964Y255743D01*
X592964Y252257D01*
X591630Y249036D01*
X589164Y246570D01*
X585943Y245236D01*
X582457Y245236D01*
G37*
%LPD*%
%LPC*%
G36*
X811057Y245236D02*
X811057Y245236D01*
X807836Y246570D01*
X805370Y249036D01*
X804036Y252257D01*
X804036Y255743D01*
X805370Y258964D01*
X807836Y261430D01*
X811057Y262764D01*
X814543Y262764D01*
X817764Y261430D01*
X820230Y258964D01*
X821564Y255743D01*
X821564Y252257D01*
X820230Y249036D01*
X817764Y246570D01*
X814543Y245236D01*
X811057Y245236D01*
G37*
%LPD*%
%LPC*%
G36*
X582457Y270636D02*
X582457Y270636D01*
X579236Y271970D01*
X576770Y274436D01*
X575436Y277657D01*
X575436Y281143D01*
X576770Y284364D01*
X579236Y286830D01*
X582457Y288164D01*
X585943Y288164D01*
X589164Y286830D01*
X591630Y284364D01*
X592964Y281143D01*
X592964Y277657D01*
X591630Y274436D01*
X589164Y271970D01*
X585943Y270636D01*
X582457Y270636D01*
G37*
%LPD*%
%LPC*%
G36*
X400257Y324236D02*
X400257Y324236D01*
X397036Y325570D01*
X394570Y328036D01*
X393236Y331257D01*
X393236Y334743D01*
X394570Y337964D01*
X397036Y340430D01*
X400257Y341764D01*
X403743Y341764D01*
X406964Y340430D01*
X409430Y337964D01*
X410764Y334743D01*
X410764Y331257D01*
X409430Y328036D01*
X406964Y325570D01*
X403743Y324236D01*
X400257Y324236D01*
G37*
%LPD*%
%LPC*%
G36*
X374857Y324236D02*
X374857Y324236D01*
X371636Y325570D01*
X369170Y328036D01*
X367836Y331257D01*
X367836Y334743D01*
X369170Y337964D01*
X371636Y340430D01*
X374857Y341764D01*
X378343Y341764D01*
X381564Y340430D01*
X384030Y337964D01*
X385364Y334743D01*
X385364Y331257D01*
X384030Y328036D01*
X381564Y325570D01*
X378343Y324236D01*
X374857Y324236D01*
G37*
%LPD*%
%LPC*%
G36*
X806657Y324236D02*
X806657Y324236D01*
X803436Y325570D01*
X800970Y328036D01*
X799636Y331257D01*
X799636Y334743D01*
X800970Y337964D01*
X803436Y340430D01*
X806657Y341764D01*
X810143Y341764D01*
X813364Y340430D01*
X815830Y337964D01*
X817164Y334743D01*
X817164Y331257D01*
X815830Y328036D01*
X813364Y325570D01*
X810143Y324236D01*
X806657Y324236D01*
G37*
%LPD*%
%LPC*%
G36*
X781257Y324236D02*
X781257Y324236D01*
X778036Y325570D01*
X775570Y328036D01*
X774236Y331257D01*
X774236Y334743D01*
X775570Y337964D01*
X778036Y340430D01*
X781257Y341764D01*
X784743Y341764D01*
X787964Y340430D01*
X790430Y337964D01*
X791764Y334743D01*
X791764Y331257D01*
X790430Y328036D01*
X787964Y325570D01*
X784743Y324236D01*
X781257Y324236D01*
G37*
%LPD*%
%LPC*%
G36*
X755857Y324236D02*
X755857Y324236D01*
X752636Y325570D01*
X750170Y328036D01*
X748836Y331257D01*
X748836Y334743D01*
X750170Y337964D01*
X752636Y340430D01*
X755857Y341764D01*
X759343Y341764D01*
X762564Y340430D01*
X765030Y337964D01*
X766364Y334743D01*
X766364Y331257D01*
X765030Y328036D01*
X762564Y325570D01*
X759343Y324236D01*
X755857Y324236D01*
G37*
%LPD*%
%LPC*%
G36*
X730457Y324236D02*
X730457Y324236D01*
X727236Y325570D01*
X724770Y328036D01*
X723436Y331257D01*
X723436Y334743D01*
X724770Y337964D01*
X727236Y340430D01*
X730457Y341764D01*
X733943Y341764D01*
X737164Y340430D01*
X739630Y337964D01*
X740964Y334743D01*
X740964Y331257D01*
X739630Y328036D01*
X737164Y325570D01*
X733943Y324236D01*
X730457Y324236D01*
G37*
%LPD*%
%LPC*%
G36*
X705057Y324236D02*
X705057Y324236D01*
X701836Y325570D01*
X699370Y328036D01*
X698036Y331257D01*
X698036Y334743D01*
X699370Y337964D01*
X701836Y340430D01*
X705057Y341764D01*
X708543Y341764D01*
X711764Y340430D01*
X714230Y337964D01*
X715564Y334743D01*
X715564Y331257D01*
X714230Y328036D01*
X711764Y325570D01*
X708543Y324236D01*
X705057Y324236D01*
G37*
%LPD*%
%LPC*%
G36*
X679657Y324236D02*
X679657Y324236D01*
X676436Y325570D01*
X673970Y328036D01*
X672636Y331257D01*
X672636Y334743D01*
X673970Y337964D01*
X676436Y340430D01*
X679657Y341764D01*
X683143Y341764D01*
X686364Y340430D01*
X688830Y337964D01*
X690164Y334743D01*
X690164Y331257D01*
X688830Y328036D01*
X686364Y325570D01*
X683143Y324236D01*
X679657Y324236D01*
G37*
%LPD*%
%LPC*%
G36*
X654257Y324236D02*
X654257Y324236D01*
X651036Y325570D01*
X648570Y328036D01*
X647236Y331257D01*
X647236Y334743D01*
X648570Y337964D01*
X651036Y340430D01*
X654257Y341764D01*
X657743Y341764D01*
X660964Y340430D01*
X663430Y337964D01*
X664764Y334743D01*
X664764Y331257D01*
X663430Y328036D01*
X660964Y325570D01*
X657743Y324236D01*
X654257Y324236D01*
G37*
%LPD*%
%LPC*%
G36*
X603457Y324236D02*
X603457Y324236D01*
X600236Y325570D01*
X597770Y328036D01*
X596436Y331257D01*
X596436Y334743D01*
X597770Y337964D01*
X600236Y340430D01*
X603457Y341764D01*
X606943Y341764D01*
X610164Y340430D01*
X612630Y337964D01*
X613964Y334743D01*
X613964Y331257D01*
X612630Y328036D01*
X610164Y325570D01*
X606943Y324236D01*
X603457Y324236D01*
G37*
%LPD*%
%LPC*%
G36*
X578057Y324236D02*
X578057Y324236D01*
X574836Y325570D01*
X572370Y328036D01*
X571036Y331257D01*
X571036Y334743D01*
X572370Y337964D01*
X574836Y340430D01*
X578057Y341764D01*
X581543Y341764D01*
X584764Y340430D01*
X587230Y337964D01*
X588564Y334743D01*
X588564Y331257D01*
X587230Y328036D01*
X584764Y325570D01*
X581543Y324236D01*
X578057Y324236D01*
G37*
%LPD*%
%LPC*%
G36*
X527257Y324236D02*
X527257Y324236D01*
X524036Y325570D01*
X521570Y328036D01*
X520236Y331257D01*
X520236Y334743D01*
X521570Y337964D01*
X524036Y340430D01*
X527257Y341764D01*
X530743Y341764D01*
X533964Y340430D01*
X536430Y337964D01*
X537764Y334743D01*
X537764Y331257D01*
X536430Y328036D01*
X533964Y325570D01*
X530743Y324236D01*
X527257Y324236D01*
G37*
%LPD*%
%LPC*%
G36*
X501857Y324236D02*
X501857Y324236D01*
X498636Y325570D01*
X496170Y328036D01*
X494836Y331257D01*
X494836Y334743D01*
X496170Y337964D01*
X498636Y340430D01*
X501857Y341764D01*
X505343Y341764D01*
X508564Y340430D01*
X511030Y337964D01*
X512364Y334743D01*
X512364Y331257D01*
X511030Y328036D01*
X508564Y325570D01*
X505343Y324236D01*
X501857Y324236D01*
G37*
%LPD*%
%LPC*%
G36*
X476457Y324236D02*
X476457Y324236D01*
X473236Y325570D01*
X470770Y328036D01*
X469436Y331257D01*
X469436Y334743D01*
X470770Y337964D01*
X473236Y340430D01*
X476457Y341764D01*
X479943Y341764D01*
X483164Y340430D01*
X485630Y337964D01*
X486964Y334743D01*
X486964Y331257D01*
X485630Y328036D01*
X483164Y325570D01*
X479943Y324236D01*
X476457Y324236D01*
G37*
%LPD*%
%LPC*%
G36*
X451057Y324236D02*
X451057Y324236D01*
X447836Y325570D01*
X445370Y328036D01*
X444036Y331257D01*
X444036Y334743D01*
X445370Y337964D01*
X447836Y340430D01*
X451057Y341764D01*
X454543Y341764D01*
X457764Y340430D01*
X460230Y337964D01*
X461564Y334743D01*
X461564Y331257D01*
X460230Y328036D01*
X457764Y325570D01*
X454543Y324236D01*
X451057Y324236D01*
G37*
%LPD*%
%LPC*%
G36*
X425657Y324236D02*
X425657Y324236D01*
X422436Y325570D01*
X419970Y328036D01*
X418636Y331257D01*
X418636Y334743D01*
X419970Y337964D01*
X422436Y340430D01*
X425657Y341764D01*
X429143Y341764D01*
X432364Y340430D01*
X434830Y337964D01*
X436164Y334743D01*
X436164Y331257D01*
X434830Y328036D01*
X432364Y325570D01*
X429143Y324236D01*
X425657Y324236D01*
G37*
%LPD*%
%LPC*%
G36*
X811057Y270636D02*
X811057Y270636D01*
X807836Y271970D01*
X805370Y274436D01*
X804036Y277657D01*
X804036Y281143D01*
X805370Y284364D01*
X807836Y286830D01*
X811057Y288164D01*
X814543Y288164D01*
X817764Y286830D01*
X820230Y284364D01*
X821564Y281143D01*
X821564Y277657D01*
X820230Y274436D01*
X817764Y271970D01*
X814543Y270636D01*
X811057Y270636D01*
G37*
%LPD*%
%LPC*%
G36*
X582457Y296036D02*
X582457Y296036D01*
X579236Y297370D01*
X576770Y299836D01*
X575436Y303057D01*
X575436Y306543D01*
X576770Y309764D01*
X579236Y312230D01*
X582457Y313564D01*
X585943Y313564D01*
X589164Y312230D01*
X591630Y309764D01*
X592964Y306543D01*
X592964Y303057D01*
X591630Y299836D01*
X589164Y297370D01*
X585943Y296036D01*
X582457Y296036D01*
G37*
%LPD*%
%LPC*%
G36*
X476457Y95636D02*
X476457Y95636D01*
X473236Y96970D01*
X470770Y99436D01*
X469436Y102657D01*
X469436Y106143D01*
X470770Y109364D01*
X473236Y111830D01*
X476457Y113164D01*
X479943Y113164D01*
X483164Y111830D01*
X485630Y109364D01*
X486964Y106143D01*
X486964Y102657D01*
X485630Y99436D01*
X483164Y96970D01*
X479943Y95636D01*
X476457Y95636D01*
G37*
%LPD*%
%LPC*%
G36*
X451057Y95636D02*
X451057Y95636D01*
X447836Y96970D01*
X445370Y99436D01*
X444036Y102657D01*
X444036Y106143D01*
X445370Y109364D01*
X447836Y111830D01*
X451057Y113164D01*
X454543Y113164D01*
X457764Y111830D01*
X460230Y109364D01*
X461564Y106143D01*
X461564Y102657D01*
X460230Y99436D01*
X457764Y96970D01*
X454543Y95636D01*
X451057Y95636D01*
G37*
%LPD*%
%LPC*%
G36*
X425657Y95636D02*
X425657Y95636D01*
X422436Y96970D01*
X419970Y99436D01*
X418636Y102657D01*
X418636Y106143D01*
X419970Y109364D01*
X422436Y111830D01*
X425657Y113164D01*
X429143Y113164D01*
X432364Y111830D01*
X434830Y109364D01*
X436164Y106143D01*
X436164Y102657D01*
X434830Y99436D01*
X432364Y96970D01*
X429143Y95636D01*
X425657Y95636D01*
G37*
%LPD*%
%LPC*%
G36*
X628857Y70236D02*
X628857Y70236D01*
X625636Y71570D01*
X623170Y74036D01*
X621836Y77257D01*
X621836Y80743D01*
X623170Y83964D01*
X625636Y86430D01*
X628857Y87764D01*
X632343Y87764D01*
X635564Y86430D01*
X638030Y83964D01*
X639364Y80743D01*
X639364Y77257D01*
X638030Y74036D01*
X635564Y71570D01*
X632343Y70236D01*
X628857Y70236D01*
G37*
%LPD*%
%LPC*%
G36*
X603457Y70236D02*
X603457Y70236D01*
X600236Y71570D01*
X597770Y74036D01*
X596436Y77257D01*
X596436Y80743D01*
X597770Y83964D01*
X600236Y86430D01*
X603457Y87764D01*
X606943Y87764D01*
X610164Y86430D01*
X612630Y83964D01*
X613964Y80743D01*
X613964Y77257D01*
X612630Y74036D01*
X610164Y71570D01*
X606943Y70236D01*
X603457Y70236D01*
G37*
%LPD*%
%LPC*%
G36*
X806657Y70236D02*
X806657Y70236D01*
X803436Y71570D01*
X800970Y74036D01*
X799636Y77257D01*
X799636Y80743D01*
X800970Y83964D01*
X803436Y86430D01*
X806657Y87764D01*
X810143Y87764D01*
X813364Y86430D01*
X815830Y83964D01*
X817164Y80743D01*
X817164Y77257D01*
X815830Y74036D01*
X813364Y71570D01*
X810143Y70236D01*
X806657Y70236D01*
G37*
%LPD*%
%LPC*%
G36*
X781257Y70236D02*
X781257Y70236D01*
X778036Y71570D01*
X775570Y74036D01*
X774236Y77257D01*
X774236Y80743D01*
X775570Y83964D01*
X778036Y86430D01*
X781257Y87764D01*
X784743Y87764D01*
X787964Y86430D01*
X790430Y83964D01*
X791764Y80743D01*
X791764Y77257D01*
X790430Y74036D01*
X787964Y71570D01*
X784743Y70236D01*
X781257Y70236D01*
G37*
%LPD*%
%LPC*%
G36*
X755857Y70236D02*
X755857Y70236D01*
X752636Y71570D01*
X750170Y74036D01*
X748836Y77257D01*
X748836Y80743D01*
X750170Y83964D01*
X752636Y86430D01*
X755857Y87764D01*
X759343Y87764D01*
X762564Y86430D01*
X765030Y83964D01*
X766364Y80743D01*
X766364Y77257D01*
X765030Y74036D01*
X762564Y71570D01*
X759343Y70236D01*
X755857Y70236D01*
G37*
%LPD*%
%LPC*%
G36*
X730457Y70236D02*
X730457Y70236D01*
X727236Y71570D01*
X724770Y74036D01*
X723436Y77257D01*
X723436Y80743D01*
X724770Y83964D01*
X727236Y86430D01*
X730457Y87764D01*
X733943Y87764D01*
X737164Y86430D01*
X739630Y83964D01*
X740964Y80743D01*
X740964Y77257D01*
X739630Y74036D01*
X737164Y71570D01*
X733943Y70236D01*
X730457Y70236D01*
G37*
%LPD*%
%LPC*%
G36*
X679657Y70236D02*
X679657Y70236D01*
X676436Y71570D01*
X673970Y74036D01*
X672636Y77257D01*
X672636Y80743D01*
X673970Y83964D01*
X676436Y86430D01*
X679657Y87764D01*
X683143Y87764D01*
X686364Y86430D01*
X688830Y83964D01*
X690164Y80743D01*
X690164Y77257D01*
X688830Y74036D01*
X686364Y71570D01*
X683143Y70236D01*
X679657Y70236D01*
G37*
%LPD*%
%LPC*%
G36*
X654257Y70236D02*
X654257Y70236D01*
X651036Y71570D01*
X648570Y74036D01*
X647236Y77257D01*
X647236Y80743D01*
X648570Y83964D01*
X651036Y86430D01*
X654257Y87764D01*
X657743Y87764D01*
X660964Y86430D01*
X663430Y83964D01*
X664764Y80743D01*
X664764Y77257D01*
X663430Y74036D01*
X660964Y71570D01*
X657743Y70236D01*
X654257Y70236D01*
G37*
%LPD*%
%LPC*%
G36*
X578057Y70236D02*
X578057Y70236D01*
X574836Y71570D01*
X572370Y74036D01*
X571036Y77257D01*
X571036Y80743D01*
X572370Y83964D01*
X574836Y86430D01*
X578057Y87764D01*
X581543Y87764D01*
X584764Y86430D01*
X587230Y83964D01*
X588564Y80743D01*
X588564Y77257D01*
X587230Y74036D01*
X584764Y71570D01*
X581543Y70236D01*
X578057Y70236D01*
G37*
%LPD*%
%LPC*%
G36*
X552657Y70236D02*
X552657Y70236D01*
X549436Y71570D01*
X546970Y74036D01*
X545636Y77257D01*
X545636Y80743D01*
X546970Y83964D01*
X549436Y86430D01*
X552657Y87764D01*
X556143Y87764D01*
X559364Y86430D01*
X561830Y83964D01*
X563164Y80743D01*
X563164Y77257D01*
X561830Y74036D01*
X559364Y71570D01*
X556143Y70236D01*
X552657Y70236D01*
G37*
%LPD*%
%LPC*%
G36*
X527257Y70236D02*
X527257Y70236D01*
X524036Y71570D01*
X521570Y74036D01*
X520236Y77257D01*
X520236Y80743D01*
X521570Y83964D01*
X524036Y86430D01*
X527257Y87764D01*
X530743Y87764D01*
X533964Y86430D01*
X536430Y83964D01*
X537764Y80743D01*
X537764Y77257D01*
X536430Y74036D01*
X533964Y71570D01*
X530743Y70236D01*
X527257Y70236D01*
G37*
%LPD*%
%LPC*%
G36*
X501857Y70236D02*
X501857Y70236D01*
X498636Y71570D01*
X496170Y74036D01*
X494836Y77257D01*
X494836Y80743D01*
X496170Y83964D01*
X498636Y86430D01*
X501857Y87764D01*
X505343Y87764D01*
X508564Y86430D01*
X511030Y83964D01*
X512364Y80743D01*
X512364Y77257D01*
X511030Y74036D01*
X508564Y71570D01*
X505343Y70236D01*
X501857Y70236D01*
G37*
%LPD*%
%LPC*%
G36*
X476457Y70236D02*
X476457Y70236D01*
X473236Y71570D01*
X470770Y74036D01*
X469436Y77257D01*
X469436Y80743D01*
X470770Y83964D01*
X473236Y86430D01*
X476457Y87764D01*
X479943Y87764D01*
X483164Y86430D01*
X485630Y83964D01*
X486964Y80743D01*
X486964Y77257D01*
X485630Y74036D01*
X483164Y71570D01*
X479943Y70236D01*
X476457Y70236D01*
G37*
%LPD*%
%LPC*%
G36*
X451057Y70236D02*
X451057Y70236D01*
X447836Y71570D01*
X445370Y74036D01*
X444036Y77257D01*
X444036Y80743D01*
X445370Y83964D01*
X447836Y86430D01*
X451057Y87764D01*
X454543Y87764D01*
X457764Y86430D01*
X460230Y83964D01*
X461564Y80743D01*
X461564Y77257D01*
X460230Y74036D01*
X457764Y71570D01*
X454543Y70236D01*
X451057Y70236D01*
G37*
%LPD*%
%LPC*%
G36*
X425657Y70236D02*
X425657Y70236D01*
X422436Y71570D01*
X419970Y74036D01*
X418636Y77257D01*
X418636Y80743D01*
X419970Y83964D01*
X422436Y86430D01*
X425657Y87764D01*
X429143Y87764D01*
X432364Y86430D01*
X434830Y83964D01*
X436164Y80743D01*
X436164Y77257D01*
X434830Y74036D01*
X432364Y71570D01*
X429143Y70236D01*
X425657Y70236D01*
G37*
%LPD*%
%LPC*%
G36*
X935686Y670514D02*
X935686Y670514D01*
X932694Y671754D01*
X930404Y674044D01*
X929164Y677036D01*
X929164Y680274D01*
X930404Y683266D01*
X932694Y685556D01*
X935686Y686796D01*
X938924Y686796D01*
X941916Y685556D01*
X944206Y683266D01*
X945446Y680274D01*
X945446Y677036D01*
X944206Y674044D01*
X941916Y671754D01*
X938924Y670514D01*
X935686Y670514D01*
G37*
%LPD*%
%LPC*%
G36*
X241626Y670514D02*
X241626Y670514D01*
X238634Y671754D01*
X236344Y674044D01*
X235104Y677036D01*
X235104Y680274D01*
X236344Y683266D01*
X238634Y685556D01*
X241626Y686796D01*
X244864Y686796D01*
X247856Y685556D01*
X250146Y683266D01*
X251386Y680274D01*
X251386Y677036D01*
X250146Y674044D01*
X247856Y671754D01*
X244864Y670514D01*
X241626Y670514D01*
G37*
%LPD*%
%LPC*%
G36*
X975686Y670514D02*
X975686Y670514D01*
X972694Y671754D01*
X970404Y674044D01*
X969164Y677036D01*
X969164Y680274D01*
X970404Y683266D01*
X972694Y685556D01*
X975686Y686796D01*
X978924Y686796D01*
X981916Y685556D01*
X984206Y683266D01*
X985446Y680274D01*
X985446Y677036D01*
X984206Y674044D01*
X981916Y671754D01*
X978924Y670514D01*
X975686Y670514D01*
G37*
%LPD*%
%LPC*%
G36*
X201626Y670514D02*
X201626Y670514D01*
X198634Y671754D01*
X196344Y674044D01*
X195104Y677036D01*
X195104Y680274D01*
X196344Y683266D01*
X198634Y685556D01*
X201626Y686796D01*
X204864Y686796D01*
X207856Y685556D01*
X210146Y683266D01*
X211386Y680274D01*
X211386Y677036D01*
X210146Y674044D01*
X207856Y671754D01*
X204864Y670514D01*
X201626Y670514D01*
G37*
%LPD*%
%LPC*%
G36*
X533923Y509923D02*
X533923Y509923D01*
X533923Y520653D01*
X535290Y520437D01*
X537137Y519837D01*
X538868Y518955D01*
X540439Y517813D01*
X541813Y516439D01*
X542955Y514868D01*
X543837Y513137D01*
X544437Y511290D01*
X544653Y509923D01*
X533923Y509923D01*
G37*
%LPD*%
%LPC*%
G36*
X533923Y559923D02*
X533923Y559923D01*
X533923Y570653D01*
X535290Y570437D01*
X537137Y569837D01*
X538868Y568955D01*
X540439Y567813D01*
X541813Y566439D01*
X542955Y564868D01*
X543837Y563137D01*
X544437Y561290D01*
X544653Y559923D01*
X533923Y559923D01*
G37*
%LPD*%
%LPC*%
G36*
X520147Y509923D02*
X520147Y509923D01*
X520363Y511290D01*
X520963Y513137D01*
X521845Y514868D01*
X522987Y516439D01*
X524361Y517813D01*
X525932Y518955D01*
X527663Y519837D01*
X529510Y520437D01*
X530877Y520653D01*
X530877Y509923D01*
X520147Y509923D01*
G37*
%LPD*%
%LPC*%
G36*
X533923Y556877D02*
X533923Y556877D01*
X544653Y556877D01*
X544437Y555510D01*
X543837Y553663D01*
X542955Y551932D01*
X541813Y550361D01*
X540439Y548987D01*
X538868Y547845D01*
X537137Y546963D01*
X535290Y546363D01*
X533923Y546147D01*
X533923Y556877D01*
G37*
%LPD*%
%LPC*%
G36*
X520147Y559923D02*
X520147Y559923D01*
X520363Y561290D01*
X520963Y563137D01*
X521845Y564868D01*
X522987Y566439D01*
X524361Y567813D01*
X525932Y568955D01*
X527663Y569837D01*
X529510Y570437D01*
X530877Y570653D01*
X530877Y559923D01*
X520147Y559923D01*
G37*
%LPD*%
%LPC*%
G36*
X533923Y506877D02*
X533923Y506877D01*
X544653Y506877D01*
X544437Y505510D01*
X543837Y503663D01*
X542955Y501932D01*
X541813Y500361D01*
X540439Y498987D01*
X538868Y497845D01*
X537137Y496963D01*
X535290Y496363D01*
X533923Y496147D01*
X533923Y506877D01*
G37*
%LPD*%
%LPC*%
G36*
X529510Y546363D02*
X529510Y546363D01*
X527663Y546963D01*
X525932Y547845D01*
X524361Y548987D01*
X522987Y550361D01*
X521845Y551932D01*
X520963Y553663D01*
X520363Y555510D01*
X520147Y556877D01*
X530877Y556877D01*
X530877Y546147D01*
X529510Y546363D01*
G37*
%LPD*%
%LPC*%
G36*
X529510Y496363D02*
X529510Y496363D01*
X527663Y496963D01*
X525932Y497845D01*
X524361Y498987D01*
X522987Y500361D01*
X521845Y501932D01*
X520963Y503663D01*
X520363Y505510D01*
X520147Y506877D01*
X530877Y506877D01*
X530877Y496147D01*
X529510Y496363D01*
G37*
%LPD*%
%LPC*%
G36*
X750061Y534923D02*
X750061Y534923D01*
X750061Y545092D01*
X751298Y544896D01*
X753062Y544323D01*
X754715Y543481D01*
X756216Y542390D01*
X757528Y541078D01*
X758619Y539577D01*
X759461Y537924D01*
X760034Y536160D01*
X760230Y534923D01*
X750061Y534923D01*
G37*
%LPD*%
%LPC*%
G36*
X736846Y534923D02*
X736846Y534923D01*
X737042Y536160D01*
X737615Y537924D01*
X738457Y539577D01*
X739548Y541078D01*
X740860Y542390D01*
X742361Y543481D01*
X744014Y544323D01*
X745778Y544896D01*
X747015Y545092D01*
X747015Y534923D01*
X736846Y534923D01*
G37*
%LPD*%
%LPC*%
G36*
X750061Y531877D02*
X750061Y531877D01*
X760230Y531877D01*
X760034Y530640D01*
X759461Y528876D01*
X758619Y527223D01*
X757528Y525722D01*
X756216Y524410D01*
X754715Y523319D01*
X753062Y522477D01*
X751298Y521904D01*
X750061Y521708D01*
X750061Y531877D01*
G37*
%LPD*%
%LPC*%
G36*
X745778Y521904D02*
X745778Y521904D01*
X744014Y522477D01*
X742361Y523319D01*
X740860Y524410D01*
X739548Y525722D01*
X738457Y527223D01*
X737615Y528876D01*
X737042Y530640D01*
X736846Y531877D01*
X747015Y531877D01*
X747015Y521708D01*
X745778Y521904D01*
G37*
%LPD*%
%LPC*%
G36*
X814323Y128523D02*
X814323Y128523D01*
X814323Y135632D01*
X815356Y135427D01*
X816951Y134766D01*
X818387Y133807D01*
X819607Y132587D01*
X820566Y131151D01*
X821227Y129556D01*
X821432Y128523D01*
X814323Y128523D01*
G37*
%LPD*%
%LPC*%
G36*
X555923Y359923D02*
X555923Y359923D01*
X555923Y367032D01*
X556956Y366827D01*
X558551Y366166D01*
X559987Y365207D01*
X561207Y363987D01*
X562166Y362551D01*
X562827Y360956D01*
X563032Y359923D01*
X555923Y359923D01*
G37*
%LPD*%
%LPC*%
G36*
X585723Y128523D02*
X585723Y128523D01*
X585723Y135632D01*
X586756Y135427D01*
X588351Y134766D01*
X589787Y133807D01*
X591007Y132587D01*
X591966Y131151D01*
X592627Y129556D01*
X592832Y128523D01*
X585723Y128523D01*
G37*
%LPD*%
%LPC*%
G36*
X555923Y334523D02*
X555923Y334523D01*
X555923Y341632D01*
X556956Y341427D01*
X558551Y340766D01*
X559987Y339807D01*
X561207Y338587D01*
X562166Y337151D01*
X562827Y335556D01*
X563032Y334523D01*
X555923Y334523D01*
G37*
%LPD*%
%LPC*%
G36*
X555923Y105923D02*
X555923Y105923D01*
X555923Y113032D01*
X556956Y112827D01*
X558551Y112166D01*
X559987Y111207D01*
X561207Y109987D01*
X562166Y108551D01*
X562827Y106956D01*
X563032Y105923D01*
X555923Y105923D01*
G37*
%LPD*%
%LPC*%
G36*
X632123Y105923D02*
X632123Y105923D01*
X632123Y113032D01*
X633156Y112827D01*
X634751Y112166D01*
X636187Y111207D01*
X637407Y109987D01*
X638366Y108551D01*
X639027Y106956D01*
X639232Y105923D01*
X632123Y105923D01*
G37*
%LPD*%
%LPC*%
G36*
X632123Y334523D02*
X632123Y334523D01*
X632123Y341632D01*
X633156Y341427D01*
X634751Y340766D01*
X636187Y339807D01*
X637407Y338587D01*
X638366Y337151D01*
X639027Y335556D01*
X639232Y334523D01*
X632123Y334523D01*
G37*
%LPD*%
%LPC*%
G36*
X814323Y125477D02*
X814323Y125477D01*
X821432Y125477D01*
X821227Y124444D01*
X820566Y122849D01*
X819607Y121413D01*
X818387Y120193D01*
X816951Y119234D01*
X815356Y118573D01*
X814323Y118368D01*
X814323Y125477D01*
G37*
%LPD*%
%LPC*%
G36*
X555923Y102877D02*
X555923Y102877D01*
X563032Y102877D01*
X562827Y101844D01*
X562166Y100249D01*
X561207Y98813D01*
X559987Y97593D01*
X558551Y96634D01*
X556956Y95973D01*
X555923Y95768D01*
X555923Y102877D01*
G37*
%LPD*%
%LPC*%
G36*
X804168Y128523D02*
X804168Y128523D01*
X804373Y129556D01*
X805034Y131151D01*
X805993Y132587D01*
X807213Y133807D01*
X808649Y134766D01*
X810244Y135427D01*
X811277Y135632D01*
X811277Y128523D01*
X804168Y128523D01*
G37*
%LPD*%
%LPC*%
G36*
X545768Y334523D02*
X545768Y334523D01*
X545973Y335556D01*
X546634Y337151D01*
X547593Y338587D01*
X548813Y339807D01*
X550249Y340766D01*
X551844Y341427D01*
X552877Y341632D01*
X552877Y334523D01*
X545768Y334523D01*
G37*
%LPD*%
%LPC*%
G36*
X632123Y102877D02*
X632123Y102877D01*
X639232Y102877D01*
X639027Y101844D01*
X638366Y100249D01*
X637407Y98813D01*
X636187Y97593D01*
X634751Y96634D01*
X633156Y95973D01*
X632123Y95768D01*
X632123Y102877D01*
G37*
%LPD*%
%LPC*%
G36*
X575568Y128523D02*
X575568Y128523D01*
X575773Y129556D01*
X576434Y131151D01*
X577393Y132587D01*
X578613Y133807D01*
X580049Y134766D01*
X581644Y135427D01*
X582677Y135632D01*
X582677Y128523D01*
X575568Y128523D01*
G37*
%LPD*%
%LPC*%
G36*
X545768Y359923D02*
X545768Y359923D01*
X545973Y360956D01*
X546634Y362551D01*
X547593Y363987D01*
X548813Y365207D01*
X550249Y366166D01*
X551844Y366827D01*
X552877Y367032D01*
X552877Y359923D01*
X545768Y359923D01*
G37*
%LPD*%
%LPC*%
G36*
X555923Y356877D02*
X555923Y356877D01*
X563032Y356877D01*
X562827Y355844D01*
X562166Y354249D01*
X561207Y352813D01*
X559987Y351593D01*
X558551Y350634D01*
X556956Y349973D01*
X555923Y349768D01*
X555923Y356877D01*
G37*
%LPD*%
%LPC*%
G36*
X621968Y334523D02*
X621968Y334523D01*
X622173Y335556D01*
X622834Y337151D01*
X623793Y338587D01*
X625013Y339807D01*
X626449Y340766D01*
X628044Y341427D01*
X629077Y341632D01*
X629077Y334523D01*
X621968Y334523D01*
G37*
%LPD*%
%LPC*%
G36*
X632123Y331477D02*
X632123Y331477D01*
X639232Y331477D01*
X639027Y330444D01*
X638366Y328849D01*
X637407Y327413D01*
X636187Y326193D01*
X634751Y325234D01*
X633156Y324573D01*
X632123Y324368D01*
X632123Y331477D01*
G37*
%LPD*%
%LPC*%
G36*
X545768Y105923D02*
X545768Y105923D01*
X545973Y106956D01*
X546634Y108551D01*
X547593Y109987D01*
X548813Y111207D01*
X550249Y112166D01*
X551844Y112827D01*
X552877Y113032D01*
X552877Y105923D01*
X545768Y105923D01*
G37*
%LPD*%
%LPC*%
G36*
X621968Y105923D02*
X621968Y105923D01*
X622173Y106956D01*
X622834Y108551D01*
X623793Y109987D01*
X625013Y111207D01*
X626449Y112166D01*
X628044Y112827D01*
X629077Y113032D01*
X629077Y105923D01*
X621968Y105923D01*
G37*
%LPD*%
%LPC*%
G36*
X555923Y331477D02*
X555923Y331477D01*
X563032Y331477D01*
X562827Y330444D01*
X562166Y328849D01*
X561207Y327413D01*
X559987Y326193D01*
X558551Y325234D01*
X556956Y324573D01*
X555923Y324368D01*
X555923Y331477D01*
G37*
%LPD*%
%LPC*%
G36*
X585723Y125477D02*
X585723Y125477D01*
X592832Y125477D01*
X592627Y124444D01*
X591966Y122849D01*
X591007Y121413D01*
X589787Y120193D01*
X588351Y119234D01*
X586756Y118573D01*
X585723Y118368D01*
X585723Y125477D01*
G37*
%LPD*%
%LPC*%
G36*
X628044Y324573D02*
X628044Y324573D01*
X626449Y325234D01*
X625013Y326193D01*
X623793Y327413D01*
X622834Y328849D01*
X622173Y330444D01*
X621968Y331477D01*
X629077Y331477D01*
X629077Y324368D01*
X628044Y324573D01*
G37*
%LPD*%
%LPC*%
G36*
X551844Y95973D02*
X551844Y95973D01*
X550249Y96634D01*
X548813Y97593D01*
X547593Y98813D01*
X546634Y100249D01*
X545973Y101844D01*
X545768Y102877D01*
X552877Y102877D01*
X552877Y95768D01*
X551844Y95973D01*
G37*
%LPD*%
%LPC*%
G36*
X628044Y95973D02*
X628044Y95973D01*
X626449Y96634D01*
X625013Y97593D01*
X623793Y98813D01*
X622834Y100249D01*
X622173Y101844D01*
X621968Y102877D01*
X629077Y102877D01*
X629077Y95768D01*
X628044Y95973D01*
G37*
%LPD*%
%LPC*%
G36*
X581644Y118573D02*
X581644Y118573D01*
X580049Y119234D01*
X578613Y120193D01*
X577393Y121413D01*
X576434Y122849D01*
X575773Y124444D01*
X575568Y125477D01*
X582677Y125477D01*
X582677Y118368D01*
X581644Y118573D01*
G37*
%LPD*%
%LPC*%
G36*
X551844Y324573D02*
X551844Y324573D01*
X550249Y325234D01*
X548813Y326193D01*
X547593Y327413D01*
X546634Y328849D01*
X545973Y330444D01*
X545768Y331477D01*
X552877Y331477D01*
X552877Y324368D01*
X551844Y324573D01*
G37*
%LPD*%
%LPC*%
G36*
X551844Y349973D02*
X551844Y349973D01*
X550249Y350634D01*
X548813Y351593D01*
X547593Y352813D01*
X546634Y354249D01*
X545973Y355844D01*
X545768Y356877D01*
X552877Y356877D01*
X552877Y349768D01*
X551844Y349973D01*
G37*
%LPD*%
%LPC*%
G36*
X810244Y118573D02*
X810244Y118573D01*
X808649Y119234D01*
X807213Y120193D01*
X805993Y121413D01*
X805034Y122849D01*
X804373Y124444D01*
X804168Y125477D01*
X811277Y125477D01*
X811277Y118368D01*
X810244Y118573D01*
G37*
%LPD*%
%LPC*%
G36*
X958828Y680178D02*
X958828Y680178D01*
X958828Y686652D01*
X959680Y686483D01*
X961161Y685869D01*
X962494Y684978D01*
X963628Y683844D01*
X964519Y682511D01*
X965133Y681030D01*
X965302Y680178D01*
X958828Y680178D01*
G37*
%LPD*%
%LPC*%
G36*
X224768Y680178D02*
X224768Y680178D01*
X224768Y686652D01*
X225620Y686483D01*
X227101Y685869D01*
X228434Y684978D01*
X229568Y683844D01*
X230459Y682511D01*
X231073Y681030D01*
X231242Y680178D01*
X224768Y680178D01*
G37*
%LPD*%
%LPC*%
G36*
X215248Y680178D02*
X215248Y680178D01*
X215417Y681030D01*
X216031Y682511D01*
X216922Y683844D01*
X218056Y684978D01*
X219389Y685869D01*
X220870Y686483D01*
X221722Y686652D01*
X221722Y680178D01*
X215248Y680178D01*
G37*
%LPD*%
%LPC*%
G36*
X949308Y680178D02*
X949308Y680178D01*
X949477Y681030D01*
X950091Y682511D01*
X950982Y683844D01*
X952116Y684978D01*
X953449Y685869D01*
X954930Y686483D01*
X955782Y686652D01*
X955782Y680178D01*
X949308Y680178D01*
G37*
%LPD*%
%LPC*%
G36*
X958828Y677132D02*
X958828Y677132D01*
X965302Y677132D01*
X965133Y676280D01*
X964519Y674799D01*
X963628Y673466D01*
X962494Y672332D01*
X961161Y671441D01*
X959680Y670827D01*
X958828Y670658D01*
X958828Y677132D01*
G37*
%LPD*%
%LPC*%
G36*
X224768Y677132D02*
X224768Y677132D01*
X231242Y677132D01*
X231073Y676280D01*
X230459Y674799D01*
X229568Y673466D01*
X228434Y672332D01*
X227101Y671441D01*
X225620Y670827D01*
X224768Y670658D01*
X224768Y677132D01*
G37*
%LPD*%
%LPC*%
G36*
X954930Y670827D02*
X954930Y670827D01*
X953449Y671441D01*
X952116Y672332D01*
X950982Y673466D01*
X950091Y674799D01*
X949477Y676280D01*
X949308Y677132D01*
X955782Y677132D01*
X955782Y670658D01*
X954930Y670827D01*
G37*
%LPD*%
%LPC*%
G36*
X220870Y670827D02*
X220870Y670827D01*
X219389Y671441D01*
X218056Y672332D01*
X216922Y673466D01*
X216031Y674799D01*
X215417Y676280D01*
X215248Y677132D01*
X221722Y677132D01*
X221722Y670658D01*
X220870Y670827D01*
G37*
%LPD*%
%LPC*%
G36*
X554399Y332999D02*
X554399Y332999D01*
X554399Y333001D01*
X554401Y333001D01*
X554401Y332999D01*
X554399Y332999D01*
G37*
%LPD*%
%LPC*%
G36*
X630599Y332999D02*
X630599Y332999D01*
X630599Y333001D01*
X630601Y333001D01*
X630601Y332999D01*
X630599Y332999D01*
G37*
%LPD*%
%LPC*%
G36*
X223244Y678654D02*
X223244Y678654D01*
X223244Y678656D01*
X223246Y678656D01*
X223246Y678654D01*
X223244Y678654D01*
G37*
%LPD*%
%LPC*%
G36*
X554399Y104399D02*
X554399Y104399D01*
X554399Y104401D01*
X554401Y104401D01*
X554401Y104399D01*
X554399Y104399D01*
G37*
%LPD*%
%LPC*%
G36*
X554399Y358399D02*
X554399Y358399D01*
X554399Y358401D01*
X554401Y358401D01*
X554401Y358399D01*
X554399Y358399D01*
G37*
%LPD*%
%LPC*%
G36*
X1145539Y685799D02*
X1145539Y685799D01*
X1145539Y685801D01*
X1145541Y685801D01*
X1145541Y685799D01*
X1145539Y685799D01*
G37*
%LPD*%
%LPC*%
G36*
X35559Y685799D02*
X35559Y685799D01*
X35559Y685801D01*
X35561Y685801D01*
X35561Y685799D01*
X35559Y685799D01*
G37*
%LPD*%
%LPC*%
G36*
X957304Y678654D02*
X957304Y678654D01*
X957304Y678656D01*
X957306Y678656D01*
X957306Y678654D01*
X957304Y678654D01*
G37*
%LPD*%
%LPC*%
G36*
X748537Y533399D02*
X748537Y533399D01*
X748537Y533401D01*
X748539Y533401D01*
X748539Y533399D01*
X748537Y533399D01*
G37*
%LPD*%
%LPC*%
G36*
X532399Y558399D02*
X532399Y558399D01*
X532399Y558401D01*
X532401Y558401D01*
X532401Y558399D01*
X532399Y558399D01*
G37*
%LPD*%
%LPC*%
G36*
X853439Y35559D02*
X853439Y35559D01*
X853439Y35561D01*
X853441Y35561D01*
X853441Y35559D01*
X853439Y35559D01*
G37*
%LPD*%
%LPC*%
G36*
X327659Y35559D02*
X327659Y35559D01*
X327659Y35561D01*
X327661Y35561D01*
X327661Y35559D01*
X327659Y35559D01*
G37*
%LPD*%
%LPC*%
G36*
X812799Y126999D02*
X812799Y126999D01*
X812799Y127001D01*
X812801Y127001D01*
X812801Y126999D01*
X812799Y126999D01*
G37*
%LPD*%
%LPC*%
G36*
X584199Y126999D02*
X584199Y126999D01*
X584199Y127001D01*
X584201Y127001D01*
X584201Y126999D01*
X584199Y126999D01*
G37*
%LPD*%
%LPC*%
G36*
X630599Y104399D02*
X630599Y104399D01*
X630599Y104401D01*
X630601Y104401D01*
X630601Y104399D01*
X630599Y104399D01*
G37*
%LPD*%
%LPC*%
G36*
X532399Y508399D02*
X532399Y508399D01*
X532399Y508401D01*
X532401Y508401D01*
X532401Y508399D01*
X532399Y508399D01*
G37*
%LPD*%
D10*
X532400Y558400D03*
X532400Y508400D03*
X407400Y508400D03*
X407400Y558400D03*
D11*
X748538Y533400D03*
X648462Y533400D03*
D12*
X376600Y358400D03*
X376600Y333000D03*
X402000Y358400D03*
X402000Y333000D03*
X427400Y358400D03*
X427400Y333000D03*
X452800Y358400D03*
X452800Y333000D03*
X478200Y358400D03*
X478200Y333000D03*
X503600Y358400D03*
X503600Y333000D03*
X529000Y358400D03*
X529000Y333000D03*
X554400Y358400D03*
X554400Y333000D03*
X579800Y358400D03*
X579800Y333000D03*
X605200Y358400D03*
X605200Y333000D03*
X630600Y358400D03*
X630600Y333000D03*
X656000Y358400D03*
X656000Y333000D03*
X681400Y358400D03*
X681400Y333000D03*
X706800Y358400D03*
X706800Y333000D03*
X732200Y358400D03*
X732200Y333000D03*
X757600Y358400D03*
X757600Y333000D03*
X783000Y358400D03*
X783000Y333000D03*
X808400Y358400D03*
X808400Y333000D03*
X376600Y104400D03*
X376600Y79000D03*
X402000Y104400D03*
X402000Y79000D03*
X427400Y104400D03*
X427400Y79000D03*
X452800Y104400D03*
X452800Y79000D03*
X478200Y104400D03*
X478200Y79000D03*
X503600Y104400D03*
X503600Y79000D03*
X529000Y104400D03*
X529000Y79000D03*
X554400Y104400D03*
X554400Y79000D03*
X579800Y104400D03*
X579800Y79000D03*
X605200Y104400D03*
X605200Y79000D03*
X630600Y104400D03*
X630600Y79000D03*
X656000Y104400D03*
X656000Y79000D03*
X681400Y104400D03*
X681400Y79000D03*
X706800Y104400D03*
X706800Y79000D03*
X732200Y104400D03*
X732200Y79000D03*
X757600Y104400D03*
X757600Y79000D03*
X783000Y104400D03*
X783000Y79000D03*
X808400Y104400D03*
X808400Y79000D03*
X584200Y304800D03*
X584200Y279400D03*
X584200Y254000D03*
X584200Y228600D03*
X584200Y203200D03*
X584200Y177800D03*
X584200Y152400D03*
X584200Y127000D03*
X812800Y127000D03*
X812800Y152400D03*
X812800Y177800D03*
X812800Y203200D03*
X812800Y228600D03*
X812800Y254000D03*
X812800Y279400D03*
X812800Y304800D03*
D13*
X327660Y35560D03*
X35560Y685800D03*
X1145540Y685800D03*
X853440Y35560D03*
D14*
X243245Y678655D03*
X223245Y678655D03*
X203245Y678655D03*
X977305Y678655D03*
X957305Y678655D03*
X937305Y678655D03*
M02*
