G04 EAGLE Gerber RS-274X export*
G75*
%MOMM*%
%FSLAX34Y34*%
%LPD*%
%INSilkscreen Top*%
%IPPOS*%
%AMOC8*
5,1,8,0,0,1.08239X$1,22.5*%
G01*
%ADD10C,0.152400*%
%ADD11C,0.127000*%
%ADD12C,0.076200*%
%ADD13C,0.254000*%
%ADD14C,0.101600*%
%ADD15C,0.177800*%
%ADD16C,0.228600*%


D10*
X383907Y686562D02*
X376682Y686562D01*
X376682Y702818D01*
X383907Y702818D01*
X382101Y695593D02*
X376682Y695593D01*
X390199Y702818D02*
X390199Y686562D01*
X399230Y686562D02*
X390199Y702818D01*
X399230Y702818D02*
X399230Y686562D01*
X413194Y695593D02*
X415904Y695593D01*
X415904Y686562D01*
X410485Y686562D01*
X410367Y686564D01*
X410249Y686570D01*
X410131Y686579D01*
X410014Y686593D01*
X409897Y686610D01*
X409780Y686631D01*
X409665Y686656D01*
X409550Y686685D01*
X409436Y686718D01*
X409324Y686754D01*
X409213Y686794D01*
X409103Y686837D01*
X408994Y686884D01*
X408887Y686934D01*
X408782Y686989D01*
X408679Y687046D01*
X408578Y687107D01*
X408478Y687171D01*
X408381Y687238D01*
X408286Y687308D01*
X408194Y687382D01*
X408103Y687458D01*
X408016Y687538D01*
X407931Y687620D01*
X407849Y687705D01*
X407769Y687792D01*
X407693Y687883D01*
X407619Y687975D01*
X407549Y688070D01*
X407482Y688167D01*
X407418Y688267D01*
X407357Y688368D01*
X407300Y688471D01*
X407245Y688576D01*
X407195Y688683D01*
X407148Y688792D01*
X407105Y688902D01*
X407065Y689013D01*
X407029Y689125D01*
X406996Y689239D01*
X406967Y689354D01*
X406942Y689469D01*
X406921Y689586D01*
X406904Y689703D01*
X406890Y689820D01*
X406881Y689938D01*
X406875Y690056D01*
X406873Y690174D01*
X406873Y699206D01*
X406875Y699324D01*
X406881Y699442D01*
X406890Y699560D01*
X406904Y699677D01*
X406921Y699794D01*
X406942Y699911D01*
X406967Y700026D01*
X406996Y700141D01*
X407029Y700255D01*
X407065Y700367D01*
X407105Y700478D01*
X407148Y700588D01*
X407195Y700697D01*
X407245Y700804D01*
X407299Y700909D01*
X407357Y701012D01*
X407418Y701113D01*
X407482Y701213D01*
X407549Y701310D01*
X407619Y701405D01*
X407693Y701497D01*
X407769Y701588D01*
X407849Y701675D01*
X407931Y701760D01*
X408016Y701842D01*
X408103Y701922D01*
X408194Y701998D01*
X408286Y702072D01*
X408381Y702142D01*
X408478Y702209D01*
X408578Y702273D01*
X408679Y702334D01*
X408782Y702391D01*
X408887Y702445D01*
X408994Y702496D01*
X409103Y702543D01*
X409213Y702586D01*
X409324Y702626D01*
X409436Y702662D01*
X409550Y702695D01*
X409665Y702724D01*
X409780Y702749D01*
X409897Y702770D01*
X410014Y702787D01*
X410131Y702801D01*
X410249Y702810D01*
X410367Y702816D01*
X410485Y702818D01*
X415904Y702818D01*
X424414Y702818D02*
X424414Y686562D01*
X422608Y686562D02*
X426220Y686562D01*
X426220Y702818D02*
X422608Y702818D01*
X440740Y686562D02*
X445256Y686562D01*
X445389Y686564D01*
X445521Y686570D01*
X445653Y686580D01*
X445785Y686593D01*
X445917Y686611D01*
X446047Y686632D01*
X446178Y686657D01*
X446307Y686686D01*
X446435Y686719D01*
X446563Y686755D01*
X446689Y686795D01*
X446814Y686839D01*
X446938Y686887D01*
X447060Y686938D01*
X447181Y686993D01*
X447300Y687051D01*
X447418Y687113D01*
X447533Y687178D01*
X447647Y687247D01*
X447758Y687318D01*
X447867Y687394D01*
X447974Y687472D01*
X448079Y687553D01*
X448181Y687638D01*
X448281Y687725D01*
X448378Y687815D01*
X448473Y687908D01*
X448564Y688004D01*
X448653Y688102D01*
X448739Y688203D01*
X448822Y688307D01*
X448902Y688413D01*
X448978Y688521D01*
X449052Y688631D01*
X449122Y688744D01*
X449189Y688858D01*
X449252Y688975D01*
X449312Y689093D01*
X449369Y689213D01*
X449422Y689335D01*
X449471Y689458D01*
X449517Y689582D01*
X449559Y689708D01*
X449597Y689835D01*
X449632Y689963D01*
X449663Y690092D01*
X449690Y690221D01*
X449713Y690352D01*
X449733Y690483D01*
X449748Y690615D01*
X449760Y690747D01*
X449768Y690879D01*
X449772Y691012D01*
X449772Y691144D01*
X449768Y691277D01*
X449760Y691409D01*
X449748Y691541D01*
X449733Y691673D01*
X449713Y691804D01*
X449690Y691935D01*
X449663Y692064D01*
X449632Y692193D01*
X449597Y692321D01*
X449559Y692448D01*
X449517Y692574D01*
X449471Y692698D01*
X449422Y692821D01*
X449369Y692943D01*
X449312Y693063D01*
X449252Y693181D01*
X449189Y693298D01*
X449122Y693412D01*
X449052Y693525D01*
X448978Y693635D01*
X448902Y693743D01*
X448822Y693849D01*
X448739Y693953D01*
X448653Y694054D01*
X448564Y694152D01*
X448473Y694248D01*
X448378Y694341D01*
X448281Y694431D01*
X448181Y694518D01*
X448079Y694603D01*
X447974Y694684D01*
X447867Y694762D01*
X447758Y694838D01*
X447647Y694909D01*
X447533Y694978D01*
X447418Y695043D01*
X447300Y695105D01*
X447181Y695163D01*
X447060Y695218D01*
X446938Y695269D01*
X446814Y695317D01*
X446689Y695361D01*
X446563Y695401D01*
X446435Y695437D01*
X446307Y695470D01*
X446178Y695499D01*
X446047Y695524D01*
X445917Y695545D01*
X445785Y695563D01*
X445653Y695576D01*
X445521Y695586D01*
X445389Y695592D01*
X445256Y695594D01*
X446159Y702818D02*
X440740Y702818D01*
X446159Y702818D02*
X446278Y702816D01*
X446398Y702810D01*
X446517Y702800D01*
X446635Y702786D01*
X446754Y702769D01*
X446871Y702747D01*
X446988Y702722D01*
X447103Y702692D01*
X447218Y702659D01*
X447332Y702622D01*
X447444Y702582D01*
X447555Y702537D01*
X447664Y702489D01*
X447772Y702438D01*
X447878Y702383D01*
X447982Y702324D01*
X448084Y702262D01*
X448184Y702197D01*
X448282Y702128D01*
X448378Y702056D01*
X448471Y701981D01*
X448561Y701904D01*
X448649Y701823D01*
X448734Y701739D01*
X448816Y701652D01*
X448896Y701563D01*
X448972Y701471D01*
X449046Y701377D01*
X449116Y701280D01*
X449183Y701182D01*
X449247Y701081D01*
X449307Y700977D01*
X449364Y700872D01*
X449417Y700765D01*
X449467Y700657D01*
X449513Y700547D01*
X449555Y700435D01*
X449594Y700322D01*
X449629Y700208D01*
X449660Y700093D01*
X449688Y699976D01*
X449711Y699859D01*
X449731Y699742D01*
X449747Y699623D01*
X449759Y699504D01*
X449767Y699385D01*
X449771Y699266D01*
X449771Y699146D01*
X449767Y699027D01*
X449759Y698908D01*
X449747Y698789D01*
X449731Y698670D01*
X449711Y698553D01*
X449688Y698436D01*
X449660Y698319D01*
X449629Y698204D01*
X449594Y698090D01*
X449555Y697977D01*
X449513Y697865D01*
X449467Y697755D01*
X449417Y697647D01*
X449364Y697540D01*
X449307Y697435D01*
X449247Y697331D01*
X449183Y697230D01*
X449116Y697132D01*
X449046Y697035D01*
X448972Y696941D01*
X448896Y696849D01*
X448816Y696760D01*
X448734Y696673D01*
X448649Y696589D01*
X448561Y696508D01*
X448471Y696431D01*
X448378Y696356D01*
X448282Y696284D01*
X448184Y696215D01*
X448084Y696150D01*
X447982Y696088D01*
X447878Y696029D01*
X447772Y695974D01*
X447664Y695923D01*
X447555Y695875D01*
X447444Y695830D01*
X447332Y695790D01*
X447218Y695753D01*
X447103Y695720D01*
X446988Y695690D01*
X446871Y695665D01*
X446754Y695643D01*
X446635Y695626D01*
X446517Y695612D01*
X446398Y695602D01*
X446278Y695596D01*
X446159Y695594D01*
X446159Y695593D02*
X442546Y695593D01*
X456372Y694690D02*
X456376Y695010D01*
X456387Y695329D01*
X456406Y695649D01*
X456433Y695967D01*
X456467Y696285D01*
X456509Y696602D01*
X456559Y696918D01*
X456616Y697233D01*
X456680Y697546D01*
X456752Y697858D01*
X456831Y698168D01*
X456918Y698475D01*
X457012Y698781D01*
X457113Y699084D01*
X457222Y699385D01*
X457337Y699683D01*
X457460Y699979D01*
X457590Y700271D01*
X457727Y700560D01*
X457726Y700561D02*
X457765Y700669D01*
X457808Y700776D01*
X457854Y700881D01*
X457905Y700985D01*
X457958Y701087D01*
X458015Y701187D01*
X458076Y701285D01*
X458140Y701380D01*
X458207Y701474D01*
X458278Y701565D01*
X458351Y701654D01*
X458428Y701740D01*
X458507Y701823D01*
X458589Y701904D01*
X458674Y701982D01*
X458762Y702056D01*
X458852Y702128D01*
X458944Y702196D01*
X459039Y702262D01*
X459136Y702324D01*
X459235Y702382D01*
X459337Y702438D01*
X459439Y702489D01*
X459544Y702537D01*
X459650Y702582D01*
X459758Y702623D01*
X459867Y702660D01*
X459977Y702693D01*
X460089Y702722D01*
X460201Y702748D01*
X460314Y702770D01*
X460428Y702787D01*
X460542Y702801D01*
X460657Y702811D01*
X460772Y702817D01*
X460887Y702819D01*
X460887Y702818D02*
X461002Y702816D01*
X461117Y702810D01*
X461232Y702800D01*
X461346Y702786D01*
X461460Y702769D01*
X461573Y702747D01*
X461685Y702721D01*
X461797Y702692D01*
X461907Y702659D01*
X462016Y702622D01*
X462124Y702581D01*
X462230Y702536D01*
X462335Y702488D01*
X462437Y702437D01*
X462538Y702381D01*
X462638Y702323D01*
X462735Y702261D01*
X462829Y702196D01*
X462922Y702127D01*
X463012Y702055D01*
X463100Y701981D01*
X463185Y701903D01*
X463267Y701822D01*
X463346Y701739D01*
X463423Y701653D01*
X463496Y701564D01*
X463567Y701473D01*
X463634Y701379D01*
X463698Y701284D01*
X463759Y701186D01*
X463816Y701086D01*
X463869Y700984D01*
X463920Y700880D01*
X463966Y700775D01*
X464009Y700668D01*
X464048Y700560D01*
X464047Y700560D02*
X464184Y700271D01*
X464314Y699979D01*
X464437Y699683D01*
X464552Y699385D01*
X464661Y699084D01*
X464762Y698781D01*
X464856Y698475D01*
X464943Y698168D01*
X465022Y697858D01*
X465094Y697546D01*
X465158Y697233D01*
X465215Y696918D01*
X465265Y696602D01*
X465307Y696285D01*
X465341Y695967D01*
X465368Y695649D01*
X465387Y695329D01*
X465398Y695010D01*
X465402Y694690D01*
X456372Y694690D02*
X456376Y694370D01*
X456387Y694051D01*
X456406Y693731D01*
X456433Y693413D01*
X456467Y693095D01*
X456509Y692778D01*
X456559Y692462D01*
X456616Y692147D01*
X456680Y691834D01*
X456752Y691522D01*
X456831Y691212D01*
X456918Y690905D01*
X457012Y690599D01*
X457113Y690296D01*
X457222Y689995D01*
X457337Y689697D01*
X457460Y689401D01*
X457590Y689109D01*
X457727Y688820D01*
X457726Y688820D02*
X457765Y688712D01*
X457808Y688605D01*
X457854Y688500D01*
X457905Y688396D01*
X457958Y688294D01*
X458015Y688194D01*
X458076Y688096D01*
X458140Y688001D01*
X458207Y687907D01*
X458278Y687816D01*
X458351Y687727D01*
X458428Y687641D01*
X458507Y687558D01*
X458589Y687477D01*
X458674Y687399D01*
X458762Y687325D01*
X458852Y687253D01*
X458945Y687184D01*
X459039Y687119D01*
X459136Y687057D01*
X459236Y686999D01*
X459337Y686943D01*
X459439Y686892D01*
X459544Y686844D01*
X459650Y686799D01*
X459758Y686758D01*
X459867Y686721D01*
X459977Y686688D01*
X460089Y686659D01*
X460201Y686633D01*
X460314Y686611D01*
X460428Y686594D01*
X460542Y686580D01*
X460657Y686570D01*
X460772Y686564D01*
X460887Y686562D01*
X464047Y688820D02*
X464184Y689109D01*
X464314Y689401D01*
X464437Y689697D01*
X464552Y689995D01*
X464661Y690296D01*
X464762Y690599D01*
X464856Y690905D01*
X464943Y691212D01*
X465022Y691522D01*
X465094Y691834D01*
X465158Y692147D01*
X465215Y692462D01*
X465265Y692778D01*
X465307Y693095D01*
X465341Y693413D01*
X465368Y693731D01*
X465387Y694051D01*
X465398Y694370D01*
X465402Y694690D01*
X464048Y688820D02*
X464009Y688712D01*
X463966Y688605D01*
X463920Y688500D01*
X463869Y688396D01*
X463816Y688294D01*
X463759Y688194D01*
X463698Y688096D01*
X463634Y688001D01*
X463567Y687907D01*
X463496Y687816D01*
X463423Y687727D01*
X463346Y687641D01*
X463267Y687558D01*
X463185Y687477D01*
X463100Y687399D01*
X463012Y687325D01*
X462922Y687253D01*
X462829Y687184D01*
X462735Y687119D01*
X462638Y687057D01*
X462538Y686999D01*
X462437Y686943D01*
X462334Y686892D01*
X462230Y686844D01*
X462124Y686799D01*
X462016Y686758D01*
X461907Y686721D01*
X461797Y686688D01*
X461685Y686659D01*
X461573Y686633D01*
X461460Y686611D01*
X461346Y686594D01*
X461232Y686580D01*
X461117Y686570D01*
X461002Y686564D01*
X460887Y686562D01*
X457275Y690174D02*
X464499Y699206D01*
X472003Y699206D02*
X476518Y702818D01*
X476518Y686562D01*
X472003Y686562D02*
X481034Y686562D01*
X496109Y692884D02*
X506947Y692884D01*
X528865Y695593D02*
X531575Y695593D01*
X531575Y686562D01*
X526156Y686562D01*
X526038Y686564D01*
X525920Y686570D01*
X525802Y686579D01*
X525685Y686593D01*
X525568Y686610D01*
X525451Y686631D01*
X525336Y686656D01*
X525221Y686685D01*
X525107Y686718D01*
X524995Y686754D01*
X524884Y686794D01*
X524774Y686837D01*
X524665Y686884D01*
X524558Y686934D01*
X524453Y686989D01*
X524350Y687046D01*
X524249Y687107D01*
X524149Y687171D01*
X524052Y687238D01*
X523957Y687308D01*
X523865Y687382D01*
X523774Y687458D01*
X523687Y687538D01*
X523602Y687620D01*
X523520Y687705D01*
X523440Y687792D01*
X523364Y687883D01*
X523290Y687975D01*
X523220Y688070D01*
X523153Y688167D01*
X523089Y688267D01*
X523028Y688368D01*
X522971Y688471D01*
X522916Y688576D01*
X522866Y688683D01*
X522819Y688792D01*
X522776Y688902D01*
X522736Y689013D01*
X522700Y689125D01*
X522667Y689239D01*
X522638Y689354D01*
X522613Y689469D01*
X522592Y689586D01*
X522575Y689703D01*
X522561Y689820D01*
X522552Y689938D01*
X522546Y690056D01*
X522544Y690174D01*
X522544Y699206D01*
X522546Y699324D01*
X522552Y699442D01*
X522561Y699560D01*
X522575Y699677D01*
X522592Y699794D01*
X522613Y699911D01*
X522638Y700026D01*
X522667Y700141D01*
X522700Y700255D01*
X522736Y700367D01*
X522776Y700478D01*
X522819Y700588D01*
X522866Y700697D01*
X522916Y700804D01*
X522970Y700909D01*
X523028Y701012D01*
X523089Y701113D01*
X523153Y701213D01*
X523220Y701310D01*
X523290Y701405D01*
X523364Y701497D01*
X523440Y701588D01*
X523520Y701675D01*
X523602Y701760D01*
X523687Y701842D01*
X523774Y701922D01*
X523865Y701998D01*
X523957Y702072D01*
X524052Y702142D01*
X524149Y702209D01*
X524249Y702273D01*
X524350Y702334D01*
X524453Y702391D01*
X524558Y702445D01*
X524665Y702496D01*
X524774Y702543D01*
X524884Y702586D01*
X524995Y702626D01*
X525107Y702662D01*
X525221Y702695D01*
X525336Y702724D01*
X525451Y702749D01*
X525568Y702770D01*
X525685Y702787D01*
X525802Y702801D01*
X525920Y702810D01*
X526038Y702816D01*
X526156Y702818D01*
X531575Y702818D01*
X539078Y697399D02*
X539078Y689271D01*
X539080Y689170D01*
X539086Y689069D01*
X539095Y688968D01*
X539108Y688867D01*
X539125Y688767D01*
X539146Y688668D01*
X539170Y688570D01*
X539198Y688473D01*
X539230Y688376D01*
X539265Y688281D01*
X539304Y688188D01*
X539346Y688096D01*
X539392Y688005D01*
X539441Y687917D01*
X539493Y687830D01*
X539549Y687745D01*
X539607Y687662D01*
X539669Y687582D01*
X539734Y687504D01*
X539801Y687428D01*
X539871Y687355D01*
X539944Y687285D01*
X540020Y687218D01*
X540098Y687153D01*
X540178Y687091D01*
X540261Y687033D01*
X540346Y686977D01*
X540433Y686925D01*
X540521Y686876D01*
X540612Y686830D01*
X540704Y686788D01*
X540797Y686749D01*
X540892Y686714D01*
X540989Y686682D01*
X541086Y686654D01*
X541184Y686630D01*
X541283Y686609D01*
X541383Y686592D01*
X541484Y686579D01*
X541585Y686570D01*
X541686Y686564D01*
X541787Y686562D01*
X546303Y686562D01*
X546303Y697399D01*
X555855Y686562D02*
X560371Y686562D01*
X555855Y686562D02*
X555754Y686564D01*
X555653Y686570D01*
X555552Y686579D01*
X555451Y686592D01*
X555351Y686609D01*
X555252Y686630D01*
X555154Y686654D01*
X555057Y686682D01*
X554960Y686714D01*
X554865Y686749D01*
X554772Y686788D01*
X554680Y686830D01*
X554589Y686876D01*
X554501Y686925D01*
X554414Y686977D01*
X554329Y687033D01*
X554246Y687091D01*
X554166Y687153D01*
X554088Y687218D01*
X554012Y687285D01*
X553939Y687355D01*
X553869Y687428D01*
X553802Y687504D01*
X553737Y687582D01*
X553675Y687662D01*
X553617Y687745D01*
X553561Y687830D01*
X553509Y687917D01*
X553460Y688005D01*
X553414Y688096D01*
X553372Y688188D01*
X553333Y688281D01*
X553298Y688376D01*
X553266Y688473D01*
X553238Y688570D01*
X553214Y688668D01*
X553193Y688767D01*
X553176Y688867D01*
X553163Y688968D01*
X553154Y689069D01*
X553148Y689170D01*
X553146Y689271D01*
X553146Y693787D01*
X553148Y693906D01*
X553154Y694026D01*
X553164Y694145D01*
X553178Y694263D01*
X553195Y694382D01*
X553217Y694499D01*
X553242Y694616D01*
X553272Y694731D01*
X553305Y694846D01*
X553342Y694960D01*
X553382Y695072D01*
X553427Y695183D01*
X553475Y695292D01*
X553526Y695400D01*
X553581Y695506D01*
X553640Y695610D01*
X553702Y695712D01*
X553767Y695812D01*
X553836Y695910D01*
X553908Y696006D01*
X553983Y696099D01*
X554060Y696189D01*
X554141Y696277D01*
X554225Y696362D01*
X554312Y696444D01*
X554401Y696524D01*
X554493Y696600D01*
X554587Y696674D01*
X554684Y696744D01*
X554782Y696811D01*
X554883Y696875D01*
X554987Y696935D01*
X555092Y696992D01*
X555199Y697045D01*
X555307Y697095D01*
X555417Y697141D01*
X555529Y697183D01*
X555642Y697222D01*
X555756Y697257D01*
X555871Y697288D01*
X555988Y697316D01*
X556105Y697339D01*
X556222Y697359D01*
X556341Y697375D01*
X556460Y697387D01*
X556579Y697395D01*
X556698Y697399D01*
X556818Y697399D01*
X556937Y697395D01*
X557056Y697387D01*
X557175Y697375D01*
X557294Y697359D01*
X557411Y697339D01*
X557528Y697316D01*
X557645Y697288D01*
X557760Y697257D01*
X557874Y697222D01*
X557987Y697183D01*
X558099Y697141D01*
X558209Y697095D01*
X558317Y697045D01*
X558424Y696992D01*
X558529Y696935D01*
X558633Y696875D01*
X558734Y696811D01*
X558832Y696744D01*
X558929Y696674D01*
X559023Y696600D01*
X559115Y696524D01*
X559204Y696444D01*
X559291Y696362D01*
X559375Y696277D01*
X559456Y696189D01*
X559533Y696099D01*
X559608Y696006D01*
X559680Y695910D01*
X559749Y695812D01*
X559814Y695712D01*
X559876Y695610D01*
X559935Y695506D01*
X559990Y695400D01*
X560041Y695292D01*
X560089Y695183D01*
X560134Y695072D01*
X560174Y694960D01*
X560211Y694846D01*
X560244Y694731D01*
X560274Y694616D01*
X560299Y694499D01*
X560321Y694382D01*
X560338Y694263D01*
X560352Y694145D01*
X560362Y694026D01*
X560368Y693906D01*
X560370Y693787D01*
X560371Y693787D02*
X560371Y691981D01*
X553146Y691981D01*
X568048Y692884D02*
X572563Y691078D01*
X568047Y692884D02*
X567959Y692921D01*
X567873Y692962D01*
X567788Y693006D01*
X567705Y693054D01*
X567625Y693105D01*
X567546Y693159D01*
X567470Y693217D01*
X567396Y693277D01*
X567324Y693341D01*
X567256Y693407D01*
X567190Y693477D01*
X567127Y693548D01*
X567066Y693623D01*
X567009Y693699D01*
X566956Y693778D01*
X566905Y693859D01*
X566858Y693942D01*
X566814Y694027D01*
X566774Y694114D01*
X566737Y694202D01*
X566704Y694292D01*
X566674Y694383D01*
X566649Y694475D01*
X566627Y694568D01*
X566609Y694662D01*
X566594Y694756D01*
X566584Y694851D01*
X566578Y694947D01*
X566575Y695042D01*
X566576Y695138D01*
X566582Y695233D01*
X566591Y695329D01*
X566604Y695423D01*
X566620Y695517D01*
X566641Y695611D01*
X566666Y695703D01*
X566694Y695794D01*
X566726Y695884D01*
X566761Y695973D01*
X566800Y696060D01*
X566843Y696146D01*
X566889Y696230D01*
X566939Y696311D01*
X566991Y696391D01*
X567047Y696469D01*
X567107Y696544D01*
X567169Y696616D01*
X567234Y696686D01*
X567302Y696754D01*
X567372Y696818D01*
X567445Y696880D01*
X567521Y696938D01*
X567599Y696994D01*
X567679Y697046D01*
X567761Y697095D01*
X567845Y697140D01*
X567931Y697182D01*
X568018Y697221D01*
X568107Y697256D01*
X568198Y697287D01*
X568289Y697314D01*
X568382Y697338D01*
X568475Y697358D01*
X568569Y697374D01*
X568664Y697386D01*
X568759Y697395D01*
X568855Y697399D01*
X568950Y697400D01*
X569197Y697393D01*
X569443Y697381D01*
X569689Y697363D01*
X569935Y697338D01*
X570179Y697308D01*
X570423Y697272D01*
X570666Y697231D01*
X570908Y697183D01*
X571149Y697129D01*
X571388Y697070D01*
X571626Y697005D01*
X571862Y696934D01*
X572097Y696858D01*
X572330Y696776D01*
X572560Y696688D01*
X572788Y696595D01*
X573015Y696497D01*
X572564Y691077D02*
X572652Y691040D01*
X572738Y690999D01*
X572823Y690955D01*
X572906Y690907D01*
X572986Y690856D01*
X573065Y690802D01*
X573141Y690744D01*
X573215Y690684D01*
X573287Y690620D01*
X573355Y690554D01*
X573421Y690484D01*
X573484Y690413D01*
X573545Y690338D01*
X573602Y690262D01*
X573655Y690183D01*
X573706Y690102D01*
X573753Y690019D01*
X573797Y689934D01*
X573837Y689847D01*
X573874Y689759D01*
X573907Y689669D01*
X573937Y689578D01*
X573962Y689486D01*
X573984Y689393D01*
X574002Y689299D01*
X574017Y689205D01*
X574027Y689110D01*
X574033Y689014D01*
X574036Y688919D01*
X574035Y688823D01*
X574029Y688728D01*
X574020Y688632D01*
X574007Y688538D01*
X573991Y688444D01*
X573970Y688350D01*
X573945Y688258D01*
X573917Y688167D01*
X573885Y688077D01*
X573850Y687988D01*
X573811Y687901D01*
X573768Y687815D01*
X573722Y687731D01*
X573672Y687650D01*
X573620Y687570D01*
X573564Y687492D01*
X573504Y687417D01*
X573442Y687345D01*
X573377Y687275D01*
X573309Y687207D01*
X573239Y687143D01*
X573166Y687081D01*
X573090Y687023D01*
X573012Y686967D01*
X572932Y686915D01*
X572850Y686866D01*
X572766Y686821D01*
X572680Y686779D01*
X572593Y686740D01*
X572504Y686705D01*
X572413Y686674D01*
X572322Y686647D01*
X572229Y686623D01*
X572136Y686603D01*
X572042Y686587D01*
X571947Y686575D01*
X571852Y686566D01*
X571756Y686562D01*
X571661Y686561D01*
X571660Y686562D02*
X571298Y686571D01*
X570936Y686589D01*
X570575Y686616D01*
X570215Y686651D01*
X569855Y686694D01*
X569496Y686746D01*
X569139Y686807D01*
X568784Y686876D01*
X568430Y686953D01*
X568078Y687039D01*
X567728Y687133D01*
X567380Y687236D01*
X567035Y687346D01*
X566693Y687465D01*
X578943Y697399D02*
X584362Y697399D01*
X580749Y702818D02*
X580749Y689271D01*
X580751Y689170D01*
X580757Y689069D01*
X580766Y688968D01*
X580779Y688867D01*
X580796Y688767D01*
X580817Y688668D01*
X580841Y688570D01*
X580869Y688473D01*
X580901Y688376D01*
X580936Y688281D01*
X580975Y688188D01*
X581017Y688096D01*
X581063Y688005D01*
X581112Y687917D01*
X581164Y687830D01*
X581220Y687745D01*
X581278Y687662D01*
X581340Y687582D01*
X581405Y687504D01*
X581472Y687428D01*
X581542Y687355D01*
X581615Y687285D01*
X581691Y687218D01*
X581769Y687153D01*
X581849Y687091D01*
X581932Y687033D01*
X582017Y686977D01*
X582104Y686925D01*
X582192Y686876D01*
X582283Y686830D01*
X582375Y686788D01*
X582468Y686749D01*
X582563Y686714D01*
X582660Y686682D01*
X582757Y686654D01*
X582855Y686630D01*
X582954Y686609D01*
X583054Y686592D01*
X583155Y686579D01*
X583256Y686570D01*
X583357Y686564D01*
X583458Y686562D01*
X584362Y686562D01*
X602188Y686562D02*
X605801Y686562D01*
X602188Y686562D02*
X602070Y686564D01*
X601952Y686570D01*
X601834Y686579D01*
X601717Y686593D01*
X601600Y686610D01*
X601483Y686631D01*
X601368Y686656D01*
X601253Y686685D01*
X601139Y686718D01*
X601027Y686754D01*
X600916Y686794D01*
X600806Y686837D01*
X600697Y686884D01*
X600590Y686934D01*
X600485Y686989D01*
X600382Y687046D01*
X600281Y687107D01*
X600181Y687171D01*
X600084Y687238D01*
X599989Y687308D01*
X599897Y687382D01*
X599806Y687458D01*
X599719Y687538D01*
X599634Y687620D01*
X599552Y687705D01*
X599472Y687792D01*
X599396Y687883D01*
X599322Y687975D01*
X599252Y688070D01*
X599185Y688167D01*
X599121Y688267D01*
X599060Y688368D01*
X599003Y688471D01*
X598948Y688576D01*
X598898Y688683D01*
X598851Y688792D01*
X598808Y688902D01*
X598768Y689013D01*
X598732Y689125D01*
X598699Y689239D01*
X598670Y689354D01*
X598645Y689469D01*
X598624Y689586D01*
X598607Y689703D01*
X598593Y689820D01*
X598584Y689938D01*
X598578Y690056D01*
X598576Y690174D01*
X598576Y699206D01*
X598578Y699324D01*
X598584Y699442D01*
X598593Y699560D01*
X598607Y699677D01*
X598624Y699794D01*
X598645Y699911D01*
X598670Y700026D01*
X598699Y700141D01*
X598732Y700255D01*
X598768Y700367D01*
X598808Y700478D01*
X598851Y700588D01*
X598898Y700697D01*
X598948Y700804D01*
X599002Y700909D01*
X599060Y701012D01*
X599121Y701113D01*
X599185Y701213D01*
X599252Y701310D01*
X599322Y701405D01*
X599396Y701497D01*
X599472Y701588D01*
X599552Y701675D01*
X599634Y701760D01*
X599719Y701842D01*
X599806Y701922D01*
X599897Y701998D01*
X599989Y702072D01*
X600084Y702142D01*
X600181Y702209D01*
X600281Y702273D01*
X600382Y702334D01*
X600485Y702391D01*
X600590Y702445D01*
X600697Y702496D01*
X600806Y702543D01*
X600916Y702586D01*
X601027Y702626D01*
X601139Y702662D01*
X601253Y702695D01*
X601368Y702724D01*
X601483Y702749D01*
X601600Y702770D01*
X601717Y702787D01*
X601834Y702801D01*
X601952Y702810D01*
X602070Y702816D01*
X602188Y702818D01*
X605801Y702818D01*
X611503Y693787D02*
X611503Y690174D01*
X611503Y693787D02*
X611505Y693906D01*
X611511Y694026D01*
X611521Y694145D01*
X611535Y694263D01*
X611552Y694382D01*
X611574Y694499D01*
X611599Y694616D01*
X611629Y694731D01*
X611662Y694846D01*
X611699Y694960D01*
X611739Y695072D01*
X611784Y695183D01*
X611832Y695292D01*
X611883Y695400D01*
X611938Y695506D01*
X611997Y695610D01*
X612059Y695712D01*
X612124Y695812D01*
X612193Y695910D01*
X612265Y696006D01*
X612340Y696099D01*
X612417Y696189D01*
X612498Y696277D01*
X612582Y696362D01*
X612669Y696444D01*
X612758Y696524D01*
X612850Y696600D01*
X612944Y696674D01*
X613041Y696744D01*
X613139Y696811D01*
X613240Y696875D01*
X613344Y696935D01*
X613449Y696992D01*
X613556Y697045D01*
X613664Y697095D01*
X613774Y697141D01*
X613886Y697183D01*
X613999Y697222D01*
X614113Y697257D01*
X614228Y697288D01*
X614345Y697316D01*
X614462Y697339D01*
X614579Y697359D01*
X614698Y697375D01*
X614817Y697387D01*
X614936Y697395D01*
X615055Y697399D01*
X615175Y697399D01*
X615294Y697395D01*
X615413Y697387D01*
X615532Y697375D01*
X615651Y697359D01*
X615768Y697339D01*
X615885Y697316D01*
X616002Y697288D01*
X616117Y697257D01*
X616231Y697222D01*
X616344Y697183D01*
X616456Y697141D01*
X616566Y697095D01*
X616674Y697045D01*
X616781Y696992D01*
X616886Y696935D01*
X616990Y696875D01*
X617091Y696811D01*
X617189Y696744D01*
X617286Y696674D01*
X617380Y696600D01*
X617472Y696524D01*
X617561Y696444D01*
X617648Y696362D01*
X617732Y696277D01*
X617813Y696189D01*
X617890Y696099D01*
X617965Y696006D01*
X618037Y695910D01*
X618106Y695812D01*
X618171Y695712D01*
X618233Y695610D01*
X618292Y695506D01*
X618347Y695400D01*
X618398Y695292D01*
X618446Y695183D01*
X618491Y695072D01*
X618531Y694960D01*
X618568Y694846D01*
X618601Y694731D01*
X618631Y694616D01*
X618656Y694499D01*
X618678Y694382D01*
X618695Y694263D01*
X618709Y694145D01*
X618719Y694026D01*
X618725Y693906D01*
X618727Y693787D01*
X618727Y690174D01*
X618725Y690055D01*
X618719Y689935D01*
X618709Y689816D01*
X618695Y689698D01*
X618678Y689579D01*
X618656Y689462D01*
X618631Y689345D01*
X618601Y689230D01*
X618568Y689115D01*
X618531Y689001D01*
X618491Y688889D01*
X618446Y688778D01*
X618398Y688669D01*
X618347Y688561D01*
X618292Y688455D01*
X618233Y688351D01*
X618171Y688249D01*
X618106Y688149D01*
X618037Y688051D01*
X617965Y687955D01*
X617890Y687862D01*
X617813Y687772D01*
X617732Y687684D01*
X617648Y687599D01*
X617561Y687517D01*
X617472Y687437D01*
X617380Y687361D01*
X617286Y687287D01*
X617189Y687217D01*
X617091Y687150D01*
X616990Y687086D01*
X616886Y687026D01*
X616781Y686969D01*
X616674Y686916D01*
X616566Y686866D01*
X616456Y686820D01*
X616344Y686778D01*
X616231Y686739D01*
X616117Y686704D01*
X616002Y686673D01*
X615885Y686645D01*
X615768Y686622D01*
X615651Y686602D01*
X615532Y686586D01*
X615413Y686574D01*
X615294Y686566D01*
X615175Y686562D01*
X615055Y686562D01*
X614936Y686566D01*
X614817Y686574D01*
X614698Y686586D01*
X614579Y686602D01*
X614462Y686622D01*
X614345Y686645D01*
X614228Y686673D01*
X614113Y686704D01*
X613999Y686739D01*
X613886Y686778D01*
X613774Y686820D01*
X613664Y686866D01*
X613556Y686916D01*
X613449Y686969D01*
X613344Y687026D01*
X613240Y687086D01*
X613139Y687150D01*
X613041Y687217D01*
X612944Y687287D01*
X612850Y687361D01*
X612758Y687437D01*
X612669Y687517D01*
X612582Y687599D01*
X612498Y687684D01*
X612417Y687772D01*
X612340Y687862D01*
X612265Y687955D01*
X612193Y688051D01*
X612124Y688149D01*
X612059Y688249D01*
X611997Y688351D01*
X611938Y688455D01*
X611883Y688561D01*
X611832Y688669D01*
X611784Y688778D01*
X611739Y688889D01*
X611699Y689001D01*
X611662Y689115D01*
X611629Y689230D01*
X611599Y689345D01*
X611574Y689462D01*
X611552Y689579D01*
X611535Y689698D01*
X611521Y689816D01*
X611511Y689935D01*
X611505Y690055D01*
X611503Y690174D01*
X625571Y689271D02*
X625571Y697399D01*
X625571Y689271D02*
X625573Y689170D01*
X625579Y689069D01*
X625588Y688968D01*
X625601Y688867D01*
X625618Y688767D01*
X625639Y688668D01*
X625663Y688570D01*
X625691Y688473D01*
X625723Y688376D01*
X625758Y688281D01*
X625797Y688188D01*
X625839Y688096D01*
X625885Y688005D01*
X625934Y687917D01*
X625986Y687830D01*
X626042Y687745D01*
X626100Y687662D01*
X626162Y687582D01*
X626227Y687504D01*
X626294Y687428D01*
X626364Y687355D01*
X626437Y687285D01*
X626513Y687218D01*
X626591Y687153D01*
X626671Y687091D01*
X626754Y687033D01*
X626839Y686977D01*
X626926Y686925D01*
X627014Y686876D01*
X627105Y686830D01*
X627197Y686788D01*
X627290Y686749D01*
X627385Y686714D01*
X627482Y686682D01*
X627579Y686654D01*
X627677Y686630D01*
X627776Y686609D01*
X627876Y686592D01*
X627977Y686579D01*
X628078Y686570D01*
X628179Y686564D01*
X628280Y686562D01*
X632795Y686562D01*
X632795Y697399D01*
X640160Y697399D02*
X640160Y686562D01*
X640160Y697399D02*
X644675Y697399D01*
X644779Y697397D01*
X644882Y697391D01*
X644986Y697381D01*
X645089Y697367D01*
X645191Y697349D01*
X645292Y697328D01*
X645393Y697302D01*
X645492Y697273D01*
X645591Y697240D01*
X645688Y697203D01*
X645783Y697162D01*
X645877Y697118D01*
X645969Y697070D01*
X646059Y697019D01*
X646148Y696964D01*
X646234Y696906D01*
X646317Y696844D01*
X646399Y696780D01*
X646477Y696712D01*
X646553Y696642D01*
X646627Y696569D01*
X646697Y696492D01*
X646765Y696414D01*
X646829Y696332D01*
X646891Y696249D01*
X646949Y696163D01*
X647004Y696074D01*
X647055Y695984D01*
X647103Y695892D01*
X647147Y695798D01*
X647188Y695703D01*
X647225Y695606D01*
X647258Y695507D01*
X647287Y695408D01*
X647313Y695307D01*
X647334Y695206D01*
X647352Y695104D01*
X647366Y695001D01*
X647376Y694897D01*
X647382Y694794D01*
X647384Y694690D01*
X647385Y694690D02*
X647385Y686562D01*
X652931Y697399D02*
X658349Y697399D01*
X654737Y702818D02*
X654737Y689271D01*
X654739Y689170D01*
X654745Y689069D01*
X654754Y688968D01*
X654767Y688867D01*
X654784Y688767D01*
X654805Y688668D01*
X654829Y688570D01*
X654857Y688473D01*
X654889Y688376D01*
X654924Y688281D01*
X654963Y688188D01*
X655005Y688096D01*
X655051Y688005D01*
X655100Y687917D01*
X655152Y687830D01*
X655208Y687745D01*
X655266Y687662D01*
X655328Y687582D01*
X655393Y687504D01*
X655460Y687428D01*
X655530Y687355D01*
X655603Y687285D01*
X655679Y687218D01*
X655757Y687153D01*
X655837Y687091D01*
X655920Y687033D01*
X656005Y686977D01*
X656092Y686925D01*
X656180Y686876D01*
X656271Y686830D01*
X656363Y686788D01*
X656456Y686749D01*
X656551Y686714D01*
X656648Y686682D01*
X656745Y686654D01*
X656843Y686630D01*
X656942Y686609D01*
X657042Y686592D01*
X657143Y686579D01*
X657244Y686570D01*
X657345Y686564D01*
X657446Y686562D01*
X658349Y686562D01*
X666837Y686562D02*
X671352Y686562D01*
X666837Y686562D02*
X666736Y686564D01*
X666635Y686570D01*
X666534Y686579D01*
X666433Y686592D01*
X666333Y686609D01*
X666234Y686630D01*
X666136Y686654D01*
X666039Y686682D01*
X665942Y686714D01*
X665847Y686749D01*
X665754Y686788D01*
X665662Y686830D01*
X665571Y686876D01*
X665483Y686925D01*
X665396Y686977D01*
X665311Y687033D01*
X665228Y687091D01*
X665148Y687153D01*
X665070Y687218D01*
X664994Y687285D01*
X664921Y687355D01*
X664851Y687428D01*
X664784Y687504D01*
X664719Y687582D01*
X664657Y687662D01*
X664599Y687745D01*
X664543Y687830D01*
X664491Y687917D01*
X664442Y688005D01*
X664396Y688096D01*
X664354Y688188D01*
X664315Y688281D01*
X664280Y688376D01*
X664248Y688473D01*
X664220Y688570D01*
X664196Y688668D01*
X664175Y688767D01*
X664158Y688867D01*
X664145Y688968D01*
X664136Y689069D01*
X664130Y689170D01*
X664128Y689271D01*
X664128Y693787D01*
X664130Y693906D01*
X664136Y694026D01*
X664146Y694145D01*
X664160Y694263D01*
X664177Y694382D01*
X664199Y694499D01*
X664224Y694616D01*
X664254Y694731D01*
X664287Y694846D01*
X664324Y694960D01*
X664364Y695072D01*
X664409Y695183D01*
X664457Y695292D01*
X664508Y695400D01*
X664563Y695506D01*
X664622Y695610D01*
X664684Y695712D01*
X664749Y695812D01*
X664818Y695910D01*
X664890Y696006D01*
X664965Y696099D01*
X665042Y696189D01*
X665123Y696277D01*
X665207Y696362D01*
X665294Y696444D01*
X665383Y696524D01*
X665475Y696600D01*
X665569Y696674D01*
X665666Y696744D01*
X665764Y696811D01*
X665865Y696875D01*
X665969Y696935D01*
X666074Y696992D01*
X666181Y697045D01*
X666289Y697095D01*
X666399Y697141D01*
X666511Y697183D01*
X666624Y697222D01*
X666738Y697257D01*
X666853Y697288D01*
X666970Y697316D01*
X667087Y697339D01*
X667204Y697359D01*
X667323Y697375D01*
X667442Y697387D01*
X667561Y697395D01*
X667680Y697399D01*
X667800Y697399D01*
X667919Y697395D01*
X668038Y697387D01*
X668157Y697375D01*
X668276Y697359D01*
X668393Y697339D01*
X668510Y697316D01*
X668627Y697288D01*
X668742Y697257D01*
X668856Y697222D01*
X668969Y697183D01*
X669081Y697141D01*
X669191Y697095D01*
X669299Y697045D01*
X669406Y696992D01*
X669511Y696935D01*
X669615Y696875D01*
X669716Y696811D01*
X669814Y696744D01*
X669911Y696674D01*
X670005Y696600D01*
X670097Y696524D01*
X670186Y696444D01*
X670273Y696362D01*
X670357Y696277D01*
X670438Y696189D01*
X670515Y696099D01*
X670590Y696006D01*
X670662Y695910D01*
X670731Y695812D01*
X670796Y695712D01*
X670858Y695610D01*
X670917Y695506D01*
X670972Y695400D01*
X671023Y695292D01*
X671071Y695183D01*
X671116Y695072D01*
X671156Y694960D01*
X671193Y694846D01*
X671226Y694731D01*
X671256Y694616D01*
X671281Y694499D01*
X671303Y694382D01*
X671320Y694263D01*
X671334Y694145D01*
X671344Y694026D01*
X671350Y693906D01*
X671352Y693787D01*
X671352Y691981D01*
X664128Y691981D01*
X678281Y686562D02*
X678281Y697399D01*
X683699Y697399D01*
X683699Y695593D01*
X704342Y702818D02*
X704342Y686562D01*
X704342Y702818D02*
X708858Y702818D01*
X708991Y702816D01*
X709123Y702810D01*
X709255Y702800D01*
X709387Y702787D01*
X709519Y702769D01*
X709649Y702748D01*
X709780Y702723D01*
X709909Y702694D01*
X710037Y702661D01*
X710165Y702625D01*
X710291Y702585D01*
X710416Y702541D01*
X710540Y702493D01*
X710662Y702442D01*
X710783Y702387D01*
X710902Y702329D01*
X711020Y702267D01*
X711135Y702202D01*
X711249Y702133D01*
X711360Y702062D01*
X711469Y701986D01*
X711576Y701908D01*
X711681Y701827D01*
X711783Y701742D01*
X711883Y701655D01*
X711980Y701565D01*
X712075Y701472D01*
X712166Y701376D01*
X712255Y701278D01*
X712341Y701177D01*
X712424Y701073D01*
X712504Y700967D01*
X712580Y700859D01*
X712654Y700749D01*
X712724Y700636D01*
X712791Y700522D01*
X712854Y700405D01*
X712914Y700287D01*
X712971Y700167D01*
X713024Y700045D01*
X713073Y699922D01*
X713119Y699798D01*
X713161Y699672D01*
X713199Y699545D01*
X713234Y699417D01*
X713265Y699288D01*
X713292Y699159D01*
X713315Y699028D01*
X713335Y698897D01*
X713350Y698765D01*
X713362Y698633D01*
X713370Y698501D01*
X713374Y698368D01*
X713374Y698236D01*
X713370Y698103D01*
X713362Y697971D01*
X713350Y697839D01*
X713335Y697707D01*
X713315Y697576D01*
X713292Y697445D01*
X713265Y697316D01*
X713234Y697187D01*
X713199Y697059D01*
X713161Y696932D01*
X713119Y696806D01*
X713073Y696682D01*
X713024Y696559D01*
X712971Y696437D01*
X712914Y696317D01*
X712854Y696199D01*
X712791Y696082D01*
X712724Y695968D01*
X712654Y695855D01*
X712580Y695745D01*
X712504Y695637D01*
X712424Y695531D01*
X712341Y695427D01*
X712255Y695326D01*
X712166Y695228D01*
X712075Y695132D01*
X711980Y695039D01*
X711883Y694949D01*
X711783Y694862D01*
X711681Y694777D01*
X711576Y694696D01*
X711469Y694618D01*
X711360Y694542D01*
X711249Y694471D01*
X711135Y694402D01*
X711020Y694337D01*
X710902Y694275D01*
X710783Y694217D01*
X710662Y694162D01*
X710540Y694111D01*
X710416Y694063D01*
X710291Y694019D01*
X710165Y693979D01*
X710037Y693943D01*
X709909Y693910D01*
X709780Y693881D01*
X709649Y693856D01*
X709519Y693835D01*
X709387Y693817D01*
X709255Y693804D01*
X709123Y693794D01*
X708991Y693788D01*
X708858Y693786D01*
X708858Y693787D02*
X704342Y693787D01*
X709761Y693787D02*
X713373Y686562D01*
X722452Y686562D02*
X726968Y686562D01*
X722452Y686562D02*
X722351Y686564D01*
X722250Y686570D01*
X722149Y686579D01*
X722048Y686592D01*
X721948Y686609D01*
X721849Y686630D01*
X721751Y686654D01*
X721654Y686682D01*
X721557Y686714D01*
X721462Y686749D01*
X721369Y686788D01*
X721277Y686830D01*
X721186Y686876D01*
X721098Y686925D01*
X721011Y686977D01*
X720926Y687033D01*
X720843Y687091D01*
X720763Y687153D01*
X720685Y687218D01*
X720609Y687285D01*
X720536Y687355D01*
X720466Y687428D01*
X720399Y687504D01*
X720334Y687582D01*
X720272Y687662D01*
X720214Y687745D01*
X720158Y687830D01*
X720106Y687917D01*
X720057Y688005D01*
X720011Y688096D01*
X719969Y688188D01*
X719930Y688281D01*
X719895Y688376D01*
X719863Y688473D01*
X719835Y688570D01*
X719811Y688668D01*
X719790Y688767D01*
X719773Y688867D01*
X719760Y688968D01*
X719751Y689069D01*
X719745Y689170D01*
X719743Y689271D01*
X719743Y693787D01*
X719745Y693906D01*
X719751Y694026D01*
X719761Y694145D01*
X719775Y694263D01*
X719792Y694382D01*
X719814Y694499D01*
X719839Y694616D01*
X719869Y694731D01*
X719902Y694846D01*
X719939Y694960D01*
X719979Y695072D01*
X720024Y695183D01*
X720072Y695292D01*
X720123Y695400D01*
X720178Y695506D01*
X720237Y695610D01*
X720299Y695712D01*
X720364Y695812D01*
X720433Y695910D01*
X720505Y696006D01*
X720580Y696099D01*
X720657Y696189D01*
X720738Y696277D01*
X720822Y696362D01*
X720909Y696444D01*
X720998Y696524D01*
X721090Y696600D01*
X721184Y696674D01*
X721281Y696744D01*
X721379Y696811D01*
X721480Y696875D01*
X721584Y696935D01*
X721689Y696992D01*
X721796Y697045D01*
X721904Y697095D01*
X722014Y697141D01*
X722126Y697183D01*
X722239Y697222D01*
X722353Y697257D01*
X722468Y697288D01*
X722585Y697316D01*
X722702Y697339D01*
X722819Y697359D01*
X722938Y697375D01*
X723057Y697387D01*
X723176Y697395D01*
X723295Y697399D01*
X723415Y697399D01*
X723534Y697395D01*
X723653Y697387D01*
X723772Y697375D01*
X723891Y697359D01*
X724008Y697339D01*
X724125Y697316D01*
X724242Y697288D01*
X724357Y697257D01*
X724471Y697222D01*
X724584Y697183D01*
X724696Y697141D01*
X724806Y697095D01*
X724914Y697045D01*
X725021Y696992D01*
X725126Y696935D01*
X725230Y696875D01*
X725331Y696811D01*
X725429Y696744D01*
X725526Y696674D01*
X725620Y696600D01*
X725712Y696524D01*
X725801Y696444D01*
X725888Y696362D01*
X725972Y696277D01*
X726053Y696189D01*
X726130Y696099D01*
X726205Y696006D01*
X726277Y695910D01*
X726346Y695812D01*
X726411Y695712D01*
X726473Y695610D01*
X726532Y695506D01*
X726587Y695400D01*
X726638Y695292D01*
X726686Y695183D01*
X726731Y695072D01*
X726771Y694960D01*
X726808Y694846D01*
X726841Y694731D01*
X726871Y694616D01*
X726896Y694499D01*
X726918Y694382D01*
X726935Y694263D01*
X726949Y694145D01*
X726959Y694026D01*
X726965Y693906D01*
X726967Y693787D01*
X726968Y693787D02*
X726968Y691981D01*
X719743Y691981D01*
X732769Y697399D02*
X736381Y686562D01*
X739994Y697399D01*
X754270Y699206D02*
X758786Y702818D01*
X758786Y686562D01*
X763301Y686562D02*
X754270Y686562D01*
X778377Y692884D02*
X789214Y692884D01*
X803387Y686562D02*
X808806Y702818D01*
X814224Y686562D01*
X812870Y690626D02*
X804742Y690626D01*
X382101Y674539D02*
X376682Y674539D01*
X378488Y679958D02*
X378488Y666411D01*
X378489Y666411D02*
X378491Y666310D01*
X378497Y666209D01*
X378506Y666108D01*
X378519Y666007D01*
X378536Y665907D01*
X378557Y665808D01*
X378581Y665710D01*
X378609Y665613D01*
X378641Y665516D01*
X378676Y665421D01*
X378715Y665328D01*
X378757Y665236D01*
X378803Y665145D01*
X378852Y665057D01*
X378904Y664970D01*
X378960Y664885D01*
X379018Y664802D01*
X379080Y664722D01*
X379145Y664644D01*
X379212Y664568D01*
X379282Y664495D01*
X379355Y664425D01*
X379431Y664358D01*
X379509Y664293D01*
X379589Y664231D01*
X379672Y664173D01*
X379757Y664117D01*
X379844Y664065D01*
X379932Y664016D01*
X380023Y663970D01*
X380115Y663928D01*
X380208Y663889D01*
X380303Y663854D01*
X380400Y663822D01*
X380497Y663794D01*
X380595Y663770D01*
X380694Y663749D01*
X380794Y663732D01*
X380895Y663719D01*
X380996Y663710D01*
X381097Y663704D01*
X381198Y663702D01*
X382101Y663702D01*
X390588Y663702D02*
X395104Y663702D01*
X390588Y663702D02*
X390487Y663704D01*
X390386Y663710D01*
X390285Y663719D01*
X390184Y663732D01*
X390084Y663749D01*
X389985Y663770D01*
X389887Y663794D01*
X389790Y663822D01*
X389693Y663854D01*
X389598Y663889D01*
X389505Y663928D01*
X389413Y663970D01*
X389322Y664016D01*
X389234Y664065D01*
X389147Y664117D01*
X389062Y664173D01*
X388979Y664231D01*
X388899Y664293D01*
X388821Y664358D01*
X388745Y664425D01*
X388672Y664495D01*
X388602Y664568D01*
X388535Y664644D01*
X388470Y664722D01*
X388408Y664802D01*
X388350Y664885D01*
X388294Y664970D01*
X388242Y665057D01*
X388193Y665145D01*
X388147Y665236D01*
X388105Y665328D01*
X388066Y665421D01*
X388031Y665516D01*
X387999Y665613D01*
X387971Y665710D01*
X387947Y665808D01*
X387926Y665907D01*
X387909Y666007D01*
X387896Y666108D01*
X387887Y666209D01*
X387881Y666310D01*
X387879Y666411D01*
X387879Y670927D01*
X387881Y671046D01*
X387887Y671166D01*
X387897Y671285D01*
X387911Y671403D01*
X387928Y671522D01*
X387950Y671639D01*
X387975Y671756D01*
X388005Y671871D01*
X388038Y671986D01*
X388075Y672100D01*
X388115Y672212D01*
X388160Y672323D01*
X388208Y672432D01*
X388259Y672540D01*
X388314Y672646D01*
X388373Y672750D01*
X388435Y672852D01*
X388500Y672952D01*
X388569Y673050D01*
X388641Y673146D01*
X388716Y673239D01*
X388793Y673329D01*
X388874Y673417D01*
X388958Y673502D01*
X389045Y673584D01*
X389134Y673664D01*
X389226Y673740D01*
X389320Y673814D01*
X389417Y673884D01*
X389515Y673951D01*
X389616Y674015D01*
X389720Y674075D01*
X389825Y674132D01*
X389932Y674185D01*
X390040Y674235D01*
X390150Y674281D01*
X390262Y674323D01*
X390375Y674362D01*
X390489Y674397D01*
X390604Y674428D01*
X390721Y674456D01*
X390838Y674479D01*
X390955Y674499D01*
X391074Y674515D01*
X391193Y674527D01*
X391312Y674535D01*
X391431Y674539D01*
X391551Y674539D01*
X391670Y674535D01*
X391789Y674527D01*
X391908Y674515D01*
X392027Y674499D01*
X392144Y674479D01*
X392261Y674456D01*
X392378Y674428D01*
X392493Y674397D01*
X392607Y674362D01*
X392720Y674323D01*
X392832Y674281D01*
X392942Y674235D01*
X393050Y674185D01*
X393157Y674132D01*
X393262Y674075D01*
X393366Y674015D01*
X393467Y673951D01*
X393565Y673884D01*
X393662Y673814D01*
X393756Y673740D01*
X393848Y673664D01*
X393937Y673584D01*
X394024Y673502D01*
X394108Y673417D01*
X394189Y673329D01*
X394266Y673239D01*
X394341Y673146D01*
X394413Y673050D01*
X394482Y672952D01*
X394547Y672852D01*
X394609Y672750D01*
X394668Y672646D01*
X394723Y672540D01*
X394774Y672432D01*
X394822Y672323D01*
X394867Y672212D01*
X394907Y672100D01*
X394944Y671986D01*
X394977Y671871D01*
X395007Y671756D01*
X395032Y671639D01*
X395054Y671522D01*
X395071Y671403D01*
X395085Y671285D01*
X395095Y671166D01*
X395101Y671046D01*
X395103Y670927D01*
X395104Y670927D02*
X395104Y669121D01*
X387879Y669121D01*
X401947Y663702D02*
X401947Y679958D01*
X401947Y674539D02*
X406463Y674539D01*
X406567Y674537D01*
X406670Y674531D01*
X406774Y674521D01*
X406877Y674507D01*
X406979Y674489D01*
X407080Y674468D01*
X407181Y674442D01*
X407280Y674413D01*
X407379Y674380D01*
X407476Y674343D01*
X407571Y674302D01*
X407665Y674258D01*
X407757Y674210D01*
X407847Y674159D01*
X407936Y674104D01*
X408022Y674046D01*
X408105Y673984D01*
X408187Y673920D01*
X408265Y673852D01*
X408341Y673782D01*
X408415Y673709D01*
X408485Y673632D01*
X408553Y673554D01*
X408617Y673472D01*
X408679Y673389D01*
X408737Y673303D01*
X408792Y673214D01*
X408843Y673124D01*
X408891Y673032D01*
X408935Y672938D01*
X408976Y672843D01*
X409013Y672746D01*
X409046Y672647D01*
X409075Y672548D01*
X409101Y672447D01*
X409122Y672346D01*
X409140Y672244D01*
X409154Y672141D01*
X409164Y672037D01*
X409170Y671934D01*
X409172Y671830D01*
X409172Y663702D01*
D11*
X299720Y670560D02*
X289560Y670560D01*
D12*
X290523Y685673D02*
X290523Y693039D01*
X292569Y693039D01*
X292658Y693037D01*
X292747Y693031D01*
X292836Y693021D01*
X292924Y693008D01*
X293012Y692991D01*
X293099Y692969D01*
X293184Y692944D01*
X293269Y692916D01*
X293352Y692883D01*
X293434Y692847D01*
X293514Y692808D01*
X293592Y692765D01*
X293668Y692719D01*
X293743Y692669D01*
X293815Y692616D01*
X293884Y692560D01*
X293951Y692501D01*
X294016Y692440D01*
X294077Y692375D01*
X294136Y692308D01*
X294192Y692239D01*
X294245Y692167D01*
X294295Y692092D01*
X294341Y692016D01*
X294384Y691938D01*
X294423Y691858D01*
X294459Y691776D01*
X294492Y691693D01*
X294520Y691608D01*
X294545Y691523D01*
X294567Y691436D01*
X294584Y691348D01*
X294597Y691260D01*
X294607Y691171D01*
X294613Y691082D01*
X294615Y690993D01*
X294613Y690904D01*
X294607Y690815D01*
X294597Y690726D01*
X294584Y690638D01*
X294567Y690550D01*
X294545Y690463D01*
X294520Y690378D01*
X294492Y690293D01*
X294459Y690210D01*
X294423Y690128D01*
X294384Y690048D01*
X294341Y689970D01*
X294295Y689894D01*
X294245Y689819D01*
X294192Y689747D01*
X294136Y689678D01*
X294077Y689611D01*
X294016Y689546D01*
X293951Y689485D01*
X293884Y689426D01*
X293815Y689370D01*
X293743Y689317D01*
X293668Y689267D01*
X293592Y689221D01*
X293514Y689178D01*
X293434Y689139D01*
X293352Y689103D01*
X293269Y689070D01*
X293184Y689042D01*
X293099Y689017D01*
X293012Y688995D01*
X292924Y688978D01*
X292836Y688965D01*
X292747Y688955D01*
X292658Y688949D01*
X292569Y688947D01*
X290523Y688947D01*
X292978Y688947D02*
X294615Y685673D01*
X297787Y691402D02*
X299833Y693039D01*
X299833Y685673D01*
X297787Y685673D02*
X301879Y685673D01*
D11*
X419100Y449580D02*
X419100Y439420D01*
D12*
X419481Y434467D02*
X419481Y427101D01*
X419481Y434467D02*
X421527Y434467D01*
X421616Y434465D01*
X421705Y434459D01*
X421794Y434449D01*
X421882Y434436D01*
X421970Y434419D01*
X422057Y434397D01*
X422142Y434372D01*
X422227Y434344D01*
X422310Y434311D01*
X422392Y434275D01*
X422472Y434236D01*
X422550Y434193D01*
X422626Y434147D01*
X422701Y434097D01*
X422773Y434044D01*
X422842Y433988D01*
X422909Y433929D01*
X422974Y433868D01*
X423035Y433803D01*
X423094Y433736D01*
X423150Y433667D01*
X423203Y433595D01*
X423253Y433520D01*
X423299Y433444D01*
X423342Y433366D01*
X423381Y433286D01*
X423417Y433204D01*
X423450Y433121D01*
X423478Y433036D01*
X423503Y432951D01*
X423525Y432864D01*
X423542Y432776D01*
X423555Y432688D01*
X423565Y432599D01*
X423571Y432510D01*
X423573Y432421D01*
X423571Y432332D01*
X423565Y432243D01*
X423555Y432154D01*
X423542Y432066D01*
X423525Y431978D01*
X423503Y431891D01*
X423478Y431806D01*
X423450Y431721D01*
X423417Y431638D01*
X423381Y431556D01*
X423342Y431476D01*
X423299Y431398D01*
X423253Y431322D01*
X423203Y431247D01*
X423150Y431175D01*
X423094Y431106D01*
X423035Y431039D01*
X422974Y430974D01*
X422909Y430913D01*
X422842Y430854D01*
X422773Y430798D01*
X422701Y430745D01*
X422626Y430695D01*
X422550Y430649D01*
X422472Y430606D01*
X422392Y430567D01*
X422310Y430531D01*
X422227Y430498D01*
X422142Y430470D01*
X422057Y430445D01*
X421970Y430423D01*
X421882Y430406D01*
X421794Y430393D01*
X421705Y430383D01*
X421616Y430377D01*
X421527Y430375D01*
X419481Y430375D01*
X421936Y430375D02*
X423573Y427101D01*
X430838Y432626D02*
X430836Y432711D01*
X430830Y432796D01*
X430820Y432880D01*
X430807Y432964D01*
X430789Y433048D01*
X430768Y433130D01*
X430743Y433211D01*
X430714Y433291D01*
X430681Y433370D01*
X430645Y433447D01*
X430605Y433522D01*
X430562Y433596D01*
X430516Y433667D01*
X430466Y433736D01*
X430413Y433803D01*
X430357Y433867D01*
X430298Y433928D01*
X430237Y433987D01*
X430173Y434043D01*
X430106Y434096D01*
X430037Y434146D01*
X429966Y434192D01*
X429892Y434235D01*
X429817Y434275D01*
X429740Y434311D01*
X429661Y434344D01*
X429581Y434373D01*
X429500Y434398D01*
X429418Y434419D01*
X429334Y434437D01*
X429250Y434450D01*
X429166Y434460D01*
X429081Y434466D01*
X428996Y434468D01*
X428996Y434467D02*
X428900Y434465D01*
X428804Y434459D01*
X428709Y434449D01*
X428614Y434436D01*
X428519Y434418D01*
X428426Y434397D01*
X428333Y434372D01*
X428242Y434343D01*
X428151Y434311D01*
X428062Y434275D01*
X427975Y434235D01*
X427889Y434192D01*
X427805Y434146D01*
X427723Y434096D01*
X427643Y434042D01*
X427566Y433986D01*
X427491Y433926D01*
X427418Y433864D01*
X427348Y433798D01*
X427280Y433730D01*
X427215Y433659D01*
X427154Y433586D01*
X427095Y433510D01*
X427039Y433431D01*
X426987Y433351D01*
X426938Y433268D01*
X426892Y433184D01*
X426850Y433098D01*
X426812Y433010D01*
X426777Y432921D01*
X426745Y432830D01*
X430223Y431194D02*
X430283Y431253D01*
X430340Y431315D01*
X430395Y431379D01*
X430446Y431446D01*
X430495Y431515D01*
X430541Y431585D01*
X430584Y431658D01*
X430624Y431732D01*
X430660Y431808D01*
X430693Y431886D01*
X430723Y431965D01*
X430750Y432045D01*
X430773Y432126D01*
X430792Y432208D01*
X430808Y432290D01*
X430821Y432374D01*
X430830Y432458D01*
X430835Y432542D01*
X430837Y432626D01*
X430223Y431193D02*
X426745Y427101D01*
X430837Y427101D01*
D11*
X281940Y670560D02*
X271780Y670560D01*
D12*
X272743Y685673D02*
X272743Y693039D01*
X274789Y693039D01*
X274878Y693037D01*
X274967Y693031D01*
X275056Y693021D01*
X275144Y693008D01*
X275232Y692991D01*
X275319Y692969D01*
X275404Y692944D01*
X275489Y692916D01*
X275572Y692883D01*
X275654Y692847D01*
X275734Y692808D01*
X275812Y692765D01*
X275888Y692719D01*
X275963Y692669D01*
X276035Y692616D01*
X276104Y692560D01*
X276171Y692501D01*
X276236Y692440D01*
X276297Y692375D01*
X276356Y692308D01*
X276412Y692239D01*
X276465Y692167D01*
X276515Y692092D01*
X276561Y692016D01*
X276604Y691938D01*
X276643Y691858D01*
X276679Y691776D01*
X276712Y691693D01*
X276740Y691608D01*
X276765Y691523D01*
X276787Y691436D01*
X276804Y691348D01*
X276817Y691260D01*
X276827Y691171D01*
X276833Y691082D01*
X276835Y690993D01*
X276833Y690904D01*
X276827Y690815D01*
X276817Y690726D01*
X276804Y690638D01*
X276787Y690550D01*
X276765Y690463D01*
X276740Y690378D01*
X276712Y690293D01*
X276679Y690210D01*
X276643Y690128D01*
X276604Y690048D01*
X276561Y689970D01*
X276515Y689894D01*
X276465Y689819D01*
X276412Y689747D01*
X276356Y689678D01*
X276297Y689611D01*
X276236Y689546D01*
X276171Y689485D01*
X276104Y689426D01*
X276035Y689370D01*
X275963Y689317D01*
X275888Y689267D01*
X275812Y689221D01*
X275734Y689178D01*
X275654Y689139D01*
X275572Y689103D01*
X275489Y689070D01*
X275404Y689042D01*
X275319Y689017D01*
X275232Y688995D01*
X275144Y688978D01*
X275056Y688965D01*
X274967Y688955D01*
X274878Y688949D01*
X274789Y688947D01*
X272743Y688947D01*
X275198Y688947D02*
X276835Y685673D01*
X280007Y685673D02*
X282053Y685673D01*
X282142Y685675D01*
X282231Y685681D01*
X282320Y685691D01*
X282408Y685704D01*
X282496Y685721D01*
X282583Y685743D01*
X282668Y685768D01*
X282753Y685796D01*
X282836Y685829D01*
X282918Y685865D01*
X282998Y685904D01*
X283076Y685947D01*
X283152Y685993D01*
X283227Y686043D01*
X283299Y686096D01*
X283368Y686152D01*
X283435Y686211D01*
X283500Y686272D01*
X283561Y686337D01*
X283620Y686404D01*
X283676Y686473D01*
X283729Y686545D01*
X283779Y686620D01*
X283825Y686696D01*
X283868Y686774D01*
X283907Y686854D01*
X283943Y686936D01*
X283976Y687019D01*
X284004Y687104D01*
X284029Y687189D01*
X284051Y687276D01*
X284068Y687364D01*
X284081Y687452D01*
X284091Y687541D01*
X284097Y687630D01*
X284099Y687719D01*
X284097Y687808D01*
X284091Y687897D01*
X284081Y687986D01*
X284068Y688074D01*
X284051Y688162D01*
X284029Y688249D01*
X284004Y688334D01*
X283976Y688419D01*
X283943Y688502D01*
X283907Y688584D01*
X283868Y688664D01*
X283825Y688742D01*
X283779Y688818D01*
X283729Y688893D01*
X283676Y688965D01*
X283620Y689034D01*
X283561Y689101D01*
X283500Y689166D01*
X283435Y689227D01*
X283368Y689286D01*
X283299Y689342D01*
X283227Y689395D01*
X283152Y689445D01*
X283076Y689491D01*
X282998Y689534D01*
X282918Y689573D01*
X282836Y689609D01*
X282753Y689642D01*
X282668Y689670D01*
X282583Y689695D01*
X282496Y689717D01*
X282408Y689734D01*
X282320Y689747D01*
X282231Y689757D01*
X282142Y689763D01*
X282053Y689765D01*
X282462Y693039D02*
X280007Y693039D01*
X282462Y693039D02*
X282541Y693037D01*
X282620Y693031D01*
X282699Y693022D01*
X282777Y693009D01*
X282854Y692991D01*
X282930Y692971D01*
X283005Y692946D01*
X283079Y692918D01*
X283152Y692887D01*
X283223Y692851D01*
X283292Y692813D01*
X283359Y692771D01*
X283424Y692726D01*
X283487Y692678D01*
X283548Y692627D01*
X283605Y692573D01*
X283661Y692517D01*
X283713Y692458D01*
X283763Y692396D01*
X283809Y692332D01*
X283853Y692266D01*
X283893Y692198D01*
X283929Y692128D01*
X283963Y692056D01*
X283993Y691982D01*
X284019Y691908D01*
X284042Y691832D01*
X284060Y691755D01*
X284076Y691678D01*
X284087Y691599D01*
X284095Y691521D01*
X284099Y691442D01*
X284099Y691362D01*
X284095Y691283D01*
X284087Y691205D01*
X284076Y691126D01*
X284060Y691049D01*
X284042Y690972D01*
X284019Y690896D01*
X283993Y690822D01*
X283963Y690748D01*
X283929Y690676D01*
X283893Y690606D01*
X283853Y690538D01*
X283809Y690472D01*
X283763Y690408D01*
X283713Y690346D01*
X283661Y690287D01*
X283605Y690231D01*
X283548Y690177D01*
X283487Y690126D01*
X283424Y690078D01*
X283359Y690033D01*
X283292Y689991D01*
X283223Y689953D01*
X283152Y689917D01*
X283079Y689886D01*
X283005Y689858D01*
X282930Y689833D01*
X282854Y689813D01*
X282777Y689795D01*
X282699Y689782D01*
X282620Y689773D01*
X282541Y689767D01*
X282462Y689765D01*
X280825Y689765D01*
D11*
X881380Y670560D02*
X891540Y670560D01*
D12*
X882343Y685673D02*
X882343Y693039D01*
X884389Y693039D01*
X884478Y693037D01*
X884567Y693031D01*
X884656Y693021D01*
X884744Y693008D01*
X884832Y692991D01*
X884919Y692969D01*
X885004Y692944D01*
X885089Y692916D01*
X885172Y692883D01*
X885254Y692847D01*
X885334Y692808D01*
X885412Y692765D01*
X885488Y692719D01*
X885563Y692669D01*
X885635Y692616D01*
X885704Y692560D01*
X885771Y692501D01*
X885836Y692440D01*
X885897Y692375D01*
X885956Y692308D01*
X886012Y692239D01*
X886065Y692167D01*
X886115Y692092D01*
X886161Y692016D01*
X886204Y691938D01*
X886243Y691858D01*
X886279Y691776D01*
X886312Y691693D01*
X886340Y691608D01*
X886365Y691523D01*
X886387Y691436D01*
X886404Y691348D01*
X886417Y691260D01*
X886427Y691171D01*
X886433Y691082D01*
X886435Y690993D01*
X886433Y690904D01*
X886427Y690815D01*
X886417Y690726D01*
X886404Y690638D01*
X886387Y690550D01*
X886365Y690463D01*
X886340Y690378D01*
X886312Y690293D01*
X886279Y690210D01*
X886243Y690128D01*
X886204Y690048D01*
X886161Y689970D01*
X886115Y689894D01*
X886065Y689819D01*
X886012Y689747D01*
X885956Y689678D01*
X885897Y689611D01*
X885836Y689546D01*
X885771Y689485D01*
X885704Y689426D01*
X885635Y689370D01*
X885563Y689317D01*
X885488Y689267D01*
X885412Y689221D01*
X885334Y689178D01*
X885254Y689139D01*
X885172Y689103D01*
X885089Y689070D01*
X885004Y689042D01*
X884919Y689017D01*
X884832Y688995D01*
X884744Y688978D01*
X884656Y688965D01*
X884567Y688955D01*
X884478Y688949D01*
X884389Y688947D01*
X882343Y688947D01*
X884798Y688947D02*
X886435Y685673D01*
X889607Y687310D02*
X891244Y693039D01*
X889607Y687310D02*
X893699Y687310D01*
X892471Y688947D02*
X892471Y685673D01*
D11*
X899160Y670560D02*
X909320Y670560D01*
D12*
X900123Y685673D02*
X900123Y693039D01*
X902169Y693039D01*
X902258Y693037D01*
X902347Y693031D01*
X902436Y693021D01*
X902524Y693008D01*
X902612Y692991D01*
X902699Y692969D01*
X902784Y692944D01*
X902869Y692916D01*
X902952Y692883D01*
X903034Y692847D01*
X903114Y692808D01*
X903192Y692765D01*
X903268Y692719D01*
X903343Y692669D01*
X903415Y692616D01*
X903484Y692560D01*
X903551Y692501D01*
X903616Y692440D01*
X903677Y692375D01*
X903736Y692308D01*
X903792Y692239D01*
X903845Y692167D01*
X903895Y692092D01*
X903941Y692016D01*
X903984Y691938D01*
X904023Y691858D01*
X904059Y691776D01*
X904092Y691693D01*
X904120Y691608D01*
X904145Y691523D01*
X904167Y691436D01*
X904184Y691348D01*
X904197Y691260D01*
X904207Y691171D01*
X904213Y691082D01*
X904215Y690993D01*
X904213Y690904D01*
X904207Y690815D01*
X904197Y690726D01*
X904184Y690638D01*
X904167Y690550D01*
X904145Y690463D01*
X904120Y690378D01*
X904092Y690293D01*
X904059Y690210D01*
X904023Y690128D01*
X903984Y690048D01*
X903941Y689970D01*
X903895Y689894D01*
X903845Y689819D01*
X903792Y689747D01*
X903736Y689678D01*
X903677Y689611D01*
X903616Y689546D01*
X903551Y689485D01*
X903484Y689426D01*
X903415Y689370D01*
X903343Y689317D01*
X903268Y689267D01*
X903192Y689221D01*
X903114Y689178D01*
X903034Y689139D01*
X902952Y689103D01*
X902869Y689070D01*
X902784Y689042D01*
X902699Y689017D01*
X902612Y688995D01*
X902524Y688978D01*
X902436Y688965D01*
X902347Y688955D01*
X902258Y688949D01*
X902169Y688947D01*
X900123Y688947D01*
X902578Y688947D02*
X904215Y685673D01*
X907387Y685673D02*
X909842Y685673D01*
X909920Y685675D01*
X909998Y685680D01*
X910075Y685690D01*
X910152Y685703D01*
X910228Y685719D01*
X910303Y685739D01*
X910377Y685763D01*
X910450Y685790D01*
X910522Y685821D01*
X910592Y685855D01*
X910661Y685892D01*
X910727Y685933D01*
X910792Y685977D01*
X910854Y686023D01*
X910914Y686073D01*
X910972Y686125D01*
X911027Y686180D01*
X911079Y686238D01*
X911129Y686298D01*
X911175Y686360D01*
X911219Y686425D01*
X911260Y686492D01*
X911297Y686560D01*
X911331Y686630D01*
X911362Y686702D01*
X911389Y686775D01*
X911413Y686849D01*
X911433Y686924D01*
X911449Y687000D01*
X911462Y687077D01*
X911472Y687154D01*
X911477Y687232D01*
X911479Y687310D01*
X911479Y688128D01*
X911477Y688206D01*
X911472Y688284D01*
X911462Y688361D01*
X911449Y688438D01*
X911433Y688514D01*
X911413Y688589D01*
X911389Y688663D01*
X911362Y688736D01*
X911331Y688808D01*
X911297Y688878D01*
X911260Y688947D01*
X911219Y689013D01*
X911175Y689078D01*
X911129Y689140D01*
X911079Y689200D01*
X911027Y689258D01*
X910972Y689313D01*
X910914Y689365D01*
X910854Y689415D01*
X910792Y689461D01*
X910727Y689505D01*
X910661Y689546D01*
X910592Y689583D01*
X910522Y689617D01*
X910450Y689648D01*
X910377Y689675D01*
X910303Y689699D01*
X910228Y689719D01*
X910152Y689735D01*
X910075Y689748D01*
X909998Y689758D01*
X909920Y689763D01*
X909842Y689765D01*
X907387Y689765D01*
X907387Y693039D01*
X911479Y693039D01*
D13*
X529900Y483400D02*
X529897Y483158D01*
X529888Y482917D01*
X529874Y482676D01*
X529853Y482435D01*
X529827Y482195D01*
X529795Y481955D01*
X529757Y481716D01*
X529714Y481479D01*
X529664Y481242D01*
X529609Y481007D01*
X529549Y480773D01*
X529482Y480541D01*
X529411Y480310D01*
X529333Y480081D01*
X529250Y479854D01*
X529162Y479629D01*
X529068Y479406D01*
X528969Y479186D01*
X528864Y478968D01*
X528755Y478753D01*
X528640Y478540D01*
X528520Y478330D01*
X528395Y478124D01*
X528265Y477920D01*
X528130Y477719D01*
X527990Y477522D01*
X527846Y477328D01*
X527697Y477138D01*
X527543Y476952D01*
X527385Y476769D01*
X527223Y476590D01*
X527056Y476415D01*
X526885Y476244D01*
X526710Y476077D01*
X526531Y475915D01*
X526348Y475757D01*
X526162Y475603D01*
X525972Y475454D01*
X525778Y475310D01*
X525581Y475170D01*
X525380Y475035D01*
X525176Y474905D01*
X524970Y474780D01*
X524760Y474660D01*
X524547Y474545D01*
X524332Y474436D01*
X524114Y474331D01*
X523894Y474232D01*
X523671Y474138D01*
X523446Y474050D01*
X523219Y473967D01*
X522990Y473889D01*
X522759Y473818D01*
X522527Y473751D01*
X522293Y473691D01*
X522058Y473636D01*
X521821Y473586D01*
X521584Y473543D01*
X521345Y473505D01*
X521105Y473473D01*
X520865Y473447D01*
X520624Y473426D01*
X520383Y473412D01*
X520142Y473403D01*
X519900Y473400D01*
X419900Y473400D01*
X419658Y473403D01*
X419417Y473412D01*
X419176Y473426D01*
X418935Y473447D01*
X418695Y473473D01*
X418455Y473505D01*
X418216Y473543D01*
X417979Y473586D01*
X417742Y473636D01*
X417507Y473691D01*
X417273Y473751D01*
X417041Y473818D01*
X416810Y473889D01*
X416581Y473967D01*
X416354Y474050D01*
X416129Y474138D01*
X415906Y474232D01*
X415686Y474331D01*
X415468Y474436D01*
X415253Y474545D01*
X415040Y474660D01*
X414830Y474780D01*
X414624Y474905D01*
X414420Y475035D01*
X414219Y475170D01*
X414022Y475310D01*
X413828Y475454D01*
X413638Y475603D01*
X413452Y475757D01*
X413269Y475915D01*
X413090Y476077D01*
X412915Y476244D01*
X412744Y476415D01*
X412577Y476590D01*
X412415Y476769D01*
X412257Y476952D01*
X412103Y477138D01*
X411954Y477328D01*
X411810Y477522D01*
X411670Y477719D01*
X411535Y477920D01*
X411405Y478124D01*
X411280Y478330D01*
X411160Y478540D01*
X411045Y478753D01*
X410936Y478968D01*
X410831Y479186D01*
X410732Y479406D01*
X410638Y479629D01*
X410550Y479854D01*
X410467Y480081D01*
X410389Y480310D01*
X410318Y480541D01*
X410251Y480773D01*
X410191Y481007D01*
X410136Y481242D01*
X410086Y481479D01*
X410043Y481716D01*
X410005Y481955D01*
X409973Y482195D01*
X409947Y482435D01*
X409926Y482676D01*
X409912Y482917D01*
X409903Y483158D01*
X409900Y483400D01*
X409900Y583400D02*
X409903Y583642D01*
X409912Y583883D01*
X409926Y584124D01*
X409947Y584365D01*
X409973Y584605D01*
X410005Y584845D01*
X410043Y585084D01*
X410086Y585321D01*
X410136Y585558D01*
X410191Y585793D01*
X410251Y586027D01*
X410318Y586259D01*
X410389Y586490D01*
X410467Y586719D01*
X410550Y586946D01*
X410638Y587171D01*
X410732Y587394D01*
X410831Y587614D01*
X410936Y587832D01*
X411045Y588047D01*
X411160Y588260D01*
X411280Y588470D01*
X411405Y588676D01*
X411535Y588880D01*
X411670Y589081D01*
X411810Y589278D01*
X411954Y589472D01*
X412103Y589662D01*
X412257Y589848D01*
X412415Y590031D01*
X412577Y590210D01*
X412744Y590385D01*
X412915Y590556D01*
X413090Y590723D01*
X413269Y590885D01*
X413452Y591043D01*
X413638Y591197D01*
X413828Y591346D01*
X414022Y591490D01*
X414219Y591630D01*
X414420Y591765D01*
X414624Y591895D01*
X414830Y592020D01*
X415040Y592140D01*
X415253Y592255D01*
X415468Y592364D01*
X415686Y592469D01*
X415906Y592568D01*
X416129Y592662D01*
X416354Y592750D01*
X416581Y592833D01*
X416810Y592911D01*
X417041Y592982D01*
X417273Y593049D01*
X417507Y593109D01*
X417742Y593164D01*
X417979Y593214D01*
X418216Y593257D01*
X418455Y593295D01*
X418695Y593327D01*
X418935Y593353D01*
X419176Y593374D01*
X419417Y593388D01*
X419658Y593397D01*
X419900Y593400D01*
X519900Y593400D01*
X520142Y593397D01*
X520383Y593388D01*
X520624Y593374D01*
X520865Y593353D01*
X521105Y593327D01*
X521345Y593295D01*
X521584Y593257D01*
X521821Y593214D01*
X522058Y593164D01*
X522293Y593109D01*
X522527Y593049D01*
X522759Y592982D01*
X522990Y592911D01*
X523219Y592833D01*
X523446Y592750D01*
X523671Y592662D01*
X523894Y592568D01*
X524114Y592469D01*
X524332Y592364D01*
X524547Y592255D01*
X524760Y592140D01*
X524970Y592020D01*
X525176Y591895D01*
X525380Y591765D01*
X525581Y591630D01*
X525778Y591490D01*
X525972Y591346D01*
X526162Y591197D01*
X526348Y591043D01*
X526531Y590885D01*
X526710Y590723D01*
X526885Y590556D01*
X527056Y590385D01*
X527223Y590210D01*
X527385Y590031D01*
X527543Y589848D01*
X527697Y589662D01*
X527846Y589472D01*
X527990Y589278D01*
X528130Y589081D01*
X528265Y588880D01*
X528395Y588676D01*
X528520Y588470D01*
X528640Y588260D01*
X528755Y588047D01*
X528864Y587832D01*
X528969Y587614D01*
X529068Y587394D01*
X529162Y587171D01*
X529250Y586946D01*
X529333Y586719D01*
X529411Y586490D01*
X529482Y586259D01*
X529549Y586027D01*
X529609Y585793D01*
X529664Y585558D01*
X529714Y585321D01*
X529757Y585084D01*
X529795Y584845D01*
X529827Y584605D01*
X529853Y584365D01*
X529874Y584124D01*
X529888Y583883D01*
X529897Y583642D01*
X529900Y583400D01*
X434545Y533400D02*
X434556Y534268D01*
X434588Y535135D01*
X434641Y536001D01*
X434715Y536865D01*
X434811Y537728D01*
X434928Y538588D01*
X435066Y539444D01*
X435224Y540297D01*
X435404Y541146D01*
X435605Y541991D01*
X435826Y542830D01*
X436067Y543663D01*
X436329Y544490D01*
X436612Y545311D01*
X436914Y546124D01*
X437236Y546930D01*
X437578Y547727D01*
X437939Y548516D01*
X438320Y549296D01*
X438720Y550066D01*
X439138Y550826D01*
X439575Y551576D01*
X440030Y552315D01*
X440503Y553042D01*
X440994Y553758D01*
X441503Y554461D01*
X442028Y555152D01*
X442570Y555829D01*
X443129Y556493D01*
X443704Y557143D01*
X444294Y557779D01*
X444900Y558400D01*
X445521Y559006D01*
X446157Y559596D01*
X446807Y560171D01*
X447471Y560730D01*
X448148Y561272D01*
X448839Y561797D01*
X449542Y562306D01*
X450258Y562797D01*
X450985Y563270D01*
X451724Y563725D01*
X452474Y564162D01*
X453234Y564580D01*
X454004Y564980D01*
X454784Y565361D01*
X455573Y565722D01*
X456370Y566064D01*
X457176Y566386D01*
X457989Y566688D01*
X458810Y566971D01*
X459637Y567233D01*
X460470Y567474D01*
X461309Y567695D01*
X462154Y567896D01*
X463003Y568076D01*
X463856Y568234D01*
X464712Y568372D01*
X465572Y568489D01*
X466435Y568585D01*
X467299Y568659D01*
X468165Y568712D01*
X469032Y568744D01*
X469900Y568755D01*
X470768Y568744D01*
X471635Y568712D01*
X472501Y568659D01*
X473365Y568585D01*
X474228Y568489D01*
X475088Y568372D01*
X475944Y568234D01*
X476797Y568076D01*
X477646Y567896D01*
X478491Y567695D01*
X479330Y567474D01*
X480163Y567233D01*
X480990Y566971D01*
X481811Y566688D01*
X482624Y566386D01*
X483430Y566064D01*
X484227Y565722D01*
X485016Y565361D01*
X485796Y564980D01*
X486566Y564580D01*
X487326Y564162D01*
X488076Y563725D01*
X488815Y563270D01*
X489542Y562797D01*
X490258Y562306D01*
X490961Y561797D01*
X491652Y561272D01*
X492329Y560730D01*
X492993Y560171D01*
X493643Y559596D01*
X494279Y559006D01*
X494900Y558400D01*
X495506Y557779D01*
X496096Y557143D01*
X496671Y556493D01*
X497230Y555829D01*
X497772Y555152D01*
X498297Y554461D01*
X498806Y553758D01*
X499297Y553042D01*
X499770Y552315D01*
X500225Y551576D01*
X500662Y550826D01*
X501080Y550066D01*
X501480Y549296D01*
X501861Y548516D01*
X502222Y547727D01*
X502564Y546930D01*
X502886Y546124D01*
X503188Y545311D01*
X503471Y544490D01*
X503733Y543663D01*
X503974Y542830D01*
X504195Y541991D01*
X504396Y541146D01*
X504576Y540297D01*
X504734Y539444D01*
X504872Y538588D01*
X504989Y537728D01*
X505085Y536865D01*
X505159Y536001D01*
X505212Y535135D01*
X505244Y534268D01*
X505255Y533400D01*
X505244Y532532D01*
X505212Y531665D01*
X505159Y530799D01*
X505085Y529935D01*
X504989Y529072D01*
X504872Y528212D01*
X504734Y527356D01*
X504576Y526503D01*
X504396Y525654D01*
X504195Y524809D01*
X503974Y523970D01*
X503733Y523137D01*
X503471Y522310D01*
X503188Y521489D01*
X502886Y520676D01*
X502564Y519870D01*
X502222Y519073D01*
X501861Y518284D01*
X501480Y517504D01*
X501080Y516734D01*
X500662Y515974D01*
X500225Y515224D01*
X499770Y514485D01*
X499297Y513758D01*
X498806Y513042D01*
X498297Y512339D01*
X497772Y511648D01*
X497230Y510971D01*
X496671Y510307D01*
X496096Y509657D01*
X495506Y509021D01*
X494900Y508400D01*
X494279Y507794D01*
X493643Y507204D01*
X492993Y506629D01*
X492329Y506070D01*
X491652Y505528D01*
X490961Y505003D01*
X490258Y504494D01*
X489542Y504003D01*
X488815Y503530D01*
X488076Y503075D01*
X487326Y502638D01*
X486566Y502220D01*
X485796Y501820D01*
X485016Y501439D01*
X484227Y501078D01*
X483430Y500736D01*
X482624Y500414D01*
X481811Y500112D01*
X480990Y499829D01*
X480163Y499567D01*
X479330Y499326D01*
X478491Y499105D01*
X477646Y498904D01*
X476797Y498724D01*
X475944Y498566D01*
X475088Y498428D01*
X474228Y498311D01*
X473365Y498215D01*
X472501Y498141D01*
X471635Y498088D01*
X470768Y498056D01*
X469900Y498045D01*
X469032Y498056D01*
X468165Y498088D01*
X467299Y498141D01*
X466435Y498215D01*
X465572Y498311D01*
X464712Y498428D01*
X463856Y498566D01*
X463003Y498724D01*
X462154Y498904D01*
X461309Y499105D01*
X460470Y499326D01*
X459637Y499567D01*
X458810Y499829D01*
X457989Y500112D01*
X457176Y500414D01*
X456370Y500736D01*
X455573Y501078D01*
X454784Y501439D01*
X454004Y501820D01*
X453234Y502220D01*
X452474Y502638D01*
X451724Y503075D01*
X450985Y503530D01*
X450258Y504003D01*
X449542Y504494D01*
X448839Y505003D01*
X448148Y505528D01*
X447471Y506070D01*
X446807Y506629D01*
X446157Y507204D01*
X445521Y507794D01*
X444900Y508400D01*
X444294Y509021D01*
X443704Y509657D01*
X443129Y510307D01*
X442570Y510971D01*
X442028Y511648D01*
X441503Y512339D01*
X440994Y513042D01*
X440503Y513758D01*
X440030Y514485D01*
X439575Y515224D01*
X439138Y515974D01*
X438720Y516734D01*
X438320Y517504D01*
X437939Y518284D01*
X437578Y519073D01*
X437236Y519870D01*
X436914Y520676D01*
X436612Y521489D01*
X436329Y522310D01*
X436067Y523137D01*
X435826Y523970D01*
X435605Y524809D01*
X435404Y525654D01*
X435224Y526503D01*
X435066Y527356D01*
X434928Y528212D01*
X434811Y529072D01*
X434715Y529935D01*
X434641Y530799D01*
X434588Y531665D01*
X434556Y532532D01*
X434545Y533400D01*
X449900Y553400D02*
X489900Y553400D01*
X489900Y513400D01*
X449900Y513400D01*
X449900Y553400D01*
X409900Y570900D02*
X409900Y583400D01*
X409900Y545900D02*
X409900Y520900D01*
X409900Y495900D02*
X409900Y483400D01*
X529900Y570900D02*
X529900Y583400D01*
X529900Y545900D02*
X529900Y520900D01*
X529900Y495900D02*
X529900Y483400D01*
D14*
X409448Y599948D02*
X409448Y611632D01*
X412694Y611632D01*
X412807Y611630D01*
X412920Y611624D01*
X413033Y611614D01*
X413146Y611600D01*
X413258Y611583D01*
X413369Y611561D01*
X413479Y611536D01*
X413589Y611506D01*
X413697Y611473D01*
X413804Y611436D01*
X413910Y611396D01*
X414014Y611351D01*
X414117Y611303D01*
X414218Y611252D01*
X414317Y611197D01*
X414414Y611139D01*
X414509Y611077D01*
X414602Y611012D01*
X414692Y610944D01*
X414780Y610873D01*
X414866Y610798D01*
X414949Y610721D01*
X415029Y610641D01*
X415106Y610558D01*
X415181Y610472D01*
X415252Y610384D01*
X415320Y610294D01*
X415385Y610201D01*
X415447Y610106D01*
X415505Y610009D01*
X415560Y609910D01*
X415611Y609809D01*
X415659Y609706D01*
X415704Y609602D01*
X415744Y609496D01*
X415781Y609389D01*
X415814Y609281D01*
X415844Y609171D01*
X415869Y609061D01*
X415891Y608950D01*
X415908Y608838D01*
X415922Y608725D01*
X415932Y608612D01*
X415938Y608499D01*
X415940Y608386D01*
X415938Y608273D01*
X415932Y608160D01*
X415922Y608047D01*
X415908Y607934D01*
X415891Y607822D01*
X415869Y607711D01*
X415844Y607601D01*
X415814Y607491D01*
X415781Y607383D01*
X415744Y607276D01*
X415704Y607170D01*
X415659Y607066D01*
X415611Y606963D01*
X415560Y606862D01*
X415505Y606763D01*
X415447Y606666D01*
X415385Y606571D01*
X415320Y606478D01*
X415252Y606388D01*
X415181Y606300D01*
X415106Y606214D01*
X415029Y606131D01*
X414949Y606051D01*
X414866Y605974D01*
X414780Y605899D01*
X414692Y605828D01*
X414602Y605760D01*
X414509Y605695D01*
X414414Y605633D01*
X414317Y605575D01*
X414218Y605520D01*
X414117Y605469D01*
X414014Y605421D01*
X413910Y605376D01*
X413804Y605336D01*
X413697Y605299D01*
X413589Y605266D01*
X413479Y605236D01*
X413369Y605211D01*
X413258Y605189D01*
X413146Y605172D01*
X413033Y605158D01*
X412920Y605148D01*
X412807Y605142D01*
X412694Y605140D01*
X412694Y605141D02*
X409448Y605141D01*
X420709Y603194D02*
X420709Y611632D01*
X420708Y603194D02*
X420710Y603081D01*
X420716Y602968D01*
X420726Y602855D01*
X420740Y602742D01*
X420757Y602630D01*
X420779Y602519D01*
X420804Y602409D01*
X420834Y602299D01*
X420867Y602191D01*
X420904Y602084D01*
X420944Y601978D01*
X420989Y601874D01*
X421037Y601771D01*
X421088Y601670D01*
X421143Y601571D01*
X421201Y601474D01*
X421263Y601379D01*
X421328Y601286D01*
X421396Y601196D01*
X421467Y601108D01*
X421542Y601022D01*
X421619Y600939D01*
X421699Y600859D01*
X421782Y600782D01*
X421868Y600707D01*
X421956Y600636D01*
X422046Y600568D01*
X422139Y600503D01*
X422234Y600441D01*
X422331Y600383D01*
X422430Y600328D01*
X422531Y600277D01*
X422634Y600229D01*
X422738Y600184D01*
X422844Y600144D01*
X422951Y600107D01*
X423059Y600074D01*
X423169Y600044D01*
X423279Y600019D01*
X423390Y599997D01*
X423502Y599980D01*
X423615Y599966D01*
X423728Y599956D01*
X423841Y599950D01*
X423954Y599948D01*
X424067Y599950D01*
X424180Y599956D01*
X424293Y599966D01*
X424406Y599980D01*
X424518Y599997D01*
X424629Y600019D01*
X424739Y600044D01*
X424849Y600074D01*
X424957Y600107D01*
X425064Y600144D01*
X425170Y600184D01*
X425274Y600229D01*
X425377Y600277D01*
X425478Y600328D01*
X425577Y600383D01*
X425674Y600441D01*
X425769Y600503D01*
X425862Y600568D01*
X425952Y600636D01*
X426040Y600707D01*
X426126Y600782D01*
X426209Y600859D01*
X426289Y600939D01*
X426366Y601022D01*
X426441Y601108D01*
X426512Y601196D01*
X426580Y601286D01*
X426645Y601379D01*
X426707Y601474D01*
X426765Y601571D01*
X426820Y601670D01*
X426871Y601771D01*
X426919Y601874D01*
X426964Y601978D01*
X427004Y602084D01*
X427041Y602191D01*
X427074Y602299D01*
X427104Y602409D01*
X427129Y602519D01*
X427151Y602630D01*
X427168Y602742D01*
X427182Y602855D01*
X427192Y602968D01*
X427198Y603081D01*
X427200Y603194D01*
X427200Y611632D01*
X438629Y602544D02*
X438627Y602445D01*
X438621Y602345D01*
X438612Y602246D01*
X438599Y602148D01*
X438582Y602050D01*
X438561Y601952D01*
X438536Y601856D01*
X438508Y601761D01*
X438476Y601667D01*
X438441Y601574D01*
X438402Y601482D01*
X438359Y601392D01*
X438314Y601304D01*
X438264Y601217D01*
X438212Y601133D01*
X438156Y601050D01*
X438098Y600970D01*
X438036Y600892D01*
X437971Y600817D01*
X437903Y600744D01*
X437833Y600674D01*
X437760Y600606D01*
X437685Y600541D01*
X437607Y600479D01*
X437527Y600421D01*
X437444Y600365D01*
X437360Y600313D01*
X437273Y600263D01*
X437185Y600218D01*
X437095Y600175D01*
X437003Y600136D01*
X436910Y600101D01*
X436816Y600069D01*
X436721Y600041D01*
X436625Y600016D01*
X436527Y599995D01*
X436429Y599978D01*
X436331Y599965D01*
X436232Y599956D01*
X436132Y599950D01*
X436033Y599948D01*
X435889Y599950D01*
X435744Y599956D01*
X435600Y599965D01*
X435457Y599978D01*
X435313Y599995D01*
X435170Y600016D01*
X435028Y600041D01*
X434887Y600069D01*
X434746Y600101D01*
X434606Y600137D01*
X434467Y600176D01*
X434329Y600219D01*
X434193Y600266D01*
X434057Y600316D01*
X433923Y600370D01*
X433791Y600427D01*
X433660Y600488D01*
X433531Y600552D01*
X433403Y600620D01*
X433277Y600690D01*
X433153Y600765D01*
X433032Y600842D01*
X432912Y600923D01*
X432794Y601006D01*
X432679Y601093D01*
X432566Y601183D01*
X432455Y601276D01*
X432347Y601371D01*
X432241Y601470D01*
X432138Y601571D01*
X432464Y609036D02*
X432466Y609135D01*
X432472Y609235D01*
X432481Y609334D01*
X432494Y609432D01*
X432511Y609530D01*
X432532Y609628D01*
X432557Y609724D01*
X432585Y609819D01*
X432617Y609913D01*
X432652Y610006D01*
X432691Y610098D01*
X432734Y610188D01*
X432779Y610276D01*
X432829Y610363D01*
X432881Y610447D01*
X432937Y610530D01*
X432995Y610610D01*
X433057Y610688D01*
X433122Y610763D01*
X433190Y610836D01*
X433260Y610906D01*
X433333Y610974D01*
X433408Y611039D01*
X433486Y611101D01*
X433566Y611159D01*
X433649Y611215D01*
X433733Y611267D01*
X433820Y611317D01*
X433908Y611362D01*
X433998Y611405D01*
X434090Y611444D01*
X434183Y611479D01*
X434277Y611511D01*
X434372Y611539D01*
X434469Y611564D01*
X434566Y611585D01*
X434664Y611602D01*
X434762Y611615D01*
X434861Y611624D01*
X434961Y611630D01*
X435060Y611632D01*
X435196Y611630D01*
X435332Y611624D01*
X435468Y611615D01*
X435604Y611602D01*
X435739Y611584D01*
X435873Y611564D01*
X436007Y611539D01*
X436141Y611511D01*
X436273Y611478D01*
X436404Y611443D01*
X436535Y611403D01*
X436664Y611360D01*
X436792Y611314D01*
X436918Y611263D01*
X437044Y611210D01*
X437167Y611152D01*
X437289Y611092D01*
X437409Y611028D01*
X437528Y610960D01*
X437644Y610890D01*
X437758Y610816D01*
X437871Y610739D01*
X437981Y610658D01*
X433761Y606764D02*
X433675Y606817D01*
X433591Y606874D01*
X433509Y606933D01*
X433429Y606996D01*
X433352Y607062D01*
X433277Y607130D01*
X433205Y607202D01*
X433136Y607276D01*
X433070Y607353D01*
X433007Y607432D01*
X432947Y607514D01*
X432890Y607598D01*
X432836Y607684D01*
X432786Y607772D01*
X432739Y607862D01*
X432695Y607953D01*
X432656Y608047D01*
X432619Y608141D01*
X432587Y608237D01*
X432558Y608335D01*
X432533Y608433D01*
X432512Y608532D01*
X432494Y608632D01*
X432481Y608732D01*
X432471Y608833D01*
X432465Y608935D01*
X432463Y609036D01*
X437332Y604816D02*
X437418Y604763D01*
X437502Y604706D01*
X437584Y604647D01*
X437664Y604584D01*
X437741Y604518D01*
X437816Y604450D01*
X437888Y604378D01*
X437957Y604304D01*
X438023Y604227D01*
X438086Y604148D01*
X438146Y604066D01*
X438203Y603982D01*
X438257Y603896D01*
X438307Y603808D01*
X438354Y603718D01*
X438398Y603627D01*
X438437Y603533D01*
X438474Y603439D01*
X438506Y603343D01*
X438535Y603245D01*
X438560Y603147D01*
X438581Y603048D01*
X438599Y602948D01*
X438612Y602848D01*
X438622Y602747D01*
X438628Y602645D01*
X438630Y602544D01*
X437331Y604816D02*
X433761Y606764D01*
X443569Y611632D02*
X443569Y599948D01*
X443569Y606439D02*
X450060Y606439D01*
X450060Y611632D02*
X450060Y599948D01*
X455492Y604492D02*
X463282Y604492D01*
X468884Y606439D02*
X472129Y606439D01*
X472129Y606440D02*
X472242Y606438D01*
X472355Y606432D01*
X472468Y606422D01*
X472581Y606408D01*
X472693Y606391D01*
X472804Y606369D01*
X472914Y606344D01*
X473024Y606314D01*
X473132Y606281D01*
X473239Y606244D01*
X473345Y606204D01*
X473449Y606159D01*
X473552Y606111D01*
X473653Y606060D01*
X473752Y606005D01*
X473849Y605947D01*
X473944Y605885D01*
X474037Y605820D01*
X474127Y605752D01*
X474215Y605681D01*
X474301Y605606D01*
X474384Y605529D01*
X474464Y605449D01*
X474541Y605366D01*
X474616Y605280D01*
X474687Y605192D01*
X474755Y605102D01*
X474820Y605009D01*
X474882Y604914D01*
X474940Y604817D01*
X474995Y604718D01*
X475046Y604617D01*
X475094Y604514D01*
X475139Y604410D01*
X475179Y604304D01*
X475216Y604197D01*
X475249Y604089D01*
X475279Y603979D01*
X475304Y603869D01*
X475326Y603758D01*
X475343Y603646D01*
X475357Y603533D01*
X475367Y603420D01*
X475373Y603307D01*
X475375Y603194D01*
X475373Y603081D01*
X475367Y602968D01*
X475357Y602855D01*
X475343Y602742D01*
X475326Y602630D01*
X475304Y602519D01*
X475279Y602409D01*
X475249Y602299D01*
X475216Y602191D01*
X475179Y602084D01*
X475139Y601978D01*
X475094Y601874D01*
X475046Y601771D01*
X474995Y601670D01*
X474940Y601571D01*
X474882Y601474D01*
X474820Y601379D01*
X474755Y601286D01*
X474687Y601196D01*
X474616Y601108D01*
X474541Y601022D01*
X474464Y600939D01*
X474384Y600859D01*
X474301Y600782D01*
X474215Y600707D01*
X474127Y600636D01*
X474037Y600568D01*
X473944Y600503D01*
X473849Y600441D01*
X473752Y600383D01*
X473653Y600328D01*
X473552Y600277D01*
X473449Y600229D01*
X473345Y600184D01*
X473239Y600144D01*
X473132Y600107D01*
X473024Y600074D01*
X472914Y600044D01*
X472804Y600019D01*
X472693Y599997D01*
X472581Y599980D01*
X472468Y599966D01*
X472355Y599956D01*
X472242Y599950D01*
X472129Y599948D01*
X468884Y599948D01*
X468884Y611632D01*
X472129Y611632D01*
X472230Y611630D01*
X472330Y611624D01*
X472430Y611614D01*
X472530Y611601D01*
X472629Y611583D01*
X472728Y611562D01*
X472825Y611537D01*
X472922Y611508D01*
X473017Y611475D01*
X473111Y611439D01*
X473203Y611399D01*
X473294Y611356D01*
X473383Y611309D01*
X473470Y611259D01*
X473556Y611205D01*
X473639Y611148D01*
X473719Y611088D01*
X473798Y611025D01*
X473874Y610958D01*
X473947Y610889D01*
X474017Y610817D01*
X474085Y610743D01*
X474150Y610666D01*
X474211Y610586D01*
X474270Y610504D01*
X474325Y610420D01*
X474377Y610334D01*
X474426Y610246D01*
X474471Y610156D01*
X474513Y610064D01*
X474551Y609971D01*
X474585Y609876D01*
X474616Y609781D01*
X474643Y609684D01*
X474666Y609586D01*
X474686Y609487D01*
X474701Y609387D01*
X474713Y609287D01*
X474721Y609187D01*
X474725Y609086D01*
X474725Y608986D01*
X474721Y608885D01*
X474713Y608785D01*
X474701Y608685D01*
X474686Y608585D01*
X474666Y608486D01*
X474643Y608388D01*
X474616Y608291D01*
X474585Y608196D01*
X474551Y608101D01*
X474513Y608008D01*
X474471Y607916D01*
X474426Y607826D01*
X474377Y607738D01*
X474325Y607652D01*
X474270Y607568D01*
X474211Y607486D01*
X474150Y607406D01*
X474085Y607329D01*
X474017Y607255D01*
X473947Y607183D01*
X473874Y607114D01*
X473798Y607047D01*
X473719Y606984D01*
X473639Y606924D01*
X473556Y606867D01*
X473470Y606813D01*
X473383Y606763D01*
X473294Y606716D01*
X473203Y606673D01*
X473111Y606633D01*
X473017Y606597D01*
X472922Y606564D01*
X472825Y606535D01*
X472728Y606510D01*
X472629Y606489D01*
X472530Y606471D01*
X472430Y606458D01*
X472330Y606448D01*
X472230Y606442D01*
X472129Y606440D01*
X480145Y603194D02*
X480145Y611632D01*
X480144Y603194D02*
X480146Y603081D01*
X480152Y602968D01*
X480162Y602855D01*
X480176Y602742D01*
X480193Y602630D01*
X480215Y602519D01*
X480240Y602409D01*
X480270Y602299D01*
X480303Y602191D01*
X480340Y602084D01*
X480380Y601978D01*
X480425Y601874D01*
X480473Y601771D01*
X480524Y601670D01*
X480579Y601571D01*
X480637Y601474D01*
X480699Y601379D01*
X480764Y601286D01*
X480832Y601196D01*
X480903Y601108D01*
X480978Y601022D01*
X481055Y600939D01*
X481135Y600859D01*
X481218Y600782D01*
X481304Y600707D01*
X481392Y600636D01*
X481482Y600568D01*
X481575Y600503D01*
X481670Y600441D01*
X481767Y600383D01*
X481866Y600328D01*
X481967Y600277D01*
X482070Y600229D01*
X482174Y600184D01*
X482280Y600144D01*
X482387Y600107D01*
X482495Y600074D01*
X482605Y600044D01*
X482715Y600019D01*
X482826Y599997D01*
X482938Y599980D01*
X483051Y599966D01*
X483164Y599956D01*
X483277Y599950D01*
X483390Y599948D01*
X483503Y599950D01*
X483616Y599956D01*
X483729Y599966D01*
X483842Y599980D01*
X483954Y599997D01*
X484065Y600019D01*
X484175Y600044D01*
X484285Y600074D01*
X484393Y600107D01*
X484500Y600144D01*
X484606Y600184D01*
X484710Y600229D01*
X484813Y600277D01*
X484914Y600328D01*
X485013Y600383D01*
X485110Y600441D01*
X485205Y600503D01*
X485298Y600568D01*
X485388Y600636D01*
X485476Y600707D01*
X485562Y600782D01*
X485645Y600859D01*
X485725Y600939D01*
X485802Y601022D01*
X485877Y601108D01*
X485948Y601196D01*
X486016Y601286D01*
X486081Y601379D01*
X486143Y601474D01*
X486201Y601571D01*
X486256Y601670D01*
X486307Y601771D01*
X486355Y601874D01*
X486400Y601978D01*
X486440Y602084D01*
X486477Y602191D01*
X486510Y602299D01*
X486540Y602409D01*
X486565Y602519D01*
X486587Y602630D01*
X486604Y602742D01*
X486618Y602855D01*
X486628Y602968D01*
X486634Y603081D01*
X486636Y603194D01*
X486636Y611632D01*
X494439Y611632D02*
X494439Y599948D01*
X491193Y611632D02*
X497685Y611632D01*
X504345Y611632D02*
X504345Y599948D01*
X501099Y611632D02*
X507591Y611632D01*
X511767Y608386D02*
X511767Y603194D01*
X511767Y608386D02*
X511769Y608499D01*
X511775Y608612D01*
X511785Y608725D01*
X511799Y608838D01*
X511816Y608950D01*
X511838Y609061D01*
X511863Y609171D01*
X511893Y609281D01*
X511926Y609389D01*
X511963Y609496D01*
X512003Y609602D01*
X512048Y609706D01*
X512096Y609809D01*
X512147Y609910D01*
X512202Y610009D01*
X512260Y610106D01*
X512322Y610201D01*
X512387Y610294D01*
X512455Y610384D01*
X512526Y610472D01*
X512601Y610558D01*
X512678Y610641D01*
X512758Y610721D01*
X512841Y610798D01*
X512927Y610873D01*
X513015Y610944D01*
X513105Y611012D01*
X513198Y611077D01*
X513293Y611139D01*
X513390Y611197D01*
X513489Y611252D01*
X513590Y611303D01*
X513693Y611351D01*
X513797Y611396D01*
X513903Y611436D01*
X514010Y611473D01*
X514118Y611506D01*
X514228Y611536D01*
X514338Y611561D01*
X514449Y611583D01*
X514561Y611600D01*
X514674Y611614D01*
X514787Y611624D01*
X514900Y611630D01*
X515013Y611632D01*
X515126Y611630D01*
X515239Y611624D01*
X515352Y611614D01*
X515465Y611600D01*
X515577Y611583D01*
X515688Y611561D01*
X515798Y611536D01*
X515908Y611506D01*
X516016Y611473D01*
X516123Y611436D01*
X516229Y611396D01*
X516333Y611351D01*
X516436Y611303D01*
X516537Y611252D01*
X516636Y611197D01*
X516733Y611139D01*
X516828Y611077D01*
X516921Y611012D01*
X517011Y610944D01*
X517099Y610873D01*
X517185Y610798D01*
X517268Y610721D01*
X517348Y610641D01*
X517425Y610558D01*
X517500Y610472D01*
X517571Y610384D01*
X517639Y610294D01*
X517704Y610201D01*
X517766Y610106D01*
X517824Y610009D01*
X517879Y609910D01*
X517930Y609809D01*
X517978Y609706D01*
X518023Y609602D01*
X518063Y609496D01*
X518100Y609389D01*
X518133Y609281D01*
X518163Y609171D01*
X518188Y609061D01*
X518210Y608950D01*
X518227Y608838D01*
X518241Y608725D01*
X518251Y608612D01*
X518257Y608499D01*
X518259Y608386D01*
X518259Y603194D01*
X518257Y603081D01*
X518251Y602968D01*
X518241Y602855D01*
X518227Y602742D01*
X518210Y602630D01*
X518188Y602519D01*
X518163Y602409D01*
X518133Y602299D01*
X518100Y602191D01*
X518063Y602084D01*
X518023Y601978D01*
X517978Y601874D01*
X517930Y601771D01*
X517879Y601670D01*
X517824Y601571D01*
X517766Y601474D01*
X517704Y601379D01*
X517639Y601286D01*
X517571Y601196D01*
X517500Y601108D01*
X517425Y601022D01*
X517348Y600939D01*
X517268Y600859D01*
X517185Y600782D01*
X517099Y600707D01*
X517011Y600636D01*
X516921Y600568D01*
X516828Y600503D01*
X516733Y600441D01*
X516636Y600383D01*
X516537Y600328D01*
X516436Y600277D01*
X516333Y600229D01*
X516229Y600184D01*
X516123Y600144D01*
X516016Y600107D01*
X515908Y600074D01*
X515798Y600044D01*
X515688Y600019D01*
X515577Y599997D01*
X515465Y599980D01*
X515352Y599966D01*
X515239Y599956D01*
X515126Y599950D01*
X515013Y599948D01*
X514900Y599950D01*
X514787Y599956D01*
X514674Y599966D01*
X514561Y599980D01*
X514449Y599997D01*
X514338Y600019D01*
X514228Y600044D01*
X514118Y600074D01*
X514010Y600107D01*
X513903Y600144D01*
X513797Y600184D01*
X513693Y600229D01*
X513590Y600277D01*
X513489Y600328D01*
X513390Y600383D01*
X513293Y600441D01*
X513198Y600503D01*
X513105Y600568D01*
X513015Y600636D01*
X512927Y600707D01*
X512841Y600782D01*
X512758Y600859D01*
X512678Y600939D01*
X512601Y601022D01*
X512526Y601108D01*
X512455Y601196D01*
X512387Y601286D01*
X512322Y601379D01*
X512260Y601474D01*
X512202Y601571D01*
X512147Y601670D01*
X512096Y601771D01*
X512048Y601874D01*
X512003Y601978D01*
X511963Y602084D01*
X511926Y602191D01*
X511893Y602299D01*
X511863Y602409D01*
X511838Y602519D01*
X511816Y602630D01*
X511799Y602742D01*
X511785Y602855D01*
X511775Y602968D01*
X511769Y603081D01*
X511767Y603194D01*
X523578Y599948D02*
X523578Y611632D01*
X530069Y599948D01*
X530069Y611632D01*
D10*
X582930Y543560D02*
X582930Y523240D01*
X593580Y523240D01*
X593580Y543560D02*
X582930Y543560D01*
X613410Y533400D02*
X613436Y535488D01*
X613512Y537575D01*
X613641Y539660D01*
X613820Y541740D01*
X614050Y543816D01*
X614331Y545885D01*
X614663Y547947D01*
X615045Y550000D01*
X615478Y552043D01*
X615960Y554075D01*
X616492Y556095D01*
X617074Y558100D01*
X617705Y560091D01*
X618384Y562066D01*
X619112Y564023D01*
X619887Y565963D01*
X620710Y567882D01*
X621580Y569781D01*
X622496Y571657D01*
X623457Y573511D01*
X624464Y575341D01*
X625516Y577145D01*
X626611Y578923D01*
X627750Y580673D01*
X628932Y582396D01*
X630155Y584088D01*
X631420Y585750D01*
X632725Y587381D01*
X634069Y588978D01*
X635452Y590543D01*
X636874Y592073D01*
X638332Y593568D01*
X639827Y595026D01*
X641357Y596448D01*
X642922Y597831D01*
X644519Y599175D01*
X646150Y600480D01*
X647812Y601745D01*
X649504Y602968D01*
X651227Y604150D01*
X652977Y605289D01*
X654755Y606384D01*
X656559Y607436D01*
X658389Y608443D01*
X660243Y609404D01*
X662119Y610320D01*
X664018Y611190D01*
X665937Y612013D01*
X667877Y612788D01*
X669834Y613516D01*
X671809Y614195D01*
X673800Y614826D01*
X675805Y615408D01*
X677825Y615940D01*
X679857Y616422D01*
X681900Y616855D01*
X683953Y617237D01*
X686015Y617569D01*
X688084Y617850D01*
X690160Y618080D01*
X692240Y618259D01*
X694325Y618388D01*
X696412Y618464D01*
X698500Y618490D01*
X700588Y618464D01*
X702675Y618388D01*
X704760Y618259D01*
X706840Y618080D01*
X708916Y617850D01*
X710985Y617569D01*
X713047Y617237D01*
X715100Y616855D01*
X717143Y616422D01*
X719175Y615940D01*
X721195Y615408D01*
X723200Y614826D01*
X725191Y614195D01*
X727166Y613516D01*
X729123Y612788D01*
X731063Y612013D01*
X732982Y611190D01*
X734881Y610320D01*
X736757Y609404D01*
X738611Y608443D01*
X740441Y607436D01*
X742245Y606384D01*
X744023Y605289D01*
X745773Y604150D01*
X747496Y602968D01*
X749188Y601745D01*
X750850Y600480D01*
X752481Y599175D01*
X754078Y597831D01*
X755643Y596448D01*
X757173Y595026D01*
X758668Y593568D01*
X760126Y592073D01*
X761548Y590543D01*
X762931Y588978D01*
X764275Y587381D01*
X765580Y585750D01*
X766845Y584088D01*
X768068Y582396D01*
X769250Y580673D01*
X770389Y578923D01*
X771484Y577145D01*
X772536Y575341D01*
X773543Y573511D01*
X774504Y571657D01*
X775420Y569781D01*
X776290Y567882D01*
X777113Y565963D01*
X777888Y564023D01*
X778616Y562066D01*
X779295Y560091D01*
X779926Y558100D01*
X780508Y556095D01*
X781040Y554075D01*
X781522Y552043D01*
X781955Y550000D01*
X782337Y547947D01*
X782669Y545885D01*
X782950Y543816D01*
X783180Y541740D01*
X783359Y539660D01*
X783488Y537575D01*
X783564Y535488D01*
X783590Y533400D01*
X783564Y531312D01*
X783488Y529225D01*
X783359Y527140D01*
X783180Y525060D01*
X782950Y522984D01*
X782669Y520915D01*
X782337Y518853D01*
X781955Y516800D01*
X781522Y514757D01*
X781040Y512725D01*
X780508Y510705D01*
X779926Y508700D01*
X779295Y506709D01*
X778616Y504734D01*
X777888Y502777D01*
X777113Y500837D01*
X776290Y498918D01*
X775420Y497019D01*
X774504Y495143D01*
X773543Y493289D01*
X772536Y491459D01*
X771484Y489655D01*
X770389Y487877D01*
X769250Y486127D01*
X768068Y484404D01*
X766845Y482712D01*
X765580Y481050D01*
X764275Y479419D01*
X762931Y477822D01*
X761548Y476257D01*
X760126Y474727D01*
X758668Y473232D01*
X757173Y471774D01*
X755643Y470352D01*
X754078Y468969D01*
X752481Y467625D01*
X750850Y466320D01*
X749188Y465055D01*
X747496Y463832D01*
X745773Y462650D01*
X744023Y461511D01*
X742245Y460416D01*
X740441Y459364D01*
X738611Y458357D01*
X736757Y457396D01*
X734881Y456480D01*
X732982Y455610D01*
X731063Y454787D01*
X729123Y454012D01*
X727166Y453284D01*
X725191Y452605D01*
X723200Y451974D01*
X721195Y451392D01*
X719175Y450860D01*
X717143Y450378D01*
X715100Y449945D01*
X713047Y449563D01*
X710985Y449231D01*
X708916Y448950D01*
X706840Y448720D01*
X704760Y448541D01*
X702675Y448412D01*
X700588Y448336D01*
X698500Y448310D01*
X696412Y448336D01*
X694325Y448412D01*
X692240Y448541D01*
X690160Y448720D01*
X688084Y448950D01*
X686015Y449231D01*
X683953Y449563D01*
X681900Y449945D01*
X679857Y450378D01*
X677825Y450860D01*
X675805Y451392D01*
X673800Y451974D01*
X671809Y452605D01*
X669834Y453284D01*
X667877Y454012D01*
X665937Y454787D01*
X664018Y455610D01*
X662119Y456480D01*
X660243Y457396D01*
X658389Y458357D01*
X656559Y459364D01*
X654755Y460416D01*
X652977Y461511D01*
X651227Y462650D01*
X649504Y463832D01*
X647812Y465055D01*
X646150Y466320D01*
X644519Y467625D01*
X642922Y468969D01*
X641357Y470352D01*
X639827Y471774D01*
X638332Y473232D01*
X636874Y474727D01*
X635452Y476257D01*
X634069Y477822D01*
X632725Y479419D01*
X631420Y481050D01*
X630155Y482712D01*
X628932Y484404D01*
X627750Y486127D01*
X626611Y487877D01*
X625516Y489655D01*
X624464Y491459D01*
X623457Y493289D01*
X622496Y495143D01*
X621580Y497019D01*
X620710Y498918D01*
X619887Y500837D01*
X619112Y502777D01*
X618384Y504734D01*
X617705Y506709D01*
X617074Y508700D01*
X616492Y510705D01*
X615960Y512725D01*
X615478Y514757D01*
X615045Y516800D01*
X614663Y518853D01*
X614331Y520915D01*
X614050Y522984D01*
X613820Y525060D01*
X613641Y527140D01*
X613512Y529225D01*
X613436Y531312D01*
X613410Y533400D01*
X673100Y533400D02*
X673108Y534023D01*
X673131Y534646D01*
X673169Y535269D01*
X673222Y535890D01*
X673291Y536509D01*
X673375Y537127D01*
X673474Y537742D01*
X673588Y538355D01*
X673717Y538965D01*
X673861Y539572D01*
X674020Y540175D01*
X674194Y540773D01*
X674382Y541368D01*
X674585Y541957D01*
X674802Y542541D01*
X675033Y543120D01*
X675279Y543693D01*
X675539Y544260D01*
X675812Y544820D01*
X676099Y545373D01*
X676400Y545920D01*
X676714Y546458D01*
X677041Y546989D01*
X677381Y547511D01*
X677733Y548026D01*
X678099Y548531D01*
X678476Y549027D01*
X678866Y549514D01*
X679267Y549991D01*
X679680Y550458D01*
X680104Y550914D01*
X680539Y551361D01*
X680986Y551796D01*
X681442Y552220D01*
X681909Y552633D01*
X682386Y553034D01*
X682873Y553424D01*
X683369Y553801D01*
X683874Y554167D01*
X684389Y554519D01*
X684911Y554859D01*
X685442Y555186D01*
X685980Y555500D01*
X686527Y555801D01*
X687080Y556088D01*
X687640Y556361D01*
X688207Y556621D01*
X688780Y556867D01*
X689359Y557098D01*
X689943Y557315D01*
X690532Y557518D01*
X691127Y557706D01*
X691725Y557880D01*
X692328Y558039D01*
X692935Y558183D01*
X693545Y558312D01*
X694158Y558426D01*
X694773Y558525D01*
X695391Y558609D01*
X696010Y558678D01*
X696631Y558731D01*
X697254Y558769D01*
X697877Y558792D01*
X698500Y558800D01*
X699123Y558792D01*
X699746Y558769D01*
X700369Y558731D01*
X700990Y558678D01*
X701609Y558609D01*
X702227Y558525D01*
X702842Y558426D01*
X703455Y558312D01*
X704065Y558183D01*
X704672Y558039D01*
X705275Y557880D01*
X705873Y557706D01*
X706468Y557518D01*
X707057Y557315D01*
X707641Y557098D01*
X708220Y556867D01*
X708793Y556621D01*
X709360Y556361D01*
X709920Y556088D01*
X710473Y555801D01*
X711020Y555500D01*
X711558Y555186D01*
X712089Y554859D01*
X712611Y554519D01*
X713126Y554167D01*
X713631Y553801D01*
X714127Y553424D01*
X714614Y553034D01*
X715091Y552633D01*
X715558Y552220D01*
X716014Y551796D01*
X716461Y551361D01*
X716896Y550914D01*
X717320Y550458D01*
X717733Y549991D01*
X718134Y549514D01*
X718524Y549027D01*
X718901Y548531D01*
X719267Y548026D01*
X719619Y547511D01*
X719959Y546989D01*
X720286Y546458D01*
X720600Y545920D01*
X720901Y545373D01*
X721188Y544820D01*
X721461Y544260D01*
X721721Y543693D01*
X721967Y543120D01*
X722198Y542541D01*
X722415Y541957D01*
X722618Y541368D01*
X722806Y540773D01*
X722980Y540175D01*
X723139Y539572D01*
X723283Y538965D01*
X723412Y538355D01*
X723526Y537742D01*
X723625Y537127D01*
X723709Y536509D01*
X723778Y535890D01*
X723831Y535269D01*
X723869Y534646D01*
X723892Y534023D01*
X723900Y533400D01*
X723892Y532777D01*
X723869Y532154D01*
X723831Y531531D01*
X723778Y530910D01*
X723709Y530291D01*
X723625Y529673D01*
X723526Y529058D01*
X723412Y528445D01*
X723283Y527835D01*
X723139Y527228D01*
X722980Y526625D01*
X722806Y526027D01*
X722618Y525432D01*
X722415Y524843D01*
X722198Y524259D01*
X721967Y523680D01*
X721721Y523107D01*
X721461Y522540D01*
X721188Y521980D01*
X720901Y521427D01*
X720600Y520880D01*
X720286Y520342D01*
X719959Y519811D01*
X719619Y519289D01*
X719267Y518774D01*
X718901Y518269D01*
X718524Y517773D01*
X718134Y517286D01*
X717733Y516809D01*
X717320Y516342D01*
X716896Y515886D01*
X716461Y515439D01*
X716014Y515004D01*
X715558Y514580D01*
X715091Y514167D01*
X714614Y513766D01*
X714127Y513376D01*
X713631Y512999D01*
X713126Y512633D01*
X712611Y512281D01*
X712089Y511941D01*
X711558Y511614D01*
X711020Y511300D01*
X710473Y510999D01*
X709920Y510712D01*
X709360Y510439D01*
X708793Y510179D01*
X708220Y509933D01*
X707641Y509702D01*
X707057Y509485D01*
X706468Y509282D01*
X705873Y509094D01*
X705275Y508920D01*
X704672Y508761D01*
X704065Y508617D01*
X703455Y508488D01*
X702842Y508374D01*
X702227Y508275D01*
X701609Y508191D01*
X700990Y508122D01*
X700369Y508069D01*
X699746Y508031D01*
X699123Y508008D01*
X698500Y508000D01*
X697877Y508008D01*
X697254Y508031D01*
X696631Y508069D01*
X696010Y508122D01*
X695391Y508191D01*
X694773Y508275D01*
X694158Y508374D01*
X693545Y508488D01*
X692935Y508617D01*
X692328Y508761D01*
X691725Y508920D01*
X691127Y509094D01*
X690532Y509282D01*
X689943Y509485D01*
X689359Y509702D01*
X688780Y509933D01*
X688207Y510179D01*
X687640Y510439D01*
X687080Y510712D01*
X686527Y510999D01*
X685980Y511300D01*
X685442Y511614D01*
X684911Y511941D01*
X684389Y512281D01*
X683874Y512633D01*
X683369Y512999D01*
X682873Y513376D01*
X682386Y513766D01*
X681909Y514167D01*
X681442Y514580D01*
X680986Y515004D01*
X680539Y515439D01*
X680104Y515886D01*
X679680Y516342D01*
X679267Y516809D01*
X678866Y517286D01*
X678476Y517773D01*
X678099Y518269D01*
X677733Y518774D01*
X677381Y519289D01*
X677041Y519811D01*
X676714Y520342D01*
X676400Y520880D01*
X676099Y521427D01*
X675812Y521980D01*
X675539Y522540D01*
X675279Y523107D01*
X675033Y523680D01*
X674802Y524259D01*
X674585Y524843D01*
X674382Y525432D01*
X674194Y526027D01*
X674020Y526625D01*
X673861Y527228D01*
X673717Y527835D01*
X673588Y528445D01*
X673474Y529058D01*
X673375Y529673D01*
X673291Y530291D01*
X673222Y530910D01*
X673169Y531531D01*
X673131Y532154D01*
X673108Y532777D01*
X673100Y533400D01*
X593090Y533400D02*
X593122Y535987D01*
X593217Y538572D01*
X593376Y541154D01*
X593598Y543732D01*
X593883Y546303D01*
X594231Y548867D01*
X594642Y551421D01*
X595115Y553964D01*
X595651Y556495D01*
X596249Y559013D01*
X596908Y561514D01*
X597629Y563999D01*
X598410Y566465D01*
X599252Y568912D01*
X600153Y571337D01*
X601114Y573739D01*
X602133Y576116D01*
X603210Y578469D01*
X604345Y580794D01*
X605537Y583090D01*
X606784Y585356D01*
X608087Y587592D01*
X609444Y589794D01*
X610855Y591963D01*
X612318Y594096D01*
X613834Y596193D01*
X615400Y598252D01*
X617017Y600271D01*
X618683Y602251D01*
X620396Y604189D01*
X622157Y606084D01*
X623964Y607936D01*
X625816Y609743D01*
X627711Y611504D01*
X629649Y613217D01*
X631629Y614883D01*
X633648Y616500D01*
X635707Y618066D01*
X637804Y619582D01*
X639937Y621045D01*
X642106Y622456D01*
X644308Y623813D01*
X646544Y625116D01*
X648810Y626363D01*
X651106Y627555D01*
X653431Y628690D01*
X655784Y629767D01*
X658161Y630786D01*
X660563Y631747D01*
X662988Y632648D01*
X665435Y633490D01*
X667901Y634271D01*
X670386Y634992D01*
X672887Y635651D01*
X675405Y636249D01*
X677936Y636785D01*
X680479Y637258D01*
X683033Y637669D01*
X685597Y638017D01*
X688168Y638302D01*
X690746Y638524D01*
X693328Y638683D01*
X695913Y638778D01*
X698500Y638810D01*
X701087Y638778D01*
X703672Y638683D01*
X706254Y638524D01*
X708832Y638302D01*
X711403Y638017D01*
X713967Y637669D01*
X716521Y637258D01*
X719064Y636785D01*
X721595Y636249D01*
X724113Y635651D01*
X726614Y634992D01*
X729099Y634271D01*
X731565Y633490D01*
X734012Y632648D01*
X736437Y631747D01*
X738839Y630786D01*
X741216Y629767D01*
X743569Y628690D01*
X745894Y627555D01*
X748190Y626363D01*
X750456Y625116D01*
X752692Y623813D01*
X754894Y622456D01*
X757063Y621045D01*
X759196Y619582D01*
X761293Y618066D01*
X763352Y616500D01*
X765371Y614883D01*
X767351Y613217D01*
X769289Y611504D01*
X771184Y609743D01*
X773036Y607936D01*
X774843Y606084D01*
X776604Y604189D01*
X778317Y602251D01*
X779983Y600271D01*
X781600Y598252D01*
X783166Y596193D01*
X784682Y594096D01*
X786145Y591963D01*
X787556Y589794D01*
X788913Y587592D01*
X790216Y585356D01*
X791463Y583090D01*
X792655Y580794D01*
X793790Y578469D01*
X794867Y576116D01*
X795886Y573739D01*
X796847Y571337D01*
X797748Y568912D01*
X798590Y566465D01*
X799371Y563999D01*
X800092Y561514D01*
X800751Y559013D01*
X801349Y556495D01*
X801885Y553964D01*
X802358Y551421D01*
X802769Y548867D01*
X803117Y546303D01*
X803402Y543732D01*
X803624Y541154D01*
X803783Y538572D01*
X803878Y535987D01*
X803910Y533400D01*
X803878Y530813D01*
X803783Y528228D01*
X803624Y525646D01*
X803402Y523068D01*
X803117Y520497D01*
X802769Y517933D01*
X802358Y515379D01*
X801885Y512836D01*
X801349Y510305D01*
X800751Y507787D01*
X800092Y505286D01*
X799371Y502801D01*
X798590Y500335D01*
X797748Y497888D01*
X796847Y495463D01*
X795886Y493061D01*
X794867Y490684D01*
X793790Y488331D01*
X792655Y486006D01*
X791463Y483710D01*
X790216Y481444D01*
X788913Y479208D01*
X787556Y477006D01*
X786145Y474837D01*
X784682Y472704D01*
X783166Y470607D01*
X781600Y468548D01*
X779983Y466529D01*
X778317Y464549D01*
X776604Y462611D01*
X774843Y460716D01*
X773036Y458864D01*
X771184Y457057D01*
X769289Y455296D01*
X767351Y453583D01*
X765371Y451917D01*
X763352Y450300D01*
X761293Y448734D01*
X759196Y447218D01*
X757063Y445755D01*
X754894Y444344D01*
X752692Y442987D01*
X750456Y441684D01*
X748190Y440437D01*
X745894Y439245D01*
X743569Y438110D01*
X741216Y437033D01*
X738839Y436014D01*
X736437Y435053D01*
X734012Y434152D01*
X731565Y433310D01*
X729099Y432529D01*
X726614Y431808D01*
X724113Y431149D01*
X721595Y430551D01*
X719064Y430015D01*
X716521Y429542D01*
X713967Y429131D01*
X711403Y428783D01*
X708832Y428498D01*
X706254Y428276D01*
X703672Y428117D01*
X701087Y428022D01*
X698500Y427990D01*
X695913Y428022D01*
X693328Y428117D01*
X690746Y428276D01*
X688168Y428498D01*
X685597Y428783D01*
X683033Y429131D01*
X680479Y429542D01*
X677936Y430015D01*
X675405Y430551D01*
X672887Y431149D01*
X670386Y431808D01*
X667901Y432529D01*
X665435Y433310D01*
X662988Y434152D01*
X660563Y435053D01*
X658161Y436014D01*
X655784Y437033D01*
X653431Y438110D01*
X651106Y439245D01*
X648810Y440437D01*
X646544Y441684D01*
X644308Y442987D01*
X642106Y444344D01*
X639937Y445755D01*
X637804Y447218D01*
X635707Y448734D01*
X633648Y450300D01*
X631629Y451917D01*
X629649Y453583D01*
X627711Y455296D01*
X625816Y457057D01*
X623964Y458864D01*
X622157Y460716D01*
X620396Y462611D01*
X618683Y464549D01*
X617017Y466529D01*
X615400Y468548D01*
X613834Y470607D01*
X612318Y472704D01*
X610855Y474837D01*
X609444Y477006D01*
X608087Y479208D01*
X606784Y481444D01*
X605537Y483710D01*
X604345Y486006D01*
X603210Y488331D01*
X602133Y490684D01*
X601114Y493061D01*
X600153Y495463D01*
X599252Y497888D01*
X598410Y500335D01*
X597629Y502801D01*
X596908Y505286D01*
X596249Y507787D01*
X595651Y510305D01*
X595115Y512836D01*
X594642Y515379D01*
X594231Y517933D01*
X593883Y520497D01*
X593598Y523068D01*
X593376Y525646D01*
X593217Y528228D01*
X593122Y530813D01*
X593090Y533400D01*
D15*
X664623Y578739D02*
X669068Y578739D01*
X669200Y578737D01*
X669331Y578731D01*
X669463Y578721D01*
X669594Y578708D01*
X669724Y578690D01*
X669854Y578669D01*
X669984Y578644D01*
X670112Y578615D01*
X670240Y578582D01*
X670366Y578545D01*
X670492Y578505D01*
X670616Y578461D01*
X670739Y578413D01*
X670860Y578362D01*
X670980Y578307D01*
X671098Y578249D01*
X671214Y578187D01*
X671328Y578121D01*
X671441Y578053D01*
X671551Y577981D01*
X671659Y577906D01*
X671765Y577827D01*
X671869Y577746D01*
X671970Y577661D01*
X672068Y577574D01*
X672164Y577483D01*
X672257Y577390D01*
X672348Y577294D01*
X672435Y577196D01*
X672520Y577095D01*
X672601Y576991D01*
X672680Y576885D01*
X672755Y576777D01*
X672827Y576667D01*
X672895Y576554D01*
X672961Y576440D01*
X673023Y576324D01*
X673081Y576206D01*
X673136Y576086D01*
X673187Y575965D01*
X673235Y575842D01*
X673279Y575718D01*
X673319Y575592D01*
X673356Y575466D01*
X673389Y575338D01*
X673418Y575210D01*
X673443Y575080D01*
X673464Y574950D01*
X673482Y574820D01*
X673495Y574689D01*
X673505Y574557D01*
X673511Y574426D01*
X673513Y574294D01*
X673511Y574162D01*
X673505Y574031D01*
X673495Y573899D01*
X673482Y573768D01*
X673464Y573638D01*
X673443Y573508D01*
X673418Y573378D01*
X673389Y573250D01*
X673356Y573122D01*
X673319Y572996D01*
X673279Y572870D01*
X673235Y572746D01*
X673187Y572623D01*
X673136Y572502D01*
X673081Y572382D01*
X673023Y572264D01*
X672961Y572148D01*
X672895Y572034D01*
X672827Y571921D01*
X672755Y571811D01*
X672680Y571703D01*
X672601Y571597D01*
X672520Y571493D01*
X672435Y571392D01*
X672348Y571294D01*
X672257Y571198D01*
X672164Y571105D01*
X672068Y571014D01*
X671970Y570927D01*
X671869Y570842D01*
X671765Y570761D01*
X671659Y570682D01*
X671551Y570607D01*
X671441Y570535D01*
X671328Y570467D01*
X671214Y570401D01*
X671098Y570339D01*
X670980Y570281D01*
X670860Y570226D01*
X670739Y570175D01*
X670616Y570127D01*
X670492Y570083D01*
X670366Y570043D01*
X670240Y570006D01*
X670112Y569973D01*
X669984Y569944D01*
X669854Y569919D01*
X669724Y569898D01*
X669594Y569880D01*
X669463Y569867D01*
X669331Y569857D01*
X669200Y569851D01*
X669068Y569849D01*
X664623Y569849D01*
X664623Y585851D01*
X669068Y585851D01*
X669186Y585849D01*
X669303Y585843D01*
X669420Y585834D01*
X669537Y585820D01*
X669653Y585803D01*
X669769Y585781D01*
X669884Y585756D01*
X669998Y585727D01*
X670111Y585695D01*
X670223Y585658D01*
X670333Y585618D01*
X670442Y585575D01*
X670550Y585527D01*
X670656Y585477D01*
X670760Y585422D01*
X670863Y585365D01*
X670963Y585304D01*
X671062Y585239D01*
X671158Y585172D01*
X671252Y585101D01*
X671344Y585027D01*
X671433Y584951D01*
X671519Y584871D01*
X671603Y584789D01*
X671684Y584703D01*
X671762Y584616D01*
X671838Y584525D01*
X671910Y584432D01*
X671979Y584337D01*
X672045Y584240D01*
X672108Y584140D01*
X672167Y584039D01*
X672223Y583936D01*
X672275Y583830D01*
X672324Y583723D01*
X672370Y583615D01*
X672412Y583505D01*
X672450Y583394D01*
X672484Y583281D01*
X672515Y583168D01*
X672542Y583053D01*
X672565Y582938D01*
X672585Y582822D01*
X672600Y582706D01*
X672612Y582589D01*
X672620Y582471D01*
X672624Y582354D01*
X672624Y582236D01*
X672620Y582119D01*
X672612Y582001D01*
X672600Y581884D01*
X672585Y581768D01*
X672565Y581652D01*
X672542Y581537D01*
X672515Y581422D01*
X672484Y581309D01*
X672450Y581196D01*
X672412Y581085D01*
X672370Y580975D01*
X672324Y580867D01*
X672275Y580760D01*
X672223Y580654D01*
X672167Y580551D01*
X672108Y580450D01*
X672045Y580350D01*
X671979Y580253D01*
X671910Y580158D01*
X671838Y580065D01*
X671762Y579974D01*
X671684Y579887D01*
X671603Y579801D01*
X671519Y579719D01*
X671433Y579639D01*
X671344Y579563D01*
X671252Y579489D01*
X671158Y579418D01*
X671062Y579351D01*
X670963Y579286D01*
X670863Y579225D01*
X670760Y579168D01*
X670656Y579113D01*
X670550Y579063D01*
X670442Y579015D01*
X670333Y578972D01*
X670223Y578932D01*
X670111Y578895D01*
X669998Y578863D01*
X669884Y578834D01*
X669769Y578809D01*
X669653Y578787D01*
X669537Y578770D01*
X669420Y578756D01*
X669303Y578747D01*
X669186Y578741D01*
X669068Y578739D01*
X680022Y574294D02*
X680022Y585851D01*
X680022Y574294D02*
X680024Y574162D01*
X680030Y574031D01*
X680040Y573899D01*
X680053Y573768D01*
X680071Y573638D01*
X680092Y573508D01*
X680117Y573378D01*
X680146Y573250D01*
X680179Y573122D01*
X680216Y572996D01*
X680256Y572870D01*
X680300Y572746D01*
X680348Y572623D01*
X680399Y572502D01*
X680454Y572382D01*
X680512Y572264D01*
X680574Y572148D01*
X680640Y572034D01*
X680708Y571921D01*
X680780Y571811D01*
X680855Y571703D01*
X680934Y571597D01*
X681015Y571493D01*
X681100Y571392D01*
X681187Y571294D01*
X681278Y571198D01*
X681371Y571105D01*
X681467Y571014D01*
X681565Y570927D01*
X681666Y570842D01*
X681770Y570761D01*
X681876Y570682D01*
X681984Y570607D01*
X682094Y570535D01*
X682207Y570467D01*
X682321Y570401D01*
X682437Y570339D01*
X682555Y570281D01*
X682675Y570226D01*
X682796Y570175D01*
X682919Y570127D01*
X683043Y570083D01*
X683169Y570043D01*
X683295Y570006D01*
X683423Y569973D01*
X683551Y569944D01*
X683681Y569919D01*
X683811Y569898D01*
X683941Y569880D01*
X684072Y569867D01*
X684204Y569857D01*
X684335Y569851D01*
X684467Y569849D01*
X684599Y569851D01*
X684730Y569857D01*
X684862Y569867D01*
X684993Y569880D01*
X685123Y569898D01*
X685253Y569919D01*
X685383Y569944D01*
X685511Y569973D01*
X685639Y570006D01*
X685765Y570043D01*
X685891Y570083D01*
X686015Y570127D01*
X686138Y570175D01*
X686259Y570226D01*
X686379Y570281D01*
X686497Y570339D01*
X686613Y570401D01*
X686727Y570467D01*
X686840Y570535D01*
X686950Y570607D01*
X687058Y570682D01*
X687164Y570761D01*
X687268Y570842D01*
X687369Y570927D01*
X687467Y571014D01*
X687563Y571105D01*
X687656Y571198D01*
X687747Y571294D01*
X687834Y571392D01*
X687919Y571493D01*
X688000Y571597D01*
X688079Y571703D01*
X688154Y571811D01*
X688226Y571921D01*
X688294Y572034D01*
X688360Y572148D01*
X688422Y572264D01*
X688480Y572382D01*
X688535Y572502D01*
X688586Y572623D01*
X688634Y572746D01*
X688678Y572870D01*
X688718Y572996D01*
X688755Y573122D01*
X688788Y573250D01*
X688817Y573378D01*
X688842Y573508D01*
X688863Y573638D01*
X688881Y573768D01*
X688894Y573899D01*
X688904Y574031D01*
X688910Y574162D01*
X688912Y574294D01*
X688912Y585851D01*
X695653Y585851D02*
X704543Y585851D01*
X695653Y569849D01*
X704543Y569849D01*
X710242Y585851D02*
X719132Y585851D01*
X710242Y569849D01*
X719132Y569849D01*
X725906Y569849D02*
X733018Y569849D01*
X725906Y569849D02*
X725906Y585851D01*
X733018Y585851D01*
X731240Y578739D02*
X725906Y578739D01*
X739521Y585851D02*
X739521Y569849D01*
X739521Y585851D02*
X743966Y585851D01*
X744098Y585849D01*
X744229Y585843D01*
X744361Y585833D01*
X744492Y585820D01*
X744622Y585802D01*
X744752Y585781D01*
X744882Y585756D01*
X745010Y585727D01*
X745138Y585694D01*
X745264Y585657D01*
X745390Y585617D01*
X745514Y585573D01*
X745637Y585525D01*
X745758Y585474D01*
X745878Y585419D01*
X745996Y585361D01*
X746112Y585299D01*
X746226Y585233D01*
X746339Y585165D01*
X746449Y585093D01*
X746557Y585018D01*
X746663Y584939D01*
X746767Y584858D01*
X746868Y584773D01*
X746966Y584686D01*
X747062Y584595D01*
X747155Y584502D01*
X747246Y584406D01*
X747333Y584308D01*
X747418Y584207D01*
X747499Y584103D01*
X747578Y583997D01*
X747653Y583889D01*
X747725Y583779D01*
X747793Y583666D01*
X747859Y583552D01*
X747921Y583436D01*
X747979Y583318D01*
X748034Y583198D01*
X748085Y583077D01*
X748133Y582954D01*
X748177Y582830D01*
X748217Y582704D01*
X748254Y582578D01*
X748287Y582450D01*
X748316Y582322D01*
X748341Y582192D01*
X748362Y582062D01*
X748380Y581932D01*
X748393Y581801D01*
X748403Y581669D01*
X748409Y581538D01*
X748411Y581406D01*
X748409Y581274D01*
X748403Y581143D01*
X748393Y581011D01*
X748380Y580880D01*
X748362Y580750D01*
X748341Y580620D01*
X748316Y580490D01*
X748287Y580362D01*
X748254Y580234D01*
X748217Y580108D01*
X748177Y579982D01*
X748133Y579858D01*
X748085Y579735D01*
X748034Y579614D01*
X747979Y579494D01*
X747921Y579376D01*
X747859Y579260D01*
X747793Y579146D01*
X747725Y579033D01*
X747653Y578923D01*
X747578Y578815D01*
X747499Y578709D01*
X747418Y578605D01*
X747333Y578504D01*
X747246Y578406D01*
X747155Y578310D01*
X747062Y578217D01*
X746966Y578126D01*
X746868Y578039D01*
X746767Y577954D01*
X746663Y577873D01*
X746557Y577794D01*
X746449Y577719D01*
X746339Y577647D01*
X746226Y577579D01*
X746112Y577513D01*
X745996Y577451D01*
X745878Y577393D01*
X745758Y577338D01*
X745637Y577287D01*
X745514Y577239D01*
X745390Y577195D01*
X745264Y577155D01*
X745138Y577118D01*
X745010Y577085D01*
X744882Y577056D01*
X744752Y577031D01*
X744622Y577010D01*
X744492Y576992D01*
X744361Y576979D01*
X744229Y576969D01*
X744098Y576963D01*
X743966Y576961D01*
X739521Y576961D01*
X744855Y576961D02*
X748411Y569849D01*
D11*
X596900Y114300D02*
X571500Y114300D01*
X596900Y114300D02*
X596900Y292100D01*
X596900Y317500D01*
X571500Y317500D01*
X800100Y292100D02*
X825500Y292100D01*
X800100Y292100D02*
X800100Y317500D01*
X800100Y292100D02*
X800100Y114300D01*
X825500Y114300D01*
X825500Y317500D02*
X800100Y317500D01*
X596900Y292100D02*
X571500Y292100D01*
X571500Y88900D02*
X800100Y88900D01*
D14*
X610108Y298958D02*
X614003Y310642D01*
X617897Y298958D01*
X616924Y301879D02*
X611082Y301879D01*
X622568Y298958D02*
X622568Y310642D01*
X629059Y298958D01*
X629059Y310642D01*
X608584Y285242D02*
X608584Y273558D01*
X608584Y285242D02*
X611830Y285242D01*
X611943Y285240D01*
X612056Y285234D01*
X612169Y285224D01*
X612282Y285210D01*
X612394Y285193D01*
X612505Y285171D01*
X612615Y285146D01*
X612725Y285116D01*
X612833Y285083D01*
X612940Y285046D01*
X613046Y285006D01*
X613150Y284961D01*
X613253Y284913D01*
X613354Y284862D01*
X613453Y284807D01*
X613550Y284749D01*
X613645Y284687D01*
X613738Y284622D01*
X613828Y284554D01*
X613916Y284483D01*
X614002Y284408D01*
X614085Y284331D01*
X614165Y284251D01*
X614242Y284168D01*
X614317Y284082D01*
X614388Y283994D01*
X614456Y283904D01*
X614521Y283811D01*
X614583Y283716D01*
X614641Y283619D01*
X614696Y283520D01*
X614747Y283419D01*
X614795Y283316D01*
X614840Y283212D01*
X614880Y283106D01*
X614917Y282999D01*
X614950Y282891D01*
X614980Y282781D01*
X615005Y282671D01*
X615027Y282560D01*
X615044Y282448D01*
X615058Y282335D01*
X615068Y282222D01*
X615074Y282109D01*
X615076Y281996D01*
X615074Y281883D01*
X615068Y281770D01*
X615058Y281657D01*
X615044Y281544D01*
X615027Y281432D01*
X615005Y281321D01*
X614980Y281211D01*
X614950Y281101D01*
X614917Y280993D01*
X614880Y280886D01*
X614840Y280780D01*
X614795Y280676D01*
X614747Y280573D01*
X614696Y280472D01*
X614641Y280373D01*
X614583Y280276D01*
X614521Y280181D01*
X614456Y280088D01*
X614388Y279998D01*
X614317Y279910D01*
X614242Y279824D01*
X614165Y279741D01*
X614085Y279661D01*
X614002Y279584D01*
X613916Y279509D01*
X613828Y279438D01*
X613738Y279370D01*
X613645Y279305D01*
X613550Y279243D01*
X613453Y279185D01*
X613354Y279130D01*
X613253Y279079D01*
X613150Y279031D01*
X613046Y278986D01*
X612940Y278946D01*
X612833Y278909D01*
X612725Y278876D01*
X612615Y278846D01*
X612505Y278821D01*
X612394Y278799D01*
X612282Y278782D01*
X612169Y278768D01*
X612056Y278758D01*
X611943Y278752D01*
X611830Y278750D01*
X611830Y278751D02*
X608584Y278751D01*
X612479Y278751D02*
X615075Y273558D01*
X623454Y273558D02*
X623553Y273560D01*
X623653Y273566D01*
X623752Y273575D01*
X623850Y273588D01*
X623948Y273605D01*
X624046Y273626D01*
X624142Y273651D01*
X624237Y273679D01*
X624331Y273711D01*
X624424Y273746D01*
X624516Y273785D01*
X624606Y273828D01*
X624694Y273873D01*
X624781Y273923D01*
X624865Y273975D01*
X624948Y274031D01*
X625028Y274089D01*
X625106Y274151D01*
X625181Y274216D01*
X625254Y274284D01*
X625324Y274354D01*
X625392Y274427D01*
X625457Y274502D01*
X625519Y274580D01*
X625577Y274660D01*
X625633Y274743D01*
X625685Y274827D01*
X625735Y274914D01*
X625780Y275002D01*
X625823Y275092D01*
X625862Y275184D01*
X625897Y275277D01*
X625929Y275371D01*
X625957Y275466D01*
X625982Y275562D01*
X626003Y275660D01*
X626020Y275758D01*
X626033Y275856D01*
X626042Y275955D01*
X626048Y276055D01*
X626050Y276154D01*
X623454Y273558D02*
X623310Y273560D01*
X623165Y273566D01*
X623021Y273575D01*
X622878Y273588D01*
X622734Y273605D01*
X622591Y273626D01*
X622449Y273651D01*
X622308Y273679D01*
X622167Y273711D01*
X622027Y273747D01*
X621888Y273786D01*
X621750Y273829D01*
X621614Y273876D01*
X621478Y273926D01*
X621344Y273980D01*
X621212Y274037D01*
X621081Y274098D01*
X620952Y274162D01*
X620824Y274230D01*
X620698Y274300D01*
X620574Y274375D01*
X620453Y274452D01*
X620333Y274533D01*
X620215Y274616D01*
X620100Y274703D01*
X619987Y274793D01*
X619876Y274886D01*
X619768Y274981D01*
X619662Y275080D01*
X619559Y275181D01*
X619884Y282646D02*
X619886Y282745D01*
X619892Y282845D01*
X619901Y282944D01*
X619914Y283042D01*
X619931Y283140D01*
X619952Y283238D01*
X619977Y283334D01*
X620005Y283429D01*
X620037Y283523D01*
X620072Y283616D01*
X620111Y283708D01*
X620154Y283798D01*
X620199Y283886D01*
X620249Y283973D01*
X620301Y284057D01*
X620357Y284140D01*
X620415Y284220D01*
X620477Y284298D01*
X620542Y284373D01*
X620610Y284446D01*
X620680Y284516D01*
X620753Y284584D01*
X620828Y284649D01*
X620906Y284711D01*
X620986Y284769D01*
X621069Y284825D01*
X621153Y284877D01*
X621240Y284927D01*
X621328Y284972D01*
X621418Y285015D01*
X621510Y285054D01*
X621603Y285089D01*
X621697Y285121D01*
X621792Y285149D01*
X621889Y285174D01*
X621986Y285195D01*
X622084Y285212D01*
X622182Y285225D01*
X622281Y285234D01*
X622381Y285240D01*
X622480Y285242D01*
X622616Y285240D01*
X622752Y285234D01*
X622888Y285225D01*
X623024Y285212D01*
X623159Y285194D01*
X623293Y285174D01*
X623427Y285149D01*
X623561Y285121D01*
X623693Y285088D01*
X623824Y285053D01*
X623955Y285013D01*
X624084Y284970D01*
X624212Y284924D01*
X624338Y284873D01*
X624464Y284820D01*
X624587Y284762D01*
X624709Y284702D01*
X624829Y284638D01*
X624948Y284570D01*
X625064Y284500D01*
X625178Y284426D01*
X625291Y284349D01*
X625401Y284268D01*
X621182Y280374D02*
X621096Y280427D01*
X621012Y280484D01*
X620930Y280543D01*
X620850Y280606D01*
X620773Y280672D01*
X620698Y280740D01*
X620626Y280812D01*
X620557Y280886D01*
X620491Y280963D01*
X620428Y281042D01*
X620368Y281124D01*
X620311Y281208D01*
X620257Y281294D01*
X620207Y281382D01*
X620160Y281472D01*
X620116Y281563D01*
X620077Y281657D01*
X620040Y281751D01*
X620008Y281847D01*
X619979Y281945D01*
X619954Y282043D01*
X619933Y282142D01*
X619915Y282242D01*
X619902Y282342D01*
X619892Y282443D01*
X619886Y282545D01*
X619884Y282646D01*
X624752Y278426D02*
X624838Y278373D01*
X624922Y278316D01*
X625004Y278257D01*
X625084Y278194D01*
X625161Y278128D01*
X625236Y278060D01*
X625308Y277988D01*
X625377Y277914D01*
X625443Y277837D01*
X625506Y277758D01*
X625566Y277676D01*
X625623Y277592D01*
X625677Y277506D01*
X625727Y277418D01*
X625774Y277328D01*
X625818Y277237D01*
X625857Y277143D01*
X625894Y277049D01*
X625926Y276953D01*
X625955Y276855D01*
X625980Y276757D01*
X626001Y276658D01*
X626019Y276558D01*
X626032Y276458D01*
X626042Y276357D01*
X626048Y276255D01*
X626050Y276154D01*
X624752Y278426D02*
X621182Y280374D01*
X633092Y285242D02*
X633092Y273558D01*
X629846Y285242D02*
X636337Y285242D01*
X615301Y248158D02*
X612704Y248158D01*
X612605Y248160D01*
X612505Y248166D01*
X612406Y248175D01*
X612308Y248188D01*
X612210Y248205D01*
X612112Y248226D01*
X612016Y248251D01*
X611921Y248279D01*
X611827Y248311D01*
X611734Y248346D01*
X611642Y248385D01*
X611552Y248428D01*
X611464Y248473D01*
X611377Y248523D01*
X611293Y248575D01*
X611210Y248631D01*
X611130Y248689D01*
X611052Y248751D01*
X610977Y248816D01*
X610904Y248884D01*
X610834Y248954D01*
X610766Y249027D01*
X610701Y249102D01*
X610639Y249180D01*
X610581Y249260D01*
X610525Y249343D01*
X610473Y249427D01*
X610423Y249514D01*
X610378Y249602D01*
X610335Y249692D01*
X610296Y249784D01*
X610261Y249877D01*
X610229Y249971D01*
X610201Y250066D01*
X610176Y250162D01*
X610155Y250260D01*
X610138Y250358D01*
X610125Y250456D01*
X610116Y250555D01*
X610110Y250655D01*
X610108Y250754D01*
X610108Y257246D01*
X610110Y257345D01*
X610116Y257445D01*
X610125Y257544D01*
X610138Y257642D01*
X610155Y257740D01*
X610176Y257838D01*
X610201Y257934D01*
X610229Y258029D01*
X610261Y258123D01*
X610296Y258216D01*
X610335Y258308D01*
X610378Y258398D01*
X610423Y258486D01*
X610473Y258573D01*
X610525Y258657D01*
X610581Y258740D01*
X610639Y258820D01*
X610701Y258898D01*
X610766Y258973D01*
X610834Y259046D01*
X610904Y259116D01*
X610977Y259184D01*
X611052Y259249D01*
X611130Y259311D01*
X611210Y259369D01*
X611293Y259425D01*
X611377Y259477D01*
X611464Y259527D01*
X611552Y259572D01*
X611642Y259615D01*
X611734Y259654D01*
X611826Y259689D01*
X611921Y259721D01*
X612016Y259749D01*
X612112Y259774D01*
X612210Y259795D01*
X612308Y259812D01*
X612406Y259825D01*
X612505Y259834D01*
X612605Y259840D01*
X612704Y259842D01*
X615301Y259842D01*
X625776Y250754D02*
X625774Y250655D01*
X625768Y250555D01*
X625759Y250456D01*
X625746Y250358D01*
X625729Y250260D01*
X625708Y250162D01*
X625683Y250066D01*
X625655Y249971D01*
X625623Y249877D01*
X625588Y249784D01*
X625549Y249692D01*
X625506Y249602D01*
X625461Y249514D01*
X625411Y249427D01*
X625359Y249343D01*
X625303Y249260D01*
X625245Y249180D01*
X625183Y249102D01*
X625118Y249027D01*
X625050Y248954D01*
X624980Y248884D01*
X624907Y248816D01*
X624832Y248751D01*
X624754Y248689D01*
X624674Y248631D01*
X624591Y248575D01*
X624507Y248523D01*
X624420Y248473D01*
X624332Y248428D01*
X624242Y248385D01*
X624150Y248346D01*
X624057Y248311D01*
X623963Y248279D01*
X623868Y248251D01*
X623772Y248226D01*
X623674Y248205D01*
X623576Y248188D01*
X623478Y248175D01*
X623379Y248166D01*
X623279Y248160D01*
X623180Y248158D01*
X623036Y248160D01*
X622891Y248166D01*
X622747Y248175D01*
X622604Y248188D01*
X622460Y248205D01*
X622317Y248226D01*
X622175Y248251D01*
X622034Y248279D01*
X621893Y248311D01*
X621753Y248347D01*
X621614Y248386D01*
X621476Y248429D01*
X621340Y248476D01*
X621204Y248526D01*
X621070Y248580D01*
X620938Y248637D01*
X620807Y248698D01*
X620678Y248762D01*
X620550Y248830D01*
X620424Y248900D01*
X620300Y248975D01*
X620179Y249052D01*
X620059Y249133D01*
X619941Y249216D01*
X619826Y249303D01*
X619713Y249393D01*
X619602Y249486D01*
X619494Y249581D01*
X619388Y249680D01*
X619285Y249781D01*
X619610Y257246D02*
X619612Y257345D01*
X619618Y257445D01*
X619627Y257544D01*
X619640Y257642D01*
X619657Y257740D01*
X619678Y257838D01*
X619703Y257934D01*
X619731Y258029D01*
X619763Y258123D01*
X619798Y258216D01*
X619837Y258308D01*
X619880Y258398D01*
X619925Y258486D01*
X619975Y258573D01*
X620027Y258657D01*
X620083Y258740D01*
X620141Y258820D01*
X620203Y258898D01*
X620268Y258973D01*
X620336Y259046D01*
X620406Y259116D01*
X620479Y259184D01*
X620554Y259249D01*
X620632Y259311D01*
X620712Y259369D01*
X620795Y259425D01*
X620879Y259477D01*
X620966Y259527D01*
X621054Y259572D01*
X621144Y259615D01*
X621236Y259654D01*
X621329Y259689D01*
X621423Y259721D01*
X621518Y259749D01*
X621615Y259774D01*
X621712Y259795D01*
X621810Y259812D01*
X621908Y259825D01*
X622007Y259834D01*
X622107Y259840D01*
X622206Y259842D01*
X622342Y259840D01*
X622478Y259834D01*
X622614Y259825D01*
X622750Y259812D01*
X622885Y259794D01*
X623019Y259774D01*
X623153Y259749D01*
X623287Y259721D01*
X623419Y259688D01*
X623550Y259653D01*
X623681Y259613D01*
X623810Y259570D01*
X623938Y259524D01*
X624064Y259473D01*
X624190Y259420D01*
X624313Y259362D01*
X624435Y259302D01*
X624555Y259238D01*
X624674Y259170D01*
X624790Y259100D01*
X624904Y259026D01*
X625017Y258949D01*
X625127Y258868D01*
X620908Y254974D02*
X620822Y255027D01*
X620738Y255084D01*
X620656Y255143D01*
X620576Y255206D01*
X620499Y255272D01*
X620424Y255340D01*
X620352Y255412D01*
X620283Y255486D01*
X620217Y255563D01*
X620154Y255642D01*
X620094Y255724D01*
X620037Y255808D01*
X619983Y255894D01*
X619933Y255982D01*
X619886Y256072D01*
X619842Y256163D01*
X619803Y256257D01*
X619766Y256351D01*
X619734Y256447D01*
X619705Y256545D01*
X619680Y256643D01*
X619659Y256742D01*
X619641Y256842D01*
X619628Y256942D01*
X619618Y257043D01*
X619612Y257145D01*
X619610Y257246D01*
X624478Y253026D02*
X624564Y252973D01*
X624648Y252916D01*
X624730Y252857D01*
X624810Y252794D01*
X624887Y252728D01*
X624962Y252660D01*
X625034Y252588D01*
X625103Y252514D01*
X625169Y252437D01*
X625232Y252358D01*
X625292Y252276D01*
X625349Y252192D01*
X625403Y252106D01*
X625453Y252018D01*
X625500Y251928D01*
X625544Y251837D01*
X625583Y251743D01*
X625620Y251649D01*
X625652Y251553D01*
X625681Y251455D01*
X625706Y251357D01*
X625727Y251258D01*
X625745Y251158D01*
X625758Y251058D01*
X625768Y250957D01*
X625774Y250855D01*
X625776Y250754D01*
X624478Y253026D02*
X620908Y254974D01*
X616599Y225354D02*
X616597Y225255D01*
X616591Y225155D01*
X616582Y225056D01*
X616569Y224958D01*
X616552Y224860D01*
X616531Y224762D01*
X616506Y224666D01*
X616478Y224571D01*
X616446Y224477D01*
X616411Y224384D01*
X616372Y224292D01*
X616329Y224202D01*
X616284Y224114D01*
X616234Y224027D01*
X616182Y223943D01*
X616126Y223860D01*
X616068Y223780D01*
X616006Y223702D01*
X615941Y223627D01*
X615873Y223554D01*
X615803Y223484D01*
X615730Y223416D01*
X615655Y223351D01*
X615577Y223289D01*
X615497Y223231D01*
X615414Y223175D01*
X615330Y223123D01*
X615243Y223073D01*
X615155Y223028D01*
X615065Y222985D01*
X614973Y222946D01*
X614880Y222911D01*
X614786Y222879D01*
X614691Y222851D01*
X614595Y222826D01*
X614497Y222805D01*
X614399Y222788D01*
X614301Y222775D01*
X614202Y222766D01*
X614102Y222760D01*
X614003Y222758D01*
X613859Y222760D01*
X613714Y222766D01*
X613570Y222775D01*
X613427Y222788D01*
X613283Y222805D01*
X613140Y222826D01*
X612998Y222851D01*
X612857Y222879D01*
X612716Y222911D01*
X612576Y222947D01*
X612437Y222986D01*
X612299Y223029D01*
X612163Y223076D01*
X612027Y223126D01*
X611893Y223180D01*
X611761Y223237D01*
X611630Y223298D01*
X611501Y223362D01*
X611373Y223430D01*
X611247Y223500D01*
X611123Y223575D01*
X611002Y223652D01*
X610882Y223733D01*
X610764Y223816D01*
X610649Y223903D01*
X610536Y223993D01*
X610425Y224086D01*
X610317Y224181D01*
X610211Y224280D01*
X610108Y224381D01*
X610433Y231846D02*
X610435Y231945D01*
X610441Y232045D01*
X610450Y232144D01*
X610463Y232242D01*
X610480Y232340D01*
X610501Y232438D01*
X610526Y232534D01*
X610554Y232629D01*
X610586Y232723D01*
X610621Y232816D01*
X610660Y232908D01*
X610703Y232998D01*
X610748Y233086D01*
X610798Y233173D01*
X610850Y233257D01*
X610906Y233340D01*
X610964Y233420D01*
X611026Y233498D01*
X611091Y233573D01*
X611159Y233646D01*
X611229Y233716D01*
X611302Y233784D01*
X611377Y233849D01*
X611455Y233911D01*
X611535Y233969D01*
X611618Y234025D01*
X611702Y234077D01*
X611789Y234127D01*
X611877Y234172D01*
X611967Y234215D01*
X612059Y234254D01*
X612152Y234289D01*
X612246Y234321D01*
X612341Y234349D01*
X612438Y234374D01*
X612535Y234395D01*
X612633Y234412D01*
X612731Y234425D01*
X612830Y234434D01*
X612930Y234440D01*
X613029Y234442D01*
X613165Y234440D01*
X613301Y234434D01*
X613437Y234425D01*
X613573Y234412D01*
X613708Y234394D01*
X613842Y234374D01*
X613976Y234349D01*
X614110Y234321D01*
X614242Y234288D01*
X614373Y234253D01*
X614504Y234213D01*
X614633Y234170D01*
X614761Y234124D01*
X614887Y234073D01*
X615013Y234020D01*
X615136Y233962D01*
X615258Y233902D01*
X615378Y233838D01*
X615497Y233770D01*
X615613Y233700D01*
X615727Y233626D01*
X615840Y233549D01*
X615950Y233468D01*
X611731Y229574D02*
X611645Y229627D01*
X611561Y229684D01*
X611479Y229743D01*
X611399Y229806D01*
X611322Y229872D01*
X611247Y229940D01*
X611175Y230012D01*
X611106Y230086D01*
X611040Y230163D01*
X610977Y230242D01*
X610917Y230324D01*
X610860Y230408D01*
X610806Y230494D01*
X610756Y230582D01*
X610709Y230672D01*
X610665Y230763D01*
X610626Y230857D01*
X610589Y230951D01*
X610557Y231047D01*
X610528Y231145D01*
X610503Y231243D01*
X610482Y231342D01*
X610464Y231442D01*
X610451Y231542D01*
X610441Y231643D01*
X610435Y231745D01*
X610433Y231846D01*
X615301Y227626D02*
X615387Y227573D01*
X615471Y227516D01*
X615553Y227457D01*
X615633Y227394D01*
X615710Y227328D01*
X615785Y227260D01*
X615857Y227188D01*
X615926Y227114D01*
X615992Y227037D01*
X616055Y226958D01*
X616115Y226876D01*
X616172Y226792D01*
X616226Y226706D01*
X616276Y226618D01*
X616323Y226528D01*
X616367Y226437D01*
X616406Y226343D01*
X616443Y226249D01*
X616475Y226153D01*
X616504Y226055D01*
X616529Y225957D01*
X616550Y225858D01*
X616568Y225758D01*
X616581Y225658D01*
X616591Y225557D01*
X616597Y225455D01*
X616599Y225354D01*
X615301Y227626D02*
X611731Y229574D01*
X623720Y222758D02*
X626317Y222758D01*
X623720Y222758D02*
X623621Y222760D01*
X623521Y222766D01*
X623422Y222775D01*
X623324Y222788D01*
X623226Y222805D01*
X623128Y222826D01*
X623032Y222851D01*
X622937Y222879D01*
X622843Y222911D01*
X622750Y222946D01*
X622658Y222985D01*
X622568Y223028D01*
X622480Y223073D01*
X622393Y223123D01*
X622309Y223175D01*
X622226Y223231D01*
X622146Y223289D01*
X622068Y223351D01*
X621993Y223416D01*
X621920Y223484D01*
X621850Y223554D01*
X621782Y223627D01*
X621717Y223702D01*
X621655Y223780D01*
X621597Y223860D01*
X621541Y223943D01*
X621489Y224027D01*
X621439Y224114D01*
X621394Y224202D01*
X621351Y224292D01*
X621312Y224384D01*
X621277Y224477D01*
X621245Y224571D01*
X621217Y224666D01*
X621192Y224762D01*
X621171Y224860D01*
X621154Y224958D01*
X621141Y225056D01*
X621132Y225155D01*
X621126Y225255D01*
X621124Y225354D01*
X621124Y231846D01*
X621126Y231945D01*
X621132Y232045D01*
X621141Y232144D01*
X621154Y232242D01*
X621171Y232340D01*
X621192Y232438D01*
X621217Y232534D01*
X621245Y232629D01*
X621277Y232723D01*
X621312Y232816D01*
X621351Y232908D01*
X621394Y232998D01*
X621439Y233086D01*
X621489Y233173D01*
X621541Y233257D01*
X621597Y233340D01*
X621655Y233420D01*
X621717Y233498D01*
X621782Y233573D01*
X621850Y233646D01*
X621920Y233716D01*
X621993Y233784D01*
X622068Y233849D01*
X622146Y233911D01*
X622226Y233969D01*
X622309Y234025D01*
X622393Y234077D01*
X622480Y234127D01*
X622568Y234172D01*
X622658Y234215D01*
X622750Y234254D01*
X622842Y234289D01*
X622937Y234321D01*
X623032Y234349D01*
X623128Y234374D01*
X623226Y234395D01*
X623324Y234412D01*
X623422Y234425D01*
X623521Y234434D01*
X623621Y234440D01*
X623720Y234442D01*
X626317Y234442D01*
X631232Y234442D02*
X631232Y222758D01*
X631232Y227302D02*
X637723Y234442D01*
X633829Y229898D02*
X637723Y222758D01*
X610108Y209042D02*
X610108Y197358D01*
X614003Y202551D02*
X610108Y209042D01*
X614003Y202551D02*
X617897Y209042D01*
X617897Y197358D01*
X624290Y197358D02*
X624290Y209042D01*
X622991Y197358D02*
X625588Y197358D01*
X625588Y209042D02*
X622991Y209042D01*
X633702Y197358D02*
X633801Y197360D01*
X633901Y197366D01*
X634000Y197375D01*
X634098Y197388D01*
X634196Y197405D01*
X634294Y197426D01*
X634390Y197451D01*
X634485Y197479D01*
X634579Y197511D01*
X634672Y197546D01*
X634764Y197585D01*
X634854Y197628D01*
X634942Y197673D01*
X635029Y197723D01*
X635113Y197775D01*
X635196Y197831D01*
X635276Y197889D01*
X635354Y197951D01*
X635429Y198016D01*
X635502Y198084D01*
X635572Y198154D01*
X635640Y198227D01*
X635705Y198302D01*
X635767Y198380D01*
X635825Y198460D01*
X635881Y198543D01*
X635933Y198627D01*
X635983Y198714D01*
X636028Y198802D01*
X636071Y198892D01*
X636110Y198984D01*
X636145Y199077D01*
X636177Y199171D01*
X636205Y199266D01*
X636230Y199362D01*
X636251Y199460D01*
X636268Y199558D01*
X636281Y199656D01*
X636290Y199755D01*
X636296Y199855D01*
X636298Y199954D01*
X633702Y197358D02*
X633558Y197360D01*
X633413Y197366D01*
X633269Y197375D01*
X633126Y197388D01*
X632982Y197405D01*
X632839Y197426D01*
X632697Y197451D01*
X632556Y197479D01*
X632415Y197511D01*
X632275Y197547D01*
X632136Y197586D01*
X631998Y197629D01*
X631862Y197676D01*
X631726Y197726D01*
X631592Y197780D01*
X631460Y197837D01*
X631329Y197898D01*
X631200Y197962D01*
X631072Y198030D01*
X630946Y198100D01*
X630822Y198175D01*
X630701Y198252D01*
X630581Y198333D01*
X630463Y198416D01*
X630348Y198503D01*
X630235Y198593D01*
X630124Y198686D01*
X630016Y198781D01*
X629910Y198880D01*
X629807Y198981D01*
X630132Y206446D02*
X630134Y206545D01*
X630140Y206645D01*
X630149Y206744D01*
X630162Y206842D01*
X630179Y206940D01*
X630200Y207038D01*
X630225Y207134D01*
X630253Y207229D01*
X630285Y207323D01*
X630320Y207416D01*
X630359Y207508D01*
X630402Y207598D01*
X630447Y207686D01*
X630497Y207773D01*
X630549Y207857D01*
X630605Y207940D01*
X630663Y208020D01*
X630725Y208098D01*
X630790Y208173D01*
X630858Y208246D01*
X630928Y208316D01*
X631001Y208384D01*
X631076Y208449D01*
X631154Y208511D01*
X631234Y208569D01*
X631317Y208625D01*
X631401Y208677D01*
X631488Y208727D01*
X631576Y208772D01*
X631666Y208815D01*
X631758Y208854D01*
X631851Y208889D01*
X631945Y208921D01*
X632040Y208949D01*
X632137Y208974D01*
X632234Y208995D01*
X632332Y209012D01*
X632430Y209025D01*
X632529Y209034D01*
X632629Y209040D01*
X632728Y209042D01*
X632864Y209040D01*
X633000Y209034D01*
X633136Y209025D01*
X633272Y209012D01*
X633407Y208994D01*
X633541Y208974D01*
X633675Y208949D01*
X633809Y208921D01*
X633941Y208888D01*
X634072Y208853D01*
X634203Y208813D01*
X634332Y208770D01*
X634460Y208724D01*
X634586Y208673D01*
X634712Y208620D01*
X634835Y208562D01*
X634957Y208502D01*
X635077Y208438D01*
X635196Y208370D01*
X635312Y208300D01*
X635426Y208226D01*
X635539Y208149D01*
X635649Y208068D01*
X631430Y204174D02*
X631344Y204227D01*
X631260Y204284D01*
X631178Y204343D01*
X631098Y204406D01*
X631021Y204472D01*
X630946Y204540D01*
X630874Y204612D01*
X630805Y204686D01*
X630739Y204763D01*
X630676Y204842D01*
X630616Y204924D01*
X630559Y205008D01*
X630505Y205094D01*
X630455Y205182D01*
X630408Y205272D01*
X630364Y205363D01*
X630325Y205457D01*
X630288Y205551D01*
X630256Y205647D01*
X630227Y205745D01*
X630202Y205843D01*
X630181Y205942D01*
X630163Y206042D01*
X630150Y206142D01*
X630140Y206243D01*
X630134Y206345D01*
X630132Y206446D01*
X635000Y202226D02*
X635086Y202173D01*
X635170Y202116D01*
X635252Y202057D01*
X635332Y201994D01*
X635409Y201928D01*
X635484Y201860D01*
X635556Y201788D01*
X635625Y201714D01*
X635691Y201637D01*
X635754Y201558D01*
X635814Y201476D01*
X635871Y201392D01*
X635925Y201306D01*
X635975Y201218D01*
X636022Y201128D01*
X636066Y201037D01*
X636105Y200943D01*
X636142Y200849D01*
X636174Y200753D01*
X636203Y200655D01*
X636228Y200557D01*
X636249Y200458D01*
X636267Y200358D01*
X636280Y200258D01*
X636290Y200157D01*
X636296Y200055D01*
X636298Y199954D01*
X635000Y202226D02*
X631430Y204174D01*
X640856Y205796D02*
X640856Y200604D01*
X640856Y205796D02*
X640858Y205909D01*
X640864Y206022D01*
X640874Y206135D01*
X640888Y206248D01*
X640905Y206360D01*
X640927Y206471D01*
X640952Y206581D01*
X640982Y206691D01*
X641015Y206799D01*
X641052Y206906D01*
X641092Y207012D01*
X641137Y207116D01*
X641185Y207219D01*
X641236Y207320D01*
X641291Y207419D01*
X641349Y207516D01*
X641411Y207611D01*
X641476Y207704D01*
X641544Y207794D01*
X641615Y207882D01*
X641690Y207968D01*
X641767Y208051D01*
X641847Y208131D01*
X641930Y208208D01*
X642016Y208283D01*
X642104Y208354D01*
X642194Y208422D01*
X642287Y208487D01*
X642382Y208549D01*
X642479Y208607D01*
X642578Y208662D01*
X642679Y208713D01*
X642782Y208761D01*
X642886Y208806D01*
X642992Y208846D01*
X643099Y208883D01*
X643207Y208916D01*
X643317Y208946D01*
X643427Y208971D01*
X643538Y208993D01*
X643650Y209010D01*
X643763Y209024D01*
X643876Y209034D01*
X643989Y209040D01*
X644102Y209042D01*
X644215Y209040D01*
X644328Y209034D01*
X644441Y209024D01*
X644554Y209010D01*
X644666Y208993D01*
X644777Y208971D01*
X644887Y208946D01*
X644997Y208916D01*
X645105Y208883D01*
X645212Y208846D01*
X645318Y208806D01*
X645422Y208761D01*
X645525Y208713D01*
X645626Y208662D01*
X645725Y208607D01*
X645822Y208549D01*
X645917Y208487D01*
X646010Y208422D01*
X646100Y208354D01*
X646188Y208283D01*
X646274Y208208D01*
X646357Y208131D01*
X646437Y208051D01*
X646514Y207968D01*
X646589Y207882D01*
X646660Y207794D01*
X646728Y207704D01*
X646793Y207611D01*
X646855Y207516D01*
X646913Y207419D01*
X646968Y207320D01*
X647019Y207219D01*
X647067Y207116D01*
X647112Y207012D01*
X647152Y206906D01*
X647189Y206799D01*
X647222Y206691D01*
X647252Y206581D01*
X647277Y206471D01*
X647299Y206360D01*
X647316Y206248D01*
X647330Y206135D01*
X647340Y206022D01*
X647346Y205909D01*
X647348Y205796D01*
X647347Y205796D02*
X647347Y200604D01*
X647348Y200604D02*
X647346Y200491D01*
X647340Y200378D01*
X647330Y200265D01*
X647316Y200152D01*
X647299Y200040D01*
X647277Y199929D01*
X647252Y199819D01*
X647222Y199709D01*
X647189Y199601D01*
X647152Y199494D01*
X647112Y199388D01*
X647067Y199284D01*
X647019Y199181D01*
X646968Y199080D01*
X646913Y198981D01*
X646855Y198884D01*
X646793Y198789D01*
X646728Y198696D01*
X646660Y198606D01*
X646589Y198518D01*
X646514Y198432D01*
X646437Y198349D01*
X646357Y198269D01*
X646274Y198192D01*
X646188Y198117D01*
X646100Y198046D01*
X646010Y197978D01*
X645917Y197913D01*
X645822Y197851D01*
X645725Y197793D01*
X645626Y197738D01*
X645525Y197687D01*
X645422Y197639D01*
X645318Y197594D01*
X645212Y197554D01*
X645105Y197517D01*
X644997Y197484D01*
X644887Y197454D01*
X644777Y197429D01*
X644666Y197407D01*
X644554Y197390D01*
X644441Y197376D01*
X644328Y197366D01*
X644215Y197360D01*
X644102Y197358D01*
X643989Y197360D01*
X643876Y197366D01*
X643763Y197376D01*
X643650Y197390D01*
X643538Y197407D01*
X643427Y197429D01*
X643317Y197454D01*
X643207Y197484D01*
X643099Y197517D01*
X642992Y197554D01*
X642886Y197594D01*
X642782Y197639D01*
X642679Y197687D01*
X642578Y197738D01*
X642479Y197793D01*
X642382Y197851D01*
X642287Y197913D01*
X642194Y197978D01*
X642104Y198046D01*
X642016Y198117D01*
X641930Y198192D01*
X641847Y198269D01*
X641767Y198349D01*
X641690Y198432D01*
X641615Y198518D01*
X641544Y198606D01*
X641476Y198696D01*
X641411Y198789D01*
X641349Y198884D01*
X641291Y198981D01*
X641236Y199080D01*
X641185Y199181D01*
X641137Y199284D01*
X641092Y199388D01*
X641052Y199494D01*
X641015Y199601D01*
X640982Y199709D01*
X640952Y199819D01*
X640927Y199929D01*
X640905Y200040D01*
X640888Y200152D01*
X640874Y200265D01*
X640864Y200378D01*
X640858Y200491D01*
X640856Y200604D01*
X610108Y183642D02*
X610108Y171958D01*
X614003Y177151D02*
X610108Y183642D01*
X614003Y177151D02*
X617897Y183642D01*
X617897Y171958D01*
X623330Y175204D02*
X623330Y180396D01*
X623332Y180509D01*
X623338Y180622D01*
X623348Y180735D01*
X623362Y180848D01*
X623379Y180960D01*
X623401Y181071D01*
X623426Y181181D01*
X623456Y181291D01*
X623489Y181399D01*
X623526Y181506D01*
X623566Y181612D01*
X623611Y181716D01*
X623659Y181819D01*
X623710Y181920D01*
X623765Y182019D01*
X623823Y182116D01*
X623885Y182211D01*
X623950Y182304D01*
X624018Y182394D01*
X624089Y182482D01*
X624164Y182568D01*
X624241Y182651D01*
X624321Y182731D01*
X624404Y182808D01*
X624490Y182883D01*
X624578Y182954D01*
X624668Y183022D01*
X624761Y183087D01*
X624856Y183149D01*
X624953Y183207D01*
X625052Y183262D01*
X625153Y183313D01*
X625256Y183361D01*
X625360Y183406D01*
X625466Y183446D01*
X625573Y183483D01*
X625681Y183516D01*
X625791Y183546D01*
X625901Y183571D01*
X626012Y183593D01*
X626124Y183610D01*
X626237Y183624D01*
X626350Y183634D01*
X626463Y183640D01*
X626576Y183642D01*
X626689Y183640D01*
X626802Y183634D01*
X626915Y183624D01*
X627028Y183610D01*
X627140Y183593D01*
X627251Y183571D01*
X627361Y183546D01*
X627471Y183516D01*
X627579Y183483D01*
X627686Y183446D01*
X627792Y183406D01*
X627896Y183361D01*
X627999Y183313D01*
X628100Y183262D01*
X628199Y183207D01*
X628296Y183149D01*
X628391Y183087D01*
X628484Y183022D01*
X628574Y182954D01*
X628662Y182883D01*
X628748Y182808D01*
X628831Y182731D01*
X628911Y182651D01*
X628988Y182568D01*
X629063Y182482D01*
X629134Y182394D01*
X629202Y182304D01*
X629267Y182211D01*
X629329Y182116D01*
X629387Y182019D01*
X629442Y181920D01*
X629493Y181819D01*
X629541Y181716D01*
X629586Y181612D01*
X629626Y181506D01*
X629663Y181399D01*
X629696Y181291D01*
X629726Y181181D01*
X629751Y181071D01*
X629773Y180960D01*
X629790Y180848D01*
X629804Y180735D01*
X629814Y180622D01*
X629820Y180509D01*
X629822Y180396D01*
X629821Y180396D02*
X629821Y175204D01*
X629822Y175204D02*
X629820Y175091D01*
X629814Y174978D01*
X629804Y174865D01*
X629790Y174752D01*
X629773Y174640D01*
X629751Y174529D01*
X629726Y174419D01*
X629696Y174309D01*
X629663Y174201D01*
X629626Y174094D01*
X629586Y173988D01*
X629541Y173884D01*
X629493Y173781D01*
X629442Y173680D01*
X629387Y173581D01*
X629329Y173484D01*
X629267Y173389D01*
X629202Y173296D01*
X629134Y173206D01*
X629063Y173118D01*
X628988Y173032D01*
X628911Y172949D01*
X628831Y172869D01*
X628748Y172792D01*
X628662Y172717D01*
X628574Y172646D01*
X628484Y172578D01*
X628391Y172513D01*
X628296Y172451D01*
X628199Y172393D01*
X628100Y172338D01*
X627999Y172287D01*
X627896Y172239D01*
X627792Y172194D01*
X627686Y172154D01*
X627579Y172117D01*
X627471Y172084D01*
X627361Y172054D01*
X627251Y172029D01*
X627140Y172007D01*
X627028Y171990D01*
X626915Y171976D01*
X626802Y171966D01*
X626689Y171960D01*
X626576Y171958D01*
X626463Y171960D01*
X626350Y171966D01*
X626237Y171976D01*
X626124Y171990D01*
X626012Y172007D01*
X625901Y172029D01*
X625791Y172054D01*
X625681Y172084D01*
X625573Y172117D01*
X625466Y172154D01*
X625360Y172194D01*
X625256Y172239D01*
X625153Y172287D01*
X625052Y172338D01*
X624953Y172393D01*
X624856Y172451D01*
X624761Y172513D01*
X624668Y172578D01*
X624578Y172646D01*
X624490Y172717D01*
X624404Y172792D01*
X624321Y172869D01*
X624241Y172949D01*
X624164Y173032D01*
X624089Y173118D01*
X624018Y173206D01*
X623950Y173296D01*
X623885Y173389D01*
X623823Y173484D01*
X623765Y173581D01*
X623710Y173680D01*
X623659Y173781D01*
X623611Y173884D01*
X623566Y173988D01*
X623526Y174094D01*
X623489Y174201D01*
X623456Y174309D01*
X623426Y174419D01*
X623401Y174529D01*
X623379Y174640D01*
X623362Y174752D01*
X623348Y174865D01*
X623338Y174978D01*
X623332Y175091D01*
X623330Y175204D01*
X638274Y171958D02*
X638373Y171960D01*
X638473Y171966D01*
X638572Y171975D01*
X638670Y171988D01*
X638768Y172005D01*
X638866Y172026D01*
X638962Y172051D01*
X639057Y172079D01*
X639151Y172111D01*
X639244Y172146D01*
X639336Y172185D01*
X639426Y172228D01*
X639514Y172273D01*
X639601Y172323D01*
X639685Y172375D01*
X639768Y172431D01*
X639848Y172489D01*
X639926Y172551D01*
X640001Y172616D01*
X640074Y172684D01*
X640144Y172754D01*
X640212Y172827D01*
X640277Y172902D01*
X640339Y172980D01*
X640397Y173060D01*
X640453Y173143D01*
X640505Y173227D01*
X640555Y173314D01*
X640600Y173402D01*
X640643Y173492D01*
X640682Y173584D01*
X640717Y173677D01*
X640749Y173771D01*
X640777Y173866D01*
X640802Y173962D01*
X640823Y174060D01*
X640840Y174158D01*
X640853Y174256D01*
X640862Y174355D01*
X640868Y174455D01*
X640870Y174554D01*
X638274Y171958D02*
X638130Y171960D01*
X637985Y171966D01*
X637841Y171975D01*
X637698Y171988D01*
X637554Y172005D01*
X637411Y172026D01*
X637269Y172051D01*
X637128Y172079D01*
X636987Y172111D01*
X636847Y172147D01*
X636708Y172186D01*
X636570Y172229D01*
X636434Y172276D01*
X636298Y172326D01*
X636164Y172380D01*
X636032Y172437D01*
X635901Y172498D01*
X635772Y172562D01*
X635644Y172630D01*
X635518Y172700D01*
X635394Y172775D01*
X635273Y172852D01*
X635153Y172933D01*
X635035Y173016D01*
X634920Y173103D01*
X634807Y173193D01*
X634696Y173286D01*
X634588Y173381D01*
X634482Y173480D01*
X634379Y173581D01*
X634704Y181046D02*
X634706Y181145D01*
X634712Y181245D01*
X634721Y181344D01*
X634734Y181442D01*
X634751Y181540D01*
X634772Y181638D01*
X634797Y181734D01*
X634825Y181829D01*
X634857Y181923D01*
X634892Y182016D01*
X634931Y182108D01*
X634974Y182198D01*
X635019Y182286D01*
X635069Y182373D01*
X635121Y182457D01*
X635177Y182540D01*
X635235Y182620D01*
X635297Y182698D01*
X635362Y182773D01*
X635430Y182846D01*
X635500Y182916D01*
X635573Y182984D01*
X635648Y183049D01*
X635726Y183111D01*
X635806Y183169D01*
X635889Y183225D01*
X635973Y183277D01*
X636060Y183327D01*
X636148Y183372D01*
X636238Y183415D01*
X636330Y183454D01*
X636423Y183489D01*
X636517Y183521D01*
X636612Y183549D01*
X636709Y183574D01*
X636806Y183595D01*
X636904Y183612D01*
X637002Y183625D01*
X637101Y183634D01*
X637201Y183640D01*
X637300Y183642D01*
X637436Y183640D01*
X637572Y183634D01*
X637708Y183625D01*
X637844Y183612D01*
X637979Y183594D01*
X638113Y183574D01*
X638247Y183549D01*
X638381Y183521D01*
X638513Y183488D01*
X638644Y183453D01*
X638775Y183413D01*
X638904Y183370D01*
X639032Y183324D01*
X639158Y183273D01*
X639284Y183220D01*
X639407Y183162D01*
X639529Y183102D01*
X639649Y183038D01*
X639768Y182970D01*
X639884Y182900D01*
X639998Y182826D01*
X640111Y182749D01*
X640221Y182668D01*
X636002Y178774D02*
X635916Y178827D01*
X635832Y178884D01*
X635750Y178943D01*
X635670Y179006D01*
X635593Y179072D01*
X635518Y179140D01*
X635446Y179212D01*
X635377Y179286D01*
X635311Y179363D01*
X635248Y179442D01*
X635188Y179524D01*
X635131Y179608D01*
X635077Y179694D01*
X635027Y179782D01*
X634980Y179872D01*
X634936Y179963D01*
X634897Y180057D01*
X634860Y180151D01*
X634828Y180247D01*
X634799Y180345D01*
X634774Y180443D01*
X634753Y180542D01*
X634735Y180642D01*
X634722Y180742D01*
X634712Y180843D01*
X634706Y180945D01*
X634704Y181046D01*
X639572Y176826D02*
X639658Y176773D01*
X639742Y176716D01*
X639824Y176657D01*
X639904Y176594D01*
X639981Y176528D01*
X640056Y176460D01*
X640128Y176388D01*
X640197Y176314D01*
X640263Y176237D01*
X640326Y176158D01*
X640386Y176076D01*
X640443Y175992D01*
X640497Y175906D01*
X640547Y175818D01*
X640594Y175728D01*
X640638Y175637D01*
X640677Y175543D01*
X640714Y175449D01*
X640746Y175353D01*
X640775Y175255D01*
X640800Y175157D01*
X640821Y175058D01*
X640839Y174958D01*
X640852Y174858D01*
X640862Y174757D01*
X640868Y174655D01*
X640870Y174554D01*
X639572Y176826D02*
X636002Y178774D01*
X646388Y183642D02*
X646388Y171958D01*
X647686Y171958D02*
X645089Y171958D01*
X645089Y183642D02*
X647686Y183642D01*
X617897Y151102D02*
X610108Y151102D01*
X614003Y154996D02*
X614003Y147207D01*
X622949Y146558D02*
X626195Y146558D01*
X626308Y146560D01*
X626421Y146566D01*
X626534Y146576D01*
X626647Y146590D01*
X626759Y146607D01*
X626870Y146629D01*
X626980Y146654D01*
X627090Y146684D01*
X627198Y146717D01*
X627305Y146754D01*
X627411Y146794D01*
X627515Y146839D01*
X627618Y146887D01*
X627719Y146938D01*
X627818Y146993D01*
X627915Y147051D01*
X628010Y147113D01*
X628103Y147178D01*
X628193Y147246D01*
X628281Y147317D01*
X628367Y147392D01*
X628450Y147469D01*
X628530Y147549D01*
X628607Y147632D01*
X628682Y147718D01*
X628753Y147806D01*
X628821Y147896D01*
X628886Y147989D01*
X628948Y148084D01*
X629006Y148181D01*
X629061Y148280D01*
X629112Y148381D01*
X629160Y148484D01*
X629205Y148588D01*
X629245Y148694D01*
X629282Y148801D01*
X629315Y148909D01*
X629345Y149019D01*
X629370Y149129D01*
X629392Y149240D01*
X629409Y149352D01*
X629423Y149465D01*
X629433Y149578D01*
X629439Y149691D01*
X629441Y149804D01*
X629439Y149917D01*
X629433Y150030D01*
X629423Y150143D01*
X629409Y150256D01*
X629392Y150368D01*
X629370Y150479D01*
X629345Y150589D01*
X629315Y150699D01*
X629282Y150807D01*
X629245Y150914D01*
X629205Y151020D01*
X629160Y151124D01*
X629112Y151227D01*
X629061Y151328D01*
X629006Y151427D01*
X628948Y151524D01*
X628886Y151619D01*
X628821Y151712D01*
X628753Y151802D01*
X628682Y151890D01*
X628607Y151976D01*
X628530Y152059D01*
X628450Y152139D01*
X628367Y152216D01*
X628281Y152291D01*
X628193Y152362D01*
X628103Y152430D01*
X628010Y152495D01*
X627915Y152557D01*
X627818Y152615D01*
X627719Y152670D01*
X627618Y152721D01*
X627515Y152769D01*
X627411Y152814D01*
X627305Y152854D01*
X627198Y152891D01*
X627090Y152924D01*
X626980Y152954D01*
X626870Y152979D01*
X626759Y153001D01*
X626647Y153018D01*
X626534Y153032D01*
X626421Y153042D01*
X626308Y153048D01*
X626195Y153050D01*
X626844Y158242D02*
X622949Y158242D01*
X626844Y158242D02*
X626945Y158240D01*
X627045Y158234D01*
X627145Y158224D01*
X627245Y158211D01*
X627344Y158193D01*
X627443Y158172D01*
X627540Y158147D01*
X627637Y158118D01*
X627732Y158085D01*
X627826Y158049D01*
X627918Y158009D01*
X628009Y157966D01*
X628098Y157919D01*
X628185Y157869D01*
X628271Y157815D01*
X628354Y157758D01*
X628434Y157698D01*
X628513Y157635D01*
X628589Y157568D01*
X628662Y157499D01*
X628732Y157427D01*
X628800Y157353D01*
X628865Y157276D01*
X628926Y157196D01*
X628985Y157114D01*
X629040Y157030D01*
X629092Y156944D01*
X629141Y156856D01*
X629186Y156766D01*
X629228Y156674D01*
X629266Y156581D01*
X629300Y156486D01*
X629331Y156391D01*
X629358Y156294D01*
X629381Y156196D01*
X629401Y156097D01*
X629416Y155997D01*
X629428Y155897D01*
X629436Y155797D01*
X629440Y155696D01*
X629440Y155596D01*
X629436Y155495D01*
X629428Y155395D01*
X629416Y155295D01*
X629401Y155195D01*
X629381Y155096D01*
X629358Y154998D01*
X629331Y154901D01*
X629300Y154806D01*
X629266Y154711D01*
X629228Y154618D01*
X629186Y154526D01*
X629141Y154436D01*
X629092Y154348D01*
X629040Y154262D01*
X628985Y154178D01*
X628926Y154096D01*
X628865Y154016D01*
X628800Y153939D01*
X628732Y153865D01*
X628662Y153793D01*
X628589Y153724D01*
X628513Y153657D01*
X628434Y153594D01*
X628354Y153534D01*
X628271Y153477D01*
X628185Y153423D01*
X628098Y153373D01*
X628009Y153326D01*
X627918Y153283D01*
X627826Y153243D01*
X627732Y153207D01*
X627637Y153174D01*
X627540Y153145D01*
X627443Y153120D01*
X627344Y153099D01*
X627245Y153081D01*
X627145Y153068D01*
X627045Y153058D01*
X626945Y153052D01*
X626844Y153050D01*
X626844Y153049D02*
X624247Y153049D01*
X633730Y158242D02*
X637625Y146558D01*
X641519Y158242D01*
X645809Y146558D02*
X649055Y146558D01*
X649168Y146560D01*
X649281Y146566D01*
X649394Y146576D01*
X649507Y146590D01*
X649619Y146607D01*
X649730Y146629D01*
X649840Y146654D01*
X649950Y146684D01*
X650058Y146717D01*
X650165Y146754D01*
X650271Y146794D01*
X650375Y146839D01*
X650478Y146887D01*
X650579Y146938D01*
X650678Y146993D01*
X650775Y147051D01*
X650870Y147113D01*
X650963Y147178D01*
X651053Y147246D01*
X651141Y147317D01*
X651227Y147392D01*
X651310Y147469D01*
X651390Y147549D01*
X651467Y147632D01*
X651542Y147718D01*
X651613Y147806D01*
X651681Y147896D01*
X651746Y147989D01*
X651808Y148084D01*
X651866Y148181D01*
X651921Y148280D01*
X651972Y148381D01*
X652020Y148484D01*
X652065Y148588D01*
X652105Y148694D01*
X652142Y148801D01*
X652175Y148909D01*
X652205Y149019D01*
X652230Y149129D01*
X652252Y149240D01*
X652269Y149352D01*
X652283Y149465D01*
X652293Y149578D01*
X652299Y149691D01*
X652301Y149804D01*
X652299Y149917D01*
X652293Y150030D01*
X652283Y150143D01*
X652269Y150256D01*
X652252Y150368D01*
X652230Y150479D01*
X652205Y150589D01*
X652175Y150699D01*
X652142Y150807D01*
X652105Y150914D01*
X652065Y151020D01*
X652020Y151124D01*
X651972Y151227D01*
X651921Y151328D01*
X651866Y151427D01*
X651808Y151524D01*
X651746Y151619D01*
X651681Y151712D01*
X651613Y151802D01*
X651542Y151890D01*
X651467Y151976D01*
X651390Y152059D01*
X651310Y152139D01*
X651227Y152216D01*
X651141Y152291D01*
X651053Y152362D01*
X650963Y152430D01*
X650870Y152495D01*
X650775Y152557D01*
X650678Y152615D01*
X650579Y152670D01*
X650478Y152721D01*
X650375Y152769D01*
X650271Y152814D01*
X650165Y152854D01*
X650058Y152891D01*
X649950Y152924D01*
X649840Y152954D01*
X649730Y152979D01*
X649619Y153001D01*
X649507Y153018D01*
X649394Y153032D01*
X649281Y153042D01*
X649168Y153048D01*
X649055Y153050D01*
X649704Y158242D02*
X645809Y158242D01*
X649704Y158242D02*
X649805Y158240D01*
X649905Y158234D01*
X650005Y158224D01*
X650105Y158211D01*
X650204Y158193D01*
X650303Y158172D01*
X650400Y158147D01*
X650497Y158118D01*
X650592Y158085D01*
X650686Y158049D01*
X650778Y158009D01*
X650869Y157966D01*
X650958Y157919D01*
X651045Y157869D01*
X651131Y157815D01*
X651214Y157758D01*
X651294Y157698D01*
X651373Y157635D01*
X651449Y157568D01*
X651522Y157499D01*
X651592Y157427D01*
X651660Y157353D01*
X651725Y157276D01*
X651786Y157196D01*
X651845Y157114D01*
X651900Y157030D01*
X651952Y156944D01*
X652001Y156856D01*
X652046Y156766D01*
X652088Y156674D01*
X652126Y156581D01*
X652160Y156486D01*
X652191Y156391D01*
X652218Y156294D01*
X652241Y156196D01*
X652261Y156097D01*
X652276Y155997D01*
X652288Y155897D01*
X652296Y155797D01*
X652300Y155696D01*
X652300Y155596D01*
X652296Y155495D01*
X652288Y155395D01*
X652276Y155295D01*
X652261Y155195D01*
X652241Y155096D01*
X652218Y154998D01*
X652191Y154901D01*
X652160Y154806D01*
X652126Y154711D01*
X652088Y154618D01*
X652046Y154526D01*
X652001Y154436D01*
X651952Y154348D01*
X651900Y154262D01*
X651845Y154178D01*
X651786Y154096D01*
X651725Y154016D01*
X651660Y153939D01*
X651592Y153865D01*
X651522Y153793D01*
X651449Y153724D01*
X651373Y153657D01*
X651294Y153594D01*
X651214Y153534D01*
X651131Y153477D01*
X651045Y153423D01*
X650958Y153373D01*
X650869Y153326D01*
X650778Y153283D01*
X650686Y153243D01*
X650592Y153207D01*
X650497Y153174D01*
X650400Y153145D01*
X650303Y153120D01*
X650204Y153099D01*
X650105Y153081D01*
X650005Y153068D01*
X649905Y153058D01*
X649805Y153052D01*
X649704Y153050D01*
X649704Y153049D02*
X647107Y153049D01*
X616599Y127649D02*
X614652Y127649D01*
X616599Y127649D02*
X616599Y121158D01*
X612704Y121158D01*
X612605Y121160D01*
X612505Y121166D01*
X612406Y121175D01*
X612308Y121188D01*
X612210Y121205D01*
X612112Y121226D01*
X612016Y121251D01*
X611921Y121279D01*
X611827Y121311D01*
X611734Y121346D01*
X611642Y121385D01*
X611552Y121428D01*
X611464Y121473D01*
X611377Y121523D01*
X611293Y121575D01*
X611210Y121631D01*
X611130Y121689D01*
X611052Y121751D01*
X610977Y121816D01*
X610904Y121884D01*
X610834Y121954D01*
X610766Y122027D01*
X610701Y122102D01*
X610639Y122180D01*
X610581Y122260D01*
X610525Y122343D01*
X610473Y122427D01*
X610423Y122514D01*
X610378Y122602D01*
X610335Y122692D01*
X610296Y122784D01*
X610261Y122877D01*
X610229Y122971D01*
X610201Y123066D01*
X610176Y123162D01*
X610155Y123260D01*
X610138Y123358D01*
X610125Y123456D01*
X610116Y123555D01*
X610110Y123655D01*
X610108Y123754D01*
X610108Y130246D01*
X610110Y130345D01*
X610116Y130445D01*
X610125Y130544D01*
X610138Y130642D01*
X610155Y130740D01*
X610176Y130838D01*
X610201Y130934D01*
X610229Y131029D01*
X610261Y131123D01*
X610296Y131216D01*
X610335Y131308D01*
X610378Y131398D01*
X610423Y131486D01*
X610473Y131573D01*
X610525Y131657D01*
X610581Y131740D01*
X610639Y131820D01*
X610701Y131898D01*
X610766Y131973D01*
X610834Y132046D01*
X610904Y132116D01*
X610977Y132184D01*
X611052Y132249D01*
X611130Y132311D01*
X611210Y132369D01*
X611293Y132425D01*
X611377Y132477D01*
X611464Y132527D01*
X611552Y132572D01*
X611642Y132615D01*
X611734Y132654D01*
X611826Y132689D01*
X611921Y132721D01*
X612016Y132749D01*
X612112Y132774D01*
X612210Y132795D01*
X612308Y132812D01*
X612406Y132825D01*
X612505Y132834D01*
X612605Y132840D01*
X612704Y132842D01*
X616599Y132842D01*
X622300Y132842D02*
X622300Y121158D01*
X628791Y121158D02*
X622300Y132842D01*
X628791Y132842D02*
X628791Y121158D01*
X634492Y121158D02*
X634492Y132842D01*
X637737Y132842D01*
X637850Y132840D01*
X637963Y132834D01*
X638076Y132824D01*
X638189Y132810D01*
X638301Y132793D01*
X638412Y132771D01*
X638522Y132746D01*
X638632Y132716D01*
X638740Y132683D01*
X638847Y132646D01*
X638953Y132606D01*
X639057Y132561D01*
X639160Y132513D01*
X639261Y132462D01*
X639360Y132407D01*
X639457Y132349D01*
X639552Y132287D01*
X639645Y132222D01*
X639735Y132154D01*
X639823Y132083D01*
X639909Y132008D01*
X639992Y131931D01*
X640072Y131851D01*
X640149Y131768D01*
X640224Y131682D01*
X640295Y131594D01*
X640363Y131504D01*
X640428Y131411D01*
X640490Y131316D01*
X640548Y131219D01*
X640603Y131120D01*
X640654Y131019D01*
X640702Y130916D01*
X640747Y130812D01*
X640787Y130706D01*
X640824Y130599D01*
X640857Y130491D01*
X640887Y130381D01*
X640912Y130271D01*
X640934Y130160D01*
X640951Y130048D01*
X640965Y129935D01*
X640975Y129822D01*
X640981Y129709D01*
X640983Y129596D01*
X640983Y124404D01*
X640984Y124404D02*
X640982Y124291D01*
X640976Y124178D01*
X640966Y124065D01*
X640952Y123952D01*
X640935Y123840D01*
X640913Y123729D01*
X640888Y123619D01*
X640858Y123509D01*
X640825Y123401D01*
X640788Y123294D01*
X640748Y123188D01*
X640703Y123084D01*
X640655Y122981D01*
X640604Y122880D01*
X640549Y122781D01*
X640491Y122684D01*
X640429Y122589D01*
X640364Y122496D01*
X640296Y122406D01*
X640225Y122318D01*
X640150Y122232D01*
X640073Y122149D01*
X639993Y122069D01*
X639910Y121992D01*
X639824Y121917D01*
X639736Y121846D01*
X639646Y121778D01*
X639553Y121713D01*
X639458Y121651D01*
X639361Y121593D01*
X639262Y121538D01*
X639161Y121487D01*
X639058Y121439D01*
X638954Y121394D01*
X638848Y121354D01*
X638741Y121317D01*
X638633Y121284D01*
X638523Y121254D01*
X638413Y121229D01*
X638302Y121207D01*
X638190Y121190D01*
X638077Y121176D01*
X637964Y121166D01*
X637851Y121160D01*
X637738Y121158D01*
X637737Y121158D02*
X634492Y121158D01*
X758670Y127649D02*
X760617Y127649D01*
X760617Y121158D01*
X756722Y121158D01*
X756623Y121160D01*
X756523Y121166D01*
X756424Y121175D01*
X756326Y121188D01*
X756228Y121205D01*
X756130Y121226D01*
X756034Y121251D01*
X755939Y121279D01*
X755845Y121311D01*
X755752Y121346D01*
X755660Y121385D01*
X755570Y121428D01*
X755482Y121473D01*
X755395Y121523D01*
X755311Y121575D01*
X755228Y121631D01*
X755148Y121689D01*
X755070Y121751D01*
X754995Y121816D01*
X754922Y121884D01*
X754852Y121954D01*
X754784Y122027D01*
X754719Y122102D01*
X754657Y122180D01*
X754599Y122260D01*
X754543Y122343D01*
X754491Y122427D01*
X754441Y122514D01*
X754396Y122602D01*
X754353Y122692D01*
X754314Y122784D01*
X754279Y122877D01*
X754247Y122971D01*
X754219Y123066D01*
X754194Y123162D01*
X754173Y123260D01*
X754156Y123358D01*
X754143Y123456D01*
X754134Y123555D01*
X754128Y123655D01*
X754126Y123754D01*
X754126Y130246D01*
X754128Y130345D01*
X754134Y130445D01*
X754143Y130544D01*
X754156Y130642D01*
X754173Y130740D01*
X754194Y130838D01*
X754219Y130934D01*
X754247Y131029D01*
X754279Y131123D01*
X754314Y131216D01*
X754353Y131308D01*
X754396Y131398D01*
X754441Y131486D01*
X754491Y131573D01*
X754543Y131657D01*
X754599Y131740D01*
X754657Y131820D01*
X754719Y131898D01*
X754784Y131973D01*
X754852Y132046D01*
X754922Y132116D01*
X754995Y132184D01*
X755070Y132249D01*
X755148Y132311D01*
X755228Y132369D01*
X755311Y132425D01*
X755395Y132477D01*
X755482Y132527D01*
X755570Y132572D01*
X755660Y132615D01*
X755752Y132654D01*
X755844Y132689D01*
X755939Y132721D01*
X756034Y132749D01*
X756130Y132774D01*
X756228Y132795D01*
X756326Y132812D01*
X756424Y132825D01*
X756523Y132834D01*
X756623Y132840D01*
X756722Y132842D01*
X760617Y132842D01*
X766318Y132842D02*
X766318Y121158D01*
X772809Y121158D02*
X766318Y132842D01*
X772809Y132842D02*
X772809Y121158D01*
X778510Y121158D02*
X778510Y132842D01*
X781755Y132842D01*
X781868Y132840D01*
X781981Y132834D01*
X782094Y132824D01*
X782207Y132810D01*
X782319Y132793D01*
X782430Y132771D01*
X782540Y132746D01*
X782650Y132716D01*
X782758Y132683D01*
X782865Y132646D01*
X782971Y132606D01*
X783075Y132561D01*
X783178Y132513D01*
X783279Y132462D01*
X783378Y132407D01*
X783475Y132349D01*
X783570Y132287D01*
X783663Y132222D01*
X783753Y132154D01*
X783841Y132083D01*
X783927Y132008D01*
X784010Y131931D01*
X784090Y131851D01*
X784167Y131768D01*
X784242Y131682D01*
X784313Y131594D01*
X784381Y131504D01*
X784446Y131411D01*
X784508Y131316D01*
X784566Y131219D01*
X784621Y131120D01*
X784672Y131019D01*
X784720Y130916D01*
X784765Y130812D01*
X784805Y130706D01*
X784842Y130599D01*
X784875Y130491D01*
X784905Y130381D01*
X784930Y130271D01*
X784952Y130160D01*
X784969Y130048D01*
X784983Y129935D01*
X784993Y129822D01*
X784999Y129709D01*
X785001Y129596D01*
X785001Y124404D01*
X785002Y124404D02*
X785000Y124291D01*
X784994Y124178D01*
X784984Y124065D01*
X784970Y123952D01*
X784953Y123840D01*
X784931Y123729D01*
X784906Y123619D01*
X784876Y123509D01*
X784843Y123401D01*
X784806Y123294D01*
X784766Y123188D01*
X784721Y123084D01*
X784673Y122981D01*
X784622Y122880D01*
X784567Y122781D01*
X784509Y122684D01*
X784447Y122589D01*
X784382Y122496D01*
X784314Y122406D01*
X784243Y122318D01*
X784168Y122232D01*
X784091Y122149D01*
X784011Y122069D01*
X783928Y121992D01*
X783842Y121917D01*
X783754Y121846D01*
X783664Y121778D01*
X783571Y121713D01*
X783476Y121651D01*
X783379Y121593D01*
X783280Y121538D01*
X783179Y121487D01*
X783076Y121439D01*
X782972Y121394D01*
X782866Y121354D01*
X782759Y121317D01*
X782651Y121284D01*
X782541Y121254D01*
X782431Y121229D01*
X782320Y121207D01*
X782208Y121190D01*
X782095Y121176D01*
X781982Y121166D01*
X781869Y121160D01*
X781756Y121158D01*
X781755Y121158D02*
X778510Y121158D01*
X763693Y151102D02*
X755904Y151102D01*
X759799Y154996D02*
X759799Y147207D01*
X768745Y146558D02*
X772640Y146558D01*
X772739Y146560D01*
X772839Y146566D01*
X772938Y146575D01*
X773036Y146588D01*
X773134Y146605D01*
X773232Y146626D01*
X773328Y146651D01*
X773423Y146679D01*
X773517Y146711D01*
X773610Y146746D01*
X773702Y146785D01*
X773792Y146828D01*
X773880Y146873D01*
X773967Y146923D01*
X774051Y146975D01*
X774134Y147031D01*
X774214Y147089D01*
X774292Y147151D01*
X774367Y147216D01*
X774440Y147284D01*
X774510Y147354D01*
X774578Y147427D01*
X774643Y147502D01*
X774705Y147580D01*
X774763Y147660D01*
X774819Y147743D01*
X774871Y147827D01*
X774921Y147914D01*
X774966Y148002D01*
X775009Y148092D01*
X775048Y148184D01*
X775083Y148277D01*
X775115Y148371D01*
X775143Y148466D01*
X775168Y148562D01*
X775189Y148660D01*
X775206Y148758D01*
X775219Y148856D01*
X775228Y148955D01*
X775234Y149055D01*
X775236Y149154D01*
X775236Y150453D01*
X775234Y150552D01*
X775228Y150652D01*
X775219Y150751D01*
X775206Y150849D01*
X775189Y150947D01*
X775168Y151045D01*
X775143Y151141D01*
X775115Y151236D01*
X775083Y151330D01*
X775048Y151423D01*
X775009Y151515D01*
X774966Y151605D01*
X774921Y151693D01*
X774871Y151780D01*
X774819Y151864D01*
X774763Y151947D01*
X774705Y152027D01*
X774643Y152105D01*
X774578Y152180D01*
X774510Y152253D01*
X774440Y152323D01*
X774367Y152391D01*
X774292Y152456D01*
X774214Y152518D01*
X774134Y152576D01*
X774051Y152632D01*
X773967Y152684D01*
X773880Y152734D01*
X773792Y152779D01*
X773702Y152822D01*
X773610Y152861D01*
X773517Y152896D01*
X773423Y152928D01*
X773328Y152956D01*
X773232Y152981D01*
X773134Y153002D01*
X773036Y153019D01*
X772938Y153032D01*
X772839Y153041D01*
X772739Y153047D01*
X772640Y153049D01*
X768745Y153049D01*
X768745Y158242D01*
X775236Y158242D01*
X779526Y158242D02*
X783421Y146558D01*
X787315Y158242D01*
X763157Y174554D02*
X763155Y174455D01*
X763149Y174355D01*
X763140Y174256D01*
X763127Y174158D01*
X763110Y174060D01*
X763089Y173962D01*
X763064Y173866D01*
X763036Y173771D01*
X763004Y173677D01*
X762969Y173584D01*
X762930Y173492D01*
X762887Y173402D01*
X762842Y173314D01*
X762792Y173227D01*
X762740Y173143D01*
X762684Y173060D01*
X762626Y172980D01*
X762564Y172902D01*
X762499Y172827D01*
X762431Y172754D01*
X762361Y172684D01*
X762288Y172616D01*
X762213Y172551D01*
X762135Y172489D01*
X762055Y172431D01*
X761972Y172375D01*
X761888Y172323D01*
X761801Y172273D01*
X761713Y172228D01*
X761623Y172185D01*
X761531Y172146D01*
X761438Y172111D01*
X761344Y172079D01*
X761249Y172051D01*
X761153Y172026D01*
X761055Y172005D01*
X760957Y171988D01*
X760859Y171975D01*
X760760Y171966D01*
X760660Y171960D01*
X760561Y171958D01*
X760417Y171960D01*
X760272Y171966D01*
X760128Y171975D01*
X759985Y171988D01*
X759841Y172005D01*
X759698Y172026D01*
X759556Y172051D01*
X759415Y172079D01*
X759274Y172111D01*
X759134Y172147D01*
X758995Y172186D01*
X758857Y172229D01*
X758721Y172276D01*
X758585Y172326D01*
X758451Y172380D01*
X758319Y172437D01*
X758188Y172498D01*
X758059Y172562D01*
X757931Y172630D01*
X757805Y172700D01*
X757681Y172775D01*
X757560Y172852D01*
X757440Y172933D01*
X757322Y173016D01*
X757207Y173103D01*
X757094Y173193D01*
X756983Y173286D01*
X756875Y173381D01*
X756769Y173480D01*
X756666Y173581D01*
X756991Y181046D02*
X756993Y181145D01*
X756999Y181245D01*
X757008Y181344D01*
X757021Y181442D01*
X757038Y181540D01*
X757059Y181638D01*
X757084Y181734D01*
X757112Y181829D01*
X757144Y181923D01*
X757179Y182016D01*
X757218Y182108D01*
X757261Y182198D01*
X757306Y182286D01*
X757356Y182373D01*
X757408Y182457D01*
X757464Y182540D01*
X757522Y182620D01*
X757584Y182698D01*
X757649Y182773D01*
X757717Y182846D01*
X757787Y182916D01*
X757860Y182984D01*
X757935Y183049D01*
X758013Y183111D01*
X758093Y183169D01*
X758176Y183225D01*
X758260Y183277D01*
X758347Y183327D01*
X758435Y183372D01*
X758525Y183415D01*
X758617Y183454D01*
X758710Y183489D01*
X758804Y183521D01*
X758899Y183549D01*
X758996Y183574D01*
X759093Y183595D01*
X759191Y183612D01*
X759289Y183625D01*
X759388Y183634D01*
X759488Y183640D01*
X759587Y183642D01*
X759723Y183640D01*
X759859Y183634D01*
X759995Y183625D01*
X760131Y183612D01*
X760266Y183594D01*
X760400Y183574D01*
X760534Y183549D01*
X760668Y183521D01*
X760800Y183488D01*
X760931Y183453D01*
X761062Y183413D01*
X761191Y183370D01*
X761319Y183324D01*
X761445Y183273D01*
X761571Y183220D01*
X761694Y183162D01*
X761816Y183102D01*
X761936Y183038D01*
X762055Y182970D01*
X762171Y182900D01*
X762285Y182826D01*
X762398Y182749D01*
X762508Y182668D01*
X758289Y178774D02*
X758203Y178827D01*
X758119Y178884D01*
X758037Y178943D01*
X757957Y179006D01*
X757880Y179072D01*
X757805Y179140D01*
X757733Y179212D01*
X757664Y179286D01*
X757598Y179363D01*
X757535Y179442D01*
X757475Y179524D01*
X757418Y179608D01*
X757364Y179694D01*
X757314Y179782D01*
X757267Y179872D01*
X757223Y179963D01*
X757184Y180057D01*
X757147Y180151D01*
X757115Y180247D01*
X757086Y180345D01*
X757061Y180443D01*
X757040Y180542D01*
X757022Y180642D01*
X757009Y180742D01*
X756999Y180843D01*
X756993Y180945D01*
X756991Y181046D01*
X761859Y176826D02*
X761945Y176773D01*
X762029Y176716D01*
X762111Y176657D01*
X762191Y176594D01*
X762268Y176528D01*
X762343Y176460D01*
X762415Y176388D01*
X762484Y176314D01*
X762550Y176237D01*
X762613Y176158D01*
X762673Y176076D01*
X762730Y175992D01*
X762784Y175906D01*
X762834Y175818D01*
X762881Y175728D01*
X762925Y175637D01*
X762964Y175543D01*
X763001Y175449D01*
X763033Y175353D01*
X763062Y175255D01*
X763087Y175157D01*
X763108Y175058D01*
X763126Y174958D01*
X763139Y174858D01*
X763149Y174757D01*
X763155Y174655D01*
X763157Y174554D01*
X761859Y176826D02*
X758289Y178774D01*
X768096Y183642D02*
X768096Y171958D01*
X768096Y183642D02*
X771342Y183642D01*
X771455Y183640D01*
X771568Y183634D01*
X771681Y183624D01*
X771794Y183610D01*
X771906Y183593D01*
X772017Y183571D01*
X772127Y183546D01*
X772237Y183516D01*
X772345Y183483D01*
X772452Y183446D01*
X772558Y183406D01*
X772662Y183361D01*
X772765Y183313D01*
X772866Y183262D01*
X772965Y183207D01*
X773062Y183149D01*
X773157Y183087D01*
X773250Y183022D01*
X773340Y182954D01*
X773428Y182883D01*
X773514Y182808D01*
X773597Y182731D01*
X773677Y182651D01*
X773754Y182568D01*
X773829Y182482D01*
X773900Y182394D01*
X773968Y182304D01*
X774033Y182211D01*
X774095Y182116D01*
X774153Y182019D01*
X774208Y181920D01*
X774259Y181819D01*
X774307Y181716D01*
X774352Y181612D01*
X774392Y181506D01*
X774429Y181399D01*
X774462Y181291D01*
X774492Y181181D01*
X774517Y181071D01*
X774539Y180960D01*
X774556Y180848D01*
X774570Y180735D01*
X774580Y180622D01*
X774586Y180509D01*
X774588Y180396D01*
X774587Y180396D02*
X774587Y175204D01*
X774588Y175204D02*
X774586Y175091D01*
X774580Y174978D01*
X774570Y174865D01*
X774556Y174752D01*
X774539Y174640D01*
X774517Y174529D01*
X774492Y174419D01*
X774462Y174309D01*
X774429Y174201D01*
X774392Y174094D01*
X774352Y173988D01*
X774307Y173884D01*
X774259Y173781D01*
X774208Y173680D01*
X774153Y173581D01*
X774095Y173484D01*
X774033Y173389D01*
X773968Y173296D01*
X773900Y173206D01*
X773829Y173118D01*
X773754Y173032D01*
X773677Y172949D01*
X773597Y172869D01*
X773514Y172792D01*
X773428Y172717D01*
X773340Y172646D01*
X773250Y172578D01*
X773157Y172513D01*
X773062Y172451D01*
X772965Y172393D01*
X772866Y172338D01*
X772765Y172287D01*
X772662Y172239D01*
X772558Y172194D01*
X772452Y172154D01*
X772345Y172117D01*
X772237Y172084D01*
X772127Y172054D01*
X772017Y172029D01*
X771906Y172007D01*
X771794Y171990D01*
X771681Y171976D01*
X771568Y171966D01*
X771455Y171960D01*
X771342Y171958D01*
X768096Y171958D01*
X779258Y171958D02*
X783153Y183642D01*
X787047Y171958D01*
X786074Y174879D02*
X780232Y174879D01*
X763863Y197358D02*
X763962Y197360D01*
X764062Y197366D01*
X764161Y197375D01*
X764259Y197388D01*
X764357Y197405D01*
X764455Y197426D01*
X764551Y197451D01*
X764646Y197479D01*
X764740Y197511D01*
X764833Y197546D01*
X764925Y197585D01*
X765015Y197628D01*
X765103Y197673D01*
X765190Y197723D01*
X765274Y197775D01*
X765357Y197831D01*
X765437Y197889D01*
X765515Y197951D01*
X765590Y198016D01*
X765663Y198084D01*
X765733Y198154D01*
X765801Y198227D01*
X765866Y198302D01*
X765928Y198380D01*
X765986Y198460D01*
X766042Y198543D01*
X766094Y198627D01*
X766144Y198714D01*
X766189Y198802D01*
X766232Y198892D01*
X766271Y198984D01*
X766306Y199077D01*
X766338Y199171D01*
X766366Y199266D01*
X766391Y199362D01*
X766412Y199460D01*
X766429Y199558D01*
X766442Y199656D01*
X766451Y199755D01*
X766457Y199855D01*
X766459Y199954D01*
X763863Y197358D02*
X763719Y197360D01*
X763574Y197366D01*
X763430Y197375D01*
X763287Y197388D01*
X763143Y197405D01*
X763000Y197426D01*
X762858Y197451D01*
X762717Y197479D01*
X762576Y197511D01*
X762436Y197547D01*
X762297Y197586D01*
X762159Y197629D01*
X762023Y197676D01*
X761887Y197726D01*
X761753Y197780D01*
X761621Y197837D01*
X761490Y197898D01*
X761361Y197962D01*
X761233Y198030D01*
X761107Y198100D01*
X760983Y198175D01*
X760862Y198252D01*
X760742Y198333D01*
X760624Y198416D01*
X760509Y198503D01*
X760396Y198593D01*
X760285Y198686D01*
X760177Y198781D01*
X760071Y198880D01*
X759968Y198981D01*
X760293Y206446D02*
X760295Y206545D01*
X760301Y206645D01*
X760310Y206744D01*
X760323Y206842D01*
X760340Y206940D01*
X760361Y207038D01*
X760386Y207134D01*
X760414Y207229D01*
X760446Y207323D01*
X760481Y207416D01*
X760520Y207508D01*
X760563Y207598D01*
X760608Y207686D01*
X760658Y207773D01*
X760710Y207857D01*
X760766Y207940D01*
X760824Y208020D01*
X760886Y208098D01*
X760951Y208173D01*
X761019Y208246D01*
X761089Y208316D01*
X761162Y208384D01*
X761237Y208449D01*
X761315Y208511D01*
X761395Y208569D01*
X761478Y208625D01*
X761562Y208677D01*
X761649Y208727D01*
X761737Y208772D01*
X761827Y208815D01*
X761919Y208854D01*
X762012Y208889D01*
X762106Y208921D01*
X762201Y208949D01*
X762298Y208974D01*
X762395Y208995D01*
X762493Y209012D01*
X762591Y209025D01*
X762690Y209034D01*
X762790Y209040D01*
X762889Y209042D01*
X763025Y209040D01*
X763161Y209034D01*
X763297Y209025D01*
X763433Y209012D01*
X763568Y208994D01*
X763702Y208974D01*
X763836Y208949D01*
X763970Y208921D01*
X764102Y208888D01*
X764233Y208853D01*
X764364Y208813D01*
X764493Y208770D01*
X764621Y208724D01*
X764747Y208673D01*
X764873Y208620D01*
X764996Y208562D01*
X765118Y208502D01*
X765238Y208438D01*
X765357Y208370D01*
X765473Y208300D01*
X765587Y208226D01*
X765700Y208149D01*
X765810Y208068D01*
X761591Y204174D02*
X761505Y204227D01*
X761421Y204284D01*
X761339Y204343D01*
X761259Y204406D01*
X761182Y204472D01*
X761107Y204540D01*
X761035Y204612D01*
X760966Y204686D01*
X760900Y204763D01*
X760837Y204842D01*
X760777Y204924D01*
X760720Y205008D01*
X760666Y205094D01*
X760616Y205182D01*
X760569Y205272D01*
X760525Y205363D01*
X760486Y205457D01*
X760449Y205551D01*
X760417Y205647D01*
X760388Y205745D01*
X760363Y205843D01*
X760342Y205942D01*
X760324Y206042D01*
X760311Y206142D01*
X760301Y206243D01*
X760295Y206345D01*
X760293Y206446D01*
X765161Y202226D02*
X765247Y202173D01*
X765331Y202116D01*
X765413Y202057D01*
X765493Y201994D01*
X765570Y201928D01*
X765645Y201860D01*
X765717Y201788D01*
X765786Y201714D01*
X765852Y201637D01*
X765915Y201558D01*
X765975Y201476D01*
X766032Y201392D01*
X766086Y201306D01*
X766136Y201218D01*
X766183Y201128D01*
X766227Y201037D01*
X766266Y200943D01*
X766303Y200849D01*
X766335Y200753D01*
X766364Y200655D01*
X766389Y200557D01*
X766410Y200458D01*
X766428Y200358D01*
X766441Y200258D01*
X766451Y200157D01*
X766457Y200055D01*
X766459Y199954D01*
X765161Y202226D02*
X761591Y204174D01*
X773580Y197358D02*
X776177Y197358D01*
X773580Y197358D02*
X773481Y197360D01*
X773381Y197366D01*
X773282Y197375D01*
X773184Y197388D01*
X773086Y197405D01*
X772988Y197426D01*
X772892Y197451D01*
X772797Y197479D01*
X772703Y197511D01*
X772610Y197546D01*
X772518Y197585D01*
X772428Y197628D01*
X772340Y197673D01*
X772253Y197723D01*
X772169Y197775D01*
X772086Y197831D01*
X772006Y197889D01*
X771928Y197951D01*
X771853Y198016D01*
X771780Y198084D01*
X771710Y198154D01*
X771642Y198227D01*
X771577Y198302D01*
X771515Y198380D01*
X771457Y198460D01*
X771401Y198543D01*
X771349Y198627D01*
X771299Y198714D01*
X771254Y198802D01*
X771211Y198892D01*
X771172Y198984D01*
X771137Y199077D01*
X771105Y199171D01*
X771077Y199266D01*
X771052Y199362D01*
X771031Y199460D01*
X771014Y199558D01*
X771001Y199656D01*
X770992Y199755D01*
X770986Y199855D01*
X770984Y199954D01*
X770984Y206446D01*
X770986Y206545D01*
X770992Y206645D01*
X771001Y206744D01*
X771014Y206842D01*
X771031Y206940D01*
X771052Y207038D01*
X771077Y207134D01*
X771105Y207229D01*
X771137Y207323D01*
X771172Y207416D01*
X771211Y207508D01*
X771254Y207598D01*
X771299Y207686D01*
X771349Y207773D01*
X771401Y207857D01*
X771457Y207940D01*
X771515Y208020D01*
X771577Y208098D01*
X771642Y208173D01*
X771710Y208246D01*
X771780Y208316D01*
X771853Y208384D01*
X771928Y208449D01*
X772006Y208511D01*
X772086Y208569D01*
X772169Y208625D01*
X772253Y208677D01*
X772340Y208727D01*
X772428Y208772D01*
X772518Y208815D01*
X772610Y208854D01*
X772702Y208889D01*
X772797Y208921D01*
X772892Y208949D01*
X772988Y208974D01*
X773086Y208995D01*
X773184Y209012D01*
X773282Y209025D01*
X773381Y209034D01*
X773481Y209040D01*
X773580Y209042D01*
X776177Y209042D01*
X780946Y209042D02*
X780946Y197358D01*
X786138Y197358D01*
X772104Y222758D02*
X772104Y234442D01*
X775349Y234442D02*
X768858Y234442D01*
X778877Y222758D02*
X786666Y234442D01*
X778877Y234442D02*
X786666Y222758D01*
X768350Y248158D02*
X768350Y259842D01*
X771596Y259842D01*
X771709Y259840D01*
X771822Y259834D01*
X771935Y259824D01*
X772048Y259810D01*
X772160Y259793D01*
X772271Y259771D01*
X772381Y259746D01*
X772491Y259716D01*
X772599Y259683D01*
X772706Y259646D01*
X772812Y259606D01*
X772916Y259561D01*
X773019Y259513D01*
X773120Y259462D01*
X773219Y259407D01*
X773316Y259349D01*
X773411Y259287D01*
X773504Y259222D01*
X773594Y259154D01*
X773682Y259083D01*
X773768Y259008D01*
X773851Y258931D01*
X773931Y258851D01*
X774008Y258768D01*
X774083Y258682D01*
X774154Y258594D01*
X774222Y258504D01*
X774287Y258411D01*
X774349Y258316D01*
X774407Y258219D01*
X774462Y258120D01*
X774513Y258019D01*
X774561Y257916D01*
X774606Y257812D01*
X774646Y257706D01*
X774683Y257599D01*
X774716Y257491D01*
X774746Y257381D01*
X774771Y257271D01*
X774793Y257160D01*
X774810Y257048D01*
X774824Y256935D01*
X774834Y256822D01*
X774840Y256709D01*
X774842Y256596D01*
X774840Y256483D01*
X774834Y256370D01*
X774824Y256257D01*
X774810Y256144D01*
X774793Y256032D01*
X774771Y255921D01*
X774746Y255811D01*
X774716Y255701D01*
X774683Y255593D01*
X774646Y255486D01*
X774606Y255380D01*
X774561Y255276D01*
X774513Y255173D01*
X774462Y255072D01*
X774407Y254973D01*
X774349Y254876D01*
X774287Y254781D01*
X774222Y254688D01*
X774154Y254598D01*
X774083Y254510D01*
X774008Y254424D01*
X773931Y254341D01*
X773851Y254261D01*
X773768Y254184D01*
X773682Y254109D01*
X773594Y254038D01*
X773504Y253970D01*
X773411Y253905D01*
X773316Y253843D01*
X773219Y253785D01*
X773120Y253730D01*
X773019Y253679D01*
X772916Y253631D01*
X772812Y253586D01*
X772706Y253546D01*
X772599Y253509D01*
X772491Y253476D01*
X772381Y253446D01*
X772271Y253421D01*
X772160Y253399D01*
X772048Y253382D01*
X771935Y253368D01*
X771822Y253358D01*
X771709Y253352D01*
X771596Y253350D01*
X771596Y253351D02*
X768350Y253351D01*
X772245Y253351D02*
X774841Y248158D01*
X779057Y248158D02*
X786847Y259842D01*
X779057Y259842D02*
X786847Y248158D01*
X762028Y273558D02*
X762028Y285242D01*
X760730Y273558D02*
X763326Y273558D01*
X763326Y285242D02*
X760730Y285242D01*
X768308Y285242D02*
X768308Y273558D01*
X774799Y273558D02*
X768308Y285242D01*
X774799Y285242D02*
X774799Y273558D01*
X782602Y273558D02*
X782602Y285242D01*
X779357Y285242D02*
X785848Y285242D01*
X751332Y297688D02*
X751332Y309372D01*
X754578Y309372D01*
X754691Y309370D01*
X754804Y309364D01*
X754917Y309354D01*
X755030Y309340D01*
X755142Y309323D01*
X755253Y309301D01*
X755363Y309276D01*
X755473Y309246D01*
X755581Y309213D01*
X755688Y309176D01*
X755794Y309136D01*
X755898Y309091D01*
X756001Y309043D01*
X756102Y308992D01*
X756201Y308937D01*
X756298Y308879D01*
X756393Y308817D01*
X756486Y308752D01*
X756576Y308684D01*
X756664Y308613D01*
X756750Y308538D01*
X756833Y308461D01*
X756913Y308381D01*
X756990Y308298D01*
X757065Y308212D01*
X757136Y308124D01*
X757204Y308034D01*
X757269Y307941D01*
X757331Y307846D01*
X757389Y307749D01*
X757444Y307650D01*
X757495Y307549D01*
X757543Y307446D01*
X757588Y307342D01*
X757628Y307236D01*
X757665Y307129D01*
X757698Y307021D01*
X757728Y306911D01*
X757753Y306801D01*
X757775Y306690D01*
X757792Y306578D01*
X757806Y306465D01*
X757816Y306352D01*
X757822Y306239D01*
X757824Y306126D01*
X757822Y306013D01*
X757816Y305900D01*
X757806Y305787D01*
X757792Y305674D01*
X757775Y305562D01*
X757753Y305451D01*
X757728Y305341D01*
X757698Y305231D01*
X757665Y305123D01*
X757628Y305016D01*
X757588Y304910D01*
X757543Y304806D01*
X757495Y304703D01*
X757444Y304602D01*
X757389Y304503D01*
X757331Y304406D01*
X757269Y304311D01*
X757204Y304218D01*
X757136Y304128D01*
X757065Y304040D01*
X756990Y303954D01*
X756913Y303871D01*
X756833Y303791D01*
X756750Y303714D01*
X756664Y303639D01*
X756576Y303568D01*
X756486Y303500D01*
X756393Y303435D01*
X756298Y303373D01*
X756201Y303315D01*
X756102Y303260D01*
X756001Y303209D01*
X755898Y303161D01*
X755794Y303116D01*
X755688Y303076D01*
X755581Y303039D01*
X755473Y303006D01*
X755363Y302976D01*
X755253Y302951D01*
X755142Y302929D01*
X755030Y302912D01*
X754917Y302898D01*
X754804Y302888D01*
X754691Y302882D01*
X754578Y302880D01*
X754578Y302881D02*
X751332Y302881D01*
X761788Y309372D02*
X764385Y297688D01*
X766981Y305477D01*
X769578Y297688D01*
X772174Y309372D01*
X777184Y309372D02*
X777184Y297688D01*
X781078Y302881D02*
X777184Y309372D01*
X781078Y302881D02*
X784973Y309372D01*
X784973Y297688D01*
D16*
X697916Y113919D02*
X688264Y113919D01*
X688264Y121158D01*
X688266Y121255D01*
X688272Y121352D01*
X688282Y121449D01*
X688295Y121545D01*
X688313Y121641D01*
X688334Y121735D01*
X688359Y121829D01*
X688388Y121922D01*
X688421Y122014D01*
X688457Y122104D01*
X688497Y122192D01*
X688540Y122279D01*
X688587Y122365D01*
X688638Y122448D01*
X688691Y122529D01*
X688748Y122608D01*
X688808Y122684D01*
X688871Y122758D01*
X688937Y122830D01*
X689005Y122898D01*
X689077Y122964D01*
X689151Y123027D01*
X689227Y123087D01*
X689306Y123144D01*
X689387Y123197D01*
X689471Y123248D01*
X689556Y123295D01*
X689643Y123338D01*
X689731Y123378D01*
X689821Y123414D01*
X689913Y123447D01*
X690006Y123476D01*
X690100Y123501D01*
X690194Y123522D01*
X690290Y123540D01*
X690386Y123553D01*
X690483Y123563D01*
X690580Y123569D01*
X690677Y123571D01*
X697916Y123571D01*
X697916Y118745D02*
X688264Y118745D01*
X688264Y130638D02*
X697916Y130638D01*
X684242Y130235D02*
X683438Y130235D01*
X683438Y131040D01*
X684242Y131040D01*
X684242Y130235D01*
X683438Y137557D02*
X697916Y137557D01*
X693090Y137557D02*
X688264Y143991D01*
X691079Y140372D02*
X697916Y143991D01*
X697916Y150327D02*
X688264Y150327D01*
X688264Y155153D01*
X689873Y155153D01*
X691481Y160125D02*
X694699Y160125D01*
X691481Y160125D02*
X691369Y160127D01*
X691257Y160133D01*
X691145Y160143D01*
X691033Y160156D01*
X690922Y160174D01*
X690812Y160195D01*
X690703Y160221D01*
X690594Y160250D01*
X690487Y160282D01*
X690381Y160319D01*
X690276Y160359D01*
X690173Y160403D01*
X690071Y160451D01*
X689971Y160502D01*
X689873Y160556D01*
X689776Y160614D01*
X689682Y160675D01*
X689590Y160739D01*
X689500Y160807D01*
X689413Y160878D01*
X689328Y160951D01*
X689246Y161028D01*
X689167Y161107D01*
X689090Y161189D01*
X689017Y161274D01*
X688946Y161361D01*
X688878Y161451D01*
X688814Y161543D01*
X688753Y161637D01*
X688695Y161734D01*
X688641Y161832D01*
X688590Y161932D01*
X688542Y162034D01*
X688498Y162137D01*
X688458Y162242D01*
X688421Y162348D01*
X688389Y162455D01*
X688360Y162564D01*
X688334Y162673D01*
X688313Y162783D01*
X688295Y162894D01*
X688282Y163006D01*
X688272Y163118D01*
X688266Y163230D01*
X688264Y163342D01*
X688266Y163454D01*
X688272Y163566D01*
X688282Y163678D01*
X688295Y163790D01*
X688313Y163901D01*
X688334Y164011D01*
X688360Y164120D01*
X688389Y164229D01*
X688421Y164336D01*
X688458Y164442D01*
X688498Y164547D01*
X688542Y164650D01*
X688590Y164752D01*
X688641Y164852D01*
X688695Y164951D01*
X688753Y165047D01*
X688814Y165141D01*
X688878Y165233D01*
X688946Y165323D01*
X689017Y165410D01*
X689090Y165495D01*
X689167Y165577D01*
X689246Y165656D01*
X689328Y165733D01*
X689413Y165806D01*
X689500Y165877D01*
X689590Y165945D01*
X689682Y166009D01*
X689776Y166070D01*
X689873Y166128D01*
X689971Y166182D01*
X690071Y166233D01*
X690173Y166281D01*
X690276Y166325D01*
X690381Y166365D01*
X690487Y166402D01*
X690594Y166434D01*
X690703Y166463D01*
X690812Y166489D01*
X690922Y166510D01*
X691033Y166528D01*
X691145Y166541D01*
X691257Y166551D01*
X691369Y166557D01*
X691481Y166559D01*
X691481Y166560D02*
X694699Y166560D01*
X694699Y166559D02*
X694811Y166557D01*
X694923Y166551D01*
X695035Y166541D01*
X695147Y166528D01*
X695258Y166510D01*
X695368Y166489D01*
X695477Y166463D01*
X695586Y166434D01*
X695693Y166402D01*
X695799Y166365D01*
X695904Y166325D01*
X696007Y166281D01*
X696109Y166233D01*
X696209Y166182D01*
X696308Y166128D01*
X696404Y166070D01*
X696498Y166009D01*
X696590Y165945D01*
X696680Y165877D01*
X696767Y165806D01*
X696852Y165733D01*
X696934Y165656D01*
X697013Y165577D01*
X697090Y165495D01*
X697163Y165410D01*
X697234Y165323D01*
X697302Y165233D01*
X697366Y165141D01*
X697427Y165047D01*
X697485Y164950D01*
X697539Y164852D01*
X697590Y164752D01*
X697638Y164650D01*
X697682Y164547D01*
X697722Y164442D01*
X697759Y164336D01*
X697791Y164229D01*
X697820Y164120D01*
X697846Y164011D01*
X697867Y163901D01*
X697885Y163790D01*
X697898Y163678D01*
X697908Y163566D01*
X697914Y163454D01*
X697916Y163342D01*
X697914Y163230D01*
X697908Y163118D01*
X697898Y163006D01*
X697885Y162894D01*
X697867Y162783D01*
X697846Y162673D01*
X697820Y162564D01*
X697791Y162455D01*
X697759Y162348D01*
X697722Y162242D01*
X697682Y162137D01*
X697638Y162034D01*
X697590Y161932D01*
X697539Y161832D01*
X697485Y161733D01*
X697427Y161637D01*
X697366Y161543D01*
X697302Y161451D01*
X697234Y161361D01*
X697163Y161274D01*
X697090Y161189D01*
X697013Y161107D01*
X696934Y161028D01*
X696852Y160951D01*
X696767Y160878D01*
X696680Y160807D01*
X696590Y160739D01*
X696498Y160675D01*
X696404Y160614D01*
X696308Y160556D01*
X696209Y160502D01*
X696109Y160451D01*
X696007Y160403D01*
X695904Y160359D01*
X695799Y160319D01*
X695693Y160282D01*
X695586Y160250D01*
X695477Y160221D01*
X695368Y160195D01*
X695258Y160174D01*
X695147Y160156D01*
X695035Y160143D01*
X694923Y160133D01*
X694811Y160127D01*
X694699Y160125D01*
X711666Y117941D02*
X711666Y113919D01*
X711665Y117941D02*
X711667Y118066D01*
X711673Y118191D01*
X711682Y118316D01*
X711696Y118440D01*
X711714Y118564D01*
X711735Y118687D01*
X711760Y118810D01*
X711789Y118932D01*
X711822Y119052D01*
X711858Y119172D01*
X711898Y119290D01*
X711942Y119408D01*
X711989Y119523D01*
X712040Y119638D01*
X712095Y119750D01*
X712153Y119861D01*
X712214Y119970D01*
X712279Y120077D01*
X712347Y120182D01*
X712418Y120285D01*
X712493Y120385D01*
X712571Y120483D01*
X712651Y120579D01*
X712735Y120672D01*
X712821Y120763D01*
X712910Y120851D01*
X713002Y120936D01*
X713096Y121018D01*
X713193Y121097D01*
X713293Y121173D01*
X713394Y121246D01*
X713498Y121315D01*
X713604Y121382D01*
X713712Y121445D01*
X713822Y121505D01*
X713934Y121561D01*
X714047Y121614D01*
X714162Y121663D01*
X714279Y121708D01*
X714397Y121750D01*
X714516Y121789D01*
X714636Y121823D01*
X714757Y121854D01*
X714879Y121881D01*
X715002Y121904D01*
X715126Y121924D01*
X715250Y121939D01*
X715375Y121951D01*
X715499Y121959D01*
X715624Y121963D01*
X715750Y121963D01*
X715875Y121959D01*
X715999Y121951D01*
X716124Y121939D01*
X716248Y121924D01*
X716372Y121904D01*
X716495Y121881D01*
X716617Y121854D01*
X716738Y121823D01*
X716858Y121789D01*
X716977Y121750D01*
X717095Y121708D01*
X717212Y121663D01*
X717327Y121614D01*
X717440Y121561D01*
X717552Y121505D01*
X717662Y121445D01*
X717770Y121382D01*
X717876Y121315D01*
X717980Y121246D01*
X718081Y121173D01*
X718181Y121097D01*
X718278Y121018D01*
X718372Y120936D01*
X718464Y120851D01*
X718553Y120763D01*
X718639Y120672D01*
X718723Y120579D01*
X718803Y120483D01*
X718881Y120385D01*
X718956Y120285D01*
X719027Y120182D01*
X719095Y120077D01*
X719160Y119970D01*
X719221Y119861D01*
X719279Y119750D01*
X719334Y119638D01*
X719385Y119523D01*
X719432Y119408D01*
X719476Y119290D01*
X719516Y119172D01*
X719552Y119052D01*
X719585Y118932D01*
X719614Y118810D01*
X719639Y118687D01*
X719660Y118564D01*
X719678Y118440D01*
X719692Y118316D01*
X719701Y118191D01*
X719707Y118066D01*
X719709Y117941D01*
X719709Y113919D01*
X705231Y113919D01*
X705231Y117941D01*
X705233Y118053D01*
X705239Y118165D01*
X705249Y118277D01*
X705262Y118389D01*
X705280Y118500D01*
X705301Y118610D01*
X705327Y118719D01*
X705356Y118828D01*
X705388Y118935D01*
X705425Y119041D01*
X705465Y119146D01*
X705509Y119249D01*
X705557Y119351D01*
X705608Y119451D01*
X705662Y119549D01*
X705720Y119646D01*
X705781Y119740D01*
X705845Y119832D01*
X705913Y119922D01*
X705984Y120009D01*
X706057Y120094D01*
X706134Y120176D01*
X706213Y120255D01*
X706295Y120332D01*
X706380Y120405D01*
X706467Y120476D01*
X706557Y120544D01*
X706649Y120608D01*
X706743Y120669D01*
X706840Y120727D01*
X706938Y120781D01*
X707038Y120832D01*
X707140Y120880D01*
X707243Y120924D01*
X707348Y120964D01*
X707454Y121001D01*
X707561Y121033D01*
X707670Y121062D01*
X707779Y121088D01*
X707889Y121109D01*
X708000Y121127D01*
X708112Y121140D01*
X708224Y121150D01*
X708336Y121156D01*
X708448Y121158D01*
X708560Y121156D01*
X708672Y121150D01*
X708784Y121140D01*
X708896Y121127D01*
X709007Y121109D01*
X709117Y121088D01*
X709226Y121062D01*
X709335Y121033D01*
X709442Y121001D01*
X709548Y120964D01*
X709653Y120924D01*
X709756Y120880D01*
X709858Y120832D01*
X709958Y120781D01*
X710057Y120727D01*
X710153Y120669D01*
X710247Y120608D01*
X710339Y120544D01*
X710429Y120476D01*
X710516Y120405D01*
X710601Y120332D01*
X710683Y120255D01*
X710762Y120176D01*
X710839Y120094D01*
X710912Y120009D01*
X710983Y119922D01*
X711051Y119832D01*
X711115Y119740D01*
X711176Y119646D01*
X711234Y119550D01*
X711288Y119451D01*
X711339Y119351D01*
X711387Y119249D01*
X711431Y119146D01*
X711471Y119041D01*
X711508Y118935D01*
X711540Y118828D01*
X711569Y118719D01*
X711595Y118610D01*
X711616Y118500D01*
X711634Y118389D01*
X711647Y118277D01*
X711657Y118165D01*
X711663Y118053D01*
X711665Y117941D01*
X715687Y128503D02*
X705231Y128503D01*
X715687Y128502D02*
X715812Y128504D01*
X715937Y128510D01*
X716062Y128519D01*
X716186Y128533D01*
X716310Y128551D01*
X716433Y128572D01*
X716556Y128597D01*
X716678Y128626D01*
X716798Y128659D01*
X716918Y128695D01*
X717036Y128735D01*
X717154Y128779D01*
X717269Y128826D01*
X717384Y128877D01*
X717496Y128932D01*
X717607Y128990D01*
X717716Y129051D01*
X717823Y129116D01*
X717928Y129184D01*
X718031Y129255D01*
X718131Y129330D01*
X718229Y129408D01*
X718325Y129488D01*
X718418Y129572D01*
X718509Y129658D01*
X718597Y129747D01*
X718682Y129839D01*
X718764Y129933D01*
X718843Y130030D01*
X718919Y130130D01*
X718992Y130231D01*
X719061Y130335D01*
X719128Y130441D01*
X719191Y130549D01*
X719251Y130659D01*
X719307Y130771D01*
X719360Y130884D01*
X719409Y130999D01*
X719454Y131116D01*
X719496Y131234D01*
X719535Y131353D01*
X719569Y131473D01*
X719600Y131594D01*
X719627Y131716D01*
X719650Y131839D01*
X719670Y131963D01*
X719685Y132087D01*
X719697Y132212D01*
X719705Y132336D01*
X719709Y132461D01*
X719709Y132587D01*
X719705Y132712D01*
X719697Y132836D01*
X719685Y132961D01*
X719670Y133085D01*
X719650Y133209D01*
X719627Y133332D01*
X719600Y133454D01*
X719569Y133575D01*
X719535Y133695D01*
X719496Y133814D01*
X719454Y133932D01*
X719409Y134049D01*
X719360Y134164D01*
X719307Y134277D01*
X719251Y134389D01*
X719191Y134499D01*
X719128Y134607D01*
X719061Y134713D01*
X718992Y134817D01*
X718919Y134918D01*
X718843Y135018D01*
X718764Y135115D01*
X718682Y135209D01*
X718597Y135301D01*
X718509Y135390D01*
X718418Y135476D01*
X718325Y135560D01*
X718229Y135640D01*
X718131Y135718D01*
X718031Y135793D01*
X717928Y135864D01*
X717823Y135932D01*
X717716Y135997D01*
X717607Y136058D01*
X717496Y136116D01*
X717384Y136171D01*
X717269Y136222D01*
X717154Y136269D01*
X717036Y136313D01*
X716918Y136353D01*
X716798Y136389D01*
X716678Y136422D01*
X716556Y136451D01*
X716433Y136476D01*
X716310Y136497D01*
X716186Y136515D01*
X716062Y136529D01*
X715937Y136538D01*
X715812Y136544D01*
X715687Y136546D01*
X705231Y136546D01*
X719709Y148194D02*
X719707Y148306D01*
X719701Y148418D01*
X719691Y148530D01*
X719678Y148642D01*
X719660Y148753D01*
X719639Y148863D01*
X719613Y148972D01*
X719584Y149081D01*
X719552Y149188D01*
X719515Y149294D01*
X719475Y149399D01*
X719431Y149502D01*
X719383Y149604D01*
X719332Y149704D01*
X719278Y149803D01*
X719220Y149899D01*
X719159Y149993D01*
X719095Y150085D01*
X719027Y150175D01*
X718956Y150262D01*
X718883Y150347D01*
X718806Y150429D01*
X718727Y150508D01*
X718645Y150585D01*
X718560Y150658D01*
X718473Y150729D01*
X718383Y150797D01*
X718291Y150861D01*
X718197Y150922D01*
X718101Y150980D01*
X718002Y151034D01*
X717902Y151085D01*
X717800Y151133D01*
X717697Y151177D01*
X717592Y151217D01*
X717486Y151254D01*
X717379Y151286D01*
X717270Y151315D01*
X717161Y151341D01*
X717051Y151362D01*
X716940Y151380D01*
X716828Y151393D01*
X716716Y151403D01*
X716604Y151409D01*
X716492Y151411D01*
X719709Y148194D02*
X719707Y148031D01*
X719701Y147869D01*
X719691Y147707D01*
X719678Y147544D01*
X719660Y147383D01*
X719639Y147222D01*
X719614Y147061D01*
X719585Y146901D01*
X719552Y146742D01*
X719515Y146583D01*
X719475Y146426D01*
X719431Y146269D01*
X719383Y146114D01*
X719331Y145960D01*
X719276Y145807D01*
X719217Y145655D01*
X719154Y145505D01*
X719088Y145356D01*
X719019Y145209D01*
X718946Y145064D01*
X718869Y144921D01*
X718789Y144779D01*
X718706Y144639D01*
X718619Y144502D01*
X718529Y144366D01*
X718436Y144233D01*
X718339Y144102D01*
X718240Y143973D01*
X718137Y143847D01*
X718032Y143723D01*
X717923Y143602D01*
X717812Y143484D01*
X717698Y143368D01*
X708448Y143771D02*
X708336Y143773D01*
X708224Y143779D01*
X708112Y143789D01*
X708000Y143802D01*
X707889Y143820D01*
X707779Y143841D01*
X707670Y143867D01*
X707561Y143896D01*
X707454Y143928D01*
X707348Y143965D01*
X707243Y144005D01*
X707140Y144049D01*
X707038Y144097D01*
X706938Y144148D01*
X706840Y144202D01*
X706743Y144260D01*
X706649Y144321D01*
X706557Y144385D01*
X706467Y144453D01*
X706380Y144524D01*
X706295Y144597D01*
X706213Y144674D01*
X706134Y144753D01*
X706057Y144835D01*
X705984Y144920D01*
X705913Y145007D01*
X705845Y145097D01*
X705781Y145189D01*
X705720Y145283D01*
X705662Y145380D01*
X705608Y145478D01*
X705557Y145578D01*
X705509Y145680D01*
X705465Y145783D01*
X705425Y145888D01*
X705388Y145994D01*
X705356Y146101D01*
X705327Y146210D01*
X705301Y146319D01*
X705280Y146429D01*
X705262Y146540D01*
X705249Y146652D01*
X705239Y146764D01*
X705233Y146876D01*
X705231Y146988D01*
X705233Y147137D01*
X705238Y147287D01*
X705248Y147436D01*
X705261Y147584D01*
X705277Y147733D01*
X705297Y147881D01*
X705321Y148028D01*
X705349Y148175D01*
X705380Y148321D01*
X705415Y148466D01*
X705453Y148610D01*
X705495Y148754D01*
X705541Y148896D01*
X705590Y149037D01*
X705642Y149177D01*
X705698Y149315D01*
X705757Y149452D01*
X705820Y149588D01*
X705886Y149722D01*
X705955Y149854D01*
X706028Y149984D01*
X706103Y150113D01*
X706182Y150240D01*
X706264Y150365D01*
X706349Y150487D01*
X706438Y150608D01*
X711264Y145379D02*
X711204Y145282D01*
X711142Y145188D01*
X711076Y145096D01*
X711008Y145006D01*
X710936Y144919D01*
X710861Y144834D01*
X710783Y144752D01*
X710703Y144672D01*
X710620Y144596D01*
X710534Y144522D01*
X710445Y144451D01*
X710355Y144384D01*
X710262Y144320D01*
X710167Y144258D01*
X710069Y144201D01*
X709970Y144146D01*
X709869Y144095D01*
X709767Y144048D01*
X709662Y144004D01*
X709557Y143964D01*
X709450Y143927D01*
X709341Y143894D01*
X709232Y143865D01*
X709122Y143840D01*
X709011Y143819D01*
X708899Y143801D01*
X708787Y143788D01*
X708674Y143778D01*
X708561Y143772D01*
X708448Y143770D01*
X713677Y149803D02*
X713736Y149900D01*
X713798Y149994D01*
X713864Y150086D01*
X713932Y150176D01*
X714004Y150263D01*
X714079Y150348D01*
X714157Y150430D01*
X714237Y150510D01*
X714320Y150586D01*
X714406Y150660D01*
X714495Y150731D01*
X714585Y150798D01*
X714678Y150862D01*
X714773Y150924D01*
X714871Y150981D01*
X714970Y151036D01*
X715071Y151087D01*
X715173Y151134D01*
X715278Y151178D01*
X715383Y151218D01*
X715490Y151255D01*
X715599Y151288D01*
X715708Y151317D01*
X715818Y151342D01*
X715929Y151363D01*
X716041Y151381D01*
X716153Y151394D01*
X716266Y151404D01*
X716379Y151410D01*
X716492Y151412D01*
X713677Y149803D02*
X711264Y145379D01*
D11*
X800100Y88900D02*
X825500Y114300D01*
X571500Y88900D02*
X571500Y660400D01*
X825500Y660400D01*
X825500Y114300D01*
M02*
